# Blender v3.0.0 OBJ File: 'Collectible_Board.blend'
# www.blender.org
mtllib Collectible_Board.mtl
o Collectible_Board_Cube.001
v -0.139035 0.049150 0.017279
v -0.041768 0.154260 0.017279
v -0.139035 0.049150 -0.017279
v -0.041768 0.154260 -0.017279
v 0.094361 -0.117205 0.015227
v 0.164504 -0.041406 0.015227
v 0.094361 -0.117205 -0.015227
v 0.164504 -0.041406 -0.015227
v -0.047059 -0.035963 -0.017279
v 0.059527 0.060523 -0.017279
v -0.047059 -0.035963 0.017279
v 0.059527 0.060523 0.017279
v 0.094662 0.028009 -0.017279
v 0.010429 -0.044321 0.017279
v 0.010429 -0.044321 -0.017279
v 0.094662 0.028009 0.017279
v -0.183073 0.008514 0.023390
v -0.022657 0.181865 0.023390
v -0.183073 0.008514 -0.023390
v -0.022657 0.181865 -0.023390
v -0.189467 0.014431 -0.023390
v -0.189467 0.014431 0.023390
v -0.029051 0.187781 0.023390
v -0.029051 0.187781 -0.023390
v -0.126929 0.049697 0.012283
v -0.126929 0.049697 -0.012283
v 0.088719 -0.107726 0.012283
v 0.088719 -0.107726 -0.012283
v -0.040502 -0.030281 -0.012283
v -0.040502 -0.030281 0.012283
v 0.013517 -0.038135 0.012283
v 0.013517 -0.038135 -0.012283
v -0.151944 0.022666 -0.012283
v -0.151944 0.022666 0.012283
v -0.065517 -0.057313 -0.012283
v 0.063704 -0.134757 0.012283
v 0.063704 -0.134757 -0.012283
v -0.011497 -0.065167 0.012283
v -0.011497 -0.065167 -0.012283
v -0.065517 -0.057313 0.012283
v -0.084813 0.107744 0.017279
v -0.084813 0.107744 -0.017279
v 0.124200 -0.084960 -0.015227
v 0.124200 -0.084960 0.015227
v 0.007163 0.022631 0.017279
v 0.007163 0.022631 -0.017279
v 0.042298 -0.009883 0.017279
v 0.042298 -0.009883 -0.017279
v -0.073208 0.120285 0.017279
v -0.073208 0.120285 -0.017279
v 0.135066 -0.073217 -0.015227
v 0.135066 -0.073217 0.015227
v 0.028087 0.026548 0.017279
v 0.028087 0.026548 -0.017279
v 0.063222 -0.005966 0.017279
v 0.063222 -0.005966 -0.017279
v -0.036888 -0.037442 -0.017279
v 0.065743 0.054771 0.017279
v 0.065743 0.054771 -0.017279
v -0.036888 -0.037442 0.017279
v 0.013379 0.016878 -0.017279
v 0.013379 0.016878 0.017279
v 0.034303 0.020796 -0.017279
v 0.034303 0.020796 0.017279
v 0.099790 0.023264 -0.017279
v 0.016233 -0.049692 0.017279
v 0.016233 -0.049692 -0.017279
v 0.099790 0.023264 0.017279
v 0.048102 -0.015253 0.017279
v 0.048102 -0.015253 -0.017279
v 0.068350 -0.010711 0.017279
v 0.068350 -0.010711 -0.017279
v 0.130421 -0.005081 -0.017279
v 0.055507 -0.086035 0.017279
v 0.087376 -0.051597 -0.017279
v 0.098981 -0.039056 -0.017279
v 0.055507 -0.086035 -0.017279
v 0.130421 -0.005081 0.017279
v 0.087376 -0.051597 0.017279
v 0.098981 -0.039056 0.017279
v 0.128908 -0.008465 -0.015227
v 0.058764 -0.084265 0.015227
v 0.088603 -0.052019 -0.015227
v 0.099470 -0.040277 -0.015227
v 0.058764 -0.084265 -0.015227
v 0.128908 -0.008465 0.015227
v 0.088603 -0.052019 0.015227
v 0.099470 -0.040277 0.015227
v -0.180460 0.014799 0.019497
v -0.028720 0.178774 0.019497
v -0.180460 0.014799 -0.019497
v -0.028720 0.178774 -0.019497
v -0.161043 -0.003170 -0.019497
v -0.161043 -0.003170 0.019497
v -0.009303 0.160805 0.019497
v -0.009303 0.160805 -0.019497
v -0.052849 -0.018856 -0.012283
v -0.065196 -0.007430 -0.012283
v -0.077543 0.003995 -0.012283
v -0.089889 0.015421 -0.012283
v -0.102236 0.026846 -0.012283
v -0.114583 0.038272 -0.012283
v -0.114583 0.038272 0.012283
v -0.102236 0.026846 0.012283
v -0.089889 0.015421 0.012283
v -0.077543 0.003995 0.012283
v -0.065196 -0.007430 0.012283
v -0.052849 -0.018856 0.012283
v -0.077864 -0.045887 -0.012283
v -0.090210 -0.034462 -0.012283
v -0.102557 -0.023036 -0.012283
v -0.114904 -0.011611 -0.012283
v -0.127250 -0.000185 -0.012283
v -0.139597 0.011240 -0.012283
v -0.139597 0.011240 0.012283
v -0.127251 -0.000185 0.012283
v -0.114904 -0.011611 0.012283
v -0.102557 -0.023036 0.012283
v -0.090210 -0.034462 0.012283
v -0.077864 -0.045887 0.012283
v -0.004489 -0.035517 -0.012283
v -0.022496 -0.032899 -0.012283
v -0.022496 -0.032899 0.012283
v -0.004489 -0.035517 0.012283
v -0.029504 -0.062549 -0.012283
v -0.047510 -0.059931 -0.012283
v -0.047510 -0.059931 0.012283
v -0.029504 -0.062549 0.012283
v 0.026051 -0.049734 0.012283
v 0.038584 -0.061332 0.012283
v 0.051118 -0.072930 0.012283
v 0.063652 -0.084529 0.012283
v 0.076185 -0.096127 0.012283
v 0.076185 -0.096127 -0.012283
v 0.063652 -0.084529 -0.012283
v 0.051118 -0.072930 -0.012283
v 0.038584 -0.061332 -0.012283
v 0.026051 -0.049734 -0.012283
v 0.001036 -0.076765 0.012283
v 0.013570 -0.088363 0.012283
v 0.026104 -0.099962 0.012283
v 0.038637 -0.111560 0.012283
v 0.051171 -0.123159 0.012283
v 0.051171 -0.123159 -0.012283
v 0.038637 -0.111560 -0.012283
v 0.026104 -0.099962 -0.012283
v 0.013570 -0.088363 -0.012283
v 0.001036 -0.076765 -0.012283
vn -0.0000 0.0000 -1.0000
vn 0.7340 -0.6792 0.0000
vn -0.6792 -0.7340 0.0000
vn 0.0000 -0.0000 1.0000
vn 0.6792 0.7340 0.0000
vn -0.7340 0.6792 0.0000
vn -0.1439 -0.9896 0.0000
vn 0.1439 0.9896 -0.0000
vn 0.6352 -0.5878 0.5010
vn 0.9129 -0.4082 0.0000
vn 0.6352 -0.5878 -0.5010
vn 0.4776 -0.8786 0.0000
usemtl DarkGrey
s off
f 84//1 81//1 8//1 51//1
f 51//2 8//2 6//2 52//2
f 85//3 7//3 5//3 82//3
f 129//4 31//4 38//4 139//4
f 7//2 43//2 44//2 5//2
f 85//1 83//1 43//1 7//1
f 43//2 51//2 52//2 44//2
f 83//1 84//1 51//1 43//1
f 44//4 52//4 88//4 87//4
f 5//4 44//4 87//4 82//4
f 8//5 81//5 86//5 6//5
f 52//4 6//4 86//4 88//4
f 89//6 90//6 92//6 91//6
f 94//2 93//2 96//2 95//2
f 92//5 90//5 95//5 96//5
f 89//3 91//3 93//3 94//3
f 91//1 92//1 96//1 93//1
f 90//4 89//4 94//4 95//4
f 102//1 101//1 113//1 114//1
f 100//1 99//1 111//1 112//1
f 98//1 97//1 109//1 110//1
f 108//4 107//4 119//4 120//4
f 106//4 105//4 117//4 118//4
f 104//4 103//4 115//4 116//4
f 114//3 113//3 116//3 115//3
f 112//3 111//3 118//3 117//3
f 110//3 109//3 120//3 119//3
f 102//5 103//5 104//5 101//5
f 100//5 105//5 106//5 99//5
f 98//5 107//5 108//5 97//5
f 122//1 121//1 125//1 126//1
f 124//4 123//4 127//4 128//4
f 126//7 125//7 128//7 127//7
f 122//8 123//8 124//8 121//8
f 32//1 138//1 148//1 39//1
f 137//1 136//1 146//1 147//1
f 135//1 134//1 144//1 145//1
f 133//4 132//4 142//4 143//4
f 131//4 130//4 140//4 141//4
f 39//3 148//3 139//3 38//3
f 147//3 146//3 141//3 140//3
f 145//3 144//3 143//3 142//3
f 32//5 31//5 129//5 138//5
f 137//5 130//5 131//5 136//5
f 135//5 132//5 133//5 134//5
usemtl Green
f 49//6 2//6 4//6 50//6
f 53//4 12//4 2//4 49//4
f 10//5 4//5 2//5 12//5
f 3//3 9//3 11//3 1//3
f 50//1 4//1 10//1 54//1
f 57//7 15//7 14//7 60//7
f 63//1 59//1 13//1 56//1
f 57//1 61//1 48//1 15//1
f 3//1 42//1 46//1 9//1
f 11//4 45//4 41//4 1//4
f 1//6 41//6 42//6 3//6
f 61//1 63//1 56//1 48//1
f 42//1 50//1 54//1 46//1
f 45//4 53//4 49//4 41//4
f 41//6 49//6 50//6 42//6
f 47//4 55//4 64//4 62//4
f 14//4 47//4 62//4 60//4
f 55//4 16//4 58//4 64//4
f 13//5 59//5 58//5 16//5
f 79//4 80//4 71//4 69//4
f 74//4 79//4 69//4 66//4
f 73//5 65//5 68//5 78//5
f 80//4 78//4 68//4 71//4
f 88//9 86//9 78//9 80//9
f 81//10 73//10 78//10 86//10
f 82//9 87//9 79//9 74//9
f 87//9 88//9 80//9 79//9
f 70//1 72//1 76//1 75//1
f 67//1 70//1 75//1 77//1
f 67//3 77//3 74//3 66//3
f 72//1 65//1 73//1 76//1
f 75//11 76//11 84//11 83//11
f 77//11 75//11 83//11 85//11
f 77//12 85//12 82//12 74//12
f 76//11 73//11 81//11 84//11
usemtl Grey
f 17//2 19//2 20//2 18//2
f 22//6 23//6 24//6 21//6
f 17//4 18//4 23//4 22//4
f 18//5 20//5 24//5 23//5
f 19//3 17//3 22//3 21//3
f 20//1 19//1 21//1 24//1
usemtl Gold
f 59//5 10//5 12//5 58//5
f 64//4 58//4 12//4 53//4
f 71//4 68//4 16//4 55//4
f 65//5 13//5 16//5 68//5
f 134//5 133//5 27//5 28//5
f 97//5 108//5 30//5 29//5
f 121//8 124//8 31//8 32//8
f 144//3 37//3 36//3 143//3
f 109//3 35//3 40//3 120//3
f 125//7 39//7 38//7 128//7
f 25//6 26//6 33//6 34//6
f 123//4 30//4 40//4 127//4
f 103//4 25//4 34//4 115//4
f 97//1 29//1 35//1 109//1
f 134//1 28//1 37//1 144//1
f 121//1 32//1 39//1 125//1
f 28//2 27//2 36//2 37//2
f 66//4 69//4 47//4 14//4
f 60//4 62//4 45//4 11//4
f 69//4 71//4 55//4 47//4
f 62//4 64//4 53//4 45//4
f 46//1 54//1 63//1 61//1
f 9//1 46//1 61//1 57//1
f 54//1 10//1 59//1 63//1
f 9//7 57//7 60//7 11//7
f 48//1 56//1 72//1 70//1
f 15//1 48//1 70//1 67//1
f 15//3 67//3 66//3 14//3
f 56//1 13//1 65//1 72//1
f 26//1 102//1 114//1 33//1
f 101//1 100//1 112//1 113//1
f 99//1 98//1 110//1 111//1
f 30//4 108//4 120//4 40//4
f 107//4 106//4 118//4 119//4
f 105//4 104//4 116//4 117//4
f 33//3 114//3 115//3 34//3
f 113//3 112//3 117//3 116//3
f 111//3 110//3 119//3 118//3
f 26//5 25//5 103//5 102//5
f 101//5 104//5 105//5 100//5
f 99//5 106//5 107//5 98//5
f 29//1 122//1 126//1 35//1
f 31//4 124//4 128//4 38//4
f 35//7 126//7 127//7 40//7
f 29//8 30//8 123//8 122//8
f 138//1 137//1 147//1 148//1
f 136//1 135//1 145//1 146//1
f 27//4 133//4 143//4 36//4
f 132//4 131//4 141//4 142//4
f 130//4 129//4 139//4 140//4
f 148//3 147//3 140//3 139//3
f 146//3 145//3 142//3 141//3
f 138//5 129//5 130//5 137//5
f 136//5 131//5 132//5 135//5
