{
    "asset" : {
        "generator" : "Khronos glTF Blender I/O v1.7.33",
        "version" : "2.0"
    },
    "scene" : 0,
    "scenes" : [
        {
            "name" : "Scene",
            "nodes" : [
                0,
                1
            ]
        }
    ],
    "nodes" : [
        {
            "mesh" : 0,
            "name" : "Lootbox_Base"
        },
        {
            "mesh" : 1,
            "name" : "Lootbox_Top",
            "translation" : [
                0,
                0.402042955160141,
                -0.29083165526390076
            ]
        }
    ],
    "materials" : [
        {
            "doubleSided" : true,
            "name" : "DarkGrey",
            "pbrMetallicRoughness" : {
                "baseColorFactor" : [
                    0.06680479645729065,
                    0.06680479645729065,
                    0.06680479645729065,
                    1
                ],
                "metallicFactor" : 0,
                "roughnessFactor" : 0.5
            }
        },
        {
            "doubleSided" : true,
            "name" : "Grey",
            "pbrMetallicRoughness" : {
                "baseColorFactor" : [
                    0.1733514964580536,
                    0.1733514964580536,
                    0.1733514964580536,
                    1
                ],
                "metallicFactor" : 0,
                "roughnessFactor" : 0.5
            }
        },
        {
            "doubleSided" : true,
            "name" : "Orange",
            "pbrMetallicRoughness" : {
                "baseColorFactor" : [
                    0.3108104467391968,
                    0.136332169175148,
                    0.03521651774644852,
                    1
                ],
                "metallicFactor" : 0,
                "roughnessFactor" : 0.5
            }
        }
    ],
    "meshes" : [
        {
            "name" : "Cube.017",
            "primitives" : [
                {
                    "attributes" : {
                        "POSITION" : 0,
                        "NORMAL" : 1
                    },
                    "indices" : 2,
                    "material" : 0
                },
                {
                    "attributes" : {
                        "POSITION" : 3,
                        "NORMAL" : 4
                    },
                    "indices" : 5,
                    "material" : 1
                }
            ]
        },
        {
            "name" : "Cube.046",
            "primitives" : [
                {
                    "attributes" : {
                        "POSITION" : 6,
                        "NORMAL" : 7
                    },
                    "indices" : 8,
                    "material" : 1
                },
                {
                    "attributes" : {
                        "POSITION" : 9,
                        "NORMAL" : 10
                    },
                    "indices" : 11,
                    "material" : 2
                }
            ]
        }
    ],
    "accessors" : [
        {
            "bufferView" : 0,
            "componentType" : 5126,
            "count" : 338,
            "max" : [
                0.28209835290908813,
                0.40114912390708923,
                0.28209835290908813
            ],
            "min" : [
                -0.28209835290908813,
                -0.0004726856423076242,
                -0.28209835290908813
            ],
            "type" : "VEC3"
        },
        {
            "bufferView" : 1,
            "componentType" : 5126,
            "count" : 338,
            "type" : "VEC3"
        },
        {
            "bufferView" : 2,
            "componentType" : 5123,
            "count" : 588,
            "type" : "SCALAR"
        },
        {
            "bufferView" : 3,
            "componentType" : 5126,
            "count" : 374,
            "max" : [
                0.2768642008304596,
                0.40114912390708923,
                0.2768641412258148
            ],
            "min" : [
                -0.2768641710281372,
                0.006434187758713961,
                -0.2768642008304596
            ],
            "type" : "VEC3"
        },
        {
            "bufferView" : 4,
            "componentType" : 5126,
            "count" : 374,
            "type" : "VEC3"
        },
        {
            "bufferView" : 5,
            "componentType" : 5123,
            "count" : 600,
            "type" : "SCALAR"
        },
        {
            "bufferView" : 6,
            "componentType" : 5126,
            "count" : 141,
            "max" : [
                0.2570788264274597,
                0.08384305238723755,
                0.5469763278961182
            ],
            "min" : [
                -0.2570788562297821,
                -0.03373470902442932,
                -0.022269492968916893
            ],
            "type" : "VEC3"
        },
        {
            "bufferView" : 7,
            "componentType" : 5126,
            "count" : 141,
            "type" : "VEC3"
        },
        {
            "bufferView" : 8,
            "componentType" : 5123,
            "count" : 240,
            "type" : "SCALAR"
        },
        {
            "bufferView" : 9,
            "componentType" : 5126,
            "count" : 794,
            "max" : [
                0.2959679663181305,
                0.10954200476408005,
                0.5858654379844666
            ],
            "min" : [
                -0.2959679663181305,
                -0.002102368278428912,
                -0.006070492789149284
            ],
            "type" : "VEC3"
        },
        {
            "bufferView" : 10,
            "componentType" : 5126,
            "count" : 794,
            "type" : "VEC3"
        },
        {
            "bufferView" : 11,
            "componentType" : 5123,
            "count" : 1392,
            "type" : "SCALAR"
        }
    ],
    "bufferViews" : [
        {
            "buffer" : 0,
            "byteLength" : 4056,
            "byteOffset" : 0
        },
        {
            "buffer" : 0,
            "byteLength" : 4056,
            "byteOffset" : 4056
        },
        {
            "buffer" : 0,
            "byteLength" : 1176,
            "byteOffset" : 8112
        },
        {
            "buffer" : 0,
            "byteLength" : 4488,
            "byteOffset" : 9288
        },
        {
            "buffer" : 0,
            "byteLength" : 4488,
            "byteOffset" : 13776
        },
        {
            "buffer" : 0,
            "byteLength" : 1200,
            "byteOffset" : 18264
        },
        {
            "buffer" : 0,
            "byteLength" : 1692,
            "byteOffset" : 19464
        },
        {
            "buffer" : 0,
            "byteLength" : 1692,
            "byteOffset" : 21156
        },
        {
            "buffer" : 0,
            "byteLength" : 480,
            "byteOffset" : 22848
        },
        {
            "buffer" : 0,
            "byteLength" : 9528,
            "byteOffset" : 23328
        },
        {
            "buffer" : 0,
            "byteLength" : 9528,
            "byteOffset" : 32856
        },
        {
            "buffer" : 0,
            "byteLength" : 2784,
            "byteOffset" : 42384
        }
    ],
    "buffers" : [
        {
            "byteLength" : 45168,
            "uri" : "data:application/octet-stream;base64,"
        }
    ]
}
