{
    "asset" : {
        "generator" : "Khronos glTF Blender I/O v1.7.33",
        "version" : "2.0"
    },
    "scene" : 0,
    "scenes" : [
        {
            "name" : "Scene",
            "nodes" : [
                0
            ]
        }
    ],
    "nodes" : [
        {
            "mesh" : 0,
            "name" : "Turret_Teleporter"
        }
    ],
    "materials" : [
        {
            "doubleSided" : true,
            "name" : "LightGrey",
            "pbrMetallicRoughness" : {
                "baseColorFactor" : [
                    0.25979551672935486,
                    0.25979551672935486,
                    0.25979551672935486,
                    1
                ],
                "metallicFactor" : 0,
                "roughnessFactor" : 0.5
            }
        },
        {
            "doubleSided" : true,
            "name" : "Black",
            "pbrMetallicRoughness" : {
                "baseColorFactor" : [
                    0.027209052816033363,
                    0.027209052816033363,
                    0.027209052816033363,
                    1
                ],
                "metallicFactor" : 0,
                "roughnessFactor" : 0.5
            }
        },
        {
            "doubleSided" : true,
            "name" : "Orange",
            "pbrMetallicRoughness" : {
                "baseColorFactor" : [
                    0.3108104467391968,
                    0.136332169175148,
                    0.03521651774644852,
                    1
                ],
                "metallicFactor" : 0,
                "roughnessFactor" : 0.5
            }
        },
        {
            "doubleSided" : true,
            "name" : "Grey",
            "pbrMetallicRoughness" : {
                "baseColorFactor" : [
                    0.1733514964580536,
                    0.1733514964580536,
                    0.1733514964580536,
                    1
                ],
                "metallicFactor" : 0,
                "roughnessFactor" : 0.5
            }
        }
    ],
    "meshes" : [
        {
            "name" : "Cylinder.029",
            "primitives" : [
                {
                    "attributes" : {
                        "POSITION" : 0,
                        "NORMAL" : 1
                    },
                    "indices" : 2,
                    "material" : 0
                },
                {
                    "attributes" : {
                        "POSITION" : 3,
                        "NORMAL" : 4
                    },
                    "indices" : 5,
                    "material" : 1
                },
                {
                    "attributes" : {
                        "POSITION" : 6,
                        "NORMAL" : 7
                    },
                    "indices" : 8,
                    "material" : 2
                },
                {
                    "attributes" : {
                        "POSITION" : 9,
                        "NORMAL" : 10
                    },
                    "indices" : 11,
                    "material" : 3
                }
            ]
        }
    ],
    "accessors" : [
        {
            "bufferView" : 0,
            "componentType" : 5126,
            "count" : 1248,
            "max" : [
                0.5556403994560242,
                0.17195843160152435,
                0.5572637319564819
            ],
            "min" : [
                -0.5556403994560242,
                -0.0006143527571111917,
                -0.5572637319564819
            ],
            "type" : "VEC3"
        },
        {
            "bufferView" : 1,
            "componentType" : 5126,
            "count" : 1248,
            "type" : "VEC3"
        },
        {
            "bufferView" : 2,
            "componentType" : 5123,
            "count" : 1908,
            "type" : "SCALAR"
        },
        {
            "bufferView" : 3,
            "componentType" : 5126,
            "count" : 638,
            "max" : [
                0.23389087617397308,
                0.224171981215477,
                0.23389087617397308
            ],
            "min" : [
                -0.23389087617397308,
                0.004805067554116249,
                -0.23389087617397308
            ],
            "type" : "VEC3"
        },
        {
            "bufferView" : 4,
            "componentType" : 5126,
            "count" : 638,
            "type" : "VEC3"
        },
        {
            "bufferView" : 5,
            "componentType" : 5123,
            "count" : 996,
            "type" : "SCALAR"
        },
        {
            "bufferView" : 6,
            "componentType" : 5126,
            "count" : 96,
            "max" : [
                0.4465760886669159,
                0.0752049908041954,
                0.4465760886669159
            ],
            "min" : [
                -0.4465761184692383,
                0.009443392045795918,
                -0.4465761184692383
            ],
            "type" : "VEC3"
        },
        {
            "bufferView" : 7,
            "componentType" : 5126,
            "count" : 96,
            "type" : "VEC3"
        },
        {
            "bufferView" : 8,
            "componentType" : 5123,
            "count" : 144,
            "type" : "SCALAR"
        },
        {
            "bufferView" : 9,
            "componentType" : 5126,
            "count" : 238,
            "max" : [
                0.579178512096405,
                0.1205248087644577,
                0.5556403994560242
            ],
            "min" : [
                -0.579178512096405,
                -0.008336137980222702,
                -0.5556403994560242
            ],
            "type" : "VEC3"
        },
        {
            "bufferView" : 10,
            "componentType" : 5126,
            "count" : 238,
            "type" : "VEC3"
        },
        {
            "bufferView" : 11,
            "componentType" : 5123,
            "count" : 360,
            "type" : "SCALAR"
        }
    ],
    "bufferViews" : [
        {
            "buffer" : 0,
            "byteLength" : 14976,
            "byteOffset" : 0
        },
        {
            "buffer" : 0,
            "byteLength" : 14976,
            "byteOffset" : 14976
        },
        {
            "buffer" : 0,
            "byteLength" : 3816,
            "byteOffset" : 29952
        },
        {
            "buffer" : 0,
            "byteLength" : 7656,
            "byteOffset" : 33768
        },
        {
            "buffer" : 0,
            "byteLength" : 7656,
            "byteOffset" : 41424
        },
        {
            "buffer" : 0,
            "byteLength" : 1992,
            "byteOffset" : 49080
        },
        {
            "buffer" : 0,
            "byteLength" : 1152,
            "byteOffset" : 51072
        },
        {
            "buffer" : 0,
            "byteLength" : 1152,
            "byteOffset" : 52224
        },
        {
            "buffer" : 0,
            "byteLength" : 288,
            "byteOffset" : 53376
        },
        {
            "buffer" : 0,
            "byteLength" : 2856,
            "byteOffset" : 53664
        },
        {
            "buffer" : 0,
            "byteLength" : 2856,
            "byteOffset" : 56520
        },
        {
            "buffer" : 0,
            "byteLength" : 720,
            "byteOffset" : 59376
        }
    ],
    "buffers" : [
        {
            "byteLength" : 60096,
            "uri" : "data:application/octet-stream;base64,"
        }
    ]
}
