{
    "asset" : {
        "generator" : "Khronos glTF Blender I/O v1.7.33",
        "version" : "2.0"
    },
    "scene" : 0,
    "scenes" : [
        {
            "name" : "Scene",
            "nodes" : [
                0,
                1
            ]
        }
    ],
    "nodes" : [
        {
            "mesh" : 0,
            "name" : "Turret_Gun_Base"
        },
        {
            "mesh" : 1,
            "name" : "Turret_Gun_Top"
        }
    ],
    "materials" : [
        {
            "doubleSided" : true,
            "name" : "LightGrey",
            "pbrMetallicRoughness" : {
                "baseColorFactor" : [
                    0.25979551672935486,
                    0.25979551672935486,
                    0.25979551672935486,
                    1
                ],
                "metallicFactor" : 0,
                "roughnessFactor" : 0.5
            }
        },
        {
            "doubleSided" : true,
            "name" : "Black",
            "pbrMetallicRoughness" : {
                "baseColorFactor" : [
                    0.027209052816033363,
                    0.027209052816033363,
                    0.027209052816033363,
                    1
                ],
                "metallicFactor" : 0,
                "roughnessFactor" : 0.5
            }
        },
        {
            "doubleSided" : true,
            "name" : "Orange",
            "pbrMetallicRoughness" : {
                "baseColorFactor" : [
                    0.3108104467391968,
                    0.136332169175148,
                    0.03521651774644852,
                    1
                ],
                "metallicFactor" : 0,
                "roughnessFactor" : 0.5
            }
        },
        {
            "doubleSided" : true,
            "name" : "Grey",
            "pbrMetallicRoughness" : {
                "baseColorFactor" : [
                    0.1733514964580536,
                    0.1733514964580536,
                    0.1733514964580536,
                    1
                ],
                "metallicFactor" : 0,
                "roughnessFactor" : 0.5
            }
        }
    ],
    "meshes" : [
        {
            "name" : "Cylinder.027",
            "primitives" : [
                {
                    "attributes" : {
                        "POSITION" : 0,
                        "NORMAL" : 1
                    },
                    "indices" : 2,
                    "material" : 0
                },
                {
                    "attributes" : {
                        "POSITION" : 3,
                        "NORMAL" : 4
                    },
                    "indices" : 5,
                    "material" : 1
                },
                {
                    "attributes" : {
                        "POSITION" : 6,
                        "NORMAL" : 7
                    },
                    "indices" : 8,
                    "material" : 2
                },
                {
                    "attributes" : {
                        "POSITION" : 9,
                        "NORMAL" : 10
                    },
                    "indices" : 11,
                    "material" : 3
                }
            ]
        },
        {
            "name" : "Cylinder.026",
            "primitives" : [
                {
                    "attributes" : {
                        "POSITION" : 12,
                        "NORMAL" : 13
                    },
                    "indices" : 14,
                    "material" : 0
                },
                {
                    "attributes" : {
                        "POSITION" : 15,
                        "NORMAL" : 16
                    },
                    "indices" : 17,
                    "material" : 1
                },
                {
                    "attributes" : {
                        "POSITION" : 18,
                        "NORMAL" : 19
                    },
                    "indices" : 20,
                    "material" : 3
                }
            ]
        }
    ],
    "accessors" : [
        {
            "bufferView" : 0,
            "componentType" : 5126,
            "count" : 1248,
            "max" : [
                0.5556403994560242,
                0.17195843160152435,
                0.5572637319564819
            ],
            "min" : [
                -0.5556403994560242,
                -0.0006143527571111917,
                -0.5572637319564819
            ],
            "type" : "VEC3"
        },
        {
            "bufferView" : 1,
            "componentType" : 5126,
            "count" : 1248,
            "type" : "VEC3"
        },
        {
            "bufferView" : 2,
            "componentType" : 5123,
            "count" : 1908,
            "type" : "SCALAR"
        },
        {
            "bufferView" : 3,
            "componentType" : 5126,
            "count" : 158,
            "max" : [
                0.23389087617397308,
                0.1748267412185669,
                0.23389087617397308
            ],
            "min" : [
                -0.23389087617397308,
                0.15474864840507507,
                -0.23389087617397308
            ],
            "type" : "VEC3"
        },
        {
            "bufferView" : 4,
            "componentType" : 5126,
            "count" : 158,
            "type" : "VEC3"
        },
        {
            "bufferView" : 5,
            "componentType" : 5123,
            "count" : 240,
            "type" : "SCALAR"
        },
        {
            "bufferView" : 6,
            "componentType" : 5126,
            "count" : 96,
            "max" : [
                0.4465760886669159,
                0.0752049908041954,
                0.4465760886669159
            ],
            "min" : [
                -0.4465761184692383,
                0.009443392045795918,
                -0.4465761184692383
            ],
            "type" : "VEC3"
        },
        {
            "bufferView" : 7,
            "componentType" : 5126,
            "count" : 96,
            "type" : "VEC3"
        },
        {
            "bufferView" : 8,
            "componentType" : 5123,
            "count" : 144,
            "type" : "SCALAR"
        },
        {
            "bufferView" : 9,
            "componentType" : 5126,
            "count" : 238,
            "max" : [
                0.579178512096405,
                0.1205248087644577,
                0.5556403994560242
            ],
            "min" : [
                -0.579178512096405,
                -0.008336137980222702,
                -0.5556403994560242
            ],
            "type" : "VEC3"
        },
        {
            "bufferView" : 10,
            "componentType" : 5126,
            "count" : 238,
            "type" : "VEC3"
        },
        {
            "bufferView" : 11,
            "componentType" : 5123,
            "count" : 360,
            "type" : "SCALAR"
        },
        {
            "bufferView" : 12,
            "componentType" : 5126,
            "count" : 144,
            "max" : [
                0.15066272020339966,
                0.5786281228065491,
                0.49383124709129333
            ],
            "min" : [
                -0.15066272020339966,
                0.2485903650522232,
                -0.1860944777727127
            ],
            "type" : "VEC3"
        },
        {
            "bufferView" : 13,
            "componentType" : 5126,
            "count" : 144,
            "type" : "VEC3"
        },
        {
            "bufferView" : 14,
            "componentType" : 5123,
            "count" : 246,
            "type" : "SCALAR"
        },
        {
            "bufferView" : 15,
            "componentType" : 5126,
            "count" : 64,
            "max" : [
                0.1099989041686058,
                0.28561338782310486,
                0.10883761942386627
            ],
            "min" : [
                -0.10959775000810623,
                0.1533089131116867,
                -0.11075904220342636
            ],
            "type" : "VEC3"
        },
        {
            "bufferView" : 16,
            "componentType" : 5126,
            "count" : 64,
            "type" : "VEC3"
        },
        {
            "bufferView" : 17,
            "componentType" : 5123,
            "count" : 96,
            "type" : "SCALAR"
        },
        {
            "bufferView" : 18,
            "componentType" : 5126,
            "count" : 330,
            "max" : [
                0.11697198450565338,
                0.5594167113304138,
                0.6071746349334717
            ],
            "min" : [
                -0.11697198450565338,
                0.30570289492607117,
                -0.16844528913497925
            ],
            "type" : "VEC3"
        },
        {
            "bufferView" : 19,
            "componentType" : 5126,
            "count" : 330,
            "type" : "VEC3"
        },
        {
            "bufferView" : 20,
            "componentType" : 5123,
            "count" : 552,
            "type" : "SCALAR"
        }
    ],
    "bufferViews" : [
        {
            "buffer" : 0,
            "byteLength" : 14976,
            "byteOffset" : 0
        },
        {
            "buffer" : 0,
            "byteLength" : 14976,
            "byteOffset" : 14976
        },
        {
            "buffer" : 0,
            "byteLength" : 3816,
            "byteOffset" : 29952
        },
        {
            "buffer" : 0,
            "byteLength" : 1896,
            "byteOffset" : 33768
        },
        {
            "buffer" : 0,
            "byteLength" : 1896,
            "byteOffset" : 35664
        },
        {
            "buffer" : 0,
            "byteLength" : 480,
            "byteOffset" : 37560
        },
        {
            "buffer" : 0,
            "byteLength" : 1152,
            "byteOffset" : 38040
        },
        {
            "buffer" : 0,
            "byteLength" : 1152,
            "byteOffset" : 39192
        },
        {
            "buffer" : 0,
            "byteLength" : 288,
            "byteOffset" : 40344
        },
        {
            "buffer" : 0,
            "byteLength" : 2856,
            "byteOffset" : 40632
        },
        {
            "buffer" : 0,
            "byteLength" : 2856,
            "byteOffset" : 43488
        },
        {
            "buffer" : 0,
            "byteLength" : 720,
            "byteOffset" : 46344
        },
        {
            "buffer" : 0,
            "byteLength" : 1728,
            "byteOffset" : 47064
        },
        {
            "buffer" : 0,
            "byteLength" : 1728,
            "byteOffset" : 48792
        },
        {
            "buffer" : 0,
            "byteLength" : 492,
            "byteOffset" : 50520
        },
        {
            "buffer" : 0,
            "byteLength" : 768,
            "byteOffset" : 51012
        },
        {
            "buffer" : 0,
            "byteLength" : 768,
            "byteOffset" : 51780
        },
        {
            "buffer" : 0,
            "byteLength" : 192,
            "byteOffset" : 52548
        },
        {
            "buffer" : 0,
            "byteLength" : 3960,
            "byteOffset" : 52740
        },
        {
            "buffer" : 0,
            "byteLength" : 3960,
            "byteOffset" : 56700
        },
        {
            "buffer" : 0,
            "byteLength" : 1104,
            "byteOffset" : 60660
        }
    ],
    "buffers" : [
        {
            "byteLength" : 61764,
            "uri" : "data:application/octet-stream;base64,"
        }
    ]
}
