{
  "accessors": [
    {
      "bufferView": 2,
      "componentType": 5126,
      "count": 4175,
      "max": [
        0.5332880020141602,
        1.0,
        0.481689989566803
      ],
      "min": [
        -0.5332880020141602,
        -1.0,
        -0.481689989566803
      ],
      "type": "VEC3"
    },
    {
      "bufferView": 2,
      "byteOffset": 50100,
      "componentType": 5126,
      "count": 4175,
      "max": [
        0.998834490776062,
        0.9981322288513184,
        0.9996403455734253
      ],
      "min": [
        -0.998834490776062,
        -0.9999151229858398,
        -0.999908983707428
      ],
      "type": "VEC3"
    },
    {
      "bufferView": 3,
      "componentType": 5126,
      "count": 4175,
      "max": [
        1.0,
        0.9998214244842529,
        0.9996048212051392,
        1.0
      ],
      "min": [
        -0.9992005228996277,
        -0.9998259544372559,
        -0.9999963045120239,
        -1.0
      ],
      "type": "VEC4"
    },
    {
      "bufferView": 1,
      "componentType": 5126,
      "count": 4175,
      "max": [
        0.9905999898910522,
        0.9950709939002991
      ],
      "min": [
        0.0,
        0.0
      ],
      "type": "VEC2"
    },
    {
      "bufferView": 0,
      "componentType": 5125,
      "count": 22290,
      "type": "SCALAR"
    },
    {
      "bufferView": 2,
      "byteOffset": 100200,
      "componentType": 5126,
      "count": 660,
      "max": [
        0.32246699929237366,
        0.5343040227890015,
        -0.14535200595855713
      ],
      "min": [
        -0.32246699929237366,
        0.4120520055294037,
        -0.26257801055908203
      ],
      "type": "VEC3"
    },
    {
      "bufferView": 2,
      "byteOffset": 108120,
      "componentType": 5126,
      "count": 660,
      "max": [
        0.9873547554016113,
        0.9901153445243835,
        0.9532483816146851
      ],
      "min": [
        -0.9873546361923218,
        -0.9901154637336731,
        -0.9532485008239746
      ],
      "type": "VEC3"
    },
    {
      "bufferView": 3,
      "byteOffset": 66800,
      "componentType": 5126,
      "count": 660,
      "max": [
        0.9933412671089172,
        0.9964684844017029,
        0.9995675086975098,
        1.0
      ],
      "min": [
        -0.9992753267288208,
        -0.9998816847801208,
        -0.9986087083816528,
        1.0
      ],
      "type": "VEC4"
    },
    {
      "bufferView": 1,
      "byteOffset": 33400,
      "componentType": 5126,
      "count": 660,
      "max": [
        0.3666439950466156,
        0.5752410292625427
      ],
      "min": [
        0.23918700218200684,
        0.4527440071105957
      ],
      "type": "VEC2"
    },
    {
      "bufferView": 0,
      "byteOffset": 89160,
      "componentType": 5125,
      "count": 3600,
      "type": "SCALAR"
    }
  ],
  "asset": {
    "extras": {
      "author": "lucasthx88 (https://sketchfab.com/lucasthx88)",
      "license": "CC-BY-4.0 (http://creativecommons.org/licenses/by/4.0/)",
      "source": "https://sketchfab.com/3d-models/anubis-bust-636c098547e24805a796cca1773aa9bb",
      "title": "Anubis Bust"
    },
    "generator": "Sketchfab-12.68.0",
    "version": "2.0"
  },
  "bufferViews": [
    {
      "buffer": 0,
      "byteLength": 103560,
      "name": "floatBufferViews",
      "target": 34963
    },
    {
      "buffer": 0,
      "byteLength": 38680,
      "byteOffset": 103560,
      "byteStride": 8,
      "name": "floatBufferViews",
      "target": 34962
    },
    {
      "buffer": 0,
      "byteLength": 116040,
      "byteOffset": 142240,
      "byteStride": 12,
      "name": "floatBufferViews",
      "target": 34962
    },
    {
      "buffer": 0,
      "byteLength": 77360,
      "byteOffset": 258280,
      "byteStride": 16,
      "name": "floatBufferViews",
      "target": 34962
    }
  ],
  "buffers": [
    {
      "byteLength": 335640,
      "uri": "scene.bin"
    }
  ],
  "images": [
    {
      "uri": "textures/blinn1_baseColor.jpeg"
    },
    {
      "uri": "textures/blinn1_metallicRoughness.png"
    },
    {
      "uri": "textures/blinn1_normal.png"
    },
    {
      "uri": "textures/lambert1_baseColor.jpeg"
    },
    {
      "uri": "textures/lambert1_metallicRoughness.png"
    },
    {
      "uri": "textures/lambert1_normal.png"
    }
  ],
  "materials": [
    {
      "doubleSided": true,
      "name": "blinn1",
      "normalTexture": {
        "index": 2
      },
      "pbrMetallicRoughness": {
        "baseColorTexture": {
          "index": 0
        },
        "metallicRoughnessTexture": {
          "index": 1
        }
      }
    },
    {
      "doubleSided": true,
      "name": "lambert1",
      "normalTexture": {
        "index": 5
      },
      "occlusionTexture": {
        "index": 4
      },
      "pbrMetallicRoughness": {
        "baseColorTexture": {
          "index": 3
        },
        "metallicRoughnessTexture": {
          "index": 4
        }
      }
    }
  ],
  "meshes": [
    {
      "name": "defaultMaterial",
      "primitives": [
        {
          "attributes": {
            "NORMAL": 1,
            "POSITION": 0,
            "TANGENT": 2,
            "TEXCOORD_0": 3
          },
          "indices": 4,
          "material": 1,
          "mode": 4
        }
      ]
    },
    {
      "name": "defaultMaterial",
      "primitives": [
        {
          "attributes": {
            "NORMAL": 6,
            "POSITION": 5,
            "TANGENT": 7,
            "TEXCOORD_0": 8
          },
          "indices": 9,
          "material": 0,
          "mode": 4
        }
      ]
    }
  ],
  "nodes": [
    {
      "children": [
        1
      ],
      "matrix": [
        1.0,
        0.0,
        0.0,
        0.0,
        0.0,
        2.220446049250313e-16,
        -1.0,
        0.0,
        0.0,
        1.0,
        2.220446049250313e-16,
        0.0,
        0.0,
        0.0,
        0.0,
        1.0
      ],
      "name": "Sketchfab_model"
    },
    {
      "children": [
        2,
        4
      ],
      "matrix": [
        1.0,
        0.0,
        0.0,
        0.0,
        0.0,
        -4.371139006309477e-08,
        0.999999999999999,
        0.0,
        0.0,
        -0.999999999999999,
        -4.371139006309477e-08,
        0.0,
        0.0,
        0.0,
        0.0,
        1.0
      ],
      "name": "Collada visual scene group"
    },
    {
      "children": [
        3
      ],
      "name": "Anubis_Low"
    },
    {
      "mesh": 0,
      "name": "defaultMaterial"
    },
    {
      "children": [
        5
      ],
      "name": "Anubis_Low"
    },
    {
      "mesh": 1,
      "name": "defaultMaterial"
    }
  ],
  "samplers": [
    {
      "magFilter": 9729,
      "minFilter": 9987,
      "wrapS": 10497,
      "wrapT": 10497
    }
  ],
  "scene": 0,
  "scenes": [
    {
      "name": "Sketchfab_Scene",
      "nodes": [
        0
      ]
    }
  ],
  "textures": [
    {
      "sampler": 0,
      "source": 0
    },
    {
      "sampler": 0,
      "source": 1
    },
    {
      "sampler": 0,
      "source": 2
    },
    {
      "sampler": 0,
      "source": 3
    },
    {
      "sampler": 0,
      "source": 4
    },
    {
      "sampler": 0,
      "source": 5
    }
  ]
}
