{
    "asset" : {
        "generator" : "Khronos glTF Blender I/O v1.7.33",
        "version" : "2.0"
    },
    "scene" : 0,
    "scenes" : [
        {
            "name" : "Scene",
            "nodes" : [
                0
            ]
        }
    ],
    "nodes" : [
        {
            "mesh" : 0,
            "name" : "AC"
        }
    ],
    "materials" : [
        {
            "doubleSided" : true,
            "name" : "LightGrey",
            "pbrMetallicRoughness" : {
                "baseColorFactor" : [
                    0.25979551672935486,
                    0.25979551672935486,
                    0.25979551672935486,
                    1
                ],
                "metallicFactor" : 0,
                "roughnessFactor" : 0.5
            }
        },
        {
            "doubleSided" : true,
            "name" : "Grey",
            "pbrMetallicRoughness" : {
                "baseColorFactor" : [
                    0.1733514964580536,
                    0.1733514964580536,
                    0.1733514964580536,
                    1
                ],
                "metallicFactor" : 0,
                "roughnessFactor" : 0.5
            }
        },
        {
            "doubleSided" : true,
            "name" : "Black",
            "pbrMetallicRoughness" : {
                "baseColorFactor" : [
                    0.027209052816033363,
                    0.027209052816033363,
                    0.027209052816033363,
                    1
                ],
                "metallicFactor" : 0,
                "roughnessFactor" : 0.5
            }
        },
        {
            "doubleSided" : true,
            "name" : "Orange",
            "pbrMetallicRoughness" : {
                "baseColorFactor" : [
                    0.3108104467391968,
                    0.136332169175148,
                    0.03521651774644852,
                    1
                ],
                "metallicFactor" : 0,
                "roughnessFactor" : 0.5
            }
        }
    ],
    "meshes" : [
        {
            "name" : "Cube.004",
            "primitives" : [
                {
                    "attributes" : {
                        "POSITION" : 0,
                        "NORMAL" : 1,
                        "TEXCOORD_0" : 2
                    },
                    "indices" : 3,
                    "material" : 0
                },
                {
                    "attributes" : {
                        "POSITION" : 4,
                        "NORMAL" : 5,
                        "TEXCOORD_0" : 6
                    },
                    "indices" : 7,
                    "material" : 1
                },
                {
                    "attributes" : {
                        "POSITION" : 8,
                        "NORMAL" : 9,
                        "TEXCOORD_0" : 10
                    },
                    "indices" : 11,
                    "material" : 2
                },
                {
                    "attributes" : {
                        "POSITION" : 12,
                        "NORMAL" : 13,
                        "TEXCOORD_0" : 14
                    },
                    "indices" : 15,
                    "material" : 3
                }
            ]
        }
    ],
    "accessors" : [
        {
            "bufferView" : 0,
            "componentType" : 5126,
            "count" : 230,
            "max" : [
                0.5501600503921509,
                0.25402870774269104,
                0.2067997008562088
            ],
            "min" : [
                -0.39455682039260864,
                -0.25402867794036865,
                -0.17988277971744537
            ],
            "type" : "VEC3"
        },
        {
            "bufferView" : 1,
            "componentType" : 5126,
            "count" : 230,
            "type" : "VEC3"
        },
        {
            "bufferView" : 2,
            "componentType" : 5126,
            "count" : 230,
            "type" : "VEC2"
        },
        {
            "bufferView" : 3,
            "componentType" : 5123,
            "count" : 708,
            "type" : "SCALAR"
        },
        {
            "bufferView" : 4,
            "componentType" : 5126,
            "count" : 274,
            "max" : [
                0.3306238353252411,
                0.21868926286697388,
                0.26505231857299805
            ],
            "min" : [
                -0.33326801657676697,
                -0.28101515769958496,
                -0.35051342844963074
            ],
            "type" : "VEC3"
        },
        {
            "bufferView" : 5,
            "componentType" : 5126,
            "count" : 274,
            "type" : "VEC3"
        },
        {
            "bufferView" : 6,
            "componentType" : 5126,
            "count" : 274,
            "type" : "VEC2"
        },
        {
            "bufferView" : 7,
            "componentType" : 5123,
            "count" : 672,
            "type" : "SCALAR"
        },
        {
            "bufferView" : 8,
            "componentType" : 5126,
            "count" : 152,
            "max" : [
                0.5593365430831909,
                0.2580065131187439,
                0.22967839241027832
            ],
            "min" : [
                -0.3570975363254547,
                -0.2302636057138443,
                0.0011055337963625789
            ],
            "type" : "VEC3"
        },
        {
            "bufferView" : 9,
            "componentType" : 5126,
            "count" : 152,
            "type" : "VEC3"
        },
        {
            "bufferView" : 10,
            "componentType" : 5126,
            "count" : 152,
            "type" : "VEC2"
        },
        {
            "bufferView" : 11,
            "componentType" : 5123,
            "count" : 354,
            "type" : "SCALAR"
        },
        {
            "bufferView" : 12,
            "componentType" : 5126,
            "count" : 208,
            "max" : [
                0.6435470581054688,
                0.404593825340271,
                0.13656766712665558
            ],
            "min" : [
                -0.02870282158255577,
                0.026700353249907494,
                -0.5058806538581848
            ],
            "type" : "VEC3"
        },
        {
            "bufferView" : 13,
            "componentType" : 5126,
            "count" : 208,
            "type" : "VEC3"
        },
        {
            "bufferView" : 14,
            "componentType" : 5126,
            "count" : 208,
            "type" : "VEC2"
        },
        {
            "bufferView" : 15,
            "componentType" : 5123,
            "count" : 1104,
            "type" : "SCALAR"
        }
    ],
    "bufferViews" : [
        {
            "buffer" : 0,
            "byteLength" : 2760,
            "byteOffset" : 0
        },
        {
            "buffer" : 0,
            "byteLength" : 2760,
            "byteOffset" : 2760
        },
        {
            "buffer" : 0,
            "byteLength" : 1840,
            "byteOffset" : 5520
        },
        {
            "buffer" : 0,
            "byteLength" : 1416,
            "byteOffset" : 7360
        },
        {
            "buffer" : 0,
            "byteLength" : 3288,
            "byteOffset" : 8776
        },
        {
            "buffer" : 0,
            "byteLength" : 3288,
            "byteOffset" : 12064
        },
        {
            "buffer" : 0,
            "byteLength" : 2192,
            "byteOffset" : 15352
        },
        {
            "buffer" : 0,
            "byteLength" : 1344,
            "byteOffset" : 17544
        },
        {
            "buffer" : 0,
            "byteLength" : 1824,
            "byteOffset" : 18888
        },
        {
            "buffer" : 0,
            "byteLength" : 1824,
            "byteOffset" : 20712
        },
        {
            "buffer" : 0,
            "byteLength" : 1216,
            "byteOffset" : 22536
        },
        {
            "buffer" : 0,
            "byteLength" : 708,
            "byteOffset" : 23752
        },
        {
            "buffer" : 0,
            "byteLength" : 2496,
            "byteOffset" : 24460
        },
        {
            "buffer" : 0,
            "byteLength" : 2496,
            "byteOffset" : 26956
        },
        {
            "buffer" : 0,
            "byteLength" : 1664,
            "byteOffset" : 29452
        },
        {
            "buffer" : 0,
            "byteLength" : 2208,
            "byteOffset" : 31116
        }
    ],
    "buffers" : [
        {
            "byteLength" : 33324,
            "uri" : "data:application/octet-stream;base64,"
        }
    ]
}
