{
    "asset" : {
        "generator" : "Khronos glTF Blender I/O v1.7.33",
        "version" : "2.0"
    },
    "scene" : 0,
    "scenes" : [
        {
            "name" : "Scene",
            "nodes" : [
                0
            ]
        }
    ],
    "nodes" : [
        {
            "mesh" : 0,
            "name" : "Antenna_1"
        }
    ],
    "materials" : [
        {
            "doubleSided" : true,
            "name" : "MetalLight",
            "pbrMetallicRoughness" : {
                "baseColorFactor" : [
                    0.42001768946647644,
                    0.42001768946647644,
                    0.42001768946647644,
                    1
                ],
                "metallicFactor" : 0,
                "roughnessFactor" : 0.5
            }
        }
    ],
    "meshes" : [
        {
            "name" : "Cube.025",
            "primitives" : [
                {
                    "attributes" : {
                        "POSITION" : 0,
                        "NORMAL" : 1
                    },
                    "indices" : 2,
                    "material" : 0
                }
            ]
        }
    ],
    "accessors" : [
        {
            "bufferView" : 0,
            "componentType" : 5126,
            "count" : 176,
            "max" : [
                0.3001407980918884,
                1.6545490026474,
                0.03159917891025543
            ],
            "min" : [
                -0.1017657145857811,
                -0.0010474802693352103,
                -0.031599193811416626
            ],
            "type" : "VEC3"
        },
        {
            "bufferView" : 1,
            "componentType" : 5126,
            "count" : 176,
            "type" : "VEC3"
        },
        {
            "bufferView" : 2,
            "componentType" : 5123,
            "count" : 264,
            "type" : "SCALAR"
        }
    ],
    "bufferViews" : [
        {
            "buffer" : 0,
            "byteLength" : 2112,
            "byteOffset" : 0
        },
        {
            "buffer" : 0,
            "byteLength" : 2112,
            "byteOffset" : 2112
        },
        {
            "buffer" : 0,
            "byteLength" : 528,
            "byteOffset" : 4224
        }
    ],
    "buffers" : [
        {
            "byteLength" : 4752,
            "uri" : "data:application/octet-stream;base64,"
        }
    ]
}
