# Blender v3.0.0 OBJ File: 'Antenna_1.blend'
# www.blender.org
mtllib Antenna_1.mtl
o Antenna_1_Cube.025
v -0.083808 0.003463 0.013236
v -0.057920 0.003463 0.013236
v -0.083807 1.654549 0.013236
v -0.057919 1.654549 0.013236
v -0.083808 0.003463 -0.013236
v -0.057920 0.003463 -0.013236
v -0.057919 1.654549 -0.013236
v -0.083807 1.654549 -0.013236
v 0.035901 0.003463 0.013236
v 0.061789 0.003463 0.013236
v 0.035901 0.833164 0.013236
v 0.061789 0.809560 0.013236
v 0.035901 0.003463 -0.013236
v 0.061789 0.003463 -0.013236
v 0.061789 0.809560 -0.013236
v 0.035901 0.833164 -0.013236
v 0.020554 0.007423 0.011014
v 0.035786 0.022671 0.011014
v 0.020554 0.007423 -0.011014
v 0.035786 0.022671 -0.011014
v 0.059522 0.237951 -0.011014
v 0.044290 0.253199 -0.011014
v 0.059522 0.237951 0.011014
v 0.044290 0.253199 0.011014
v -0.081570 0.109651 0.011014
v -0.066338 0.124898 0.011014
v -0.081570 0.109651 -0.011014
v -0.066338 0.124898 -0.011014
v -0.081570 0.127211 0.011014
v -0.066338 0.111963 0.011014
v -0.081570 0.127211 -0.011014
v -0.066338 0.111963 -0.011014
v 0.044290 0.253199 0.011014
v 0.059522 0.268446 0.011014
v 0.044290 0.253199 -0.011014
v 0.059522 0.268446 -0.011014
v 0.059522 0.507487 -0.011014
v 0.044290 0.522734 -0.011014
v 0.059522 0.507487 0.011014
v 0.044290 0.522734 0.011014
v -0.081570 0.379186 0.011014
v -0.066338 0.394434 0.011014
v -0.081570 0.379186 -0.011014
v -0.066338 0.394434 -0.011014
v -0.081570 0.396746 0.011014
v -0.066338 0.381499 0.011014
v -0.081570 0.396746 -0.011014
v -0.066338 0.381499 -0.011014
v 0.044290 0.522734 0.011014
v 0.059522 0.537982 0.011014
v 0.044290 0.522734 -0.011014
v 0.059522 0.537982 -0.011014
v 0.059522 0.777022 -0.011014
v 0.044290 0.792270 -0.011014
v 0.059522 0.777022 0.011014
v 0.044290 0.792270 0.011014
v -0.081569 0.648722 0.011014
v -0.066337 0.663969 0.011014
v -0.081569 0.648722 -0.011014
v -0.066337 0.663969 -0.011014
v -0.081569 0.666282 0.011014
v -0.066337 0.651035 0.011014
v -0.081569 0.666282 -0.011014
v -0.066337 0.651035 -0.011014
v 0.044290 0.792270 0.011014
v 0.059522 0.807517 0.011014
v 0.044290 0.792270 -0.011014
v 0.059522 0.807517 -0.011014
v -0.081569 0.918258 0.011014
v -0.066337 0.933505 0.011014
v -0.081569 0.918258 -0.011014
v -0.066337 0.933505 -0.011014
v -0.101766 0.037248 0.031599
v 0.300141 0.037248 0.031599
v -0.101766 0.037248 -0.031599
v 0.300141 0.037248 -0.031599
v -0.101766 -0.001047 0.031599
v 0.300141 -0.001047 0.031599
v -0.101766 -0.001047 -0.031599
v 0.300141 -0.001047 -0.031599
vn -0.0000 0.0000 1.0000
vn 0.0000 -0.0000 -1.0000
vn 0.0000 1.0000 -0.0000
vn -1.0000 0.0000 -0.0000
vn 1.0000 -0.0000 0.0000
vn 0.6738 0.7389 0.0000
vn 0.7075 -0.7067 -0.0000
vn 0.7075 0.7067 0.0000
vn -0.7075 -0.7067 -0.0000
vn -0.7075 0.7067 -0.0000
vn -0.0000 -1.0000 0.0000
usemtl MetalLight
s off
f 3//1 1//1 2//1 4//1
f 8//2 7//2 6//2 5//2
f 3//3 4//3 7//3 8//3
f 1//4 3//4 8//4 5//4
f 4//5 2//5 6//5 7//5
f 11//1 9//1 10//1 12//1
f 16//2 15//2 14//2 13//2
f 11//6 12//6 15//6 16//6
f 9//4 11//4 16//4 13//4
f 12//5 10//5 14//5 15//5
f 21//7 23//7 30//7 32//7
f 20//8 28//8 26//8 18//8
f 19//2 27//2 28//2 20//2
f 17//9 25//9 27//9 19//9
f 24//10 22//10 31//10 29//10
f 22//2 21//2 32//2 31//2
f 18//1 26//1 25//1 17//1
f 23//1 24//1 29//1 30//1
f 37//7 39//7 46//7 48//7
f 36//8 44//8 42//8 34//8
f 35//2 43//2 44//2 36//2
f 33//9 41//9 43//9 35//9
f 40//10 38//10 47//10 45//10
f 38//2 37//2 48//2 47//2
f 34//1 42//1 41//1 33//1
f 39//1 40//1 45//1 46//1
f 53//7 55//7 62//7 64//7
f 52//8 60//8 58//8 50//8
f 51//2 59//2 60//2 52//2
f 49//9 57//9 59//9 51//9
f 56//10 54//10 63//10 61//10
f 54//2 53//2 64//2 63//2
f 50//1 58//1 57//1 49//1
f 55//1 56//1 61//1 62//1
f 68//8 72//8 70//8 66//8
f 67//2 71//2 72//2 68//2
f 65//9 69//9 71//9 67//9
f 66//1 70//1 69//1 65//1
f 74//3 76//3 75//3 73//3
f 78//11 77//11 79//11 80//11
f 74//5 78//5 80//5 76//5
f 76//2 80//2 79//2 75//2
f 75//4 79//4 77//4 73//4
f 73//1 77//1 78//1 74//1
