{
    "asset" : {
        "generator" : "Khronos glTF Blender I/O v1.7.33",
        "version" : "2.0"
    },
    "scene" : 0,
    "scenes" : [
        {
            "name" : "Scene",
            "nodes" : [
                0
            ]
        }
    ],
    "nodes" : [
        {
            "mesh" : 0,
            "name" : "Antenna_2"
        }
    ],
    "materials" : [
        {
            "doubleSided" : true,
            "name" : "Grey",
            "pbrMetallicRoughness" : {
                "baseColorFactor" : [
                    0.1733514964580536,
                    0.1733514964580536,
                    0.1733514964580536,
                    1
                ],
                "metallicFactor" : 0,
                "roughnessFactor" : 0.5
            }
        },
        {
            "doubleSided" : true,
            "name" : "LightGrey",
            "pbrMetallicRoughness" : {
                "baseColorFactor" : [
                    0.25979551672935486,
                    0.25979551672935486,
                    0.25979551672935486,
                    1
                ],
                "metallicFactor" : 0,
                "roughnessFactor" : 0.5
            }
        },
        {
            "doubleSided" : true,
            "name" : "DarkGrey",
            "pbrMetallicRoughness" : {
                "baseColorFactor" : [
                    0.06680479645729065,
                    0.06680479645729065,
                    0.06680479645729065,
                    1
                ],
                "metallicFactor" : 0,
                "roughnessFactor" : 0.5
            }
        }
    ],
    "meshes" : [
        {
            "name" : "Cylinder.002",
            "primitives" : [
                {
                    "attributes" : {
                        "POSITION" : 0,
                        "NORMAL" : 1
                    },
                    "indices" : 2,
                    "material" : 0
                },
                {
                    "attributes" : {
                        "POSITION" : 3,
                        "NORMAL" : 4
                    },
                    "indices" : 5,
                    "material" : 1
                },
                {
                    "attributes" : {
                        "POSITION" : 6,
                        "NORMAL" : 7
                    },
                    "indices" : 8,
                    "material" : 2
                }
            ]
        }
    ],
    "accessors" : [
        {
            "bufferView" : 0,
            "componentType" : 5126,
            "count" : 154,
            "max" : [
                0.07518570870161057,
                0.35720255970954895,
                0.1601032167673111
            ],
            "min" : [
                -0.46464332938194275,
                -0.3575218617916107,
                -0.04440777003765106
            ],
            "type" : "VEC3"
        },
        {
            "bufferView" : 1,
            "componentType" : 5126,
            "count" : 154,
            "type" : "VEC3"
        },
        {
            "bufferView" : 2,
            "componentType" : 5123,
            "count" : 240,
            "type" : "SCALAR"
        },
        {
            "bufferView" : 3,
            "componentType" : 5126,
            "count" : 202,
            "max" : [
                0.13293081521987915,
                0.37171584367752075,
                0.3562258780002594
            ],
            "min" : [
                -0.2881983518600464,
                -0.1990632861852646,
                -0.3004438877105713
            ],
            "type" : "VEC3"
        },
        {
            "bufferView" : 4,
            "componentType" : 5126,
            "count" : 202,
            "type" : "VEC3"
        },
        {
            "bufferView" : 5,
            "componentType" : 5123,
            "count" : 960,
            "type" : "SCALAR"
        },
        {
            "bufferView" : 6,
            "componentType" : 5126,
            "count" : 24,
            "max" : [
                -0.43781766295433044,
                0.3730916380882263,
                0.17389819025993347
            ],
            "min" : [
                -0.4844646453857422,
                0.33165794610977173,
                0.1353306770324707
            ],
            "type" : "VEC3"
        },
        {
            "bufferView" : 7,
            "componentType" : 5126,
            "count" : 24,
            "type" : "VEC3"
        },
        {
            "bufferView" : 8,
            "componentType" : 5123,
            "count" : 36,
            "type" : "SCALAR"
        }
    ],
    "bufferViews" : [
        {
            "buffer" : 0,
            "byteLength" : 1848,
            "byteOffset" : 0
        },
        {
            "buffer" : 0,
            "byteLength" : 1848,
            "byteOffset" : 1848
        },
        {
            "buffer" : 0,
            "byteLength" : 480,
            "byteOffset" : 3696
        },
        {
            "buffer" : 0,
            "byteLength" : 2424,
            "byteOffset" : 4176
        },
        {
            "buffer" : 0,
            "byteLength" : 2424,
            "byteOffset" : 6600
        },
        {
            "buffer" : 0,
            "byteLength" : 1920,
            "byteOffset" : 9024
        },
        {
            "buffer" : 0,
            "byteLength" : 288,
            "byteOffset" : 10944
        },
        {
            "buffer" : 0,
            "byteLength" : 288,
            "byteOffset" : 11232
        },
        {
            "buffer" : 0,
            "byteLength" : 72,
            "byteOffset" : 11520
        }
    ],
    "buffers" : [
        {
            "byteLength" : 11592,
            "uri" : "data:application/octet-stream;base64,"
        }
    ]
}
