# Blender v3.0.0 OBJ File: 'Antenna_2.blend'
# www.blender.org
mtllib Antenna_2.mtl
o Antenna_2_Cylinder.002
v 0.063138 -0.354257 -0.037469
v 0.007069 0.014843 -0.001292
v 0.062994 -0.354856 -0.031582
v 0.006925 0.014244 0.004595
v 0.059437 -0.355850 -0.026955
v 0.003369 0.013251 0.009222
v 0.053828 -0.356859 -0.025356
v -0.002241 0.012242 0.010821
v 0.048308 -0.357497 -0.027396
v -0.007761 0.011603 0.008781
v 0.044986 -0.357522 -0.032295
v -0.011083 0.011579 0.003882
v 0.045130 -0.356923 -0.038183
v -0.010938 0.012178 -0.002006
v 0.048687 -0.355929 -0.042809
v -0.007382 0.013171 -0.006632
v 0.054296 -0.354920 -0.044408
v -0.001773 0.014180 -0.008231
v 0.059816 -0.354282 -0.042368
v 0.003747 0.014819 -0.006191
v 0.050263 -0.053809 0.022539
v 0.075186 -0.217872 0.006459
v -0.005484 -0.063835 0.038427
v 0.019438 -0.227898 0.022347
v 0.040780 -0.052094 -0.009652
v 0.065703 -0.216158 -0.025732
v -0.014967 -0.062120 0.006237
v 0.009955 -0.226183 -0.009844
v 0.062358 -0.181330 -0.014624
v 0.024128 0.070338 0.010043
v 0.062258 -0.181742 -0.010571
v 0.024028 0.069926 0.014095
v 0.059811 -0.182426 -0.007387
v 0.021581 0.069242 0.017280
v 0.055950 -0.183120 -0.006286
v 0.017719 0.068548 0.018380
v 0.052150 -0.183560 -0.007691
v 0.013920 0.068108 0.016976
v 0.049863 -0.183577 -0.011063
v 0.011633 0.068091 0.013604
v 0.049963 -0.183164 -0.015115
v 0.011733 0.068504 0.009552
v 0.052411 -0.182480 -0.018300
v 0.014181 0.069188 0.006367
v 0.056272 -0.181786 -0.019400
v 0.018042 0.069882 0.005267
v 0.060071 -0.181346 -0.017996
v 0.021841 0.070322 0.006671
v 0.067586 0.363152 -0.111120
v 0.089289 0.367719 -0.006717
v 0.014256 0.327491 -0.197041
v 0.109288 0.349095 0.092681
v -0.048209 0.268223 -0.260945
v 0.109862 0.305438 0.186065
v -0.113696 0.191149 -0.296575
v 0.090952 0.241022 0.264293
v -0.175793 0.103815 -0.300444
v 0.054412 0.162150 0.319709
v -0.228422 0.014769 -0.272173
v 0.003816 0.076545 0.346887
v -0.266431 -0.067273 -0.214530
v -0.055881 -0.007414 0.343167
v -0.286101 -0.134279 -0.133157
v -0.118837 -0.081509 0.308914
v -0.285504 -0.179691 -0.036020
v -0.178888 -0.138487 0.247481
v -0.264701 -0.199063 0.067374
v -0.230157 -0.172770 0.164880
v -0.225727 -0.190500 0.166903
v -0.267626 -0.181003 0.069197
v -0.172396 -0.154838 0.252824
v -0.287625 -0.162379 -0.030201
v -0.109931 -0.095570 0.316727
v -0.288198 -0.118722 -0.123584
v -0.044445 -0.018497 0.352357
v -0.269289 -0.054305 -0.201813
v 0.017652 0.068838 0.356226
v -0.232748 0.024566 -0.257228
v 0.070281 0.157884 0.327955
v -0.182153 0.110171 -0.284406
v 0.108291 0.239926 0.270312
v -0.122456 0.194130 -0.280687
v 0.127960 0.306932 0.188939
v -0.059500 0.268225 -0.246434
v 0.106560 0.371716 -0.011592
v 0.000551 0.325203 -0.185000
v 0.127364 0.352344 0.091802
v 0.051821 0.359486 -0.102399
v 0.109702 0.331255 0.086873
v 0.090593 0.349049 -0.008096
v 0.110250 0.289543 0.176096
v 0.092183 0.227997 0.250839
v 0.057271 0.152640 0.303785
v 0.008930 0.070849 0.329753
v -0.048108 -0.009369 0.326199
v -0.108258 -0.080163 0.293472
v -0.165634 -0.134602 0.234776
v -0.214619 -0.167358 0.155855
v -0.250418 -0.175224 0.064436
v -0.269526 -0.157430 -0.030533
v -0.270074 -0.115718 -0.119756
v -0.252007 -0.054171 -0.194499
v -0.217095 0.021186 -0.247445
v -0.168754 0.102976 -0.273412
v -0.111716 0.183195 -0.269858
v -0.051566 0.253988 -0.237131
v 0.005810 0.308427 -0.178435
v 0.054795 0.341183 -0.099514
v 0.095246 0.253230 0.063209
v 0.080610 0.266859 -0.009532
v 0.095666 0.221281 0.131549
v 0.081828 0.174139 0.188798
v 0.055086 0.116420 0.229353
v 0.018060 0.053772 0.249242
v -0.025628 -0.007671 0.246520
v -0.071700 -0.061896 0.221453
v -0.115647 -0.103593 0.176495
v -0.153167 -0.128682 0.116046
v -0.180587 -0.134707 0.046023
v -0.195224 -0.121078 -0.026718
v -0.195643 -0.089129 -0.095059
v -0.181805 -0.041987 -0.152308
v -0.155064 0.015732 -0.192862
v -0.118037 0.078380 -0.212752
v -0.074349 0.139823 -0.210030
v -0.028277 0.194048 -0.184962
v 0.015670 0.235745 -0.140004
v 0.053190 0.260834 -0.079555
v 0.070136 0.173025 0.039977
v 0.060459 0.182035 -0.008114
v 0.070413 0.151902 0.085159
v 0.061264 0.120735 0.123009
v 0.043585 0.082575 0.149821
v 0.019105 0.041156 0.162970
v -0.009778 0.000534 0.161171
v -0.040238 -0.035315 0.144598
v -0.069293 -0.062883 0.114874
v -0.094099 -0.079470 0.074909
v -0.112227 -0.083454 0.028615
v -0.121903 -0.074443 -0.019477
v -0.122181 -0.053320 -0.064659
v -0.113032 -0.022153 -0.102508
v -0.095352 0.016007 -0.129320
v -0.070873 0.057426 -0.142469
v -0.041989 0.098048 -0.140670
v -0.011529 0.133897 -0.124097
v 0.017526 0.161465 -0.094373
v 0.042331 0.178052 -0.054408
v -0.020897 0.045818 0.008596
v 0.028491 0.292634 -0.185958
v -0.028885 0.238195 -0.244654
v -0.089035 0.167401 -0.277381
v -0.146073 0.087183 -0.280935
v -0.194413 0.005392 -0.254968
v -0.229326 -0.069965 -0.202021
v -0.247393 -0.131512 -0.127279
v -0.246845 -0.173223 -0.038056
v -0.227737 -0.191017 0.056913
v -0.191938 -0.183151 0.148332
v -0.142953 -0.150396 0.227253
v -0.085577 -0.095957 0.285949
v -0.025427 -0.025163 0.318676
v 0.031611 0.055055 0.322230
v 0.079952 0.136846 0.296263
v 0.114864 0.212203 0.243316
v 0.132931 0.273750 0.168573
v 0.113275 0.333255 -0.015618
v 0.132383 0.315461 0.079351
v 0.077476 0.325389 -0.107037
v 0.117927 0.237436 0.055686
v 0.103291 0.251066 -0.017055
v 0.118347 0.205487 0.124026
v 0.104509 0.158346 0.181276
v 0.077767 0.100626 0.221830
v 0.040741 0.037978 0.241720
v -0.002947 -0.023465 0.238998
v -0.049019 -0.077689 0.213931
v -0.092966 -0.119387 0.168972
v -0.130486 -0.144476 0.108523
v -0.157906 -0.150501 0.038500
v -0.172542 -0.136872 -0.034241
v -0.172962 -0.104923 -0.102581
v -0.159124 -0.057781 -0.159831
v -0.132383 -0.000061 -0.200385
v -0.095356 0.062586 -0.220274
v -0.051668 0.124030 -0.217552
v -0.005596 0.178254 -0.192485
v 0.038351 0.219952 -0.147527
v 0.075871 0.245041 -0.087077
v 0.092817 0.157231 0.032455
v 0.083141 0.166242 -0.015637
v 0.093094 0.136109 0.077637
v 0.083945 0.104942 0.115486
v 0.066266 0.066781 0.142298
v 0.041786 0.025363 0.155448
v 0.012903 -0.015259 0.153648
v -0.017557 -0.051109 0.137075
v -0.046612 -0.078677 0.107352
v -0.071418 -0.095264 0.067387
v -0.089546 -0.099247 0.021093
v -0.099222 -0.090236 -0.026999
v -0.099500 -0.069114 -0.072181
v -0.090351 -0.037947 -0.110031
v -0.072671 0.000213 -0.136843
v -0.048192 0.041632 -0.149992
v -0.019308 0.082254 -0.148193
v 0.011152 0.118104 -0.131620
v 0.040207 0.145671 -0.101896
v 0.065012 0.162259 -0.061931
v 0.015960 0.020154 -0.003628
v 0.000676 0.037811 0.001815
v -0.458001 0.357203 0.153947
v 0.001038 0.036715 0.005207
v -0.457639 0.356107 0.157339
v 0.000063 0.034193 0.007559
v -0.458615 0.353585 0.159690
v -0.001878 0.031210 0.007971
v -0.460555 0.350602 0.160103
v -0.004043 0.028903 0.006288
v -0.462720 0.348295 0.158419
v -0.005604 0.028155 0.003151
v -0.464281 0.347547 0.155282
v -0.005966 0.029251 -0.000242
v -0.464643 0.348643 0.151890
v -0.004990 0.031772 -0.002593
v -0.463668 0.351164 0.149538
v -0.003050 0.034756 -0.003006
v -0.461727 0.354148 0.149126
v -0.000885 0.037063 -0.001322
v -0.459562 0.356454 0.150809
v -0.461603 0.333131 0.138657
v -0.484465 0.349050 0.146239
v -0.445966 0.357172 0.135331
v -0.468827 0.373092 0.142913
v -0.453455 0.331658 0.166316
v -0.476317 0.347577 0.173898
v -0.437818 0.355699 0.162990
v -0.460679 0.371618 0.170572
vn 0.9885 0.1463 0.0392
vn 0.7853 0.0589 0.6163
vn 0.2822 -0.0510 0.9580
vn -0.3287 -0.1415 0.9338
vn -0.8140 -0.1779 0.5529
vn -0.9885 -0.1463 -0.0392
vn -0.7853 -0.0589 -0.6163
vn -0.2822 0.0510 -0.9580
vn 0.3287 0.1415 -0.9338
vn 0.8140 0.1779 -0.5529
vn -0.9476 -0.1704 0.2701
vn 0.9476 0.1704 -0.2701
vn -0.1495 0.9840 0.0965
vn 0.1495 -0.9840 -0.0965
vn 0.6023 0.7762 0.1865
vn 0.5467 0.4482 0.7073
vn -0.0900 -0.5307 0.8427
vn -0.4279 -0.8077 0.4056
vn -0.6023 -0.7762 -0.1865
vn -0.5467 -0.4482 -0.7073
vn 0.0900 0.5307 -0.8427
vn 0.4279 0.8077 -0.4056
vn 0.9440 0.1928 -0.2678
vn 0.9586 0.0537 -0.2795
vn 0.8908 0.0388 -0.4527
vn 0.8641 0.1753 -0.4719
vn 0.3651 -0.3564 -0.8600
vn 0.4675 -0.4123 -0.7820
vn 0.3760 -0.5672 -0.7328
vn 0.2572 -0.5390 -0.8021
vn 0.1828 -0.9774 -0.1059
vn 0.3129 -0.9391 -0.1422
vn 0.3807 -0.9242 0.0309
vn 0.2627 -0.9599 0.0982
vn 0.7617 -0.4282 0.4863
vn 0.8040 -0.4731 0.3602
vn 0.8955 -0.3182 0.3111
vn 0.8696 -0.2456 0.4284
vn 0.6267 -0.0194 -0.7791
vn 0.6894 -0.1263 -0.7133
vn 0.5755 -0.2604 -0.7752
vn 0.4924 -0.1774 -0.8521
vn 0.1389 -0.8446 -0.5171
vn 0.2756 -0.8264 -0.4910
vn 0.2767 -0.9054 -0.3220
vn 0.1401 -0.9377 -0.3179
vn 0.5001 -0.7652 0.4053
vn 0.5821 -0.7591 0.2915
vn 0.6960 -0.6250 0.3535
vn 0.6344 -0.6072 0.4784
vn 0.9879 0.0600 0.1433
vn 0.9959 -0.0590 0.0693
vn 0.9948 0.0200 -0.0997
vn 0.9866 0.1531 -0.0558
vn 0.7981 -0.0232 -0.6021
vn 0.7547 0.1022 -0.6480
vn 0.3099 -0.7099 -0.6325
vn 0.1792 -0.7072 -0.6839
vn 0.4734 -0.8622 0.1804
vn 0.3720 -0.8868 0.2743
vn 0.9616 -0.1755 0.2108
vn 0.9475 -0.0774 0.3102
vn -0.4498 0.8697 -0.2034
vn -0.5634 0.7619 -0.3195
vn -0.6123 0.7523 -0.2434
vn -0.5122 0.8472 -0.1410
vn 0.9688 -0.1864 -0.1636
vn 0.9440 -0.1633 -0.2868
vn -0.9925 0.0345 0.1171
vn -0.9592 0.0034 0.2827
vn -0.9440 0.1633 0.2868
vn -0.9688 0.1864 0.1636
vn -0.9946 -0.0521 0.0893
vn -0.9568 -0.0873 0.2772
vn -0.2789 0.7105 0.6460
vn -0.2432 0.8323 0.4982
vn -0.3300 0.8143 0.4776
vn -0.3615 0.7069 0.6080
vn -0.7891 -0.0070 0.6143
vn -0.6755 0.1008 0.7304
vn -0.7112 0.1693 0.6823
vn -0.8113 0.0743 0.5799
vn -0.6824 0.6219 -0.3843
vn -0.7952 0.4631 -0.3913
vn -0.8167 0.4888 -0.3067
vn -0.7172 0.6288 -0.3005
vn -0.2443 0.9148 0.3216
vn -0.2821 0.9500 0.1337
vn -0.3643 0.9181 0.1562
vn -0.3309 0.8871 0.3219
vn -0.5565 0.2408 0.7952
vn -0.4437 0.3996 0.8022
vn -0.5067 0.4328 0.7456
vn -0.6062 0.2928 0.7394
vn -0.8909 0.3013 -0.3399
vn -0.9600 0.1522 -0.2351
vn -0.9620 0.2146 -0.1690
vn -0.9011 0.3461 -0.2614
vn -0.3529 0.9345 -0.0472
vn -0.4267 0.9044 -0.0033
vn -0.3480 0.5614 0.7508
vn -0.4224 0.5754 0.7003
vn -0.8860 -0.0718 0.4581
vn -0.8967 0.0172 0.4422
vn -0.9957 0.0304 -0.0872
vn -0.9935 0.1073 -0.0386
vn -0.4996 0.6863 0.5286
vn -0.4762 0.7661 0.4316
vn -0.6459 0.6752 0.3562
vn -0.6581 0.6338 0.4065
vn -0.6076 0.4825 0.6309
vn -0.6816 0.3784 0.6263
vn -0.6116 0.7906 -0.0282
vn -0.5481 0.8331 0.0741
vn -0.9695 0.2405 0.0479
vn -0.7596 0.2866 0.5838
vn -0.5017 0.8433 0.1927
vn -0.9460 0.3203 -0.0491
vn -0.8340 0.2160 0.5077
vn -0.4769 0.8202 0.3159
vn -0.9008 0.4181 -0.1177
vn -0.8975 0.1735 0.4054
vn -0.8381 0.5242 -0.1514
vn -0.7641 0.6282 -0.1468
vn -0.5449 0.5886 0.5972
vn -0.6861 0.7200 -0.1044
vn -0.6591 0.7153 0.2323
vn -0.6832 0.7100 0.1707
vn -0.7918 0.5514 0.2626
vn -0.8336 0.5497 0.0537
vn -0.7953 0.6037 0.0561
vn -0.6815 0.5831 0.4421
vn -0.7548 0.6513 0.0781
vn -0.7141 0.5281 0.4596
vn -0.7162 0.6879 0.1176
vn -0.8886 0.3625 0.2811
vn -0.9015 0.3744 0.2172
vn -0.7525 0.4741 0.4572
vn -0.9018 0.4025 0.1571
vn -0.7929 0.4264 0.4352
vn -0.8897 0.4439 0.1068
vn -0.8315 0.3898 0.3957
vn -0.6463 0.7033 0.2962
vn -0.8662 0.4946 0.0712
vn -0.8645 0.3678 0.3426
vn 0.6861 -0.7200 0.1044
vn 0.7641 -0.6282 0.1468
vn 0.5449 -0.5886 -0.5972
vn 0.4996 -0.6863 -0.5286
vn 0.8381 -0.5242 0.1514
vn 0.4762 -0.7661 -0.4316
vn 0.8975 -0.1735 -0.4054
vn 0.9008 -0.4181 0.1177
vn 0.4769 -0.8202 -0.3159
vn 0.8340 -0.2160 -0.5077
vn 0.9460 -0.3203 0.0491
vn 0.5017 -0.8433 -0.1927
vn 0.7596 -0.2866 -0.5838
vn 0.9695 -0.2405 -0.0479
vn 0.5481 -0.8331 -0.0741
vn 0.6816 -0.3784 -0.6263
vn 0.6116 -0.7906 0.0282
vn 0.6076 -0.4825 -0.6309
vn 0.6221 -0.6491 -0.4378
vn 0.6071 -0.7000 -0.3760
vn 0.6234 -0.7493 -0.2236
vn 0.7918 -0.5514 -0.2626
vn 0.6530 -0.7428 -0.1479
vn 0.7908 -0.6120 -0.0069
vn 0.8380 -0.5456 -0.0040
vn 0.6510 -0.5867 -0.4816
vn 0.7410 -0.6706 -0.0340
vn 0.6910 -0.5190 -0.5031
vn 0.6936 -0.7157 -0.0826
vn 0.9214 -0.3301 -0.2050
vn 0.9056 -0.3154 -0.2836
vn 0.7382 -0.4527 -0.5002
vn 0.9219 -0.3647 -0.1311
vn 0.7880 -0.3941 -0.4731
vn 0.9069 -0.4156 -0.0693
vn 0.8354 -0.3490 -0.4245
vn 0.6076 -0.7345 -0.3021
vn 0.8780 -0.4780 -0.0255
vn 0.8760 -0.3219 -0.3592
vn -0.7593 -0.0909 0.6444
vn -0.6329 0.0291 0.7737
vn -0.1526 0.9355 0.3185
vn -0.1947 0.9748 0.1093
vn -0.9496 0.0863 -0.3014
vn -0.9894 -0.0493 -0.1367
vn -0.3815 0.8852 -0.2660
vn -0.5079 0.7653 -0.3954
vn -0.5003 0.1851 0.8458
vn -0.3747 0.3618 0.8537
vn -0.9882 -0.1412 0.0598
vn -0.9461 -0.1804 0.2691
vn -0.6405 0.6093 -0.4675
vn -0.7661 0.4326 -0.4753
vn -0.2681 0.5420 0.7964
vn -0.1912 0.7080 0.6798
vn -0.8672 -0.1630 0.4705
vn -0.8727 0.2524 -0.4181
vn -0.2736 0.9574 -0.0921
vn -0.1514 0.8436 0.5151
vn 0.5416 0.8327 -0.1152
vn -0.5416 -0.8327 0.1152
usemtl Grey
s 1
f 1//1 2//1 4//1 3//1
f 3//2 4//2 6//2 5//2
f 5//3 6//3 8//3 7//3
f 7//4 8//4 10//4 9//4
f 9//5 10//5 12//5 11//5
f 11//6 12//6 14//6 13//6
f 13//7 14//7 16//7 15//7
f 15//8 16//8 18//8 17//8
f 17//9 18//9 20//9 19//9
f 19//10 20//10 2//10 1//10
f 21//3 23//3 24//3 22//3
f 23//11 27//11 28//11 24//11
f 27//8 25//8 26//8 28//8
f 25//12 21//12 22//12 26//12
f 23//13 21//13 25//13 27//13
f 28//14 26//14 22//14 24//14
f 29//1 30//1 32//1 31//1
f 31//2 32//2 34//2 33//2
f 33//3 34//3 36//3 35//3
f 35//4 36//4 38//4 37//4
f 37//5 38//5 40//5 39//5
f 39//6 40//6 42//6 41//6
f 41//7 42//7 44//7 43//7
f 43//8 44//8 46//8 45//8
f 45//9 46//9 48//9 47//9
f 47//10 48//10 30//10 29//10
f 29//14 31//14 33//14 35//14 37//14 39//14 41//14 43//14 45//14 47//14
f 211//15 212//15 214//15 213//15
f 213//16 214//16 216//16 215//16
f 215//3 216//3 218//3 217//3
f 217//17 218//17 220//17 219//17
f 219//18 220//18 222//18 221//18
f 221//19 222//19 224//19 223//19
f 223//20 224//20 226//20 225//20
f 225//8 226//8 228//8 227//8
f 227//21 228//21 230//21 229//21
f 229//22 230//22 212//22 211//22
usemtl LightGrey
f 85//23 167//24 169//25 49//26
f 57//27 153//28 154//29 59//30
f 67//31 158//32 159//33 69//34
f 77//35 163//36 164//37 79//38
f 53//39 151//40 152//41 55//42
f 63//43 156//44 157//45 65//46
f 73//47 161//48 162//49 75//50
f 83//51 166//52 168//53 87//54
f 49//26 169//25 150//55 51//56
f 59//30 154//29 155//57 61//58
f 69//34 159//33 160//59 71//60
f 79//38 164//37 165//61 81//62
f 55//42 152//41 153//28 57//27
f 65//46 157//45 158//32 67//31
f 75//50 162//49 163//36 77//35
f 51//56 150//55 151//40 53//39
f 61//58 155//57 156//44 63//43
f 87//54 168//53 167//24 85//23
f 66//63 64//64 96//65 97//66
f 168//53 170//67 171//68 167//24
f 71//60 160//59 161//48 73//47
f 81//62 165//61 166//52 83//51
f 89//69 90//70 110//71 109//72
f 52//73 50//74 90//70 89//69
f 76//75 74//76 101//77 102//78
f 86//79 84//80 106//81 107//82
f 62//83 60//84 94//85 95//86
f 72//87 70//88 99//89 100//90
f 82//91 80//92 104//93 105//94
f 58//95 56//96 92//97 93//98
f 68//99 66//63 97//66 98//100
f 78//101 76//75 102//78 103//102
f 88//103 86//79 107//82 108//104
f 54//105 52//73 89//69 91//106
f 64//64 62//83 95//86 96//65
f 74//76 72//87 100//90 101//77
f 84//80 82//91 105//94 106//81
f 60//84 58//95 93//98 94//85
f 70//88 68//99 98//100 99//89
f 80//92 78//101 103//102 104//93
f 50//74 88//103 108//104 90//70
f 56//96 54//105 91//106 92//97
f 122//107 121//108 141//109 142//110
f 105//94 104//93 124//111 125//112
f 98//100 97//66 117//113 118//114
f 91//106 89//69 109//72 111//115
f 106//81 105//94 125//112 126//116
f 99//89 98//100 118//114 119//117
f 92//97 91//106 111//115 112//118
f 107//82 106//81 126//116 127//119
f 100//90 99//89 119//117 120//120
f 93//98 92//97 112//118 113//121
f 108//104 107//82 127//119 128//122
f 101//77 100//90 120//120 121//108
f 94//85 93//98 113//121 114//123
f 90//70 108//104 128//122 110//71
f 102//78 101//77 121//108 122//107
f 95//86 94//85 114//123 115//124
f 103//102 102//78 122//107 123//125
f 96//65 95//86 115//124 116//126
f 104//93 103//102 123//125 124//111
f 97//66 96//65 116//126 117//113
f 139//127 138//128 149//129
f 115//124 114//123 134//130 135//131
f 123//125 122//107 142//110 143//132
f 116//126 115//124 135//131 136//133
f 124//111 123//125 143//132 144//134
f 117//113 116//126 136//133 137//135
f 109//72 110//71 130//136 129//137
f 125//112 124//111 144//134 145//138
f 118//114 117//113 137//135 138//128
f 111//115 109//72 129//137 131//139
f 126//116 125//112 145//138 146//140
f 119//117 118//114 138//128 139//127
f 112//118 111//115 131//139 132//141
f 127//119 126//116 146//140 147//142
f 120//120 119//117 139//127 140//143
f 113//121 112//118 132//141 133//144
f 128//122 127//119 147//142 148//145
f 121//108 120//120 140//143 141//109
f 114//123 113//121 133//144 134//130
f 110//71 128//122 148//145 130//136
f 161//48 177//146 176//147 162//49
f 132//141 131//139 149//129
f 147//142 146//140 149//129
f 140//143 139//127 149//129
f 133//144 132//141 149//129
f 148//145 147//142 149//129
f 141//109 140//143 149//129
f 134//130 133//144 149//129
f 130//136 148//145 149//129
f 142//110 141//109 149//129
f 135//131 134//130 149//129
f 143//132 142//110 149//129
f 136//133 135//131 149//129
f 144//134 143//132 149//129
f 137//135 136//133 149//129
f 129//137 130//136 149//129
f 145//138 144//134 149//129
f 138//128 137//135 149//129
f 131//139 129//137 149//129
f 146//140 145//138 149//129
f 154//29 184//148 183//149 155//57
f 162//49 176//147 175//150 163//36
f 155//57 183//149 182//151 156//44
f 167//24 171//68 189//152 169//25
f 163//36 175//150 174//153 164//37
f 156//44 182//151 181//154 157//45
f 169//25 189//152 188//155 150//55
f 164//37 174//153 173//156 165//61
f 157//45 181//154 180//157 158//32
f 150//55 188//155 187//158 151//40
f 165//61 173//156 172//159 166//52
f 158//32 180//157 179//160 159//33
f 151//40 187//158 186//161 152//41
f 166//52 172//159 170//67 168//53
f 159//33 179//160 178//162 160//59
f 152//41 186//161 185//163 153//28
f 183//149 203//164 202//165 182//151
f 153//28 185//163 184//148 154//29
f 160//59 178//162 177//146 161//48
f 200//166 210//167 199//168
f 176//147 196//169 195//170 175//150
f 184//148 204//171 203//164 183//149
f 177//146 197//172 196//169 176//147
f 185//163 205//173 204//171 184//148
f 178//162 198//174 197//172 177//146
f 170//67 190//175 191//176 171//68
f 186//161 206//177 205//173 185//163
f 179//160 199//168 198//174 178//162
f 172//159 192//178 190//175 170//67
f 187//158 207//179 206//177 186//161
f 180//157 200//166 199//168 179//160
f 173//156 193//180 192//178 172//159
f 188//155 208//181 207//179 187//158
f 181//154 201//182 200//166 180//157
f 174//153 194//183 193//180 173//156
f 189//152 209//184 208//181 188//155
f 182//151 202//165 201//182 181//154
f 175//150 195//170 194//183 174//153
f 171//68 191//176 209//184 189//152
f 193//180 210//167 192//178
f 208//181 210//167 207//179
f 201//182 210//167 200//166
f 194//183 210//167 193//180
f 209//184 210//167 208//181
f 202//165 210//167 201//182
f 195//170 210//167 194//183
f 191//176 210//167 209//184
f 203//164 210//167 202//165
f 196//169 210//167 195//170
f 204//171 210//167 203//164
f 197//172 210//167 196//169
f 205//173 210//167 204//171
f 198//174 210//167 197//172
f 190//175 210//167 191//176
f 206//177 210//167 205//173
f 199//168 210//167 198//174
f 192//178 210//167 190//175
f 207//179 210//167 206//177
f 66//185 71//185 73//186 64//186
f 52//187 87//187 85//188 50//188
f 76//189 61//189 63//190 74//190
f 86//191 51//191 53//192 84//192
f 62//193 75//193 77//194 60//194
f 72//195 65//195 67//196 70//196
f 82//197 55//197 57//198 80//198
f 58//199 79//199 81//200 56//200
f 68//201 69//201 71//185 66//185
f 78//202 59//202 61//189 76//189
f 88//203 49//203 51//191 86//191
f 54//204 83//204 87//187 52//187
f 64//186 73//186 75//193 62//193
f 74//190 63//190 65//195 72//195
f 84//192 53//192 55//197 82//197
f 60//194 77//194 79//199 58//199
f 70//196 67//196 69//201 68//201
f 80//198 57//198 59//202 78//202
f 50//188 85//188 49//203 88//203
f 56//200 81//200 83//204 54//204
usemtl DarkGrey
f 231//8 232//8 234//8 233//8
f 233//205 234//205 238//205 237//205
f 237//3 238//3 236//3 235//3
f 235//206 236//206 232//206 231//206
f 233//167 237//167 235//167 231//167
f 238//129 234//129 232//129 236//129
