# Blender v3.0.0 OBJ File: 'Cable_Small.blend'
# www.blender.org
mtllib Cable_Small.mtl
o Cable_Small_CUBezierCurve.001
v -0.069739 0.003605 0.028077
v -0.058172 0.003954 0.032862
v -0.053372 0.003976 0.044424
v -0.058154 0.003660 0.055993
v -0.069713 0.003189 0.060792
v -0.081281 0.002841 0.056008
v -0.086081 0.002818 0.044445
v -0.081299 0.003135 0.032877
v -0.068127 -0.115651 0.027243
v -0.056562 -0.115162 0.032028
v -0.051760 -0.115285 0.043589
v -0.056537 -0.115948 0.055155
v -0.068092 -0.116762 0.059952
v -0.079657 -0.117250 0.055167
v -0.084460 -0.117127 0.043606
v -0.079682 -0.116465 0.032040
v -0.065830 -0.231543 0.025719
v -0.054268 -0.230895 0.030507
v -0.049463 -0.231143 0.042066
v -0.054233 -0.232144 0.053628
v -0.065782 -0.233309 0.058421
v -0.077344 -0.233957 0.053633
v -0.082148 -0.233709 0.042074
v -0.077378 -0.232708 0.030512
v -0.062869 -0.342747 0.023617
v -0.051312 -0.341910 0.028407
v -0.046504 -0.342262 0.039965
v -0.051266 -0.343599 0.051521
v -0.062804 -0.345136 0.056306
v -0.074361 -0.345973 0.051515
v -0.079168 -0.345620 0.039958
v -0.074407 -0.344284 0.028402
v -0.059267 -0.447935 0.021043
v -0.047718 -0.446867 0.025840
v -0.042907 -0.447301 0.037396
v -0.047657 -0.448984 0.048943
v -0.059181 -0.450929 0.053718
v -0.070730 -0.451998 0.048921
v -0.075540 -0.451564 0.037366
v -0.070791 -0.449881 0.025819
v -0.055047 -0.545775 0.018109
v -0.043510 -0.544415 0.022914
v -0.038697 -0.544908 0.034468
v -0.043430 -0.546966 0.046004
v -0.054934 -0.549382 0.050765
v -0.066470 -0.550741 0.045960
v -0.071283 -0.550248 0.034406
v -0.066550 -0.548191 0.022870
v -0.050231 -0.634931 0.014923
v -0.038716 -0.633190 0.019742
v -0.033901 -0.633715 0.031295
v -0.038611 -0.636199 0.042815
v -0.050083 -0.639187 0.047556
v -0.061599 -0.640928 0.042737
v -0.066413 -0.640403 0.031185
v -0.061703 -0.637919 0.019664
v -0.044847 -0.714060 0.011597
v -0.033368 -0.711794 0.016438
v -0.028553 -0.712316 0.027991
v -0.033227 -0.715322 0.039489
v -0.044648 -0.719050 0.044199
v -0.056127 -0.721316 0.039358
v -0.060941 -0.720794 0.027805
v -0.056268 -0.717788 0.016306
v -0.038923 -0.781797 0.008242
v -0.027513 -0.778758 0.013122
v -0.022703 -0.779225 0.024677
v -0.027314 -0.782926 0.036141
v -0.038642 -0.787692 0.040799
v -0.050052 -0.790731 0.035919
v -0.054861 -0.790264 0.024363
v -0.050250 -0.786563 0.012899
v -0.032501 -0.836730 0.004976
v -0.021244 -0.832440 0.009932
v -0.016453 -0.832758 0.021497
v -0.020937 -0.837501 0.032897
v -0.032066 -0.843887 0.037456
v -0.043324 -0.848177 0.032500
v -0.048115 -0.847859 0.020936
v -0.043631 -0.843116 0.009535
v -0.025684 -0.877294 0.001937
v -0.014853 -0.870665 0.007077
v -0.010126 -0.870631 0.018669
v -0.014274 -0.877215 0.029925
v -0.024866 -0.886558 0.034252
v -0.035696 -0.893187 0.029112
v -0.040423 -0.893221 0.017520
v -0.036275 -0.886637 0.006264
v -0.018918 -0.901495 -0.000630
v -0.009845 -0.889707 0.005138
v -0.005417 -0.888795 0.016838
v -0.008230 -0.899298 0.027615
v -0.016635 -0.915060 0.031160
v -0.025708 -0.926848 0.025392
v -0.030136 -0.927760 0.013692
v -0.027323 -0.917257 0.002914
v -0.013695 -0.908330 -0.002150
v -0.009366 -0.891475 0.005192
v -0.005298 -0.890179 0.017010
v -0.003874 -0.905208 0.026383
v -0.005927 -0.927753 0.027822
v -0.010256 -0.944608 0.020480
v -0.014325 -0.945904 0.008662
v -0.015749 -0.930875 -0.000711
v -0.009208 -0.906062 -0.003671
v -0.009263 -0.890032 0.005311
v -0.004706 -0.888644 0.016947
v 0.001794 -0.902717 0.024420
v 0.006431 -0.924003 0.023356
v 0.006486 -0.940032 0.014374
v 0.001929 -0.941420 0.002738
v -0.004572 -0.927347 -0.004735
v -0.002768 -0.897017 -0.006952
v -0.004769 -0.883441 0.002956
v 0.000336 -0.881362 0.014331
v 0.009559 -0.892003 0.020508
v 0.017496 -0.909126 0.017873
v 0.019497 -0.922702 0.007964
v 0.014392 -0.924781 -0.003411
v 0.005169 -0.914140 -0.009588
v 0.005142 -0.877110 -0.011826
v 0.002048 -0.866125 -0.001269
v 0.007272 -0.863764 0.010035
v 0.017756 -0.871415 0.015465
v 0.027359 -0.884592 0.011842
v 0.030453 -0.895578 0.001285
v 0.025229 -0.897938 -0.010019
v 0.014745 -0.890287 -0.015449
v 0.013564 -0.844801 -0.017752
v 0.009869 -0.836031 -0.006783
v 0.015079 -0.833723 0.004531
v 0.026144 -0.839231 0.009561
v 0.036582 -0.849326 0.005365
v 0.040277 -0.858096 -0.005604
v 0.035068 -0.860404 -0.016918
v 0.024002 -0.854896 -0.021949
v 0.021955 -0.799042 -0.024254
v 0.017916 -0.792099 -0.013023
v 0.023083 -0.790017 -0.001676
v 0.034432 -0.794020 0.003138
v 0.045315 -0.801759 -0.001397
v 0.049354 -0.808702 -0.012628
v 0.044188 -0.810784 -0.023975
v 0.032838 -0.806781 -0.028789
v 0.029985 -0.738745 -0.030935
v 0.025739 -0.733315 -0.019534
v 0.030865 -0.731540 -0.008153
v 0.042362 -0.734460 -0.003460
v 0.053494 -0.740364 -0.008201
v 0.057740 -0.745794 -0.019602
v 0.052615 -0.747570 -0.030983
v 0.041118 -0.744649 -0.035676
v 0.037402 -0.662739 -0.037439
v 0.033030 -0.658581 -0.025929
v 0.038122 -0.657139 -0.014519
v 0.049699 -0.659258 -0.009895
v 0.060977 -0.663697 -0.014762
v 0.065349 -0.667855 -0.026273
v 0.060257 -0.669297 -0.037683
v 0.048681 -0.667177 -0.042307
v 0.043987 -0.569796 -0.043431
v 0.039536 -0.566722 -0.031849
v 0.044604 -0.565617 -0.020418
v 0.056224 -0.567128 -0.015833
v 0.067589 -0.570369 -0.020779
v 0.072040 -0.573443 -0.032360
v 0.066972 -0.574548 -0.043792
v 0.055352 -0.573037 -0.048376
v 0.049531 -0.458658 -0.048581
v 0.045032 -0.456521 -0.036956
v 0.050084 -0.455742 -0.025509
v 0.061728 -0.456778 -0.020946
v 0.073144 -0.459023 -0.025938
v 0.077642 -0.461160 -0.037564
v 0.072591 -0.461939 -0.049011
v 0.060946 -0.460903 -0.053573
v 0.053833 -0.328049 -0.052566
v 0.049307 -0.326728 -0.040915
v 0.054348 -0.326260 -0.029459
v 0.066005 -0.326919 -0.024908
v 0.077449 -0.328319 -0.029926
v 0.081975 -0.329641 -0.041577
v 0.076934 -0.330109 -0.053033
v 0.065277 -0.329450 -0.057584
v 0.056693 -0.176680 -0.055064
v 0.052154 -0.176078 -0.043401
v 0.057189 -0.175902 -0.031940
v 0.068852 -0.176256 -0.027395
v 0.080310 -0.176932 -0.032425
v 0.084850 -0.177534 -0.044087
v 0.079815 -0.177710 -0.055549
v 0.068152 -0.177356 -0.060094
v 0.057915 -0.003259 -0.055754
v 0.053370 -0.003299 -0.044089
v 0.058403 -0.003397 -0.032626
v 0.070069 -0.003496 -0.028082
v 0.081531 -0.003536 -0.033115
v 0.086076 -0.003496 -0.044780
v 0.081043 -0.003398 -0.056243
v 0.069378 -0.003300 -0.060787
vn 0.0044 0.0070 -0.9999
vn -0.0018 0.0100 -0.9999
vn -0.7083 -0.0046 -0.7058
vn -0.7042 -0.0045 -0.7100
vn 0.7084 0.0145 -0.7056
vn 0.7063 0.0188 -0.7076
vn 0.9999 0.0135 -0.0020
vn 0.9998 0.0166 0.0002
vn 0.7109 0.0047 0.7032
vn 0.7068 0.0047 0.7074
vn 0.0062 -0.0069 0.9999
vn 0.0002 -0.0100 0.9999
vn -0.7045 -0.0145 0.7096
vn -0.7063 -0.0189 0.7076
vn -0.9999 -0.0135 -0.0007
vn -0.9998 -0.0167 0.0013
vn -0.0022 0.0160 -0.9998
vn -0.7083 -0.0051 -0.7058
vn 0.7060 0.0276 -0.7076
vn 0.9997 0.0232 0.0003
vn 0.7068 0.0051 0.7074
vn 0.0005 -0.0160 0.9998
vn -0.7061 -0.0278 0.7075
vn -0.9997 -0.0233 0.0010
vn -0.0027 0.0216 -0.9998
vn -0.7083 -0.0061 -0.7059
vn 0.7056 0.0367 -0.7076
vn 0.9995 0.0304 0.0007
vn 0.7067 0.0063 0.7075
vn 0.0008 -0.0216 0.9998
vn -0.7059 -0.0369 0.7073
vn -0.9995 -0.0305 0.0006
vn -0.0033 0.0271 -0.9996
vn -0.7082 -0.0080 -0.7059
vn 0.7052 0.0464 -0.7075
vn 0.9992 0.0385 0.0012
vn 0.7064 0.0082 0.7077
vn 0.0012 -0.0271 0.9996
vn -0.7056 -0.0467 0.7071
vn -0.9992 -0.0387 0.0001
vn -0.0042 0.0327 -0.9995
vn -0.7080 -0.0110 -0.7061
vn 0.7045 0.0573 -0.7074
vn 0.9988 0.0483 0.0020
vn 0.7060 0.0112 0.7081
vn 0.0016 -0.0327 0.9995
vn -0.7051 -0.0576 0.7067
vn -0.9988 -0.0486 -0.0007
vn -0.0054 0.0387 -0.9992
vn -0.7076 -0.0154 -0.7064
vn 0.7035 0.0701 -0.7073
vn 0.9981 0.0606 0.0033
vn 0.7051 0.0157 0.7089
vn 0.0020 -0.0385 0.9992
vn -0.7043 -0.0707 0.7063
vn -0.9981 -0.0610 -0.0018
vn -0.0073 0.0455 -0.9989
vn -0.7069 -0.0222 -0.7069
vn 0.7017 0.0865 -0.7071
vn 0.9970 0.0769 0.0053
vn 0.7035 0.0226 0.7103
vn 0.0025 -0.0452 0.9990
vn -0.7031 -0.0874 0.7057
vn -0.9969 -0.0777 -0.0037
vn -0.0104 0.0540 -0.9985
vn -0.7054 -0.0328 -0.7080
vn 0.6987 0.1091 -0.7070
vn 0.9949 0.1004 0.0088
vn 0.7004 0.0334 0.7129
vn 0.0031 -0.0534 0.9986
vn -0.7008 -0.1108 0.7047
vn -0.9948 -0.1020 -0.0068
vn -0.0166 0.0661 -0.9977
vn -0.7020 -0.0510 -0.7103
vn 0.6921 0.1442 -0.7072
vn 0.9903 0.1379 0.0155
vn 0.6935 0.0517 0.7185
vn 0.0037 -0.0650 0.9979
vn -0.6956 -0.1484 0.7029
vn -0.9897 -0.1424 -0.0128
vn -0.0315 0.0861 -0.9958
vn -0.6926 -0.0889 -0.7158
vn 0.6767 0.2047 -0.7072
vn 0.9787 0.2031 0.0291
vn 0.6769 0.0857 0.7310
vn 0.0043 -0.0857 0.9963
vn -0.6792 -0.2259 0.6983
vn -0.9731 -0.2285 -0.0284
vn -0.0863 0.1185 -0.9892
vn -0.6431 -0.1877 -0.7424
vn 0.6581 0.2401 -0.7136
vn 0.9688 0.2463 0.0251
vn 0.5952 0.1624 0.7870
vn 0.0079 -0.1426 0.9897
vn -0.5733 -0.4501 0.6847
vn -0.8704 -0.4832 -0.0944
vn -0.3035 0.0981 -0.9478
vn -0.4249 -0.3492 -0.8352
vn -0.1527 0.4873 -0.8597
vn 0.3543 0.5788 0.7345
vn 0.3397 0.1696 0.9251
vn 0.2005 -0.2744 0.9405
vn -0.0638 -0.8262 0.5597
vn -0.3587 -0.8899 -0.2818
vn -0.5067 0.1554 -0.8480
vn -0.1465 -0.3019 -0.9420
vn -0.9001 0.4182 -0.1220
vn -0.5391 0.4999 0.6778
vn 0.1941 0.2294 0.9538
vn 0.5252 -0.2191 0.8223
vn 0.6144 -0.7219 0.3181
vn 0.3049 -0.7913 -0.5299
vn -0.6176 0.1114 -0.7786
vn -0.0887 -0.2282 -0.9695
vn -0.8954 0.4204 -0.1468
vn -0.5591 0.4810 0.6752
vn 0.1516 0.2174 0.9642
vn 0.6570 -0.1252 0.7434
vn 0.8766 -0.4576 0.1489
vn 0.5552 -0.5242 -0.6456
vn -0.6749 0.0705 -0.7345
vn -0.0635 -0.1826 -0.9811
vn -0.9543 0.2909 -0.0690
vn -0.6307 0.3443 0.6954
vn 0.0968 0.1822 0.9785
vn 0.6999 -0.0708 0.7107
vn 0.9502 -0.3048 0.0646
vn 0.6321 -0.3644 -0.6839
vn -0.6993 0.0429 -0.7135
vn -0.0477 -0.1474 -0.9879
vn -0.9774 0.2091 -0.0301
vn -0.6603 0.2557 0.7061
vn 0.0669 0.1479 0.9867
vn 0.7151 -0.0410 0.6978
vn 0.9763 -0.2151 0.0241
vn 0.6621 -0.2661 -0.7006
vn -0.7102 0.0259 -0.7035
vn -0.0373 -0.1183 -0.9922
vn -0.9880 0.1540 -0.0089
vn -0.6746 0.1937 0.7123
vn 0.0496 0.1185 0.9917
vn 0.7210 -0.0240 0.6925
vn 0.9876 -0.1569 0.0031
vn 0.6760 -0.1996 -0.7094
vn -0.7154 0.0155 -0.6985
vn -0.0304 -0.0936 -0.9951
vn -0.9934 0.1143 0.0031
vn -0.6822 0.1472 0.7162
vn 0.0391 0.0936 0.9948
vn 0.7232 -0.0140 0.6905
vn 0.9932 -0.1158 -0.0085
vn 0.6831 -0.1507 -0.7146
vn -0.7179 0.0092 -0.6961
vn -0.0259 -0.0723 -0.9970
vn -0.9964 0.0844 0.0103
vn -0.6865 0.1106 0.7186
vn 0.0325 0.0722 0.9969
vn 0.7239 -0.0082 0.6899
vn 0.9962 -0.0852 -0.0151
vn 0.6871 -0.1127 -0.7177
vn -0.7192 0.0055 -0.6948
vn -0.0230 -0.0538 -0.9983
vn -0.9980 0.0609 0.0147
vn -0.6890 0.0808 0.7202
vn 0.0282 0.0537 0.9981
vn 0.7240 -0.0049 0.6898
vn 0.9979 -0.0614 -0.0189
vn 0.6894 -0.0821 -0.7197
vn -0.7198 0.0035 -0.6941
vn -0.0213 -0.0374 -0.9991
vn -0.9990 0.0420 0.0173
vn -0.6905 0.0559 0.7212
vn 0.0255 0.0374 0.9990
vn 0.7238 -0.0031 0.6900
vn 0.9989 -0.0422 -0.0210
vn 0.6907 -0.0567 -0.7209
vn -0.7202 0.0025 -0.6937
vn -0.0203 -0.0229 -0.9995
vn -0.9995 0.0263 0.0188
vn -0.6914 0.0347 0.7216
vn 0.0238 0.0229 0.9995
vn 0.7236 -0.0023 0.6902
vn 0.9994 -0.0264 -0.0221
vn 0.6914 -0.0351 -0.7216
vn -0.7204 0.0023 -0.6935
vn -0.0199 -0.0099 -0.9997
vn -0.9997 0.0131 0.0195
vn -0.6918 0.0163 0.7219
vn 0.0228 0.0099 0.9997
vn 0.7233 -0.0022 0.6905
vn 0.9996 -0.0132 -0.0225
vn 0.6918 -0.0164 -0.7219
vn -0.7206 0.0023 -0.6934
vn -0.0209 -0.0038 -0.9998
vn -0.9998 0.0071 0.0188
vn -0.6930 0.0077 0.7208
vn 0.0214 0.0038 0.9998
vn 0.7232 -0.0023 0.6906
vn 0.9997 -0.0071 -0.0235
vn 0.6908 -0.0077 -0.7229
usemtl Black
s 1
f 1//1 9//2 16//3 8//4
f 2//5 10//6 9//2 1//1
f 3//7 11//8 10//6 2//5
f 4//9 12//10 11//8 3//7
f 5//11 13//12 12//10 4//9
f 6//13 14//14 13//12 5//11
f 7//15 15//16 14//14 6//13
f 8//4 16//3 15//16 7//15
f 9//2 17//17 24//18 16//3
f 10//6 18//19 17//17 9//2
f 11//8 19//20 18//19 10//6
f 12//10 20//21 19//20 11//8
f 13//12 21//22 20//21 12//10
f 14//14 22//23 21//22 13//12
f 15//16 23//24 22//23 14//14
f 16//3 24//18 23//24 15//16
f 17//17 25//25 32//26 24//18
f 18//19 26//27 25//25 17//17
f 19//20 27//28 26//27 18//19
f 20//21 28//29 27//28 19//20
f 21//22 29//30 28//29 20//21
f 22//23 30//31 29//30 21//22
f 23//24 31//32 30//31 22//23
f 24//18 32//26 31//32 23//24
f 25//25 33//33 40//34 32//26
f 26//27 34//35 33//33 25//25
f 27//28 35//36 34//35 26//27
f 28//29 36//37 35//36 27//28
f 29//30 37//38 36//37 28//29
f 30//31 38//39 37//38 29//30
f 31//32 39//40 38//39 30//31
f 32//26 40//34 39//40 31//32
f 33//33 41//41 48//42 40//34
f 34//35 42//43 41//41 33//33
f 35//36 43//44 42//43 34//35
f 36//37 44//45 43//44 35//36
f 37//38 45//46 44//45 36//37
f 38//39 46//47 45//46 37//38
f 39//40 47//48 46//47 38//39
f 40//34 48//42 47//48 39//40
f 41//41 49//49 56//50 48//42
f 42//43 50//51 49//49 41//41
f 43//44 51//52 50//51 42//43
f 44//45 52//53 51//52 43//44
f 45//46 53//54 52//53 44//45
f 46//47 54//55 53//54 45//46
f 47//48 55//56 54//55 46//47
f 48//42 56//50 55//56 47//48
f 49//49 57//57 64//58 56//50
f 50//51 58//59 57//57 49//49
f 51//52 59//60 58//59 50//51
f 52//53 60//61 59//60 51//52
f 53//54 61//62 60//61 52//53
f 54//55 62//63 61//62 53//54
f 55//56 63//64 62//63 54//55
f 56//50 64//58 63//64 55//56
f 57//57 65//65 72//66 64//58
f 58//59 66//67 65//65 57//57
f 59//60 67//68 66//67 58//59
f 60//61 68//69 67//68 59//60
f 61//62 69//70 68//69 60//61
f 62//63 70//71 69//70 61//62
f 63//64 71//72 70//71 62//63
f 64//58 72//66 71//72 63//64
f 65//65 73//73 80//74 72//66
f 66//67 74//75 73//73 65//65
f 67//68 75//76 74//75 66//67
f 68//69 76//77 75//76 67//68
f 69//70 77//78 76//77 68//69
f 70//71 78//79 77//78 69//70
f 71//72 79//80 78//79 70//71
f 72//66 80//74 79//80 71//72
f 73//73 81//81 88//82 80//74
f 74//75 82//83 81//81 73//73
f 75//76 83//84 82//83 74//75
f 76//77 84//85 83//84 75//76
f 77//78 85//86 84//85 76//77
f 78//79 86//87 85//86 77//78
f 79//80 87//88 86//87 78//79
f 80//74 88//82 87//88 79//80
f 81//81 89//89 96//90 88//82
f 82//83 90//91 89//89 81//81
f 83//84 91//92 90//91 82//83
f 84//85 92//93 91//92 83//84
f 85//86 93//94 92//93 84//85
f 86//87 94//95 93//94 85//86
f 87//88 95//96 94//95 86//87
f 88//82 96//90 95//96 87//88
f 89//89 97//97 104//98 96//90
f 90//91 98//99 97//97 89//89
f 91//92 99//100 98//99 90//91
f 92//93 100//101 99//100 91//92
f 93//94 101//102 100//101 92//93
f 94//95 102//103 101//102 93//94
f 95//96 103//104 102//103 94//95
f 96//90 104//98 103//104 95//96
f 97//97 105//105 112//106 104//98
f 98//99 106//107 105//105 97//97
f 99//100 107//108 106//107 98//99
f 100//101 108//109 107//108 99//100
f 101//102 109//110 108//109 100//101
f 102//103 110//111 109//110 101//102
f 103//104 111//112 110//111 102//103
f 104//98 112//106 111//112 103//104
f 105//105 113//113 120//114 112//106
f 106//107 114//115 113//113 105//105
f 107//108 115//116 114//115 106//107
f 108//109 116//117 115//116 107//108
f 109//110 117//118 116//117 108//109
f 110//111 118//119 117//118 109//110
f 111//112 119//120 118//119 110//111
f 112//106 120//114 119//120 111//112
f 113//113 121//121 128//122 120//114
f 114//115 122//123 121//121 113//113
f 115//116 123//124 122//123 114//115
f 116//117 124//125 123//124 115//116
f 117//118 125//126 124//125 116//117
f 118//119 126//127 125//126 117//118
f 119//120 127//128 126//127 118//119
f 120//114 128//122 127//128 119//120
f 121//121 129//129 136//130 128//122
f 122//123 130//131 129//129 121//121
f 123//124 131//132 130//131 122//123
f 124//125 132//133 131//132 123//124
f 125//126 133//134 132//133 124//125
f 126//127 134//135 133//134 125//126
f 127//128 135//136 134//135 126//127
f 128//122 136//130 135//136 127//128
f 129//129 137//137 144//138 136//130
f 130//131 138//139 137//137 129//129
f 131//132 139//140 138//139 130//131
f 132//133 140//141 139//140 131//132
f 133//134 141//142 140//141 132//133
f 134//135 142//143 141//142 133//134
f 135//136 143//144 142//143 134//135
f 136//130 144//138 143//144 135//136
f 137//137 145//145 152//146 144//138
f 138//139 146//147 145//145 137//137
f 139//140 147//148 146//147 138//139
f 140//141 148//149 147//148 139//140
f 141//142 149//150 148//149 140//141
f 142//143 150//151 149//150 141//142
f 143//144 151//152 150//151 142//143
f 144//138 152//146 151//152 143//144
f 145//145 153//153 160//154 152//146
f 146//147 154//155 153//153 145//145
f 147//148 155//156 154//155 146//147
f 148//149 156//157 155//156 147//148
f 149//150 157//158 156//157 148//149
f 150//151 158//159 157//158 149//150
f 151//152 159//160 158//159 150//151
f 152//146 160//154 159//160 151//152
f 153//153 161//161 168//162 160//154
f 154//155 162//163 161//161 153//153
f 155//156 163//164 162//163 154//155
f 156//157 164//165 163//164 155//156
f 157//158 165//166 164//165 156//157
f 158//159 166//167 165//166 157//158
f 159//160 167//168 166//167 158//159
f 160//154 168//162 167//168 159//160
f 161//161 169//169 176//170 168//162
f 162//163 170//171 169//169 161//161
f 163//164 171//172 170//171 162//163
f 164//165 172//173 171//172 163//164
f 165//166 173//174 172//173 164//165
f 166//167 174//175 173//174 165//166
f 167//168 175//176 174//175 166//167
f 168//162 176//170 175//176 167//168
f 169//169 177//177 184//178 176//170
f 170//171 178//179 177//177 169//169
f 171//172 179//180 178//179 170//171
f 172//173 180//181 179//180 171//172
f 173//174 181//182 180//181 172//173
f 174//175 182//183 181//182 173//174
f 175//176 183//184 182//183 174//175
f 176//170 184//178 183//184 175//176
f 177//177 185//185 192//186 184//178
f 178//179 186//187 185//185 177//177
f 179//180 187//188 186//187 178//179
f 180//181 188//189 187//188 179//180
f 181//182 189//190 188//189 180//181
f 182//183 190//191 189//190 181//182
f 183//184 191//192 190//191 182//183
f 184//178 192//186 191//192 183//184
f 185//185 193//193 200//194 192//186
f 186//187 194//195 193//193 185//185
f 187//188 195//196 194//195 186//187
f 188//189 196//197 195//196 187//188
f 189//190 197//198 196//197 188//189
f 190//191 198//199 197//198 189//190
f 191//192 199//200 198//199 190//191
f 192//186 200//194 199//200 191//192
