{
    "asset" : {
        "generator" : "Khronos glTF Blender I/O v1.7.33",
        "version" : "2.0"
    },
    "scene" : 0,
    "scenes" : [
        {
            "name" : "Scene",
            "nodes" : [
                0
            ]
        }
    ],
    "nodes" : [
        {
            "mesh" : 0,
            "name" : "Computer"
        }
    ],
    "materials" : [
        {
            "doubleSided" : true,
            "name" : "LightGrey",
            "pbrMetallicRoughness" : {
                "baseColorFactor" : [
                    0.25979551672935486,
                    0.25979551672935486,
                    0.25979551672935486,
                    1
                ],
                "metallicFactor" : 0,
                "roughnessFactor" : 0.5
            }
        },
        {
            "doubleSided" : true,
            "name" : "Orange",
            "pbrMetallicRoughness" : {
                "baseColorFactor" : [
                    0.3108104467391968,
                    0.136332169175148,
                    0.03521651774644852,
                    1
                ],
                "metallicFactor" : 0,
                "roughnessFactor" : 0.5
            }
        },
        {
            "doubleSided" : true,
            "name" : "Screen",
            "pbrMetallicRoughness" : {
                "baseColorFactor" : [
                    0.09284792840480804,
                    0.1750662922859192,
                    0.19598467648029327,
                    1
                ],
                "metallicFactor" : 0,
                "roughnessFactor" : 0.5
            }
        },
        {
            "doubleSided" : true,
            "name" : "Grey",
            "pbrMetallicRoughness" : {
                "baseColorFactor" : [
                    0.1733514964580536,
                    0.1733514964580536,
                    0.1733514964580536,
                    1
                ],
                "metallicFactor" : 0,
                "roughnessFactor" : 0.5
            }
        }
    ],
    "meshes" : [
        {
            "name" : "Cube.006",
            "primitives" : [
                {
                    "attributes" : {
                        "POSITION" : 0,
                        "NORMAL" : 1
                    },
                    "indices" : 2,
                    "material" : 0
                },
                {
                    "attributes" : {
                        "POSITION" : 3,
                        "NORMAL" : 4
                    },
                    "indices" : 5,
                    "material" : 1
                },
                {
                    "attributes" : {
                        "POSITION" : 6,
                        "NORMAL" : 7
                    },
                    "indices" : 8,
                    "material" : 2
                },
                {
                    "attributes" : {
                        "POSITION" : 9,
                        "NORMAL" : 10
                    },
                    "indices" : 11,
                    "material" : 3
                }
            ]
        }
    ],
    "accessors" : [
        {
            "bufferView" : 0,
            "componentType" : 5126,
            "count" : 781,
            "max" : [
                0.23483777046203613,
                1.0053379535675049,
                0.30070775747299194
            ],
            "min" : [
                -0.23483777046203613,
                -0.0024644292425364256,
                -0.22404104471206665
            ],
            "type" : "VEC3"
        },
        {
            "bufferView" : 1,
            "componentType" : 5126,
            "count" : 781,
            "type" : "VEC3"
        },
        {
            "bufferView" : 2,
            "componentType" : 5123,
            "count" : 2160,
            "type" : "SCALAR"
        },
        {
            "bufferView" : 3,
            "componentType" : 5126,
            "count" : 20,
            "max" : [
                0.04978759586811066,
                0.8839672803878784,
                0.2910364866256714
            ],
            "min" : [
                -0.04978761821985245,
                0.005897427909076214,
                -0.03440314903855324
            ],
            "type" : "VEC3"
        },
        {
            "bufferView" : 4,
            "componentType" : 5126,
            "count" : 20,
            "type" : "VEC3"
        },
        {
            "bufferView" : 5,
            "componentType" : 5123,
            "count" : 36,
            "type" : "SCALAR"
        },
        {
            "bufferView" : 6,
            "componentType" : 5126,
            "count" : 20,
            "max" : [
                0.09769295901060104,
                0.9797008633613586,
                0.3886968493461609
            ],
            "min" : [
                -0.09769301861524582,
                0.8058570623397827,
                0.0062649911269545555
            ],
            "type" : "VEC3"
        },
        {
            "bufferView" : 7,
            "componentType" : 5126,
            "count" : 20,
            "type" : "VEC3"
        },
        {
            "bufferView" : 8,
            "componentType" : 5123,
            "count" : 54,
            "type" : "SCALAR"
        },
        {
            "bufferView" : 9,
            "componentType" : 5126,
            "count" : 236,
            "max" : [
                0.2239810973405838,
                0.99114990234375,
                0.405240923166275
            ],
            "min" : [
                -0.2239810973405838,
                0.08168505132198334,
                -0.2113814800977707
            ],
            "type" : "VEC3"
        },
        {
            "bufferView" : 10,
            "componentType" : 5126,
            "count" : 236,
            "type" : "VEC3"
        },
        {
            "bufferView" : 11,
            "componentType" : 5123,
            "count" : 774,
            "type" : "SCALAR"
        }
    ],
    "bufferViews" : [
        {
            "buffer" : 0,
            "byteLength" : 9372,
            "byteOffset" : 0
        },
        {
            "buffer" : 0,
            "byteLength" : 9372,
            "byteOffset" : 9372
        },
        {
            "buffer" : 0,
            "byteLength" : 4320,
            "byteOffset" : 18744
        },
        {
            "buffer" : 0,
            "byteLength" : 240,
            "byteOffset" : 23064
        },
        {
            "buffer" : 0,
            "byteLength" : 240,
            "byteOffset" : 23304
        },
        {
            "buffer" : 0,
            "byteLength" : 72,
            "byteOffset" : 23544
        },
        {
            "buffer" : 0,
            "byteLength" : 240,
            "byteOffset" : 23616
        },
        {
            "buffer" : 0,
            "byteLength" : 240,
            "byteOffset" : 23856
        },
        {
            "buffer" : 0,
            "byteLength" : 108,
            "byteOffset" : 24096
        },
        {
            "buffer" : 0,
            "byteLength" : 2832,
            "byteOffset" : 24204
        },
        {
            "buffer" : 0,
            "byteLength" : 2832,
            "byteOffset" : 27036
        },
        {
            "buffer" : 0,
            "byteLength" : 1548,
            "byteOffset" : 29868
        }
    ],
    "buffers" : [
        {
            "byteLength" : 31416,
            "uri" : "data:application/octet-stream;base64,"
        }
    ]
}
