# Blender v3.0.0 OBJ File: 'Light_Square.blend'
# www.blender.org
mtllib Light_Square.mtl
o Light_Square_Cube.047
v -0.129255 -0.009512 0.129255
v -0.129255 0.051392 0.129255
v -0.129255 -0.009512 -0.129255
v -0.129255 0.051392 -0.129255
v 0.129255 -0.009512 0.129255
v 0.129255 0.051392 0.129255
v 0.129255 -0.009512 -0.129255
v 0.129255 0.051392 -0.129255
v -0.106326 0.084327 0.106326
v -0.106326 0.084327 -0.106326
v 0.106326 0.084327 -0.106326
v 0.106326 0.084327 0.106326
v -0.079080 0.065642 0.079080
v -0.079080 0.065642 -0.079080
v 0.079080 0.065642 -0.079080
v 0.079080 0.065642 0.079080
v -0.079080 0.126579 0.079080
v -0.079080 0.126579 -0.079080
v 0.079080 0.126579 -0.079080
v 0.079080 0.126579 0.079080
v -0.097610 0.122183 0.097610
v -0.097610 0.122183 -0.097610
v 0.097610 0.122183 -0.097610
v 0.097610 0.122183 0.097610
v -0.097610 0.433931 0.097610
v -0.097610 0.433931 -0.097610
v 0.097610 0.433931 -0.097610
v 0.097610 0.433931 0.097610
v -0.113496 0.428097 0.113496
v -0.113496 0.428097 -0.113496
v 0.113496 0.428097 -0.113496
v 0.113496 0.428097 0.113496
v -0.102337 0.462476 0.102337
v -0.102337 0.462476 -0.102337
v 0.102337 0.462476 -0.102337
v 0.102337 0.462476 0.102337
v -0.075412 0.449485 0.075412
v -0.075412 0.449485 -0.075412
v 0.075412 0.449485 -0.075412
v 0.075412 0.449485 0.075412
v -0.067997 0.485308 0.067997
v -0.067997 0.485308 -0.067997
v 0.067997 0.485308 -0.067997
v 0.067997 0.485308 0.067997
v 0.062448 -0.003473 -0.135759
v 0.062448 0.055983 -0.135759
v -0.062448 -0.003473 -0.135759
v -0.062448 0.055983 -0.135759
v 0.062448 -0.003473 -0.075722
v 0.062448 0.055983 -0.075722
v -0.062448 0.055983 -0.075722
v -0.062448 -0.003473 -0.075722
v -0.135759 -0.003473 -0.062448
v -0.135759 0.055983 -0.062448
v -0.135759 -0.003473 0.062448
v -0.135759 0.055983 0.062448
v -0.075722 -0.003473 -0.062448
v -0.075722 0.055983 -0.062448
v -0.075722 0.055983 0.062448
v -0.075722 -0.003473 0.062448
v 0.135759 -0.003473 0.062448
v 0.135759 0.055983 0.062448
v 0.135759 -0.003473 -0.062448
v 0.135759 0.055983 -0.062448
v 0.075722 -0.003473 0.062448
v 0.075722 0.055983 0.062448
v 0.075722 0.055983 -0.062448
v 0.075722 -0.003473 -0.062448
v -0.062448 -0.003473 0.135759
v -0.062448 0.055983 0.135759
v 0.062448 -0.003473 0.135759
v 0.062448 0.055983 0.135759
v -0.062448 -0.003473 0.075722
v -0.062448 0.055983 0.075722
v 0.062448 0.055983 0.075722
v 0.062448 -0.003473 0.075722
v -0.085005 0.433790 0.110133
v -0.108988 0.433790 0.110133
v -0.108988 0.433790 0.086150
v -0.085005 0.433790 0.086150
v -0.085005 0.043504 0.110133
v -0.108988 0.043504 0.110133
v -0.108988 0.043504 0.086150
v -0.085005 0.043504 0.086150
v 0.110133 0.433790 0.085005
v 0.110133 0.433790 0.108988
v 0.086150 0.433790 0.108988
v 0.086150 0.433790 0.085005
v 0.110133 0.043504 0.085005
v 0.110133 0.043504 0.108988
v 0.086150 0.043504 0.108988
v 0.086150 0.043504 0.085005
v 0.085005 0.433790 -0.110133
v 0.108988 0.433790 -0.110133
v 0.108988 0.433790 -0.086150
v 0.085005 0.433790 -0.086150
v 0.085005 0.043504 -0.110133
v 0.108988 0.043504 -0.110133
v 0.108988 0.043504 -0.086150
v 0.085005 0.043504 -0.086150
v -0.110133 0.433790 -0.085005
v -0.110133 0.433790 -0.108988
v -0.086150 0.433790 -0.108988
v -0.086150 0.433790 -0.085005
v -0.110133 0.043504 -0.085005
v -0.110133 0.043504 -0.108988
v -0.086150 0.043504 -0.108988
v -0.086150 0.043504 -0.085005
vn 0.0000 -1.0000 0.0000
vn 0.0000 1.0000 0.0000
vn 1.0000 0.0000 0.0000
vn -1.0000 0.0000 0.0000
vn 0.0000 0.0000 1.0000
vn 0.0000 0.0000 -1.0000
vn 0.9792 0.2027 0.0000
vn -0.9792 0.2027 0.0000
vn 0.0000 0.2027 0.9792
vn 0.0000 0.2027 -0.9792
vn 0.0000 0.5714 0.8207
vn 0.0000 0.5714 -0.8207
vn 0.8207 0.5714 0.0000
vn -0.8207 0.5714 0.0000
vn 0.9511 0.3087 0.0000
vn -0.9511 0.3087 0.0000
vn 0.0000 0.3087 0.9511
vn 0.0000 0.3087 -0.9511
usemtl Grey
s off
f 15//1 16//1 13//1 14//1
f 19//2 18//2 17//2 20//2
f 16//3 15//3 19//3 20//3
f 14//4 13//4 17//4 18//4
f 13//5 16//5 20//5 17//5
f 15//6 14//6 18//6 19//6
f 39//1 40//1 37//1 38//1
f 43//2 42//2 41//2 44//2
f 40//7 39//7 43//7 44//7
f 38//8 37//8 41//8 42//8
f 37//9 40//9 44//9 41//9
f 39//10 38//10 42//10 43//10
f 47//6 48//6 46//6 45//6
f 52//5 49//5 50//5 51//5
f 45//1 49//1 52//1 47//1
f 46//3 50//3 49//3 45//3
f 48//2 51//2 50//2 46//2
f 47//4 52//4 51//4 48//4
f 55//4 56//4 54//4 53//4
f 60//3 57//3 58//3 59//3
f 53//1 57//1 60//1 55//1
f 54//6 58//6 57//6 53//6
f 56//2 59//2 58//2 54//2
f 55//5 60//5 59//5 56//5
f 63//3 64//3 62//3 61//3
f 68//4 65//4 66//4 67//4
f 61//1 65//1 68//1 63//1
f 62//5 66//5 65//5 61//5
f 64//2 67//2 66//2 62//2
f 63//6 68//6 67//6 64//6
f 71//5 72//5 70//5 69//5
f 76//6 73//6 74//6 75//6
f 69//1 73//1 76//1 71//1
f 70//4 74//4 73//4 69//4
f 72//2 75//2 74//2 70//2
f 71//3 76//3 75//3 72//3
f 80//6 84//6 83//6 79//6
f 78//5 82//5 81//5 77//5
f 77//3 81//3 84//3 80//3
f 79//4 83//4 82//4 78//4
f 88//4 92//4 91//4 87//4
f 86//3 90//3 89//3 85//3
f 85//6 89//6 92//6 88//6
f 87//5 91//5 90//5 86//5
f 96//5 100//5 99//5 95//5
f 94//6 98//6 97//6 93//6
f 93//4 97//4 100//4 96//4
f 95//3 99//3 98//3 94//3
f 104//3 108//3 107//3 103//3
f 102//4 106//4 105//4 101//4
f 101//5 105//5 108//5 104//5
f 103//6 107//6 106//6 102//6
usemtl DarkGrey
f 1//4 2//4 4//4 3//4
f 3//6 4//6 8//6 7//6
f 7//3 8//3 6//3 5//3
f 5//5 6//5 2//5 1//5
f 3//1 7//1 5//1 1//1
f 2//11 6//11 12//11 9//11
f 11//2 10//2 9//2 12//2
f 8//12 4//12 10//12 11//12
f 6//13 8//13 11//13 12//13
f 4//14 2//14 9//14 10//14
f 31//1 32//1 29//1 30//1
f 35//2 34//2 33//2 36//2
f 32//15 31//15 35//15 36//15
f 30//16 29//16 33//16 34//16
f 29//17 32//17 36//17 33//17
f 31//18 30//18 34//18 35//18
usemtl Light
f 21//5 24//5 28//5 25//5
f 21//1 22//1 23//1 24//1
f 27//2 26//2 25//2 28//2
f 23//6 22//6 26//6 27//6
f 24//3 23//3 27//3 28//3
f 22//4 21//4 25//4 26//4
