{
    "asset" : {
        "generator" : "Khronos glTF Blender I/O v1.7.33",
        "version" : "2.0"
    },
    "scene" : 0,
    "scenes" : [
        {
            "name" : "Scene",
            "nodes" : [
                0
            ]
        }
    ],
    "nodes" : [
        {
            "mesh" : 0,
            "name" : "Platform_2x2"
        }
    ],
    "materials" : [
        {
            "doubleSided" : true,
            "name" : "Grey",
            "pbrMetallicRoughness" : {
                "baseColorFactor" : [
                    0.1733514964580536,
                    0.1733514964580536,
                    0.1733514964580536,
                    1
                ],
                "metallicFactor" : 0,
                "roughnessFactor" : 0.5
            }
        },
        {
            "doubleSided" : true,
            "name" : "LightGrey",
            "pbrMetallicRoughness" : {
                "baseColorFactor" : [
                    0.25979551672935486,
                    0.25979551672935486,
                    0.25979551672935486,
                    1
                ],
                "metallicFactor" : 0,
                "roughnessFactor" : 0.5
            }
        },
        {
            "doubleSided" : true,
            "name" : "DarkGrey",
            "pbrMetallicRoughness" : {
                "baseColorFactor" : [
                    0.06680479645729065,
                    0.06680479645729065,
                    0.06680479645729065,
                    1
                ],
                "metallicFactor" : 0,
                "roughnessFactor" : 0.5
            }
        },
        {
            "doubleSided" : true,
            "emissiveFactor" : [
                1,
                1,
                1
            ],
            "emissiveTexture" : {
                "index" : 0
            },
            "name" : "Texture_Signs",
            "pbrMetallicRoughness" : {}
        },
        {
            "doubleSided" : true,
            "name" : "Black",
            "pbrMetallicRoughness" : {
                "baseColorFactor" : [
                    0.027209052816033363,
                    0.027209052816033363,
                    0.027209052816033363,
                    1
                ],
                "metallicFactor" : 0,
                "roughnessFactor" : 0.5
            }
        },
        {
            "doubleSided" : true,
            "name" : "Orange",
            "pbrMetallicRoughness" : {
                "baseColorFactor" : [
                    0.3108104467391968,
                    0.136332169175148,
                    0.03521651774644852,
                    1
                ],
                "metallicFactor" : 0,
                "roughnessFactor" : 0.5
            }
        }
    ],
    "meshes" : [
        {
            "name" : "Cube",
            "primitives" : [
                {
                    "attributes" : {
                        "POSITION" : 0,
                        "NORMAL" : 1,
                        "TEXCOORD_0" : 2
                    },
                    "indices" : 3,
                    "material" : 0
                },
                {
                    "attributes" : {
                        "POSITION" : 4,
                        "NORMAL" : 5,
                        "TEXCOORD_0" : 6
                    },
                    "indices" : 7,
                    "material" : 1
                },
                {
                    "attributes" : {
                        "POSITION" : 8,
                        "NORMAL" : 9,
                        "TEXCOORD_0" : 10
                    },
                    "indices" : 11,
                    "material" : 2
                },
                {
                    "attributes" : {
                        "POSITION" : 12,
                        "NORMAL" : 13,
                        "TEXCOORD_0" : 14
                    },
                    "indices" : 15,
                    "material" : 3
                },
                {
                    "attributes" : {
                        "POSITION" : 16,
                        "NORMAL" : 17,
                        "TEXCOORD_0" : 18
                    },
                    "indices" : 19,
                    "material" : 4
                },
                {
                    "attributes" : {
                        "POSITION" : 20,
                        "NORMAL" : 21,
                        "TEXCOORD_0" : 22
                    },
                    "indices" : 23,
                    "material" : 5
                }
            ]
        }
    ],
    "textures" : [
        {
            "sampler" : 0,
            "source" : 0
        }
    ],
    "images" : [
        {
            "bufferView" : 16,
            "mimeType" : "image/png",
            "name" : "Sign"
        }
    ],
    "accessors" : [
        {
            "bufferView" : 0,
            "componentType" : 5126,
            "count" : 986,
            "max" : [
                1.5161131620407104,
                0.023415004834532738,
                1.0687700510025024
            ],
            "min" : [
                -1.4164880514144897,
                -2.6988489627838135,
                -1.0687700510025024
            ],
            "type" : "VEC3"
        },
        {
            "bufferView" : 1,
            "componentType" : 5126,
            "count" : 986,
            "type" : "VEC3"
        },
        {
            "bufferView" : 2,
            "componentType" : 5126,
            "count" : 986,
            "type" : "VEC2"
        },
        {
            "bufferView" : 3,
            "componentType" : 5123,
            "count" : 1572,
            "type" : "SCALAR"
        },
        {
            "bufferView" : 4,
            "componentType" : 5126,
            "count" : 6636,
            "max" : [
                1.872026801109314,
                0.045668408274650574,
                1.0687700510025024
            ],
            "min" : [
                -1.234295129776001,
                -3.076899290084839,
                -1.0687700510025024
            ],
            "type" : "VEC3"
        },
        {
            "bufferView" : 5,
            "componentType" : 5126,
            "count" : 6636,
            "type" : "VEC3"
        },
        {
            "bufferView" : 6,
            "componentType" : 5126,
            "count" : 6636,
            "type" : "VEC2"
        },
        {
            "bufferView" : 7,
            "componentType" : 5123,
            "count" : 10050,
            "type" : "SCALAR"
        },
        {
            "bufferView" : 8,
            "componentType" : 5126,
            "count" : 120,
            "max" : [
                1.533145546913147,
                -0.8212034106254578,
                0.5369482040405273
            ],
            "min" : [
                -1.4367566108703613,
                -1.5419790744781494,
                -0.5969570875167847
            ],
            "type" : "VEC3"
        },
        {
            "bufferView" : 9,
            "componentType" : 5126,
            "count" : 120,
            "type" : "VEC3"
        },
        {
            "bufferView" : 10,
            "componentType" : 5126,
            "count" : 120,
            "type" : "VEC2"
        },
        {
            "bufferView" : 11,
            "componentType" : 5123,
            "count" : 192,
            "type" : "SCALAR"
        },
        {
            "bufferView" : 12,
            "componentType" : 5126,
            "count" : 32,
            "max" : [
                1.039921760559082,
                -0.04569397121667862,
                1.039921760559082
            ],
            "min" : [
                -1.1800382137298584,
                -2.6129488945007324,
                -1.039921760559082
            ],
            "type" : "VEC3"
        },
        {
            "bufferView" : 13,
            "componentType" : 5126,
            "count" : 32,
            "type" : "VEC3"
        },
        {
            "bufferView" : 14,
            "componentType" : 5126,
            "count" : 32,
            "type" : "VEC2"
        },
        {
            "bufferView" : 15,
            "componentType" : 5123,
            "count" : 48,
            "type" : "SCALAR"
        },
        {
            "bufferView" : 17,
            "componentType" : 5126,
            "count" : 1016,
            "max" : [
                1.0517325401306152,
                0.26530611515045166,
                1.0584965944290161
            ],
            "min" : [
                -0.462138831615448,
                -3.5695579051971436,
                -1.089162826538086
            ],
            "type" : "VEC3"
        },
        {
            "bufferView" : 18,
            "componentType" : 5126,
            "count" : 1016,
            "type" : "VEC3"
        },
        {
            "bufferView" : 19,
            "componentType" : 5126,
            "count" : 1016,
            "type" : "VEC2"
        },
        {
            "bufferView" : 20,
            "componentType" : 5123,
            "count" : 4908,
            "type" : "SCALAR"
        },
        {
            "bufferView" : 21,
            "componentType" : 5126,
            "count" : 4344,
            "max" : [
                0.5892325639724731,
                -0.07814700156450272,
                0.6653003096580505
            ],
            "min" : [
                -0.9913299083709717,
                -2.2462544441223145,
                -0.7950528264045715
            ],
            "type" : "VEC3"
        },
        {
            "bufferView" : 22,
            "componentType" : 5126,
            "count" : 4344,
            "type" : "VEC3"
        },
        {
            "bufferView" : 23,
            "componentType" : 5126,
            "count" : 4344,
            "type" : "VEC2"
        },
        {
            "bufferView" : 24,
            "componentType" : 5123,
            "count" : 13032,
            "type" : "SCALAR"
        }
    ],
    "bufferViews" : [
        {
            "buffer" : 0,
            "byteLength" : 11832,
            "byteOffset" : 0
        },
        {
            "buffer" : 0,
            "byteLength" : 11832,
            "byteOffset" : 11832
        },
        {
            "buffer" : 0,
            "byteLength" : 7888,
            "byteOffset" : 23664
        },
        {
            "buffer" : 0,
            "byteLength" : 3144,
            "byteOffset" : 31552
        },
        {
            "buffer" : 0,
            "byteLength" : 79632,
            "byteOffset" : 34696
        },
        {
            "buffer" : 0,
            "byteLength" : 79632,
            "byteOffset" : 114328
        },
        {
            "buffer" : 0,
            "byteLength" : 53088,
            "byteOffset" : 193960
        },
        {
            "buffer" : 0,
            "byteLength" : 20100,
            "byteOffset" : 247048
        },
        {
            "buffer" : 0,
            "byteLength" : 1440,
            "byteOffset" : 267148
        },
        {
            "buffer" : 0,
            "byteLength" : 1440,
            "byteOffset" : 268588
        },
        {
            "buffer" : 0,
            "byteLength" : 960,
            "byteOffset" : 270028
        },
        {
            "buffer" : 0,
            "byteLength" : 384,
            "byteOffset" : 270988
        },
        {
            "buffer" : 0,
            "byteLength" : 384,
            "byteOffset" : 271372
        },
        {
            "buffer" : 0,
            "byteLength" : 384,
            "byteOffset" : 271756
        },
        {
            "buffer" : 0,
            "byteLength" : 256,
            "byteOffset" : 272140
        },
        {
            "buffer" : 0,
            "byteLength" : 96,
            "byteOffset" : 272396
        },
        {
            "buffer" : 0,
            "byteLength" : 321879,
            "byteOffset" : 272492
        },
        {
            "buffer" : 0,
            "byteLength" : 12192,
            "byteOffset" : 594372
        },
        {
            "buffer" : 0,
            "byteLength" : 12192,
            "byteOffset" : 606564
        },
        {
            "buffer" : 0,
            "byteLength" : 8128,
            "byteOffset" : 618756
        },
        {
            "buffer" : 0,
            "byteLength" : 9816,
            "byteOffset" : 626884
        },
        {
            "buffer" : 0,
            "byteLength" : 52128,
            "byteOffset" : 636700
        },
        {
            "buffer" : 0,
            "byteLength" : 52128,
            "byteOffset" : 688828
        },
        {
            "buffer" : 0,
            "byteLength" : 34752,
            "byteOffset" : 740956
        },
        {
            "buffer" : 0,
            "byteLength" : 26064,
            "byteOffset" : 775708
        }
    ],
    "samplers" : [
        {
            "magFilter" : 9729,
            "minFilter" : 9987
        }
    ],
    "buffers" : [
        {
            "byteLength" : 801772,
            "uri" : "data:application/octet-stream;base64,"
        }
    ]
}
