# Blender v3.0.0 OBJ File: 'Rail_Corner_2.blend'
# www.blender.org
mtllib Rail_Corner_2.mtl
o Rail_Corner_2_Cube.031
v 0.113853 0.201154 0.175179
v 0.170494 0.201154 0.199000
v 0.146542 0.171028 0.186534
v 0.146542 0.231280 0.186534
v 0.151518 0.231061 0.123818
v 0.151518 0.171247 0.123818
v 0.181323 0.201154 0.124947
v 0.121713 0.201154 0.122690
v 0.123243 0.231188 0.201531
v 0.132634 0.201154 0.227883
v 0.123243 0.171121 0.201531
v 0.122590 0.201154 0.174069
v 0.130286 0.179130 0.221295
v 0.130286 0.223178 0.221295
v 0.116201 0.224180 0.181767
v 0.116201 0.178128 0.181767
v 0.155516 0.201154 0.218040
v 0.128578 0.177917 0.177185
v 0.138053 0.231360 0.196999
v 0.164506 0.179201 0.195883
v 0.138053 0.170949 0.196999
v 0.164506 0.223107 0.195883
v 0.120590 0.201154 0.175958
v 0.128578 0.224391 0.177185
v 0.150449 0.171185 0.164140
v 0.122185 0.201154 0.159612
v 0.150449 0.231123 0.164140
v 0.178713 0.201154 0.168667
v 0.173872 0.223404 0.124665
v 0.129164 0.178543 0.122972
v 0.129164 0.223765 0.122972
v 0.173872 0.178904 0.124665
v -1.480393 0.121786 0.202849
v -1.540003 0.124043 0.202849
v -1.510198 0.122914 0.172942
v -1.510198 0.122914 0.232756
v 0.151151 0.223061 0.212780
v 0.124956 0.224556 0.181219
v 0.151151 0.179247 0.212780
v 0.124956 0.177753 0.181219
v 0.129251 0.178291 0.160744
v 0.171647 0.179064 0.167535
v 0.129251 0.224017 0.160744
v 0.171647 0.223245 0.167535
v -1.505222 0.185630 0.232975
v -1.505222 0.185630 0.172723
v -1.529174 0.198095 0.202849
v -1.472533 0.174275 0.202849
v 0.152027 0.171944 -0.381051
v 0.152027 0.195764 -0.437691
v 0.182153 0.183299 -0.413739
v 0.121900 0.183299 -0.413739
v 0.122119 0.120584 -0.418715
v 0.181934 0.120584 -0.418715
v 0.152027 0.121712 -0.448520
v 0.152027 0.119455 -0.388910
v 0.121993 0.198296 -0.390441
v 0.152027 0.224648 -0.399831
v 0.182060 0.198296 -0.390441
v 0.152027 0.170834 -0.389787
v 0.174051 0.218060 -0.397483
v 0.130003 0.218060 -0.397483
v 0.129001 0.178532 -0.383398
v 0.175053 0.178532 -0.383398
v 0.152027 0.228549 -0.297186
v 0.152027 0.170359 -0.291834
v 0.122197 0.199454 -0.294510
v 0.181857 0.199454 -0.294510
v 0.152027 0.214805 -0.422714
v 0.175263 0.173950 -0.395775
v 0.121821 0.193764 -0.405251
v 0.173979 0.192648 -0.431703
v 0.182232 0.193764 -0.405251
v 0.130074 0.192648 -0.431703
v 0.152027 0.172723 -0.387788
v 0.128790 0.173950 -0.395775
v 0.181996 0.160905 -0.417647
v 0.152027 0.156377 -0.389383
v 0.122058 0.160904 -0.417647
v 0.152027 0.165432 -0.445911
v 0.129777 0.121430 -0.441069
v 0.174638 0.119737 -0.396361
v 0.129416 0.119737 -0.396361
v 0.174277 0.121430 -0.441069
v 0.152027 -0.005452 -0.388403
v 0.152027 -0.005452 -0.448326
v 0.181920 -0.005452 -0.418364
v 0.122134 -0.005452 -0.418364
v 0.174574 0.177632 -0.292503
v 0.174225 0.221275 -0.296517
v 0.129480 0.177632 -0.292503
v 0.129829 0.221275 -0.296517
v 0.130120 0.209545 -0.418348
v 0.128625 0.177984 -0.392154
v 0.173934 0.209545 -0.418348
v 0.175428 0.177984 -0.392154
v 0.174890 0.157509 -0.396449
v 0.174117 0.164300 -0.438845
v 0.129164 0.157509 -0.396449
v 0.129936 0.164300 -0.438845
v 0.129607 -0.005452 -0.440836
v 0.129607 -0.005452 -0.395893
v 0.174447 -0.005452 -0.395893
v 0.174447 -0.005452 -0.440836
v -1.481924 0.200627 0.232883
v -1.491314 0.226979 0.202849
v -1.481924 0.200627 0.172816
v -1.481270 0.173165 0.202849
v -1.488966 0.220391 0.180825
v -1.488966 0.220391 0.224873
v -1.474881 0.180863 0.225875
v -1.474881 0.180863 0.179823
v -1.514197 0.217136 0.202849
v -1.487258 0.176281 0.179613
v -1.496734 0.196095 0.233055
v -1.523186 0.194979 0.180897
v -1.496734 0.196095 0.172644
v -1.523186 0.194979 0.224802
v -1.479271 0.175054 0.202849
v -1.487258 0.176281 0.226086
v -1.509129 0.163236 0.172880
v -1.480866 0.158708 0.202849
v -1.509129 0.163235 0.232818
v -1.537393 0.167763 0.202849
v -1.532552 0.123761 0.225099
v -1.487844 0.122068 0.180238
v -1.487844 0.122068 0.225460
v -1.532552 0.123761 0.180599
v -1.479886 -0.003121 0.202849
v -1.539809 -0.003121 0.202849
v -1.509847 -0.003121 0.172956
v -1.509847 -0.003121 0.232742
v -1.509831 0.211875 0.224756
v -1.483636 0.180314 0.226251
v -1.509831 0.211875 0.180942
v -1.483636 0.180314 0.179448
v -1.487931 0.159840 0.179986
v -1.530327 0.166631 0.180759
v -1.487931 0.159840 0.225712
v -1.530327 0.166631 0.224940
v -1.532318 -0.003121 0.225269
v -1.487376 -0.003121 0.225269
v -1.487376 -0.003121 0.180429
v -1.532318 -0.003121 0.180429
v 0.113627 0.121645 0.191665
v 0.146236 0.121743 0.193720
v 0.144062 0.108025 0.186407
v 0.144062 0.135461 0.186407
v 0.151200 0.135165 0.123840
v 0.151204 0.108321 0.123772
v 0.155721 0.121718 0.124640
v 0.147319 0.121719 0.122664
v 0.122690 0.135325 0.200530
v 0.125211 0.121636 0.212104
v 0.122645 0.108162 0.200544
v 0.147290 0.121743 0.178416
v 0.124688 0.110502 0.209356
v 0.124750 0.132918 0.209404
v 0.117084 0.133261 0.193558
v 0.117040 0.110189 0.193596
v 0.136692 0.121743 0.206863
v 0.147280 0.109204 0.180706
v 0.135100 0.135602 0.196013
v 0.144574 0.109229 0.191636
v 0.135100 0.107884 0.196012
v 0.144574 0.134258 0.191636
v 0.132816 0.121743 0.190444
v 0.147280 0.134283 0.180706
v 0.149590 0.108251 0.164029
v 0.147792 0.121743 0.159640
v 0.149590 0.135236 0.164029
v 0.153243 0.121743 0.166970
v 0.153394 0.134096 0.124464
v 0.149511 0.109141 0.122977
v 0.149492 0.134329 0.123021
v 0.153376 0.109373 0.124422
v 0.136099 0.133663 0.203939
v 0.134531 0.132709 0.190116
v 0.136099 0.109823 0.203939
v 0.134531 0.110778 0.190115
v 0.149755 0.108753 0.160989
v 0.150860 0.109192 0.166234
v 0.149755 0.134734 0.160989
v 0.150860 0.134294 0.166234
v -1.511853 0.111349 0.202648
v 0.151960 0.132655 -0.406304
v 0.151960 0.107434 -0.406304
v 0.147803 0.119941 -0.406304
v 0.156250 0.119939 -0.406304
v 0.154426 0.108397 -0.406304
v 0.154114 0.131660 -0.406304
v 0.149595 0.108423 -0.406304
v 0.149903 0.131631 -0.406304
v -1.511853 0.120274 0.216425
v -1.511853 0.131083 0.202641
v -1.511853 0.120309 0.189277
v -1.511853 0.128751 0.191882
v -1.511853 0.128863 0.213694
v -1.511853 0.112467 0.213609
v -1.511853 0.112557 0.192008
vt 0.000000 0.000000
vt 0.000000 0.000000
vt 0.000000 0.000000
vt 0.000000 0.000000
vt 0.000000 0.000000
vt 0.000000 0.000000
vt 0.000000 0.000000
vt 0.000000 0.000000
vt 0.000000 0.000000
vt 0.000000 0.000000
vt 0.000000 0.000000
vt 0.000000 0.000000
vt 0.000000 0.000000
vt 0.000000 0.000000
vt 0.000000 0.000000
vt 0.000000 0.000000
vt 0.000000 0.000000
vt 0.000000 0.000000
vt 0.000000 0.000000
vt 0.000000 0.000000
vt 0.000000 0.000000
vt 0.000000 0.000000
vt 0.000000 0.000000
vt 0.000000 0.000000
vt 0.000000 0.000000
vt 0.000000 0.000000
vt 0.000000 0.000000
vt 0.000000 0.000000
vt 0.000000 0.000000
vt 0.000000 0.000000
vt 0.000000 0.000000
vt 0.000000 0.000000
vt 0.000000 0.000000
vt 0.000000 0.000000
vt 0.000000 0.000000
vt 0.000000 0.000000
vt 0.000000 0.000000
vt 0.000000 0.000000
vt 0.000000 0.000000
vt 0.000000 0.000000
vt 0.000000 0.000000
vt 0.000000 0.000000
vt 0.000000 0.000000
vt 0.000000 0.000000
vt 0.000000 0.000000
vt 0.000000 0.000000
vt 0.000000 0.000000
vt 0.000000 0.000000
vt 0.000000 0.000000
vt 0.000000 0.000000
vt 0.000000 0.000000
vt 0.000000 0.000000
vt 0.000000 0.000000
vt 0.000000 0.000000
vt 0.000000 0.000000
vt 0.000000 0.000000
vt 0.000000 0.000000
vt 0.000000 0.000000
vt 0.000000 0.000000
vt 0.000000 0.000000
vt 0.000000 0.000000
vt 0.000000 0.000000
vt 0.000000 0.000000
vt 0.000000 0.000000
vt 0.000000 0.000000
vt 0.000000 0.000000
vt 0.000000 0.000000
vt 0.000000 0.000000
vt 0.000000 0.000000
vt 0.000000 0.000000
vt 0.000000 0.000000
vt 0.000000 0.000000
vt 0.000000 0.000000
vt 0.000000 0.000000
vt 0.000000 0.000000
vt 0.000000 0.000000
vt 0.000000 0.000000
vt 0.000000 0.000000
vt 0.000000 0.000000
vt 0.000000 0.000000
vt 0.000000 0.000000
vt 0.000000 0.000000
vt 0.000000 0.000000
vt 0.000000 0.000000
vt 0.000000 0.000000
vt 0.000000 0.000000
vt 0.000000 0.000000
vt 0.000000 0.000000
vt 0.000000 0.000000
vt 0.000000 0.000000
vt 0.000000 0.000000
vt 0.000000 0.000000
vt 0.000000 0.000000
vt 0.000000 0.000000
vt 0.000000 0.000000
vt 0.000000 0.000000
vt 0.000000 0.000000
vt 0.000000 0.000000
vt 0.000000 0.000000
vt 0.000000 0.000000
vt 0.000000 0.000000
vt 0.000000 0.000000
vt 0.000000 0.000000
vt 0.000000 0.000000
vt 0.000000 0.000000
vt 0.000000 0.000000
vt 0.000000 0.000000
vt 0.000000 0.000000
vt 0.000000 0.000000
vt 0.000000 0.000000
vt 0.000000 0.000000
vt 0.000000 0.000000
vt 0.000000 0.000000
vt 0.000000 0.000000
vt 0.000000 0.000000
vt 0.000000 0.000000
vt 0.000000 0.000000
vt 0.000000 0.000000
vt 0.000000 0.000000
vt 0.000000 0.000000
vt 0.000000 0.000000
vt 0.000000 0.000000
vt 0.000000 0.000000
vt 0.000000 0.000000
vt 0.000000 0.000000
vt 0.000000 0.000000
vt 0.000000 0.000000
vt 0.000000 0.000000
vt 0.000000 0.000000
vt 0.000000 0.000000
vt 0.000000 0.000000
vt 0.000000 0.000000
vt 0.000000 0.000000
vt 0.000000 0.000000
vt 0.000000 0.000000
vt 0.000000 0.000000
vt 0.000000 0.000000
vt 0.000000 0.000000
vt 0.000000 0.000000
vt 0.000000 0.000000
vt 0.000000 0.000000
vt 0.000000 0.000000
vt 0.000000 0.000000
vt 0.000000 0.000000
vt 0.000000 0.000000
vt 0.000000 0.000000
vt 0.000000 0.000000
vt 0.000000 0.000000
vt 0.000000 0.000000
vt 0.000000 0.000000
vt 0.000000 0.000000
vt 0.000000 0.000000
vt 0.000000 0.000000
vt 0.000000 0.000000
vt 0.000000 0.000000
vt 0.000000 0.000000
vt 0.000000 0.000000
vt 0.000000 0.000000
vt 0.000000 0.000000
vt 0.000000 0.000000
vt 0.000000 0.000000
vt 0.000000 0.000000
vt 0.000000 0.000000
vt 0.000000 0.000000
vt 0.000000 0.000000
vt 0.000000 0.000000
vt 0.000000 0.000000
vt 0.000000 0.000000
vt 0.000000 0.000000
vt 0.000000 0.000000
vt 0.000000 0.000000
vt 0.000000 0.000000
vt 0.000000 0.000000
vt 0.000000 0.000000
vt 0.000000 0.000000
vt 0.000000 0.000000
vt 0.000000 0.000000
vt 0.000000 0.000000
vt 0.000000 0.000000
vt 0.000000 0.000000
vt 0.000000 0.000000
vt 0.000000 0.000000
vt 0.000000 0.000000
vt 0.000000 0.000000
vt 0.000000 0.000000
vt 0.000000 0.000000
vt 0.000000 0.000000
vt 0.000000 0.000000
vt 0.000000 0.000000
vt 0.000000 0.000000
vt 0.000000 0.000000
vt 0.000000 0.000000
vt 0.000000 0.000000
vt 0.000000 0.000000
vt 0.000000 0.000000
vt 0.000000 0.000000
vt 0.000000 0.000000
vt 0.000000 0.000000
vt 0.000000 0.000000
vt 0.000000 0.000000
vn 0.0045 0.0057 -1.0000
vn -0.3645 -0.0000 -0.9312
vn -0.2823 -0.7625 -0.5822
vn -0.0185 -0.6949 -0.7189
vn -0.0188 0.6970 -0.7168
vn -0.2823 0.7625 -0.5822
vn 0.8947 0.0000 0.4467
vn 0.9877 -0.0000 0.1561
vn 0.7270 0.6778 0.1101
vn 0.6779 0.6545 0.3349
vn 0.4576 0.6486 0.6082
vn 0.6072 0.0000 0.7946
vn 0.4576 -0.6486 0.6082
vn 0.6779 -0.6545 0.3349
vn 0.7270 -0.6778 0.1101
vn 0.0750 -0.9966 0.0331
vn 0.0302 -0.9995 0.0095
vn 0.0560 -0.9959 0.0715
vn -0.6023 -0.7540 -0.2622
vn -0.7158 -0.6981 -0.0173
vn 0.0750 0.9966 0.0331
vn 0.0302 0.9995 0.0095
vn -0.7158 0.6981 -0.0173
vn -0.6023 0.7540 -0.2622
vn 0.0560 0.9959 0.0715
vn -0.7086 -0.7056 0.0001
vn -0.6984 -0.7157 -0.0020
vn 0.0019 -1.0000 -0.0051
vn 0.0099 -0.9999 0.0029
vn 0.0100 0.9999 -0.0012
vn -0.7072 0.7070 -0.0029
vn 0.7129 0.7011 0.0175
vn -0.0080 0.0443 -0.9990
vn -0.1458 0.7304 -0.6673
vn -0.0048 -1.0000 0.0058
vn 0.0189 -0.7167 0.6971
vn 0.2823 -0.5821 0.7625
vn 0.3645 -0.9312 -0.0000
vn 0.7142 -0.6997 0.0205
vn -0.8947 0.4467 0.0000
vn -0.9877 0.1561 -0.0000
vn -0.7270 0.1101 0.6778
vn -0.6779 0.3349 0.6545
vn -0.4576 0.6082 0.6486
vn -0.6072 0.7946 0.0000
vn 0.9996 0.0022 0.0288
vn 0.1458 -0.6673 0.7303
vn 0.0078 -0.9990 0.0443
vn 0.2823 -0.5822 -0.7625
vn 0.0181 -0.7189 -0.6948
vn -1.0000 0.0022 0.0024
vn -1.0000 -0.0000 -0.0026
vn 0.0074 0.9990 0.0452
vn -0.2049 0.9788 0.0056
vn -0.1447 0.7273 0.6709
vn 0.1450 0.6709 0.7272
vn 0.2051 0.0055 0.9787
vn -0.9274 -0.0000 -0.3740
vn -0.0000 -0.9999 -0.0110
vn 0.0000 -0.9312 0.3644
vn 0.7625 -0.5822 0.2823
vn 0.6887 -0.7249 0.0163
vn 0.6993 -0.7148 -0.0010
vn -0.6887 -0.7249 0.0163
vn -0.7625 -0.5822 0.2823
vn -0.0000 0.4467 -0.8947
vn 0.0000 0.1561 -0.9877
vn -0.6778 0.1101 -0.7270
vn -0.6545 0.3349 -0.6779
vn -0.6486 0.6082 -0.4576
vn -0.0000 0.7946 -0.6072
vn 0.6486 0.6082 -0.4576
vn 0.6545 0.3349 -0.6779
vn 0.6778 0.1101 -0.7270
vn 0.9966 0.0331 -0.0750
vn 0.9995 0.0095 -0.0302
vn 0.9959 0.0715 -0.0559
vn 0.7540 -0.2622 0.6023
vn 0.6981 -0.0173 0.7158
vn -0.9966 0.0331 -0.0750
vn -0.9995 0.0095 -0.0302
vn -0.6981 -0.0173 0.7158
vn -0.7540 -0.2622 0.6023
vn -0.9959 0.0715 -0.0560
vn -0.9999 0.0017 -0.0104
vn -1.0000 0.0000 -0.0031
vn -0.7071 0.0021 0.7071
vn -0.7054 0.0006 0.7088
vn -0.6988 0.0186 -0.7151
vn -0.7066 -0.0009 -0.7076
vn 0.9999 0.0017 -0.0104
vn 1.0000 0.0000 -0.0031
vn 0.7066 -0.0009 -0.7076
vn 0.6988 0.0186 -0.7151
vn 0.7054 0.0007 0.7088
vn 0.7071 0.0021 0.7071
vn 0.0000 0.0275 -0.9996
vn -0.0000 -0.0015 -1.0000
vn -0.0000 0.0050 1.0000
vn -0.0000 0.0036 1.0000
vn 0.0000 -0.0026 1.0000
vn -0.9988 0.0475 -0.0101
vn -1.0000 0.0090 -0.0016
vn -0.6937 0.7201 -0.0140
vn -0.6621 0.7330 -0.1563
vn 0.0000 0.9756 -0.2194
vn 0.0020 0.9998 -0.0207
vn 0.6948 0.7191 -0.0130
vn 0.6621 0.7330 -0.1563
vn 0.9988 0.0475 -0.0101
vn 1.0000 0.0092 -0.0003
vn 0.0000 -0.3740 0.9274
vn -0.0072 0.0453 0.9989
vn -0.0750 0.0331 0.9966
vn -0.0302 0.0095 0.9995
vn 0.7158 -0.0173 0.6981
vn 0.6023 -0.2622 0.7540
vn -0.0750 0.0331 -0.9966
vn -0.6779 0.3349 -0.6545
vn -0.4576 0.6082 -0.6486
vn -0.0560 0.0715 -0.9959
vn -0.0302 0.0095 -0.9995
vn -0.7270 0.1101 -0.6778
vn 0.6023 -0.2622 -0.7540
vn 0.7158 -0.0173 -0.6981
vn -0.0560 0.0715 0.9959
vn -0.0104 0.0017 0.9999
vn -0.0031 0.0000 1.0000
vn 0.7088 0.0006 0.7054
vn -0.7151 0.0186 0.6988
vn -0.7076 -0.0009 0.7066
vn -0.0104 0.0017 -0.9999
vn -0.0031 0.0000 -1.0000
vn -0.7076 -0.0009 -0.7066
vn -0.7151 0.0186 -0.6988
vn 0.7088 0.0007 -0.7054
vn 0.7071 0.0021 -0.7071
vn -0.9996 0.0275 -0.0000
vn -1.0000 -0.0015 0.0000
vn 1.0000 0.0050 0.0000
vn 1.0000 0.0036 0.0000
vn 1.0000 -0.0026 -0.0000
vn 0.9274 -0.3740 0.0000
vn -0.0516 -0.0056 -0.9987
vn -0.3639 -0.0004 -0.9314
vn -0.3822 -0.5916 -0.7099
vn -0.0724 -0.1569 -0.9850
vn -0.0725 0.1483 -0.9863
vn -0.3825 0.5912 -0.7100
vn 0.9024 0.0000 0.4310
vn 0.9878 -0.0002 0.1555
vn 0.8167 0.5605 0.1376
vn 0.6926 0.6315 0.3487
vn 0.4671 0.6573 0.5914
vn 0.6230 -0.0005 0.7822
vn 0.4675 -0.6576 0.5908
vn 0.6926 -0.6315 0.3487
vn 0.8165 -0.5607 0.1376
vn 0.0858 -0.9909 -0.1039
vn 0.4938 -0.8683 0.0473
vn 0.0155 -0.9995 -0.0279
vn -0.8948 0.2348 -0.3797
vn -0.7016 0.6993 -0.1371
vn -0.8938 -0.4473 -0.0325
vn -0.7016 -0.6993 -0.1371
vn -0.8941 0.4467 -0.0325
vn -0.8948 -0.2348 -0.3797
vn 0.0858 0.9909 -0.1039
vn 0.0150 0.9995 -0.0276
vn 0.4945 0.8679 0.0472
vn -0.8231 -0.5679 -0.0004
vn -0.7913 -0.6114 0.0005
vn -0.0047 -1.0000 0.0018
vn -0.0580 -0.9983 0.0009
vn -0.0558 0.9984 -0.0024
vn -0.8279 0.5608 -0.0028
vn -0.6328 0.7742 -0.0156
vn 0.8063 0.5910 0.0224
vn 0.0010 -0.0088 -1.0000
vn 0.0008 0.2187 -0.9758
vn 0.8038 -0.5944 0.0243
vn -0.6319 -0.7749 -0.0156
vn 0.9995 0.0025 0.0302
vn 0.0293 -0.9784 0.2048
vn -0.0012 -0.9850 0.1724
vn -0.0015 -1.0000 -0.0039
vn -0.0079 -0.9999 -0.0115
vn -1.0000 0.0025 0.0039
vn -0.9995 -0.0002 -0.0311
vn -0.0089 1.0000 -0.0041
vn -0.0024 1.0000 -0.0067
vn 0.0000 0.7198 0.6942
vn 0.1507 0.6752 0.7221
vn -0.0278 0.9628 -0.2687
vn 0.2145 -0.0064 0.9767
vn 0.2126 -0.2646 0.9406
vn -0.0017 -0.9836 -0.1804
vn -0.0268 -0.9731 -0.2289
vn -0.9019 -0.0000 -0.4320
vn 0.7856 -0.6187 0.0024
vn 0.0024 -0.0096 1.0000
vn -1.0000 0.0048 -0.0009
vn 1.0000 0.0048 0.0012
vn -0.0068 1.0000 -0.0047
vn -0.8007 0.5991 -0.0036
vn 0.7938 0.6082 -0.0018
vn -0.0026 0.9708 -0.2399
vn 0.0025 -0.2819 0.9594
vn 0.0011 -0.2357 -0.9718
usemtl Black
s 1
f 1/1/1 23/2/2 40/3/3 16/4/4
f 1/1/1 15/5/5 38/6/6 23/2/2
f 2/7/7 28/8/8 44/9/9 22/10/10
f 2/7/7 22/10/10 37/11/11 17/12/12
f 2/7/7 17/12/12 39/13/13 20/14/14
f 2/7/7 20/14/14 42/15/15 28/8/8
f 3/16/16 25/17/17 42/15/15 20/14/14
f 3/16/16 20/14/14 39/13/13 21/18/18
f 3/16/16 21/18/18 40/3/3 18/19/19
f 3/16/16 18/19/19 41/20/20 25/17/17
f 4/21/21 27/22/22 43/23/23 24/24/24
f 4/21/21 24/24/24 38/6/6 19/25/25
f 4/21/21 19/25/25 37/11/11 22/10/10
f 4/21/21 22/10/10 44/9/9 27/22/22
f 30/26/26 91/27/27 66/28/28 6/29/29
f 5/30/30 31/31/31 43/23/23 27/22/22
f 5/30/30 27/22/22 44/9/9 29/32/32
f 1/1/1 107/33/33 109/34/34 15/5/5
f 48/35/35 111/36/36 134/37/37 119/38/38
f 6/29/29 32/39/39 42/15/15 25/17/17
f 6/29/29 25/17/17 41/20/20 30/26/26
f 47/40/40 124/41/41 140/42/42 118/43/43
f 47/40/40 118/43/43 133/44/44 113/45/45
f 7/46/46 29/32/32 44/9/9 28/8/8
f 7/46/46 28/8/8 42/15/15 32/39/39
f 13/47/47 111/36/36 48/35/35 11/48/48
f 48/35/35 119/38/38 136/49/49 112/50/50
f 8/51/51 30/26/26 41/20/20 26/52/52
f 8/51/51 26/52/52 43/23/23 31/31/31
f 9/53/53 106/54/54 110/55/55 14/56/56
f 9/53/53 19/25/25 38/6/6 15/5/5
f 9/53/53 14/56/56 37/11/11 19/25/25
f 10/57/57 17/12/12 37/11/11 14/56/56
f 10/57/57 13/47/47 39/13/13 17/12/12
f 11/48/48 21/18/18 39/13/13 13/47/47
f 11/48/48 48/35/35 112/50/50 16/4/4
f 11/48/48 16/4/4 40/3/3 21/18/18
f 12/58/58 26/52/52 41/20/20 18/19/19
f 12/58/58 18/19/19 40/3/3 23/2/2
f 12/58/58 23/2/2 38/6/6 24/24/24
f 12/58/58 24/24/24 43/23/23 26/52/52
f 49/59/59 75/60/60 96/61/61 64/62/62
f 49/59/59 64/62/62 89/63/63 66/28/28
f 49/59/59 66/28/28 91/27/27 63/64/64
f 49/59/59 63/64/64 94/65/65 75/60/60
f 50/66/66 80/67/67 100/68/68 74/69/69
f 50/66/66 74/69/69 93/70/70 69/71/71
f 50/66/66 69/71/71 95/72/72 72/73/73
f 50/66/66 72/73/73 98/74/74 80/67/67
f 51/75/75 77/76/76 98/74/74 72/73/73
f 51/75/75 72/73/73 95/72/72 73/77/77
f 51/75/75 73/77/77 96/61/61 70/78/78
f 51/75/75 70/78/78 97/79/79 77/76/76
f 52/80/80 79/81/81 99/82/82 76/83/83
f 52/80/80 76/83/83 94/65/65 71/84/84
f 52/80/80 71/84/84 93/70/70 74/69/69
f 52/80/80 74/69/69 100/68/68 79/81/81
f 53/85/85 88/86/86 102/87/87 83/88/88
f 53/85/85 83/88/88 99/82/82 79/81/81
f 53/85/85 79/81/81 100/68/68 81/89/89
f 53/85/85 81/89/89 101/90/90 88/86/86
f 54/91/91 87/92/92 104/93/93 84/94/94
f 54/91/91 84/94/94 98/74/74 77/76/76
f 54/91/91 77/76/76 97/79/79 82/95/95
f 54/91/91 82/95/95 103/96/96 87/92/92
f 55/97/97 86/98/98 101/90/90 81/89/89
f 55/97/97 81/89/89 100/68/68 80/67/67
f 55/97/97 80/67/67 98/74/74 84/94/94
f 55/97/97 84/94/94 104/93/93 86/98/98
f 56/99/99 85/100/100 103/96/96 82/95/95
f 56/99/99 82/95/95 97/79/79 78/101/101
f 56/99/99 78/101/101 99/82/82 83/88/88
f 56/99/99 83/88/88 102/87/87 85/100/100
f 57/102/102 71/84/84 94/65/65 63/64/64
f 57/102/102 63/64/64 91/27/27 67/103/103
f 57/102/102 67/103/103 92/104/104 62/105/105
f 57/102/102 62/105/105 93/70/70 71/84/84
f 58/106/106 69/71/71 93/70/70 62/105/105
f 58/106/106 62/105/105 92/104/104 65/107/107
f 58/106/106 65/107/107 90/108/108 61/109/109
f 58/106/106 61/109/109 95/72/72 69/71/71
f 59/110/110 73/77/77 95/72/72 61/109/109
f 59/110/110 61/109/109 90/108/108 68/111/111
f 59/110/110 68/111/111 89/63/63 64/62/62
f 59/110/110 64/62/62 96/61/61 73/77/77
f 60/112/112 78/101/101 97/79/79 70/78/78
f 60/112/112 70/78/78 96/61/61 75/60/60
f 60/112/112 75/60/60 94/65/65 76/83/83
f 60/112/112 76/83/83 99/82/82 78/101/101
f 6/29/29 66/28/28 89/63/63 32/39/39
f 14/56/56 110/55/55 105/113/113 10/57/57
f 8/51/51 67/103/103 91/27/27 30/26/26
f 32/39/39 89/63/63 68/111/111 7/46/46
f 5/30/30 65/107/107 92/104/104 31/31/31
f 31/31/31 92/104/104 67/103/103 8/51/51
f 7/46/46 68/111/111 90/108/108 29/32/32
f 29/32/32 90/108/108 65/107/107 5/30/30
f 45/114/114 123/115/115 139/116/116 120/117/117
f 46/118/118 116/119/119 135/120/120 117/121/121
f 46/118/118 121/122/122 138/123/123 116/119/119
f 46/118/118 114/124/124 137/125/125 121/122/122
f 46/118/118 117/121/121 136/49/49 114/124/124
f 47/40/40 116/119/119 138/123/123 124/41/41
f 47/40/40 113/45/45 135/120/120 116/119/119
f 45/114/114 120/117/117 134/37/37 115/126/126
f 15/5/5 109/34/34 106/54/54 9/53/53
f 45/114/114 115/126/126 133/44/44 118/43/43
f 45/114/114 118/43/43 140/42/42 123/115/115
f 36/127/127 132/128/128 142/129/96 127/130/129
f 36/127/127 127/130/129 139/116/116 123/115/115
f 36/127/127 123/115/115 140/42/42 125/131/130
f 36/127/127 125/131/130 141/132/131 132/128/128
f 35/133/132 131/134/133 144/135/134 128/136/135
f 35/133/132 128/136/135 138/123/123 121/122/122
f 35/133/132 121/122/122 137/125/125 126/137/136
f 35/133/132 126/137/136 143/138/137 131/134/133
f 34/139/138 130/140/139 141/132/131 125/131/130
f 34/139/138 125/131/130 140/42/42 124/41/41
f 34/139/138 124/41/41 138/123/123 128/136/135
f 34/139/138 128/136/135 144/135/134 130/140/139
f 33/141/140 129/142/141 143/138/137 126/137/136
f 33/141/140 126/137/136 137/125/125 122/143/142
f 33/141/140 122/143/142 139/116/116 127/130/129
f 33/141/140 127/130/129 142/129/96 129/142/141
f 105/113/113 115/126/126 134/37/37 111/36/36
f 105/113/113 110/55/55 133/44/44 115/126/126
f 106/54/54 113/45/45 133/44/44 110/55/55
f 10/57/57 105/113/113 111/36/36 13/47/47
f 16/4/4 112/50/50 107/33/33 1/1/1
f 106/54/54 109/34/34 135/120/120 113/45/45
f 107/33/33 117/121/121 135/120/120 109/34/34
f 107/33/33 112/50/50 136/49/49 117/121/121
f 108/144/143 122/143/142 137/125/125 114/124/124
f 108/144/143 114/124/124 136/49/49 119/38/38
f 108/144/143 119/38/38 134/37/37 120/117/117
f 108/144/143 120/117/117 139/116/116 122/143/142
f 145/145/144 167/146/145 180/147/146 160/148/147
f 145/145/144 159/149/148 178/150/149 167/146/145
f 146/151/150 172/152/151 184/153/152 166/154/153
f 146/151/150 166/154/153 177/155/154 161/156/155
f 146/151/150 161/156/155 179/157/156 164/158/157
f 146/151/150 164/158/157 182/159/158 172/152/151
f 147/160/159 169/161/160 182/159/158 164/158/157
f 147/160/159 164/158/157 179/157/156 165/162/161
f 147/160/159 165/162/161 180/147/146 162/163/162
f 147/160/163 162/163/162 181/164/164 169/161/163
f 148/165/165 171/166/165 183/167/166 168/168/167
f 148/165/168 168/168/167 178/150/149 163/169/169
f 148/165/168 163/169/169 177/155/154 166/154/153
f 148/165/168 166/154/153 184/153/152 171/166/170
f 174/170/171 192/171/172 187/172/173 150/173/174
f 149/174/175 175/175/176 183/167/166 171/166/177
f 149/174/175 171/166/170 184/153/152 173/176/178
f 145/145/144 196/177/179 197/178/180 159/149/148
f 150/173/174 176/179/181 182/159/158 169/161/160
f 150/173/174 169/161/182 181/164/164 174/170/171
f 151/180/183 173/176/178 184/153/152 172/152/151
f 151/180/183 172/152/151 182/159/158 176/179/181
f 157/181/184 199/182/185 185/183/186 155/184/187
f 152/185/188 174/170/171 181/164/164 170/186/189
f 152/185/188 170/186/189 183/167/166 175/175/176
f 153/187/190 195/188/191 198/189/192 158/190/193
f 153/187/190 163/169/169 178/150/149 159/149/194
f 153/187/190 158/190/193 177/155/154 163/169/169
f 154/191/195 161/156/155 177/155/154 158/190/193
f 154/191/195 157/181/196 179/157/156 161/156/155
f 155/184/187 165/162/161 179/157/156 157/181/184
f 155/184/187 185/183/186 200/192/197 160/148/198
f 155/184/187 160/148/198 180/147/146 165/162/161
f 156/193/199 170/186/189 181/164/164 162/163/162
f 156/193/199 162/163/162 180/147/146 167/146/145
f 156/193/199 167/146/145 178/150/149 168/168/167
f 156/193/199 168/168/167 183/167/166 170/186/189
f 150/173/174 187/172/173 190/194/200 176/179/181
f 158/190/193 198/189/192 194/195/201 154/191/195
f 152/185/188 188/196/202 192/171/172 174/170/171
f 176/179/181 190/194/200 189/197/203 151/180/183
f 149/174/175 186/198/204 193/199/205 175/175/176
f 175/175/176 193/199/205 188/196/202 152/185/188
f 151/180/183 189/197/203 191/200/206 173/176/178
f 173/176/178 191/200/206 186/198/204 149/174/175
f 159/149/194 197/178/207 195/188/191 153/187/190
f 154/191/195 194/195/201 199/182/208 157/181/196
f 160/148/147 200/192/209 196/177/179 145/145/144
