# Blender v3.0.0 OBJ File: 'Sign_Corner_Hazard.blend'
# www.blender.org
mtllib Sign_Corner_Hazard.mtl
o Sign_Corner_Hazard_Plane.005
v -0.924750 -0.054434 0.122550
v 0.122531 0.059953 -1.043332
v -0.924750 0.059953 0.122550
v 0.122531 -0.054434 -1.043332
v 0.122531 -0.054434 -0.161448
v -0.161468 -0.054434 0.122550
v 0.100913 -0.054434 -0.052767
v 0.039349 -0.054434 0.039369
v -0.052786 -0.054434 0.100932
v -0.161468 0.059953 0.122550
v 0.122531 0.059953 -0.161448
v -0.052786 0.059953 0.100932
v 0.039349 0.059953 0.039369
v 0.100913 0.059953 -0.052767
v -0.926992 -0.040044 0.062111
v 0.039108 0.045563 -1.043972
v -0.926992 0.045563 0.062111
v 0.039108 -0.040044 -1.043972
v 0.039108 -0.040044 -0.209121
v -0.232124 -0.040044 0.062111
v 0.018462 -0.040044 -0.105325
v -0.040334 -0.040044 -0.017331
v -0.128328 -0.040044 0.041464
v -0.232124 0.045563 0.062111
v 0.039108 0.045563 -0.209121
v -0.128328 0.045563 0.041464
v -0.040334 0.045563 -0.017331
v 0.018462 0.045563 -0.105325
v -0.960698 -0.097780 0.113872
v 0.115691 0.103298 -1.080514
v -0.960698 0.103298 0.113872
v 0.115691 -0.097780 -1.080514
v 0.113621 -0.097780 -0.162540
v -0.163063 -0.097780 0.111358
v 0.093348 -0.097780 -0.056062
v 0.033422 -0.097780 0.033644
v -0.056762 -0.097780 0.092618
v -0.163063 0.103298 0.111358
v 0.113622 0.103298 -0.162540
v -0.056762 0.103298 0.092618
v 0.033422 0.103298 0.033644
v 0.093348 0.103298 -0.056062
v -0.969800 -0.097780 0.055259
v 0.033067 0.103298 -1.085670
v -0.969800 0.103298 0.055259
v 0.033067 -0.097780 -1.085670
v 0.029946 -0.097780 -0.209760
v -0.232701 -0.097780 0.049783
v 0.010698 -0.097780 -0.108304
v -0.046054 -0.097780 -0.023345
v -0.131414 -0.097780 0.032049
v -0.232701 0.103298 0.049784
v 0.029946 0.103298 -0.209760
v -0.131414 0.103298 0.032049
v -0.046054 0.103298 -0.023345
v 0.010698 0.103298 -0.108304
v -0.923027 -0.045867 0.089817
v 0.096223 0.051385 -1.032152
v -0.923027 0.051385 0.089817
v 0.096223 -0.045867 -1.032152
v 0.096223 -0.045867 -0.186581
v -0.180174 -0.045867 0.089817
v 0.075184 -0.045867 -0.080808
v 0.015268 -0.045867 0.008862
v -0.074402 -0.045867 0.068777
v -0.180174 0.051385 0.089817
v 0.096223 0.051385 -0.186580
v -0.074402 0.051385 0.068777
v 0.015268 0.051385 0.008862
v 0.075184 0.051385 -0.080808
vt 0.683167 0.306730
vt 0.489166 0.306729
vt 0.489166 0.281331
vt 0.683167 0.281331
vt 0.376508 0.306729
vt 0.376508 0.281331
vt 0.404673 0.281331
vt 0.404673 0.306729
vt 0.432837 0.281331
vt 0.432837 0.306729
vt 0.461002 0.281331
vt 0.461002 0.306729
vt 0.155681 0.306730
vt 0.155681 0.281332
vt 0.000000 0.000000
vt 0.000000 0.000000
vt 0.000000 0.000000
vt 0.000000 0.000000
vt 0.000000 0.000000
vt 0.000000 0.000000
vt 0.000000 0.000000
vt 0.000000 0.000000
vt 0.000000 0.000000
vt 0.000000 0.000000
vt 0.000000 0.000000
vt 0.000000 0.000000
vt 0.000000 0.000000
vt 0.000000 0.000000
vt 0.000000 0.000000
vt 0.000000 0.000000
vt 0.000000 0.000000
vt 0.000000 0.000000
vt 0.000000 0.000000
vt 0.000000 0.000000
vt 0.000000 0.000000
vt 0.000000 0.000000
vt 0.000000 0.000000
vt 0.000000 0.000000
vt 0.000000 0.000000
vt 0.000000 0.000000
vt 0.000000 0.000000
vt 0.000000 0.000000
vt 0.000000 0.000000
vt 0.000000 0.000000
vt 0.000000 0.000000
vt 0.000000 0.000000
vt 0.000000 0.000000
vt 0.000000 0.000000
vt 0.000000 0.000000
vt 0.000000 0.000000
vt 0.000000 0.000000
vt 0.000000 0.000000
vt 0.000000 0.000000
vt 0.000000 0.000000
vt 0.000000 0.000000
vt 0.000000 0.000000
vt 0.000000 0.000000
vt 0.000000 0.000000
vt 0.000000 0.000000
vt 0.000000 0.000000
vt 0.000000 0.000000
vt 0.000000 0.000000
vt 0.000000 0.000000
vt 0.000000 0.000000
vt 0.000000 0.000000
vt 0.000000 0.000000
vt 0.000000 0.000000
vt 0.000000 0.000000
vt 0.000000 0.000000
vt 0.000000 0.000000
vn 0.0000 -0.0000 1.0000
vn 0.0980 -0.0000 0.9952
vn 0.9952 -0.0000 0.0980
vn 0.9239 -0.0000 0.3827
vn 0.7071 -0.0000 0.7071
vn 0.3827 -0.0000 0.9239
vn 1.0000 0.0000 0.0000
vn 0.1059 0.9891 0.1022
vn 0.1022 0.9890 0.1074
vn 0.0551 0.9842 0.1681
vn 0.0710 0.9864 0.1485
vn 0.0710 -0.9864 0.1485
vn 0.0551 -0.9842 0.1681
vn 0.1022 -0.9890 0.1074
vn 0.1059 -0.9891 0.1022
vn 0.9993 0.0000 -0.0371
vn 0.0103 0.9754 0.2202
vn 0.0285 0.9794 0.1999
vn -0.0077 0.0000 1.0000
vn 0.0285 -0.9794 0.1999
vn 0.0103 -0.9754 0.2202
vn 0.1591 0.9871 0.0195
vn 0.1636 0.9865 0.0114
vn 0.1387 0.9889 0.0532
vn 0.1351 0.9891 0.0589
vn 0.1591 -0.9871 0.0195
vn 0.1636 -0.9865 0.0114
vn 0.1700 -0.9854 0.0000
vn 0.1351 -0.9891 0.0589
vn 0.1387 -0.9889 0.0532
vn 0.1700 0.9854 0.0000
vn 0.0000 0.9728 0.2316
vn 0.0000 -0.9728 0.2316
vn 0.0000 -1.0000 -0.0000
vn 0.0000 1.0000 -0.0000
vn -0.9882 -0.0000 0.1534
vn 0.0623 0.0000 -0.9981
vn -0.1228 -0.1091 0.9864
vn -0.1228 0.1091 0.9864
vn -0.1044 0.1265 0.9865
vn -0.1044 -0.1265 0.9865
vn 0.9918 0.0875 -0.0936
vn 0.9918 -0.0875 -0.0936
vn 0.9917 -0.0989 -0.0819
vn 0.9917 0.0989 -0.0819
vn 0.9778 -0.1867 0.0950
vn 0.9073 -0.1919 0.3743
vn 0.9076 -0.1919 0.3734
vn 0.9779 -0.1867 0.0944
vn 0.9073 0.1919 0.3743
vn 0.9778 0.1867 0.0950
vn 0.9779 0.1867 0.0944
vn 0.9076 0.1919 0.3734
vn 0.6926 -0.1928 0.6951
vn 0.6919 -0.1928 0.6957
vn 0.6926 0.1928 0.6951
vn 0.6919 0.1928 0.6957
vn 0.3686 -0.2146 0.9045
vn 0.3657 -0.2149 0.9056
vn 0.3686 0.2146 0.9045
vn 0.3657 0.2149 0.9056
vn 0.0916 -0.2264 0.9697
vn 0.0903 -0.2264 0.9698
vn 0.0916 0.2264 0.9697
vn 0.0903 0.2264 0.9698
vn 0.0827 -0.0780 -0.9935
vn 0.0827 0.0780 -0.9935
vn 0.0625 0.0986 -0.9932
vn 0.0625 -0.0986 -0.9932
vn -0.9952 0.0615 0.0761
vn -0.9952 -0.0615 0.0761
vn -0.9953 -0.0792 0.0564
vn -0.9953 0.0792 0.0564
vn -0.9149 0.1464 -0.3762
vn -0.9855 0.1403 -0.0954
vn -0.9854 0.1404 -0.0959
vn -0.9146 0.1464 -0.3770
vn -0.9855 -0.1403 -0.0954
vn -0.9149 -0.1464 -0.3762
vn -0.9146 -0.1464 -0.3770
vn -0.9854 -0.1404 -0.0959
vn -0.6968 0.1483 -0.7017
vn -0.6974 0.1483 -0.7012
vn -0.6968 -0.1483 -0.7017
vn -0.6974 -0.1483 -0.7012
vn -0.3678 0.1731 -0.9136
vn -0.3704 0.1729 -0.9126
vn -0.3678 -0.1731 -0.9136
vn -0.3704 -0.1729 -0.9126
vn -0.0920 0.1770 -0.9799
vn -0.0931 0.1772 -0.9798
vn -0.0920 -0.1770 -0.9799
vn -0.0931 -0.1772 -0.9798
usemtl Texture_Signs
s 1
f 57/1/1 62/2/2 66/3/2 59/4/1
f 61/5/3 67/6/3 70/7/4 63/8/4
f 63/8/4 70/7/4 69/9/5 64/10/5
f 64/10/5 69/9/5 68/11/6 65/12/6
f 65/12/6 68/11/6 66/3/2 62/2/2
f 67/6/3 61/5/3 60/13/7 58/14/7
usemtl Grey
f 8/15/8 22/16/9 23/17/10 9/18/11
f 12/19/12 26/20/13 27/21/14 13/22/15
f 1/23/16 15/24/16 17/25/16 3/26/16
f 9/18/11 23/17/10 20/27/17 6/28/18
f 2/29/19 16/30/19 18/31/19 4/32/19
f 10/33/20 24/34/21 26/20/13 12/19/12
f 5/35/22 19/36/23 21/37/24 7/38/25
f 11/39/26 25/40/27 16/30/28 2/29/28
f 14/41/29 28/42/30 25/40/27 11/39/26
f 4/32/31 18/31/31 19/36/23 5/35/22
f 7/38/25 21/37/24 22/16/9 8/15/8
f 6/28/18 20/27/17 15/24/32 1/23/32
f 13/22/15 27/21/14 28/42/30 14/41/29
f 3/26/33 17/25/33 24/34/21 10/33/20
f 36/43/34 37/44/34 51/45/34 50/46/34
f 40/47/35 41/48/35 55/49/35 54/50/35
f 29/51/36 31/52/36 45/53/36 43/54/36
f 37/44/34 34/55/34 48/56/34 51/45/34
f 30/57/37 32/58/37 46/59/37 44/60/37
f 38/61/35 40/47/35 54/50/35 52/62/35
f 33/63/34 35/64/34 49/65/34 47/66/34
f 39/67/35 30/57/35 44/60/35 53/68/35
f 42/69/35 39/67/35 53/68/35 56/70/35
f 32/58/34 33/63/34 47/66/34 46/59/34
f 35/64/34 36/43/34 50/46/34 49/65/34
f 34/55/34 29/51/34 43/54/34 48/56/34
f 41/48/35 42/69/35 56/70/35 55/49/35
f 31/52/35 38/61/35 52/62/35 45/53/35
f 1/23/38 3/26/39 31/52/40 29/51/41
f 2/29/42 4/32/43 32/58/44 30/57/45
f 5/35/46 7/38/47 35/64/48 33/63/49
f 14/41/50 11/39/51 39/67/52 42/69/53
f 7/38/47 8/15/54 36/43/55 35/64/48
f 13/22/56 14/41/50 42/69/53 41/48/57
f 8/15/54 9/18/58 37/44/59 36/43/55
f 12/19/60 13/22/56 41/48/57 40/47/61
f 9/18/58 6/28/62 34/55/63 37/44/59
f 10/33/64 12/19/60 40/47/61 38/61/65
f 11/39/51 2/29/42 30/57/45 39/67/52
f 4/32/43 5/35/46 33/63/49 32/58/44
f 6/28/62 1/23/38 29/51/41 34/55/63
f 3/26/39 10/33/64 38/61/65 31/52/40
f 17/25/66 15/24/67 43/54/68 45/53/69
f 18/31/70 16/30/71 44/60/72 46/59/73
f 21/37/74 19/36/75 47/66/76 49/65/77
f 25/40/78 28/42/79 56/70/80 53/68/81
f 22/16/82 21/37/74 49/65/77 50/46/83
f 28/42/79 27/21/84 55/49/85 56/70/80
f 23/17/86 22/16/82 50/46/83 51/45/87
f 27/21/84 26/20/88 54/50/89 55/49/85
f 20/27/90 23/17/86 51/45/87 48/56/91
f 26/20/88 24/34/92 52/62/93 54/50/89
f 16/30/71 25/40/78 53/68/81 44/60/72
f 19/36/75 18/31/70 46/59/73 47/66/76
f 15/24/67 20/27/90 48/56/91 43/54/68
f 24/34/92 17/25/66 45/53/69 52/62/93
