{
    "asset" : {
        "generator" : "Khronos glTF Blender I/O v1.7.33",
        "version" : "2.0"
    },
    "scene" : 0,
    "scenes" : [
        {
            "name" : "Scene",
            "nodes" : [
                0
            ]
        }
    ],
    "nodes" : [
        {
            "mesh" : 0,
            "name" : "Support_Long"
        }
    ],
    "materials" : [
        {
            "doubleSided" : true,
            "name" : "LightGrey",
            "pbrMetallicRoughness" : {
                "baseColorFactor" : [
                    0.25979551672935486,
                    0.25979551672935486,
                    0.25979551672935486,
                    1
                ],
                "metallicFactor" : 0,
                "roughnessFactor" : 0.5
            }
        },
        {
            "doubleSided" : true,
            "name" : "Grey",
            "pbrMetallicRoughness" : {
                "baseColorFactor" : [
                    0.1733514964580536,
                    0.1733514964580536,
                    0.1733514964580536,
                    1
                ],
                "metallicFactor" : 0,
                "roughnessFactor" : 0.5
            }
        }
    ],
    "meshes" : [
        {
            "name" : "Plane.006",
            "primitives" : [
                {
                    "attributes" : {
                        "POSITION" : 0,
                        "NORMAL" : 1
                    },
                    "indices" : 2,
                    "material" : 0
                },
                {
                    "attributes" : {
                        "POSITION" : 3,
                        "NORMAL" : 4
                    },
                    "indices" : 5,
                    "material" : 1
                }
            ]
        }
    ],
    "accessors" : [
        {
            "bufferView" : 0,
            "componentType" : 5126,
            "count" : 991,
            "max" : [
                1.0911800861358643,
                1.7309868335723877,
                0.041370440274477005
            ],
            "min" : [
                0.3107088506221771,
                -1.722326636314392,
                -0.041370294988155365
            ],
            "type" : "VEC3"
        },
        {
            "bufferView" : 1,
            "componentType" : 5126,
            "count" : 991,
            "type" : "VEC3"
        },
        {
            "bufferView" : 2,
            "componentType" : 5123,
            "count" : 1428,
            "type" : "SCALAR"
        },
        {
            "bufferView" : 3,
            "componentType" : 5126,
            "count" : 96,
            "max" : [
                1.1098328828811646,
                1.780491590499878,
                0.04391881078481674
            ],
            "min" : [
                -5.364418029785156e-07,
                -1.7804920673370361,
                -0.04391873627901077
            ],
            "type" : "VEC3"
        },
        {
            "bufferView" : 4,
            "componentType" : 5126,
            "count" : 96,
            "type" : "VEC3"
        },
        {
            "bufferView" : 5,
            "componentType" : 5123,
            "count" : 144,
            "type" : "SCALAR"
        }
    ],
    "bufferViews" : [
        {
            "buffer" : 0,
            "byteLength" : 11892,
            "byteOffset" : 0
        },
        {
            "buffer" : 0,
            "byteLength" : 11892,
            "byteOffset" : 11892
        },
        {
            "buffer" : 0,
            "byteLength" : 2856,
            "byteOffset" : 23784
        },
        {
            "buffer" : 0,
            "byteLength" : 1152,
            "byteOffset" : 26640
        },
        {
            "buffer" : 0,
            "byteLength" : 1152,
            "byteOffset" : 27792
        },
        {
            "buffer" : 0,
            "byteLength" : 288,
            "byteOffset" : 28944
        }
    ],
    "buffers" : [
        {
            "byteLength" : 29232,
            "uri" : "data:application/octet-stream;base64,"
        }
    ]
}
