{
  "accessors": [
    {
      "bufferView": 2,
      "componentType": 5126,
      "count": 10153,
      "max": [
        0.675242006778717,
        1.0,
        0.9228469729423523
      ],
      "min": [
        -0.675242006778717,
        -0.5137559771537781,
        -0.9109740257263184
      ],
      "type": "VEC3"
    },
    {
      "bufferView": 2,
      "byteOffset": 121836,
      "componentType": 5126,
      "count": 10153,
      "max": [
        0.9999987483024597,
        0.9998257756233215,
        0.9999991059303284
      ],
      "min": [
        -0.9999987483024597,
        -0.9995498657226563,
        -0.999904215335846
      ],
      "type": "VEC3"
    },
    {
      "bufferView": 3,
      "componentType": 5126,
      "count": 10153,
      "max": [
        0.9999679327011108,
        0.9992004036903381,
        0.9998874664306641,
        1.0
      ],
      "min": [
        -0.9998949766159058,
        -0.9999154210090637,
        -0.9993882775306702,
        -1.0
      ],
      "type": "VEC4"
    },
    {
      "bufferView": 1,
      "componentType": 5126,
      "count": 10153,
      "max": [
        0.9872379899024963,
        0.986532986164093
      ],
      "min": [
        0.003011999884620309,
        0.003011999884620309
      ],
      "type": "VEC2"
    },
    {
      "bufferView": 0,
      "componentType": 5125,
      "count": 57846,
      "type": "SCALAR"
    },
    {
      "bufferView": 2,
      "byteOffset": 243672,
      "componentType": 5126,
      "count": 3135,
      "max": [
        0.5805349946022034,
        -0.13188299536705017,
        0.08183939754962921
      ],
      "min": [
        -0.5805349946022034,
        -1.0,
        -0.8658450245857239
      ],
      "type": "VEC3"
    },
    {
      "bufferView": 2,
      "byteOffset": 281292,
      "componentType": 5126,
      "count": 3135,
      "max": [
        0.9998594522476196,
        0.9985334873199463,
        0.997925877571106
      ],
      "min": [
        -0.9998594522476196,
        -0.9963530898094177,
        -0.9999597668647766
      ],
      "type": "VEC3"
    },
    {
      "bufferView": 3,
      "byteOffset": 162448,
      "componentType": 5126,
      "count": 3135,
      "max": [
        0.9998234510421753,
        0.9096230864524841,
        0.999635636806488,
        1.0
      ],
      "min": [
        -0.9999819993972778,
        -0.9032503366470337,
        -0.999914288520813,
        -1.0
      ],
      "type": "VEC4"
    },
    {
      "bufferView": 1,
      "byteOffset": 81224,
      "componentType": 5126,
      "count": 3135,
      "max": [
        0.9855759739875793,
        0.9868860244750977
      ],
      "min": [
        0.045180998742580414,
        0.003011999884620309
      ],
      "type": "VEC2"
    },
    {
      "bufferView": 0,
      "byteOffset": 231384,
      "componentType": 5125,
      "count": 17226,
      "type": "SCALAR"
    },
    {
      "bufferView": 2,
      "byteOffset": 318912,
      "componentType": 5126,
      "count": 3341,
      "max": [
        0.336436003446579,
        -0.5108780264854431,
        -0.36002200841903687
      ],
      "min": [
        -0.336436003446579,
        -0.7515820264816284,
        -0.8931090235710144
      ],
      "type": "VEC3"
    },
    {
      "bufferView": 2,
      "byteOffset": 359004,
      "componentType": 5126,
      "count": 3341,
      "max": [
        0.9997856616973877,
        0.9983132481575012,
        0.9985767602920532
      ],
      "min": [
        -0.9997856616973877,
        -0.9957104921340942,
        -0.9996915459632874
      ],
      "type": "VEC3"
    },
    {
      "bufferView": 3,
      "byteOffset": 212608,
      "componentType": 5126,
      "count": 3341,
      "max": [
        0.9998336434364319,
        0.998647928237915,
        0.9998900890350342,
        1.0
      ],
      "min": [
        -0.9997540712356567,
        -0.9980364441871643,
        -0.9999758005142212,
        -1.0
      ],
      "type": "VEC4"
    },
    {
      "bufferView": 1,
      "byteOffset": 106304,
      "componentType": 5126,
      "count": 3341,
      "max": [
        0.9878150224685669,
        0.9878969788551331
      ],
      "min": [
        0.003011999884620309,
        0.003011999884620309
      ],
      "type": "VEC2"
    },
    {
      "bufferView": 0,
      "byteOffset": 300288,
      "componentType": 5125,
      "count": 16428,
      "type": "SCALAR"
    },
    {
      "bufferView": 2,
      "byteOffset": 399096,
      "componentType": 5126,
      "count": 3070,
      "max": [
        0.34468498826026917,
        -0.3840999901294708,
        -0.34830498695373535
      ],
      "min": [
        -0.34531301259994507,
        -0.6029199957847595,
        -0.9228469729423523
      ],
      "type": "VEC3"
    },
    {
      "bufferView": 2,
      "byteOffset": 435936,
      "componentType": 5126,
      "count": 3070,
      "max": [
        0.999999463558197,
        0.9987402558326721,
        0.9983243346214294
      ],
      "min": [
        -0.9994409084320068,
        -0.9990573525428772,
        -0.9994443655014038
      ],
      "type": "VEC3"
    },
    {
      "bufferView": 3,
      "byteOffset": 266064,
      "componentType": 5126,
      "count": 3070,
      "max": [
        0.9999687671661377,
        0.995479941368103,
        0.9998327493667603,
        1.0
      ],
      "min": [
        -0.9991729855537415,
        -0.9989618062973022,
        -0.9991014003753662,
        -1.0
      ],
      "type": "VEC4"
    },
    {
      "bufferView": 1,
      "byteOffset": 133032,
      "componentType": 5126,
      "count": 3070,
      "max": [
        0.9878190159797668,
        0.985854983329773
      ],
      "min": [
        0.003011999884620309,
        0.003011999884620309
      ],
      "type": "VEC2"
    },
    {
      "bufferView": 0,
      "byteOffset": 366000,
      "componentType": 5125,
      "count": 15264,
      "type": "SCALAR"
    }
  ],
  "asset": {
    "extras": {
      "author": "Sergey Egelsky (https://sketchfab.com/egelsky)",
      "license": "CC-BY-4.0 (http://creativecommons.org/licenses/by/4.0/)",
      "source": "https://sketchfab.com/3d-models/human-skull-b0251e48e906418ebae34b7f811ca065",
      "title": "Human Skull"
    },
    "generator": "Sketchfab-12.67.0",
    "version": "2.0"
  },
  "bufferViews": [
    {
      "buffer": 0,
      "byteLength": 427056,
      "name": "floatBufferViews",
      "target": 34963
    },
    {
      "buffer": 0,
      "byteLength": 157592,
      "byteOffset": 427056,
      "byteStride": 8,
      "name": "floatBufferViews",
      "target": 34962
    },
    {
      "buffer": 0,
      "byteLength": 472776,
      "byteOffset": 584648,
      "byteStride": 12,
      "name": "floatBufferViews",
      "target": 34962
    },
    {
      "buffer": 0,
      "byteLength": 315184,
      "byteOffset": 1057424,
      "byteStride": 16,
      "name": "floatBufferViews",
      "target": 34962
    }
  ],
  "buffers": [
    {
      "byteLength": 1372608,
      "uri": "scene.bin"
    }
  ],
  "images": [
    {
      "uri": "textures/DefaultMaterial_baseColor.jpeg"
    },
    {
      "uri": "textures/DefaultMaterial_metallicRoughness.png"
    },
    {
      "uri": "textures/DefaultMaterial_normal.png"
    }
  ],
  "materials": [
    {
      "doubleSided": true,
      "name": "DefaultMaterial",
      "normalTexture": {
        "index": 2
      },
      "occlusionTexture": {
        "index": 1
      },
      "pbrMetallicRoughness": {
        "baseColorTexture": {
          "index": 0
        },
        "metallicRoughnessTexture": {
          "index": 1
        }
      }
    }
  ],
  "meshes": [
    {
      "name": "defaultMaterial",
      "primitives": [
        {
          "attributes": {
            "NORMAL": 1,
            "POSITION": 0,
            "TANGENT": 2,
            "TEXCOORD_0": 3
          },
          "indices": 4,
          "material": 0,
          "mode": 4
        }
      ]
    },
    {
      "name": "defaultMaterial",
      "primitives": [
        {
          "attributes": {
            "NORMAL": 6,
            "POSITION": 5,
            "TANGENT": 7,
            "TEXCOORD_0": 8
          },
          "indices": 9,
          "material": 0,
          "mode": 4
        }
      ]
    },
    {
      "name": "defaultMaterial",
      "primitives": [
        {
          "attributes": {
            "NORMAL": 11,
            "POSITION": 10,
            "TANGENT": 12,
            "TEXCOORD_0": 13
          },
          "indices": 14,
          "material": 0,
          "mode": 4
        }
      ]
    },
    {
      "name": "defaultMaterial",
      "primitives": [
        {
          "attributes": {
            "NORMAL": 16,
            "POSITION": 15,
            "TANGENT": 17,
            "TEXCOORD_0": 18
          },
          "indices": 19,
          "material": 0,
          "mode": 4
        }
      ]
    }
  ],
  "nodes": [
    {
      "children": [
        1
      ],
      "matrix": [
        1.0,
        0.0,
        0.0,
        0.0,
        0.0,
        2.220446049250313e-16,
        -1.0,
        0.0,
        0.0,
        1.0,
        2.220446049250313e-16,
        0.0,
        0.0,
        0.0,
        0.0,
        1.0
      ],
      "name": "Sketchfab_model"
    },
    {
      "children": [
        2,
        4,
        6,
        8
      ],
      "matrix": [
        1.0,
        0.0,
        0.0,
        0.0,
        0.0,
        -4.371139006309477e-08,
        0.999999999999999,
        0.0,
        0.0,
        -0.999999999999999,
        -4.371139006309477e-08,
        0.0,
        0.0,
        0.0,
        0.0,
        1.0
      ],
      "name": "Collada visual scene group"
    },
    {
      "children": [
        3
      ],
      "name": "g"
    },
    {
      "mesh": 0,
      "name": "defaultMaterial"
    },
    {
      "children": [
        5
      ],
      "name": "g"
    },
    {
      "mesh": 1,
      "name": "defaultMaterial"
    },
    {
      "children": [
        7
      ],
      "name": "g"
    },
    {
      "mesh": 2,
      "name": "defaultMaterial"
    },
    {
      "children": [
        9
      ],
      "name": "g"
    },
    {
      "mesh": 3,
      "name": "defaultMaterial"
    }
  ],
  "samplers": [
    {
      "magFilter": 9729,
      "minFilter": 9987,
      "wrapS": 10497,
      "wrapT": 10497
    }
  ],
  "scene": 0,
  "scenes": [
    {
      "name": "Sketchfab_Scene",
      "nodes": [
        0
      ]
    }
  ],
  "textures": [
    {
      "sampler": 0,
      "source": 0
    },
    {
      "sampler": 0,
      "source": 1
    },
    {
      "sampler": 0,
      "source": 2
    }
  ]
}
