{
    "asset" : {
        "generator" : "Khronos glTF Blender I/O v1.7.33",
        "version" : "2.0"
    },
    "scene" : 0,
    "scenes" : [
        {
            "name" : "Scene",
            "nodes" : [
                0
            ]
        }
    ],
    "nodes" : [
        {
            "mesh" : 0,
            "name" : "Collectible_Board"
        }
    ],
    "materials" : [
        {
            "doubleSided" : true,
            "name" : "DarkGrey",
            "pbrMetallicRoughness" : {
                "baseColorFactor" : [
                    0.06680479645729065,
                    0.06680479645729065,
                    0.06680479645729065,
                    1
                ],
                "metallicFactor" : 0,
                "roughnessFactor" : 0.5
            }
        },
        {
            "doubleSided" : true,
            "name" : "Green",
            "pbrMetallicRoughness" : {
                "baseColorFactor" : [
                    0.041146934032440186,
                    0.07323396950960159,
                    0.0052865371108055115,
                    1
                ],
                "metallicFactor" : 0,
                "roughnessFactor" : 0.5
            }
        },
        {
            "doubleSided" : true,
            "name" : "Grey",
            "pbrMetallicRoughness" : {
                "baseColorFactor" : [
                    0.1733514964580536,
                    0.1733514964580536,
                    0.1733514964580536,
                    1
                ],
                "metallicFactor" : 0,
                "roughnessFactor" : 0.5
            }
        },
        {
            "doubleSided" : true,
            "name" : "Gold",
            "pbrMetallicRoughness" : {
                "baseColorFactor" : [
                    0.2330120950937271,
                    0.1719754934310913,
                    0.009496273472905159,
                    1
                ],
                "metallicFactor" : 0,
                "roughnessFactor" : 0.5
            }
        }
    ],
    "meshes" : [
        {
            "name" : "Cube.001",
            "primitives" : [
                {
                    "attributes" : {
                        "POSITION" : 0,
                        "NORMAL" : 1
                    },
                    "indices" : 2,
                    "material" : 0
                },
                {
                    "attributes" : {
                        "POSITION" : 3,
                        "NORMAL" : 4
                    },
                    "indices" : 5,
                    "material" : 1
                },
                {
                    "attributes" : {
                        "POSITION" : 6,
                        "NORMAL" : 7
                    },
                    "indices" : 8,
                    "material" : 2
                },
                {
                    "attributes" : {
                        "POSITION" : 9,
                        "NORMAL" : 10
                    },
                    "indices" : 11,
                    "material" : 3
                }
            ]
        }
    ],
    "accessors" : [
        {
            "bufferView" : 0,
            "componentType" : 5126,
            "count" : 180,
            "max" : [
                0.16450440883636475,
                0.1787739098072052,
                0.019496755674481392
            ],
            "min" : [
                -0.18046042323112488,
                -0.12315861880779266,
                -0.019496731460094452
            ],
            "type" : "VEC3"
        },
        {
            "bufferView" : 1,
            "componentType" : 5126,
            "count" : 180,
            "type" : "VEC3"
        },
        {
            "bufferView" : 2,
            "componentType" : 5123,
            "count" : 270,
            "type" : "SCALAR"
        },
        {
            "bufferView" : 3,
            "componentType" : 5126,
            "count" : 140,
            "max" : [
                0.1304207742214203,
                0.15425990521907806,
                0.017279308289289474
            ],
            "min" : [
                -0.13903473317623138,
                -0.08603521436452866,
                -0.017279308289289474
            ],
            "type" : "VEC3"
        },
        {
            "bufferView" : 4,
            "componentType" : 5126,
            "count" : 140,
            "type" : "VEC3"
        },
        {
            "bufferView" : 5,
            "componentType" : 5123,
            "count" : 210,
            "type" : "SCALAR"
        },
        {
            "bufferView" : 6,
            "componentType" : 5126,
            "count" : 24,
            "max" : [
                -0.02265692502260208,
                0.18778148293495178,
                0.02338956855237484
            ],
            "min" : [
                -0.18946653604507446,
                0.008514255285263062,
                -0.02338954247534275
            ],
            "type" : "VEC3"
        },
        {
            "bufferView" : 7,
            "componentType" : 5126,
            "count" : 24,
            "type" : "VEC3"
        },
        {
            "bufferView" : 8,
            "componentType" : 5123,
            "count" : 36,
            "type" : "SCALAR"
        },
        {
            "bufferView" : 9,
            "componentType" : 5126,
            "count" : 216,
            "max" : [
                0.09979014843702316,
                0.060522910207509995,
                0.01727929525077343
            ],
            "min" : [
                -0.15194393694400787,
                -0.13475701212882996,
                -0.017279302701354027
            ],
            "type" : "VEC3"
        },
        {
            "bufferView" : 10,
            "componentType" : 5126,
            "count" : 216,
            "type" : "VEC3"
        },
        {
            "bufferView" : 11,
            "componentType" : 5123,
            "count" : 324,
            "type" : "SCALAR"
        }
    ],
    "bufferViews" : [
        {
            "buffer" : 0,
            "byteLength" : 2160,
            "byteOffset" : 0
        },
        {
            "buffer" : 0,
            "byteLength" : 2160,
            "byteOffset" : 2160
        },
        {
            "buffer" : 0,
            "byteLength" : 540,
            "byteOffset" : 4320
        },
        {
            "buffer" : 0,
            "byteLength" : 1680,
            "byteOffset" : 4860
        },
        {
            "buffer" : 0,
            "byteLength" : 1680,
            "byteOffset" : 6540
        },
        {
            "buffer" : 0,
            "byteLength" : 420,
            "byteOffset" : 8220
        },
        {
            "buffer" : 0,
            "byteLength" : 288,
            "byteOffset" : 8640
        },
        {
            "buffer" : 0,
            "byteLength" : 288,
            "byteOffset" : 8928
        },
        {
            "buffer" : 0,
            "byteLength" : 72,
            "byteOffset" : 9216
        },
        {
            "buffer" : 0,
            "byteLength" : 2592,
            "byteOffset" : 9288
        },
        {
            "buffer" : 0,
            "byteLength" : 2592,
            "byteOffset" : 11880
        },
        {
            "buffer" : 0,
            "byteLength" : 648,
            "byteOffset" : 14472
        }
    ],
    "buffers" : [
        {
            "byteLength" : 15120,
            "uri" : "data:application/octet-stream;base64,"
        }
    ]
}
