{
    "asset" : {
        "generator" : "Khronos glTF Blender I/O v1.7.33",
        "version" : "2.0"
    },
    "scene" : 0,
    "scenes" : [
        {
            "name" : "Scene",
            "nodes" : [
                0,
                1
            ]
        }
    ],
    "nodes" : [
        {
            "mesh" : 0,
            "name" : "Lever_Base"
        },
        {
            "mesh" : 1,
            "name" : "Lever_Top"
        }
    ],
    "materials" : [
        {
            "doubleSided" : true,
            "name" : "LightGrey",
            "pbrMetallicRoughness" : {
                "baseColorFactor" : [
                    0.25979551672935486,
                    0.25979551672935486,
                    0.25979551672935486,
                    1
                ],
                "metallicFactor" : 0,
                "roughnessFactor" : 0.5
            }
        },
        {
            "doubleSided" : true,
            "name" : "Black",
            "pbrMetallicRoughness" : {
                "baseColorFactor" : [
                    0.027209052816033363,
                    0.027209052816033363,
                    0.027209052816033363,
                    1
                ],
                "metallicFactor" : 0,
                "roughnessFactor" : 0.5
            }
        },
        {
            "doubleSided" : true,
            "name" : "Grey",
            "pbrMetallicRoughness" : {
                "baseColorFactor" : [
                    0.1733514964580536,
                    0.1733514964580536,
                    0.1733514964580536,
                    1
                ],
                "metallicFactor" : 0,
                "roughnessFactor" : 0.5
            }
        }
    ],
    "meshes" : [
        {
            "name" : "Cube.056",
            "primitives" : [
                {
                    "attributes" : {
                        "POSITION" : 0,
                        "NORMAL" : 1
                    },
                    "indices" : 2,
                    "material" : 0
                },
                {
                    "attributes" : {
                        "POSITION" : 3,
                        "NORMAL" : 4
                    },
                    "indices" : 5,
                    "material" : 1
                },
                {
                    "attributes" : {
                        "POSITION" : 6,
                        "NORMAL" : 7
                    },
                    "indices" : 8,
                    "material" : 2
                }
            ]
        },
        {
            "name" : "Cube.057",
            "primitives" : [
                {
                    "attributes" : {
                        "POSITION" : 9,
                        "NORMAL" : 10
                    },
                    "indices" : 11,
                    "material" : 0
                },
                {
                    "attributes" : {
                        "POSITION" : 12,
                        "NORMAL" : 13
                    },
                    "indices" : 14,
                    "material" : 2
                }
            ]
        }
    ],
    "accessors" : [
        {
            "bufferView" : 0,
            "componentType" : 5126,
            "count" : 100,
            "max" : [
                0.1786459982395172,
                0.191787987947464,
                0.2530137300491333
            ],
            "min" : [
                -0.1786459982395172,
                0.00032683799508959055,
                -0.36236876249313354
            ],
            "type" : "VEC3"
        },
        {
            "bufferView" : 1,
            "componentType" : 5126,
            "count" : 100,
            "type" : "VEC3"
        },
        {
            "bufferView" : 2,
            "componentType" : 5123,
            "count" : 252,
            "type" : "SCALAR"
        },
        {
            "bufferView" : 3,
            "componentType" : 5126,
            "count" : 106,
            "max" : [
                0.1990022510290146,
                0.19836081564426422,
                0.27150118350982666
            ],
            "min" : [
                -0.19898754358291626,
                -0.01473804097622633,
                -0.39093029499053955
            ],
            "type" : "VEC3"
        },
        {
            "bufferView" : 4,
            "componentType" : 5126,
            "count" : 106,
            "type" : "VEC3"
        },
        {
            "bufferView" : 5,
            "componentType" : 5123,
            "count" : 270,
            "type" : "SCALAR"
        },
        {
            "bufferView" : 6,
            "componentType" : 5126,
            "count" : 128,
            "max" : [
                0.12126775085926056,
                0.21615390479564667,
                0.1244671493768692
            ],
            "min" : [
                -0.12126775085926056,
                0.06804176419973373,
                -0.3356574773788452
            ],
            "type" : "VEC3"
        },
        {
            "bufferView" : 7,
            "componentType" : 5126,
            "count" : 128,
            "type" : "VEC3"
        },
        {
            "bufferView" : 8,
            "componentType" : 5123,
            "count" : 330,
            "type" : "SCALAR"
        },
        {
            "bufferView" : 9,
            "componentType" : 5126,
            "count" : 40,
            "max" : [
                0.04042256996035576,
                0.3674525022506714,
                0.13243599236011505
            ],
            "min" : [
                -0.04042256996035576,
                0.15260709822177887,
                -0.01724664308130741
            ],
            "type" : "VEC3"
        },
        {
            "bufferView" : 10,
            "componentType" : 5126,
            "count" : 40,
            "type" : "VEC3"
        },
        {
            "bufferView" : 11,
            "componentType" : 5123,
            "count" : 66,
            "type" : "SCALAR"
        },
        {
            "bufferView" : 12,
            "componentType" : 5126,
            "count" : 40,
            "max" : [
                0.04042256996035576,
                0.43095162510871887,
                0.15825948119163513
            ],
            "min" : [
                -0.04042256996035576,
                0.3370911180973053,
                0.057778358459472656
            ],
            "type" : "VEC3"
        },
        {
            "bufferView" : 13,
            "componentType" : 5126,
            "count" : 40,
            "type" : "VEC3"
        },
        {
            "bufferView" : 14,
            "componentType" : 5123,
            "count" : 66,
            "type" : "SCALAR"
        }
    ],
    "bufferViews" : [
        {
            "buffer" : 0,
            "byteLength" : 1200,
            "byteOffset" : 0
        },
        {
            "buffer" : 0,
            "byteLength" : 1200,
            "byteOffset" : 1200
        },
        {
            "buffer" : 0,
            "byteLength" : 504,
            "byteOffset" : 2400
        },
        {
            "buffer" : 0,
            "byteLength" : 1272,
            "byteOffset" : 2904
        },
        {
            "buffer" : 0,
            "byteLength" : 1272,
            "byteOffset" : 4176
        },
        {
            "buffer" : 0,
            "byteLength" : 540,
            "byteOffset" : 5448
        },
        {
            "buffer" : 0,
            "byteLength" : 1536,
            "byteOffset" : 5988
        },
        {
            "buffer" : 0,
            "byteLength" : 1536,
            "byteOffset" : 7524
        },
        {
            "buffer" : 0,
            "byteLength" : 660,
            "byteOffset" : 9060
        },
        {
            "buffer" : 0,
            "byteLength" : 480,
            "byteOffset" : 9720
        },
        {
            "buffer" : 0,
            "byteLength" : 480,
            "byteOffset" : 10200
        },
        {
            "buffer" : 0,
            "byteLength" : 132,
            "byteOffset" : 10680
        },
        {
            "buffer" : 0,
            "byteLength" : 480,
            "byteOffset" : 10812
        },
        {
            "buffer" : 0,
            "byteLength" : 480,
            "byteOffset" : 11292
        },
        {
            "buffer" : 0,
            "byteLength" : 132,
            "byteOffset" : 11772
        }
    ],
    "buffers" : [
        {
            "byteLength" : 11904,
            "uri" : "data:application/octet-stream;base64,"
        }
    ]
}
