# Blender v3.0.0 OBJ File: 'Lever.blend'
# www.blender.org
mtllib Lever.mtl
o Lever_Base_Cube.056
v 0.178646 0.191788 -0.362369
v 0.178646 0.000327 -0.362369
v -0.178646 0.000327 -0.007586
v -0.178646 0.091954 -0.007586
v -0.178646 0.000327 -0.362369
v -0.178646 0.191788 -0.362369
v 0.178646 0.000327 -0.007586
v 0.178646 0.091954 -0.007586
v -0.014568 0.000327 0.228492
v -0.178646 0.000327 0.064413
v -0.077358 0.000327 0.216002
v -0.130589 0.000327 0.180434
v -0.166156 0.000327 0.127203
v -0.178646 0.091954 0.064413
v -0.014568 0.091954 0.228492
v -0.166156 0.091954 0.127203
v -0.130589 0.091954 0.180434
v -0.077358 0.091954 0.216002
v 0.178646 0.000327 0.064413
v 0.014568 0.000327 0.228492
v 0.166156 0.000327 0.127203
v 0.130589 0.000327 0.180434
v 0.077358 0.000327 0.216002
v 0.014568 0.091954 0.228492
v 0.178646 0.091954 0.064413
v 0.077358 0.091954 0.216002
v 0.130589 0.091954 0.180434
v 0.166156 0.091954 0.127203
v -0.178646 0.191788 -0.163324
v -0.178646 0.000327 -0.163324
v 0.178646 0.000327 -0.163324
v 0.178646 0.191788 -0.163324
v -0.121268 0.068042 -0.335657
v 0.121268 0.068042 -0.335657
v -0.121268 0.216154 -0.335657
v 0.121268 0.216154 -0.335657
v -0.121268 0.068042 -0.010324
v 0.121268 0.068042 -0.010324
v -0.121268 0.216154 -0.010324
v 0.121268 0.216154 -0.010324
v -0.121268 0.068042 -0.161547
v 0.121268 0.068042 -0.161547
v -0.121268 0.216154 -0.161547
v 0.121268 0.216154 -0.161547
v -0.040423 0.068042 0.124467
v 0.040423 0.068042 0.124467
v 0.040423 0.068042 -0.335657
v -0.040423 0.068042 -0.335657
v -0.040423 0.135346 0.124467
v 0.040423 0.135346 0.124467
v 0.040423 0.216154 -0.335657
v -0.040423 0.216154 -0.335657
v 0.040423 0.216154 -0.010324
v -0.040423 0.216154 -0.010324
v -0.040423 0.068042 -0.010324
v 0.040423 0.068042 -0.010324
v 0.040423 0.216154 -0.161547
v -0.040423 0.216154 -0.161547
v -0.040423 0.068042 -0.161547
v 0.040423 0.068042 -0.161547
v -0.121268 0.068042 0.090969
v 0.121268 0.068042 0.090969
v -0.121268 0.155428 0.090969
v 0.121268 0.155428 0.090969
v -0.040423 0.068042 0.090969
v 0.040423 0.068042 0.090969
v -0.040423 0.155428 0.090969
v 0.040423 0.155428 0.090969
v -0.121268 0.068042 -0.291763
v 0.121268 0.068042 -0.291763
v -0.121268 0.216154 -0.291763
v 0.121268 0.216154 -0.291763
v -0.040423 0.216154 -0.291763
v 0.040423 0.216154 -0.291763
v -0.040423 0.068042 -0.291763
v 0.040423 0.068042 -0.291763
v 0.040423 0.198361 -0.010324
v -0.040423 0.198361 -0.010324
v 0.040423 0.198361 -0.161547
v -0.040423 0.198361 -0.161547
v -0.040423 0.137635 0.090969
v 0.040423 0.137635 0.090969
v -0.040423 0.198361 -0.291763
v 0.040423 0.198361 -0.291763
v -0.065139 0.000327 0.218432
v -0.065139 0.091954 0.218432
v 0.064429 0.091954 0.218573
v 0.064429 0.000327 0.218573
v -0.051743 0.000327 0.242955
v -0.011600 0.000327 0.253014
v -0.011600 0.091954 0.253014
v 0.051107 0.091954 0.243096
v 0.011527 0.091954 0.253014
v 0.011527 0.000327 0.253014
v -0.051743 0.091954 0.242955
v 0.051107 0.000327 0.243096
v 0.190285 0.015004 -0.368829
v -0.190276 0.015004 -0.013987
v -0.190276 0.015004 -0.368829
v 0.190285 0.015004 -0.013987
v -0.015512 0.015004 0.237465
v -0.190276 0.015004 0.062701
v -0.082392 0.015004 0.224162
v -0.139089 0.015004 0.186278
v -0.176973 0.015004 0.129580
v 0.190285 0.015004 0.062701
v 0.015521 0.015004 0.237465
v 0.176982 0.015004 0.129580
v 0.139098 0.015004 0.186278
v 0.082400 0.015004 0.224162
v -0.190276 0.015004 -0.179869
v 0.190285 0.015004 -0.179869
v -0.069377 0.015004 0.226750
v 0.068629 0.015004 0.226901
v -0.055109 0.015004 0.252870
v -0.012352 0.015004 0.263584
v 0.012282 0.015004 0.263584
v 0.054439 0.015004 0.253020
v -0.198988 -0.014738 -0.192260
v -0.198988 -0.014738 -0.390930
v 0.199002 -0.014738 -0.192260
v 0.199002 -0.014738 -0.390930
v 0.199002 -0.014738 -0.018782
v -0.198988 -0.014738 -0.018782
v -0.072551 -0.014738 0.232981
v -0.016220 -0.014738 0.244186
v 0.056935 -0.014738 0.260453
v 0.071775 -0.014738 0.233138
v -0.145456 -0.014738 0.190654
v -0.086162 -0.014738 0.230273
v -0.185075 -0.014738 0.131360
v -0.198988 -0.014738 0.061418
v 0.086177 -0.014738 0.230273
v 0.145471 -0.014738 0.190654
v 0.185090 -0.014738 0.131360
v 0.199002 -0.014738 0.061418
v 0.016234 -0.014738 0.244186
v -0.057630 -0.014738 0.260296
v -0.012914 -0.014738 0.271501
v 0.012848 -0.014738 0.271501
v -0.097786 0.068042 0.124467
v -0.121268 0.068042 0.100985
v 0.121268 0.068042 0.100985
v 0.097786 0.068042 0.124467
v -0.121268 0.149423 0.100985
v -0.097786 0.135346 0.124467
v 0.097786 0.135346 0.124467
v 0.121268 0.149423 0.100985
vn -0.0000 1.0000 0.0000
vn 1.0000 0.0000 0.0000
vn 0.0000 0.0000 -1.0000
vn -0.9952 0.0000 0.0980
vn -1.0000 0.0000 0.0000
vn 0.9952 -0.0000 0.0980
vn -0.1951 -0.0000 0.9808
vn -0.3827 -0.0000 0.9239
vn -0.7071 -0.0000 0.7071
vn -0.9239 -0.0000 0.3827
vn 0.1951 0.0000 0.9808
vn 0.3827 0.0000 0.9239
vn 0.7071 0.0000 0.7071
vn 0.9239 0.0000 0.3827
vn 0.0000 -1.0000 0.0000
vn 0.0000 0.8419 0.5397
vn 0.8787 -0.0000 0.4774
vn 0.1225 0.0000 0.9925
vn -0.1225 -0.0000 0.9925
vn -0.2431 -0.0000 0.9700
vn 0.2431 0.0000 0.9700
vn -0.8776 -0.0000 0.4794
vn 0.0000 0.8577 0.5142
vn -0.9562 0.2758 0.0984
vn -0.9597 0.2811 0.0000
vn -0.9568 0.2764 0.0902
vn -0.3679 0.2317 0.9005
vn -0.6811 0.2472 0.6892
vn -0.6888 0.2477 0.6813
vn -0.3762 0.2320 0.8970
vn -0.1194 0.2575 0.9589
vn -0.2351 0.2542 0.9382
vn -0.1174 0.2575 0.9591
vn 0.9596 0.2813 0.0000
vn 0.9561 0.2760 0.0984
vn 0.9568 0.2765 0.0902
vn -0.8887 0.2645 0.3745
vn -0.8929 0.2650 0.3640
vn 0.1193 0.2575 0.9589
vn 0.1174 0.2575 0.9591
vn 0.2351 0.2542 0.9381
vn 0.3679 0.2318 0.9005
vn 0.1903 0.2207 0.9566
vn 0.3763 0.2321 0.8970
vn 0.6810 0.2474 0.6892
vn 0.6888 0.2479 0.6813
vn 0.0000 0.5964 -0.8027
vn 0.8886 0.2647 0.3745
vn 0.8929 0.2652 0.3640
vn -0.8615 0.1905 0.4706
vn -0.1903 0.2207 0.9566
vn 0.8628 0.1896 0.4687
vn 0.0000 0.0000 1.0000
usemtl LightGrey
s 1
f 15//1 86//1 95//1 91//1
f 32//2 31//2 2//2 1//2
f 5//3 6//3 1//3 2//3
f 8//1 4//1 14//1 16//1 17//1 18//1 86//1 15//1 24//1 87//1 26//1 27//1 28//1 25//1
f 10//4 14//4 4//5 3//5
f 7//2 8//2 25//6 19//6
f 85//7 86//7 18//8 11//8
f 11//8 18//8 17//9 12//9
f 12//9 17//9 16//10 13//10
f 13//10 16//10 14//4 10//4
f 87//11 88//11 23//12 26//12
f 26//12 23//12 22//13 27//13
f 27//13 22//13 21//14 28//14
f 28//14 21//14 19//6 25//6
f 3//15 7//15 19//15 21//15 22//15 23//15 88//15 20//15 9//15 85//15 11//15 12//15 13//15 10//15
f 31//15 30//15 5//15 2//15
f 29//1 32//1 1//1 6//1
f 30//5 29//5 6//5 5//5
f 3//5 4//5 29//5 30//5
f 4//16 8//16 32//16 29//16
f 7//15 3//15 30//15 31//15
f 8//2 7//2 31//2 32//2
f 24//1 15//1 91//1 93//1
f 88//17 87//17 92//17 96//17
f 94//18 93//18 91//19 90//19
f 90//19 91//19 95//20 89//20
f 93//18 94//18 96//21 92//21
f 9//15 20//15 94//15 90//15
f 87//1 24//1 93//1 92//1
f 85//15 9//15 90//15 89//15
f 20//15 88//15 96//15 94//15
f 86//22 85//22 89//22 95//22
usemtl Black
f 78//1 77//1 79//1 80//1
f 81//23 82//23 77//23 78//23
f 80//1 79//1 84//1 83//1
f 98//1 102//1 105//1 104//1 103//1 113//1 101//1 107//1 114//1 110//1 109//1 108//1 106//1 100//1
f 112//1 97//1 99//1 111//1
f 100//1 112//1 111//1 98//1
f 101//1 116//1 117//1 107//1
f 113//1 115//1 116//1 101//1
f 107//1 117//1 118//1 114//1
f 124//15 123//15 136//15 135//15 134//15 133//15 128//15 137//15 126//15 125//15 130//15 129//15 131//15 132//15
f 121//15 119//15 120//15 122//15
f 123//15 124//15 119//15 121//15
f 126//15 137//15 140//15 139//15
f 125//15 126//15 139//15 138//15
f 137//15 128//15 127//15 140//15
f 102//24 98//25 124//25 132//26
f 103//27 104//28 129//29 130//30
f 116//31 115//32 138//32 139//33
f 100//34 106//35 136//36 123//34
f 104//28 105//37 131//38 129//29
f 117//39 116//31 139//33 140//40
f 111//25 99//25 120//25 119//25
f 105//37 102//24 132//26 131//38
f 118//41 117//39 140//40 127//41
f 97//34 112//34 121//34 122//34
f 98//25 111//25 119//25 124//25
f 110//42 114//43 128//43 133//44
f 112//34 100//34 123//34 121//34
f 109//45 110//42 133//44 134//46
f 99//47 97//47 122//47 120//47
f 108//48 109//45 134//46 135//49
f 115//50 113//50 125//50 138//50
f 113//51 103//27 130//30 125//51
f 106//35 108//48 135//49 136//36
f 114//52 118//52 127//52 128//52
usemtl Grey
f 76//15 47//15 34//15 70//15
f 74//1 72//1 36//1 51//1
f 70//2 34//2 36//2 72//2
f 141//53 45//53 49//53 146//53
f 48//3 33//3 35//3 52//3
f 145//23 146//23 49//23 67//23 63//23
f 41//5 37//5 39//5 43//5
f 62//2 38//2 40//2 64//2
f 68//23 64//23 40//23 53//23
f 66//15 56//15 38//15 62//15
f 69//5 41//5 43//5 71//5
f 38//2 42//2 44//2 40//2
f 53//1 40//1 44//1 57//1
f 56//15 60//15 42//15 38//15
f 37//15 41//15 59//15 55//15
f 55//15 59//15 60//15 56//15
f 39//1 54//1 58//1 43//1
f 74//53 73//53 83//53 84//53
f 61//15 37//15 55//15 65//15
f 65//15 55//15 56//15 66//15
f 63//23 67//23 54//23 39//23
f 58//2 54//2 78//2 80//2
f 46//15 66//15 62//15 143//15 144//15
f 45//53 46//53 50//53 49//53
f 34//3 47//3 51//3 36//3
f 47//3 48//3 52//3 51//3
f 71//1 73//1 52//1 35//1
f 73//1 74//1 51//1 52//1
f 69//15 33//15 48//15 75//15
f 75//15 48//15 47//15 76//15
f 49//23 50//23 68//23 67//23
f 50//23 147//23 148//23 64//23 68//23
f 45//15 65//15 66//15 46//15
f 61//5 142//5 145//5 63//5
f 143//2 62//2 64//2 148//2
f 46//53 144//53 147//53 50//53
f 37//5 61//5 63//5 39//5
f 59//15 75//15 76//15 60//15
f 41//15 69//15 75//15 59//15
f 67//3 68//3 82//3 81//3
f 43//1 58//1 73//1 71//1
f 33//5 69//5 71//5 35//5
f 42//2 70//2 72//2 44//2
f 57//1 44//1 72//1 74//1
f 60//15 76//15 70//15 42//15
f 68//5 53//5 77//5 82//5
f 73//2 58//2 80//2 83//2
f 53//5 57//5 79//5 77//5
f 54//2 67//2 81//2 78//2
f 57//5 74//5 84//5 79//5
f 147//13 144//13 143//13 148//13
f 141//9 146//9 145//9 142//9
f 141//15 142//15 61//15 65//15 45//15
o Lever_Top_Cube.057
v 0.040423 0.343128 0.117591
v 0.024397 0.337091 0.132436
v 0.040423 0.361415 0.072624
v 0.024397 0.367453 0.057778
v -0.040423 0.361415 0.072624
v -0.024397 0.367453 0.057778
v -0.040423 0.343128 0.117591
v -0.024397 0.337091 0.132436
v 0.024397 0.182968 -0.017247
v 0.040423 0.176931 -0.002401
v -0.040423 0.176931 -0.002401
v -0.024397 0.182968 -0.017247
v 0.040423 0.158644 0.042566
v 0.024397 0.152607 0.057411
v -0.024397 0.152607 0.057411
v -0.040423 0.158644 0.042566
v 0.040423 0.424914 0.098447
v 0.024397 0.430952 0.083602
v -0.024397 0.430952 0.083602
v -0.040423 0.424914 0.098447
v 0.024397 0.400590 0.158259
v 0.040423 0.406627 0.143414
v -0.040423 0.406627 0.143414
v -0.024397 0.400590 0.158259
vn 0.0000 0.3767 -0.9263
vn 0.0000 -0.9263 -0.3767
vn -0.7071 0.2664 -0.6550
vn 0.7071 -0.2664 0.6550
vn 0.7071 0.2664 -0.6550
vn -0.7071 -0.2664 0.6550
vn 1.0000 -0.0000 0.0000
vn 0.0000 -0.3767 0.9263
vn -1.0000 0.0000 0.0000
vn 0.0000 0.9263 0.3767
usemtl LightGrey
s off
f 160//54 154//54 152//54 157//54
f 157//55 158//55 161//55 162//55 163//55 164//55 159//55 160//55
f 154//56 160//56 159//56 153//56
f 150//57 162//57 161//57 149//57
f 157//58 152//58 151//58 158//58
f 163//59 156//59 155//59 164//59
f 158//60 151//60 149//60 161//60
f 162//61 150//61 156//61 163//61
f 164//62 155//62 153//62 159//62
usemtl Grey
f 167//63 168//63 171//63 172//63 169//63 170//63 165//63 166//63
f 155//62 171//62 168//62 153//62
f 150//61 169//61 172//61 156//61
f 151//60 165//60 170//60 149//60
f 156//59 172//59 171//59 155//59
f 152//58 166//58 165//58 151//58
f 154//54 167//54 166//54 152//54
f 169//57 150//57 149//57 170//57
f 167//56 154//56 153//56 168//56
