{
    "asset" : {
        "generator" : "Khronos glTF Blender I/O v1.7.33",
        "version" : "2.0"
    },
    "scene" : 0,
    "scenes" : [
        {
            "name" : "Scene",
            "nodes" : [
                0
            ]
        }
    ],
    "nodes" : [
        {
            "mesh" : 0,
            "name" : "Pickup_Tank"
        }
    ],
    "materials" : [
        {
            "doubleSided" : true,
            "name" : "LightGrey",
            "pbrMetallicRoughness" : {
                "baseColorFactor" : [
                    0.25979551672935486,
                    0.25979551672935486,
                    0.25979551672935486,
                    1
                ],
                "metallicFactor" : 0,
                "roughnessFactor" : 0.5
            }
        },
        {
            "doubleSided" : true,
            "name" : "Orange",
            "pbrMetallicRoughness" : {
                "baseColorFactor" : [
                    0.3108104467391968,
                    0.136332169175148,
                    0.03521651774644852,
                    1
                ],
                "metallicFactor" : 0,
                "roughnessFactor" : 0.5
            }
        },
        {
            "doubleSided" : true,
            "name" : "LightGreen",
            "pbrMetallicRoughness" : {
                "baseColorFactor" : [
                    0.5183353424072266,
                    1,
                    0.03707483038306236,
                    1
                ],
                "metallicFactor" : 0,
                "roughnessFactor" : 0.5
            }
        },
        {
            "doubleSided" : true,
            "name" : "Grey",
            "pbrMetallicRoughness" : {
                "baseColorFactor" : [
                    0.1733514964580536,
                    0.1733514964580536,
                    0.1733514964580536,
                    1
                ],
                "metallicFactor" : 0,
                "roughnessFactor" : 0.5
            }
        }
    ],
    "meshes" : [
        {
            "name" : "Cylinder.010",
            "primitives" : [
                {
                    "attributes" : {
                        "POSITION" : 0,
                        "NORMAL" : 1
                    },
                    "indices" : 2,
                    "material" : 0
                },
                {
                    "attributes" : {
                        "POSITION" : 3,
                        "NORMAL" : 4
                    },
                    "indices" : 5,
                    "material" : 1
                },
                {
                    "attributes" : {
                        "POSITION" : 6,
                        "NORMAL" : 7
                    },
                    "indices" : 8,
                    "material" : 2
                },
                {
                    "attributes" : {
                        "POSITION" : 9,
                        "NORMAL" : 10
                    },
                    "indices" : 11,
                    "material" : 3
                }
            ]
        }
    ],
    "accessors" : [
        {
            "bufferView" : 0,
            "componentType" : 5126,
            "count" : 456,
            "max" : [
                0.0957924947142601,
                0.2368232011795044,
                0.0957925021648407
            ],
            "min" : [
                -0.09579251706600189,
                -0.0002659708261489868,
                -0.0957925021648407
            ],
            "type" : "VEC3"
        },
        {
            "bufferView" : 1,
            "componentType" : 5126,
            "count" : 456,
            "type" : "VEC3"
        },
        {
            "bufferView" : 2,
            "componentType" : 5123,
            "count" : 1164,
            "type" : "SCALAR"
        },
        {
            "bufferView" : 3,
            "componentType" : 5126,
            "count" : 209,
            "max" : [
                0.08737888932228088,
                0.2644205689430237,
                0.0784410834312439
            ],
            "min" : [
                -0.08737888932228088,
                0.030934467911720276,
                -0.0784410834312439
            ],
            "type" : "VEC3"
        },
        {
            "bufferView" : 4,
            "componentType" : 5126,
            "count" : 209,
            "type" : "VEC3"
        },
        {
            "bufferView" : 5,
            "componentType" : 5123,
            "count" : 570,
            "type" : "SCALAR"
        },
        {
            "bufferView" : 6,
            "componentType" : 5126,
            "count" : 12,
            "max" : [
                0.02885480597615242,
                0.16626015305519104,
                0.07895981520414352
            ],
            "min" : [
                -0.02885480597615242,
                0.043262895196676254,
                -0.07895981520414352
            ],
            "type" : "VEC3"
        },
        {
            "bufferView" : 7,
            "componentType" : 5126,
            "count" : 12,
            "type" : "VEC3"
        },
        {
            "bufferView" : 8,
            "componentType" : 5123,
            "count" : 24,
            "type" : "SCALAR"
        },
        {
            "bufferView" : 9,
            "componentType" : 5126,
            "count" : 117,
            "max" : [
                0.10033238679170609,
                0.24036885797977448,
                0.10033238679170609
            ],
            "min" : [
                -0.10033238679170609,
                0.19684672355651855,
                -0.10033238679170609
            ],
            "type" : "VEC3"
        },
        {
            "bufferView" : 10,
            "componentType" : 5126,
            "count" : 117,
            "type" : "VEC3"
        },
        {
            "bufferView" : 11,
            "componentType" : 5123,
            "count" : 204,
            "type" : "SCALAR"
        }
    ],
    "bufferViews" : [
        {
            "buffer" : 0,
            "byteLength" : 5472,
            "byteOffset" : 0
        },
        {
            "buffer" : 0,
            "byteLength" : 5472,
            "byteOffset" : 5472
        },
        {
            "buffer" : 0,
            "byteLength" : 2328,
            "byteOffset" : 10944
        },
        {
            "buffer" : 0,
            "byteLength" : 2508,
            "byteOffset" : 13272
        },
        {
            "buffer" : 0,
            "byteLength" : 2508,
            "byteOffset" : 15780
        },
        {
            "buffer" : 0,
            "byteLength" : 1140,
            "byteOffset" : 18288
        },
        {
            "buffer" : 0,
            "byteLength" : 144,
            "byteOffset" : 19428
        },
        {
            "buffer" : 0,
            "byteLength" : 144,
            "byteOffset" : 19572
        },
        {
            "buffer" : 0,
            "byteLength" : 48,
            "byteOffset" : 19716
        },
        {
            "buffer" : 0,
            "byteLength" : 1404,
            "byteOffset" : 19764
        },
        {
            "buffer" : 0,
            "byteLength" : 1404,
            "byteOffset" : 21168
        },
        {
            "buffer" : 0,
            "byteLength" : 408,
            "byteOffset" : 22572
        }
    ],
    "buffers" : [
        {
            "byteLength" : 22980,
            "uri" : "data:application/octet-stream;base64,"
        }
    ]
}
