{
    "asset" : {
        "generator" : "Khronos glTF Blender I/O v1.7.33",
        "version" : "2.0"
    },
    "scene" : 0,
    "scenes" : [
        {
            "name" : "Scene",
            "nodes" : [
                0
            ]
        }
    ],
    "nodes" : [
        {
            "mesh" : 0,
            "name" : "Pickup_Health"
        }
    ],
    "materials" : [
        {
            "doubleSided" : true,
            "name" : "LightGreen",
            "pbrMetallicRoughness" : {
                "baseColorFactor" : [
                    0.5183353424072266,
                    1,
                    0.03707483038306236,
                    1
                ],
                "metallicFactor" : 0,
                "roughnessFactor" : 0.5
            }
        },
        {
            "doubleSided" : true,
            "name" : "LightGrey",
            "pbrMetallicRoughness" : {
                "baseColorFactor" : [
                    0.25979551672935486,
                    0.25979551672935486,
                    0.25979551672935486,
                    1
                ],
                "metallicFactor" : 0,
                "roughnessFactor" : 0.5
            }
        }
    ],
    "meshes" : [
        {
            "name" : "Cube.022",
            "primitives" : [
                {
                    "attributes" : {
                        "POSITION" : 0,
                        "NORMAL" : 1
                    },
                    "indices" : 2,
                    "material" : 0
                },
                {
                    "attributes" : {
                        "POSITION" : 3,
                        "NORMAL" : 4
                    },
                    "indices" : 5,
                    "material" : 1
                }
            ]
        }
    ],
    "accessors" : [
        {
            "bufferView" : 0,
            "componentType" : 5126,
            "count" : 340,
            "max" : [
                0.11891906708478928,
                0.057213641703128815,
                0.11891906708478928
            ],
            "min" : [
                -0.11891906708478928,
                -0.057213641703128815,
                -0.11891906708478928
            ],
            "type" : "VEC3"
        },
        {
            "bufferView" : 1,
            "componentType" : 5126,
            "count" : 340,
            "type" : "VEC3"
        },
        {
            "bufferView" : 2,
            "componentType" : 5123,
            "count" : 528,
            "type" : "SCALAR"
        },
        {
            "bufferView" : 3,
            "componentType" : 5126,
            "count" : 980,
            "max" : [
                0.12063557654619217,
                0.12063557654619217,
                0.12063557654619217
            ],
            "min" : [
                -0.12063557654619217,
                -0.12063557654619217,
                -0.12063557654619217
            ],
            "type" : "VEC3"
        },
        {
            "bufferView" : 4,
            "componentType" : 5126,
            "count" : 980,
            "type" : "VEC3"
        },
        {
            "bufferView" : 5,
            "componentType" : 5123,
            "count" : 1728,
            "type" : "SCALAR"
        }
    ],
    "bufferViews" : [
        {
            "buffer" : 0,
            "byteLength" : 4080,
            "byteOffset" : 0
        },
        {
            "buffer" : 0,
            "byteLength" : 4080,
            "byteOffset" : 4080
        },
        {
            "buffer" : 0,
            "byteLength" : 1056,
            "byteOffset" : 8160
        },
        {
            "buffer" : 0,
            "byteLength" : 11760,
            "byteOffset" : 9216
        },
        {
            "buffer" : 0,
            "byteLength" : 11760,
            "byteOffset" : 20976
        },
        {
            "buffer" : 0,
            "byteLength" : 3456,
            "byteOffset" : 32736
        }
    ],
    "buffers" : [
        {
            "byteLength" : 36192,
            "uri" : "data:application/octet-stream;base64,"
        }
    ]
}
