{
    "asset" : {
        "generator" : "Khronos glTF Blender I/O v1.7.33",
        "version" : "2.0"
    },
    "scene" : 0,
    "scenes" : [
        {
            "name" : "Scene",
            "nodes" : [
                0
            ]
        }
    ],
    "nodes" : [
        {
            "mesh" : 0,
            "name" : "Door"
        }
    ],
    "materials" : [
        {
            "doubleSided" : true,
            "name" : "Grey",
            "pbrMetallicRoughness" : {
                "baseColorFactor" : [
                    0.1733514964580536,
                    0.1733514964580536,
                    0.1733514964580536,
                    1
                ],
                "metallicFactor" : 0,
                "roughnessFactor" : 0.5
            }
        },
        {
            "doubleSided" : true,
            "name" : "LightGrey",
            "pbrMetallicRoughness" : {
                "baseColorFactor" : [
                    0.25979551672935486,
                    0.25979551672935486,
                    0.25979551672935486,
                    1
                ],
                "metallicFactor" : 0,
                "roughnessFactor" : 0.5
            }
        },
        {
            "doubleSided" : true,
            "name" : "Orange",
            "pbrMetallicRoughness" : {
                "baseColorFactor" : [
                    0.3108104467391968,
                    0.136332169175148,
                    0.03521651774644852,
                    1
                ],
                "metallicFactor" : 0,
                "roughnessFactor" : 0.5
            }
        },
        {
            "doubleSided" : true,
            "name" : "Screen",
            "pbrMetallicRoughness" : {
                "baseColorFactor" : [
                    0.09284792840480804,
                    0.1750662922859192,
                    0.19598467648029327,
                    1
                ],
                "metallicFactor" : 0,
                "roughnessFactor" : 0.5
            }
        }
    ],
    "meshes" : [
        {
            "name" : "Cylinder.005",
            "primitives" : [
                {
                    "attributes" : {
                        "POSITION" : 0,
                        "NORMAL" : 1,
                        "TEXCOORD_0" : 2
                    },
                    "indices" : 3,
                    "material" : 0
                },
                {
                    "attributes" : {
                        "POSITION" : 4,
                        "NORMAL" : 5,
                        "TEXCOORD_0" : 6
                    },
                    "indices" : 7,
                    "material" : 1
                },
                {
                    "attributes" : {
                        "POSITION" : 8,
                        "NORMAL" : 9,
                        "TEXCOORD_0" : 10
                    },
                    "indices" : 11,
                    "material" : 2
                },
                {
                    "attributes" : {
                        "POSITION" : 12,
                        "NORMAL" : 13,
                        "TEXCOORD_0" : 14
                    },
                    "indices" : 15,
                    "material" : 3
                }
            ]
        }
    ],
    "accessors" : [
        {
            "bufferView" : 0,
            "componentType" : 5126,
            "count" : 224,
            "max" : [
                0.3448217511177063,
                1.133560061454773,
                0.05104345083236694
            ],
            "min" : [
                -0.3448217511177063,
                -0.0038572619669139385,
                -0.05104345083236694
            ],
            "type" : "VEC3"
        },
        {
            "bufferView" : 1,
            "componentType" : 5126,
            "count" : 224,
            "type" : "VEC3"
        },
        {
            "bufferView" : 2,
            "componentType" : 5126,
            "count" : 224,
            "type" : "VEC2"
        },
        {
            "bufferView" : 3,
            "componentType" : 5123,
            "count" : 396,
            "type" : "SCALAR"
        },
        {
            "bufferView" : 4,
            "componentType" : 5126,
            "count" : 260,
            "max" : [
                0.3031371235847473,
                1.1585311889648438,
                0.05104348063468933
            ],
            "min" : [
                -0.3033129572868347,
                -0.0038572619669139385,
                -0.05104348063468933
            ],
            "type" : "VEC3"
        },
        {
            "bufferView" : 5,
            "componentType" : 5126,
            "count" : 260,
            "type" : "VEC3"
        },
        {
            "bufferView" : 6,
            "componentType" : 5126,
            "count" : 260,
            "type" : "VEC2"
        },
        {
            "bufferView" : 7,
            "componentType" : 5123,
            "count" : 480,
            "type" : "SCALAR"
        },
        {
            "bufferView" : 8,
            "componentType" : 5126,
            "count" : 38,
            "max" : [
                0.06953535974025726,
                1.1585311889648438,
                0.05104348063468933
            ],
            "min" : [
                -0.06953538954257965,
                -0.0038572619669139385,
                -0.05104348063468933
            ],
            "type" : "VEC3"
        },
        {
            "bufferView" : 9,
            "componentType" : 5126,
            "count" : 38,
            "type" : "VEC3"
        },
        {
            "bufferView" : 10,
            "componentType" : 5126,
            "count" : 38,
            "type" : "VEC2"
        },
        {
            "bufferView" : 11,
            "componentType" : 5123,
            "count" : 60,
            "type" : "SCALAR"
        },
        {
            "bufferView" : 12,
            "componentType" : 5126,
            "count" : 24,
            "max" : [
                0.12219507992267609,
                0.4413350820541382,
                0.04263722896575928
            ],
            "min" : [
                -0.12219507992267609,
                0.33064204454421997,
                -0.04263722896575928
            ],
            "type" : "VEC3"
        },
        {
            "bufferView" : 13,
            "componentType" : 5126,
            "count" : 24,
            "type" : "VEC3"
        },
        {
            "bufferView" : 14,
            "componentType" : 5126,
            "count" : 24,
            "type" : "VEC2"
        },
        {
            "bufferView" : 15,
            "componentType" : 5123,
            "count" : 36,
            "type" : "SCALAR"
        }
    ],
    "bufferViews" : [
        {
            "buffer" : 0,
            "byteLength" : 2688,
            "byteOffset" : 0
        },
        {
            "buffer" : 0,
            "byteLength" : 2688,
            "byteOffset" : 2688
        },
        {
            "buffer" : 0,
            "byteLength" : 1792,
            "byteOffset" : 5376
        },
        {
            "buffer" : 0,
            "byteLength" : 792,
            "byteOffset" : 7168
        },
        {
            "buffer" : 0,
            "byteLength" : 3120,
            "byteOffset" : 7960
        },
        {
            "buffer" : 0,
            "byteLength" : 3120,
            "byteOffset" : 11080
        },
        {
            "buffer" : 0,
            "byteLength" : 2080,
            "byteOffset" : 14200
        },
        {
            "buffer" : 0,
            "byteLength" : 960,
            "byteOffset" : 16280
        },
        {
            "buffer" : 0,
            "byteLength" : 456,
            "byteOffset" : 17240
        },
        {
            "buffer" : 0,
            "byteLength" : 456,
            "byteOffset" : 17696
        },
        {
            "buffer" : 0,
            "byteLength" : 304,
            "byteOffset" : 18152
        },
        {
            "buffer" : 0,
            "byteLength" : 120,
            "byteOffset" : 18456
        },
        {
            "buffer" : 0,
            "byteLength" : 288,
            "byteOffset" : 18576
        },
        {
            "buffer" : 0,
            "byteLength" : 288,
            "byteOffset" : 18864
        },
        {
            "buffer" : 0,
            "byteLength" : 192,
            "byteOffset" : 19152
        },
        {
            "buffer" : 0,
            "byteLength" : 72,
            "byteOffset" : 19344
        }
    ],
    "buffers" : [
        {
            "byteLength" : 19416,
            "uri" : "data:application/octet-stream;base64,"
        }
    ]
}
