{
    "asset" : {
        "generator" : "Khronos glTF Blender I/O v1.7.33",
        "version" : "2.0"
    },
    "scene" : 0,
    "scenes" : [
        {
            "name" : "Scene",
            "nodes" : [
                0
            ]
        }
    ],
    "nodes" : [
        {
            "mesh" : 0,
            "name" : "Light_Street_1"
        }
    ],
    "materials" : [
        {
            "doubleSided" : true,
            "name" : "Grey",
            "pbrMetallicRoughness" : {
                "baseColorFactor" : [
                    0.1733514964580536,
                    0.1733514964580536,
                    0.1733514964580536,
                    1
                ],
                "metallicFactor" : 0,
                "roughnessFactor" : 0.5
            }
        },
        {
            "doubleSided" : true,
            "name" : "LightGrey",
            "pbrMetallicRoughness" : {
                "baseColorFactor" : [
                    0.25979551672935486,
                    0.25979551672935486,
                    0.25979551672935486,
                    1
                ],
                "metallicFactor" : 0,
                "roughnessFactor" : 0.5
            }
        },
        {
            "doubleSided" : true,
            "emissiveFactor" : [
                0.800000011920929,
                0.800000011920929,
                0.800000011920929
            ],
            "name" : "Light",
            "pbrMetallicRoughness" : {}
        }
    ],
    "meshes" : [
        {
            "name" : "Cylinder.009",
            "primitives" : [
                {
                    "attributes" : {
                        "POSITION" : 0,
                        "NORMAL" : 1
                    },
                    "indices" : 2,
                    "material" : 0
                },
                {
                    "attributes" : {
                        "POSITION" : 3,
                        "NORMAL" : 4
                    },
                    "indices" : 5,
                    "material" : 1
                },
                {
                    "attributes" : {
                        "POSITION" : 6,
                        "NORMAL" : 7
                    },
                    "indices" : 8,
                    "material" : 2
                }
            ]
        }
    ],
    "accessors" : [
        {
            "bufferView" : 0,
            "componentType" : 5126,
            "count" : 428,
            "max" : [
                0.08785467594861984,
                2.8566112518310547,
                0.5842463970184326
            ],
            "min" : [
                -0.08785467594861984,
                -0.009609341621398926,
                -0.08785467594861984
            ],
            "type" : "VEC3"
        },
        {
            "bufferView" : 1,
            "componentType" : 5126,
            "count" : 428,
            "type" : "VEC3"
        },
        {
            "bufferView" : 2,
            "componentType" : 5123,
            "count" : 1326,
            "type" : "SCALAR"
        },
        {
            "bufferView" : 3,
            "componentType" : 5126,
            "count" : 80,
            "max" : [
                0.08617599308490753,
                0.4692537784576416,
                0.08617599308490753
            ],
            "min" : [
                -0.08617599308490753,
                0.3838084936141968,
                -0.08617599308490753
            ],
            "type" : "VEC3"
        },
        {
            "bufferView" : 4,
            "componentType" : 5126,
            "count" : 80,
            "type" : "VEC3"
        },
        {
            "bufferView" : 5,
            "componentType" : 5123,
            "count" : 234,
            "type" : "SCALAR"
        },
        {
            "bufferView" : 6,
            "componentType" : 5126,
            "count" : 8,
            "max" : [
                0.038246236741542816,
                2.805793285369873,
                0.5663278102874756
            ],
            "min" : [
                -0.02934817224740982,
                2.4571373462677,
                0.0009760258835740387
            ],
            "type" : "VEC3"
        },
        {
            "bufferView" : 7,
            "componentType" : 5126,
            "count" : 8,
            "type" : "VEC3"
        },
        {
            "bufferView" : 8,
            "componentType" : 5123,
            "count" : 18,
            "type" : "SCALAR"
        }
    ],
    "bufferViews" : [
        {
            "buffer" : 0,
            "byteLength" : 5136,
            "byteOffset" : 0
        },
        {
            "buffer" : 0,
            "byteLength" : 5136,
            "byteOffset" : 5136
        },
        {
            "buffer" : 0,
            "byteLength" : 2652,
            "byteOffset" : 10272
        },
        {
            "buffer" : 0,
            "byteLength" : 960,
            "byteOffset" : 12924
        },
        {
            "buffer" : 0,
            "byteLength" : 960,
            "byteOffset" : 13884
        },
        {
            "buffer" : 0,
            "byteLength" : 468,
            "byteOffset" : 14844
        },
        {
            "buffer" : 0,
            "byteLength" : 96,
            "byteOffset" : 15312
        },
        {
            "buffer" : 0,
            "byteLength" : 96,
            "byteOffset" : 15408
        },
        {
            "buffer" : 0,
            "byteLength" : 36,
            "byteOffset" : 15504
        }
    ],
    "buffers" : [
        {
            "byteLength" : 15540,
            "uri" : "data:application/octet-stream;base64,"
        }
    ]
}
