# Blender v3.0.0 OBJ File: 'Pipe_2.blend'
# www.blender.org
mtllib Pipe_2.mtl
o Pipe_2_Cube.037
v 1.939105 -0.000000 0.048487
v 2.137976 0.000000 0.132123
v 2.053878 -0.105777 0.088356
v 2.053878 0.105777 0.088356
v 2.071349 0.105008 -0.131845
v 2.071349 -0.105009 -0.131845
v 2.175999 -0.000000 -0.127882
v 1.966700 -0.000000 -0.135808
v 1.972075 0.105451 0.141012
v 2.005045 0.000000 0.233536
v 1.972075 -0.105451 0.141012
v 1.969779 -0.000000 0.044590
v 1.996803 -0.077329 0.210405
v 1.996803 0.077329 0.210405
v 1.947348 0.080848 0.071618
v 1.947348 -0.080847 0.071618
v 1.644647 -0.000000 0.247233
v 1.625856 -0.000000 0.042921
v 1.635252 0.104737 0.145077
v 1.635252 -0.104736 0.145077
v 2.085389 0.000000 0.198977
v 1.990804 -0.081586 0.055532
v 2.024075 0.106055 0.125100
v 2.116951 -0.077078 0.121182
v 2.024075 -0.106055 0.125100
v 2.116951 0.077078 0.121182
v 1.962760 -0.000000 0.051223
v 1.990804 0.081587 0.055532
v 2.067598 -0.105225 0.009727
v 1.968360 -0.000000 -0.006169
v 2.067598 0.105225 0.009726
v 2.166836 -0.000000 0.025622
v 2.149837 0.078121 -0.128873
v 1.992863 -0.079391 -0.134818
v 1.992863 0.079390 -0.134818
v 2.149837 -0.078122 -0.128873
v 1.964919 -0.000000 -0.304888
v 2.175316 -0.000000 -0.304888
v 2.070117 -0.104959 -0.304888
v 2.070117 0.104958 -0.304888
v 1.628205 -0.079166 0.068460
v 1.642298 -0.077939 0.221694
v 1.628205 0.079166 0.068460
v 1.642298 0.077939 0.221694
v 2.070061 0.076918 0.180507
v 1.978089 0.082165 0.069693
v 2.070061 -0.076918 0.180507
v 1.978089 -0.082165 0.069693
v 1.993169 -0.080275 -0.002195
v 2.142026 -0.077562 0.021648
v 1.993169 0.080275 -0.002195
v 2.142026 0.077563 0.021648
v 2.149016 0.078718 -0.304888
v 1.991219 0.078718 -0.304888
v 1.991219 -0.078720 -0.304888
v 2.149016 -0.078720 -0.304888
v -2.211645 0.000000 0.048487
v -2.410516 -0.000000 0.132123
v -2.326417 0.105777 0.088357
v -2.326417 -0.105777 0.088356
v -2.343889 -0.105008 -0.131845
v -2.343889 0.105009 -0.131845
v -2.448539 0.000000 -0.127882
v -2.239240 0.000000 -0.135808
v -2.244615 -0.105451 0.141012
v -2.277585 -0.000001 0.233536
v -2.244615 0.105451 0.141012
v -2.242319 0.000000 0.044590
v -2.269342 0.077329 0.210405
v -2.269342 -0.077329 0.210405
v -2.219888 -0.080848 0.071618
v -2.219888 0.080847 0.071618
v -2.357929 -0.000001 0.198977
v -2.263344 0.081586 0.055532
v -2.296615 -0.106055 0.125100
v -2.389491 0.077078 0.121182
v -2.296615 0.106055 0.125100
v -2.389491 -0.077079 0.121182
v -2.235300 0.000000 0.051223
v -2.263344 -0.081587 0.055532
v -2.340137 0.105225 0.009727
v -2.240900 0.000000 -0.006169
v -2.340137 -0.105225 0.009726
v -2.439375 0.000000 0.025622
v -2.422377 -0.078121 -0.128873
v -2.265402 0.079391 -0.134818
v -2.265402 -0.079390 -0.134818
v -2.422377 0.078122 -0.128873
v -2.237459 0.000000 -0.304888
v -2.447856 0.000000 -0.304888
v -2.342657 0.104959 -0.304888
v -2.342657 -0.104958 -0.304888
v -2.342600 -0.076918 0.180507
v -2.250629 -0.082165 0.069692
v -2.342600 0.076918 0.180507
v -2.250629 0.082165 0.069693
v -2.265709 0.080275 -0.002195
v -2.414566 0.077562 0.021648
v -2.265709 -0.080275 -0.002195
v -2.414566 -0.077563 0.021648
v -2.421556 -0.078718 -0.304888
v -2.263759 -0.078718 -0.304888
v -2.263759 0.078720 -0.304888
v -2.421556 0.078720 -0.304888
vt 0.000000 0.000000
vt 0.000000 0.000000
vt 0.000000 0.000000
vt 0.000000 0.000000
vt 0.000000 0.000000
vt 0.000000 0.000000
vt 0.000000 0.000000
vt 0.000000 0.000000
vt 0.000000 0.000000
vt 0.000000 0.000000
vt 0.000000 0.000000
vt 0.000000 0.000000
vt 0.000000 0.000000
vt 0.000000 0.000000
vt 0.000000 0.000000
vt 0.000000 0.000000
vt 0.000000 0.000000
vt 0.000000 0.000000
vt 0.000000 0.000000
vt 0.000000 0.000000
vt 0.000000 0.000000
vt 0.000000 0.000000
vt 0.000000 0.000000
vt 0.000000 0.000000
vt 0.000000 0.000000
vt 0.000000 0.000000
vt 0.000000 0.000000
vt 0.000000 0.000000
vt 0.000000 0.000000
vt 0.000000 0.000000
vt 0.000000 0.000000
vt 0.000000 0.000000
vt 0.000000 0.000000
vt 0.000000 0.000000
vt 0.000000 0.000000
vt 0.000000 0.000000
vt 0.000000 0.000000
vt 0.000000 0.000000
vt 0.000000 0.000000
vt 0.000000 0.000000
vt 0.000000 0.000000
vt 0.000000 0.000000
vt 0.000000 0.000000
vt 0.000000 0.000000
vt 0.000000 0.000000
vt 0.000000 0.000000
vt 0.000000 0.000000
vt 0.000000 0.000000
vt 0.000000 0.000000
vt 0.000000 0.000000
vt 0.000000 0.000000
vt 0.000000 0.000000
vt 0.000000 0.000000
vt 0.000000 0.000000
vt 0.000000 0.000000
vt 0.000000 0.000000
vt 0.000000 0.000000
vt 0.000000 0.000000
vt 0.000000 0.000000
vt 0.000000 0.000000
vt 0.000000 0.000000
vt 0.000000 0.000000
vt 0.000000 0.000000
vt 0.000000 0.000000
vt 0.000000 0.000000
vt 0.000000 0.000000
vt 0.000000 0.000000
vt 0.000000 0.000000
vt 0.000000 0.000000
vt 0.000000 0.000000
vt 0.000000 0.000000
vt 0.000000 0.000000
vt 0.000000 0.000000
vt 0.000000 0.000000
vt 0.000000 0.000000
vt 0.000000 0.000000
vt 0.000000 0.000000
vt 0.000000 0.000000
vt 0.000000 0.000000
vt 0.000000 0.000000
vt 0.000000 0.000000
vt 0.000000 0.000000
vt 0.000000 0.000000
vt 0.000000 0.000000
vt 0.000000 0.000000
vt 0.000000 0.000000
vt 0.000000 0.000000
vt 0.000000 0.000000
vt 0.000000 0.000000
vt 0.000000 0.000000
vt 0.000000 0.000000
vt 0.000000 0.000000
vt 0.000000 0.000000
vt 0.000000 0.000000
vt 0.000000 0.000000
vt 0.000000 0.000000
vt 0.000000 0.000000
vt 0.000000 0.000000
vt 0.000000 0.000000
vt 0.000000 0.000000
vt 0.000000 0.000000
vt 0.000000 0.000000
vt 0.000000 0.000000
vt 0.000000 0.000000
vn 0.0110 -0.0000 -0.9999
vn -0.3644 -0.0000 -0.9312
vn -0.2823 -0.7625 -0.5822
vn -0.0163 -0.6887 -0.7249
vn 0.0024 -0.6931 -0.7208
vn 0.0058 -0.0000 -1.0000
vn 0.0024 0.6931 -0.7208
vn -0.0163 0.6887 -0.7249
vn -0.2823 0.7625 -0.5822
vn 0.8947 0.0000 0.4467
vn 0.9877 -0.0000 0.1561
vn 0.7270 0.6778 0.1101
vn 0.6779 0.6545 0.3349
vn 0.4576 0.6486 0.6082
vn 0.6072 0.0000 0.7946
vn 0.4576 -0.6486 0.6082
vn 0.6779 -0.6545 0.3349
vn 0.7270 -0.6778 0.1101
vn 0.0750 -0.9966 0.0331
vn 0.0302 -0.9995 0.0095
vn 0.0560 -0.9959 0.0715
vn -0.6023 -0.7540 -0.2622
vn -0.7158 -0.6981 -0.0173
vn 0.0750 0.9966 0.0331
vn 0.0302 0.9995 0.0095
vn -0.7158 0.6981 -0.0173
vn -0.6023 0.7540 -0.2622
vn 0.0560 0.9959 0.0715
vn 0.0108 0.9999 0.0018
vn 0.0022 1.0000 0.0001
vn -0.7083 0.7059 0.0054
vn -0.7082 0.7060 0.0023
vn 0.7154 0.6985 0.0179
vn 0.7069 0.7073 -0.0022
vn 0.0108 -0.9999 0.0018
vn 0.0022 -1.0000 0.0001
vn 0.7069 -0.7073 -0.0022
vn 0.7154 -0.6985 0.0179
vn -0.7082 -0.7060 0.0023
vn -0.7083 -0.7059 0.0054
vn 0.9997 0.0000 0.0264
vn 1.0000 0.0000 -0.0037
vn -1.0000 -0.0000 0.0079
vn -1.0000 0.0000 0.0094
vn -1.0000 -0.0000 -0.0026
vn 0.0101 0.9988 0.0475
vn 0.0007 0.9999 0.0156
vn 0.0104 0.6854 0.7281
vn 0.1563 0.6621 0.7330
vn 0.2194 -0.0000 0.9756
vn 0.0163 -0.0000 0.9999
vn 0.0104 -0.6854 0.7281
vn 0.1563 -0.6621 0.7329
vn 0.0101 -0.9988 0.0475
vn 0.0007 -0.9999 0.0156
vn -0.9274 -0.0000 -0.3740
vn -0.1460 0.6604 0.7366
vn -0.2047 0.0000 0.9788
vn -0.0086 -0.9988 0.0490
vn 0.0180 -0.6876 -0.7259
vn 0.0180 0.6876 -0.7259
vn -0.0086 0.9988 0.0490
vn -0.0047 0.0000 -1.0000
vn 0.3644 0.0000 -0.9312
vn 0.2823 0.7625 -0.5822
vn 0.2823 -0.7625 -0.5822
vn -0.8947 -0.0000 0.4467
vn -0.9877 0.0000 0.1561
vn -0.7270 -0.6778 0.1101
vn -0.6779 -0.6545 0.3349
vn -0.4576 -0.6486 0.6082
vn -0.6072 -0.0000 0.7946
vn -0.4576 0.6486 0.6082
vn -0.6779 0.6545 0.3349
vn -0.7270 0.6778 0.1101
vn -0.0750 0.9966 0.0331
vn -0.0302 0.9995 0.0095
vn -0.0560 0.9959 0.0715
vn 0.6023 0.7540 -0.2622
vn 0.7158 0.6981 -0.0173
vn -0.0750 -0.9966 0.0331
vn -0.0302 -0.9995 0.0095
vn 0.7158 -0.6981 -0.0173
vn 0.6023 -0.7540 -0.2622
vn -0.0560 -0.9959 0.0715
vn -0.0108 -0.9999 0.0018
vn -0.0022 -1.0000 0.0001
vn 0.7083 -0.7059 0.0054
vn 0.7082 -0.7060 0.0023
vn -0.7154 -0.6985 0.0179
vn -0.7069 -0.7073 -0.0022
vn -0.0108 0.9999 0.0018
vn -0.0022 1.0000 0.0001
vn -0.7069 0.7073 -0.0022
vn -0.7154 0.6985 0.0179
vn 0.7082 0.7060 0.0023
vn 0.7083 0.7059 0.0054
vn -0.9997 0.0000 0.0264
vn -1.0000 -0.0000 -0.0037
vn 1.0000 -0.0000 0.0079
vn 1.0000 -0.0000 0.0094
vn 1.0000 0.0000 -0.0026
vn -0.1460 -0.6604 0.7366
vn 0.9274 0.0000 -0.3740
usemtl Orange
s 1
f 1/1/1 27/2/2 48/3/3 16/4/4
f 1/1/1 16/4/4 41/5/5 18/6/6
f 1/1/1 18/6/6 43/7/7 15/8/8
f 1/1/1 15/8/8 46/9/9 27/2/2
f 2/10/10 32/11/11 52/12/12 26/13/13
f 2/10/10 26/13/13 45/14/14 21/15/15
f 2/10/10 21/15/15 47/16/16 24/17/17
f 2/10/10 24/17/17 50/18/18 32/11/11
f 3/19/19 29/20/20 50/18/18 24/17/17
f 3/19/19 24/17/17 47/16/16 25/21/21
f 3/19/19 25/21/21 48/3/3 22/22/22
f 3/19/19 22/22/22 49/23/23 29/20/20
f 4/24/24 31/25/25 51/26/26 28/27/27
f 4/24/24 28/27/27 46/9/9 23/28/28
f 4/24/24 23/28/28 45/14/14 26/13/13
f 4/24/24 26/13/13 52/12/12 31/25/25
f 5/29/29 40/30/30 54/31/31 35/32/32
f 5/29/29 35/32/32 51/26/26 31/25/25
f 5/29/29 31/25/25 52/12/12 33/33/33
f 5/29/29 33/33/33 53/34/34 40/30/30
f 6/35/35 39/36/36 56/37/37 36/38/38
f 6/35/35 36/38/38 50/18/18 29/20/20
f 6/35/35 29/20/20 49/23/23 34/39/39
f 6/35/35 34/39/39 55/40/40 39/36/36
f 7/41/41 38/42/42 53/34/34 33/33/33
f 7/41/41 33/33/33 52/12/12 32/11/11
f 7/41/41 32/11/11 50/18/18 36/38/38
f 7/41/41 36/38/38 56/37/37 38/42/42
f 8/43/43 37/44/44 55/40/40 34/39/39
f 8/43/43 34/39/39 49/23/23 30/45/45
f 8/43/43 30/45/45 51/26/26 35/32/32
f 8/43/43 35/32/32 54/31/31 37/44/44
f 9/46/46 23/28/28 46/9/9 15/8/8
f 9/46/46 15/8/8 43/7/7 19/47/47
f 9/46/46 19/47/47 44/48/48 14/49/49
f 9/46/46 14/49/49 45/14/14 23/28/28
f 10/50/50 21/15/15 45/14/14 14/49/49
f 10/50/50 14/49/49 44/48/48 17/51/51
f 10/50/50 17/51/51 42/52/52 13/53/53
f 10/50/50 13/53/53 47/16/16 21/15/15
f 11/54/54 25/21/21 47/16/16 13/53/53
f 11/54/54 13/53/53 42/52/52 20/55/55
f 11/54/54 20/55/55 41/5/5 16/4/4
f 11/54/54 16/4/4 48/3/3 25/21/21
f 12/56/56 30/45/45 49/23/23 22/22/22
f 12/56/56 22/22/22 48/3/3 27/2/2
f 12/56/56 27/2/2 46/9/9 28/27/27
f 12/56/56 28/27/27 51/26/26 30/45/45
f 44/48/48 69/57/57 66/58/58 17/51/51
f 65/59/59 71/60/60 41/5/5 20/55/55
f 43/7/7 72/61/61 67/62/62 19/47/47
f 67/62/62 69/57/57 44/48/48 19/47/47
f 57/63/63 79/64/64 96/65/65 72/61/61
f 18/6/6 57/63/63 72/61/61 43/7/7
f 57/63/63 71/60/60 94/66/66 79/64/64
f 58/67/67 84/68/68 100/69/69 78/70/70
f 58/67/67 78/70/70 93/71/71 73/72/72
f 58/67/67 73/72/72 95/73/73 76/74/74
f 58/67/67 76/74/74 98/75/75 84/68/68
f 59/76/76 81/77/77 98/75/75 76/74/74
f 59/76/76 76/74/74 95/73/73 77/78/78
f 59/76/76 77/78/78 96/65/65 74/79/79
f 59/76/76 74/79/79 97/80/80 81/77/77
f 60/81/81 83/82/82 99/83/83 80/84/84
f 60/81/81 80/84/84 94/66/66 75/85/85
f 60/81/81 75/85/85 93/71/71 78/70/70
f 60/81/81 78/70/70 100/69/69 83/82/82
f 61/86/86 92/87/87 102/88/88 87/89/89
f 61/86/86 87/89/89 99/83/83 83/82/82
f 61/86/86 83/82/82 100/69/69 85/90/90
f 61/86/86 85/90/90 101/91/91 92/87/87
f 62/92/92 91/93/93 104/94/94 88/95/95
f 62/92/92 88/95/95 98/75/75 81/77/77
f 62/92/92 81/77/77 97/80/80 86/96/96
f 62/92/92 86/96/96 103/97/97 91/93/93
f 63/98/98 90/99/99 101/91/91 85/90/90
f 63/98/98 85/90/90 100/69/69 84/68/68
f 63/98/98 84/68/68 98/75/75 88/95/95
f 63/98/98 88/95/95 104/94/94 90/99/99
f 64/100/100 89/101/101 103/97/97 86/96/96
f 64/100/100 86/96/96 97/80/80 82/102/102
f 64/100/100 82/102/102 99/83/83 87/89/89
f 64/100/100 87/89/89 102/88/88 89/101/101
f 65/59/59 75/85/85 94/66/66 71/60/60
f 65/59/59 70/103/103 93/71/71 75/85/85
f 66/58/58 73/72/72 93/71/71 70/103/103
f 41/5/5 71/60/60 57/63/63 18/6/6
f 17/51/51 66/58/58 70/103/103 42/52/52
f 66/58/58 69/57/57 95/73/73 73/72/72
f 67/62/62 77/78/78 95/73/73 69/57/57
f 42/52/52 70/103/103 65/59/59 20/55/55
f 67/62/62 72/61/61 96/65/65 77/78/78
f 68/104/104 82/102/102 97/80/80 74/79/79
f 68/104/104 74/79/79 96/65/65 79/64/64
f 68/104/104 79/64/64 94/66/66 80/84/84
f 68/104/104 80/84/84 99/83/83 82/102/102
