# Blender v3.0.0 OBJ File: 'Pipe_1.blend'
# www.blender.org
mtllib Pipe_1.mtl
o Pipe_1_Cube.036
v 0.984020 -0.000000 0.029063
v 1.182891 0.000000 0.112700
v 1.098792 -0.105777 0.068933
v 1.098792 0.105777 0.068933
v 1.116264 0.105008 -0.151269
v 1.116264 -0.105009 -0.151269
v 1.220914 -0.000000 -0.147306
v 1.011615 -0.000000 -0.155232
v 1.016990 0.105451 0.121588
v 1.049960 0.000000 0.214112
v 1.016990 -0.105451 0.121588
v 1.014694 -0.000000 0.025166
v -0.000000 -0.000000 0.021640
v -0.000000 -0.000000 0.232072
v 1.041717 -0.077329 0.190981
v 1.041717 0.077329 0.190982
v 0.992263 0.080848 0.052195
v 0.992263 -0.080847 0.052195
v 0.689561 -0.000000 0.227809
v 0.670771 -0.000000 0.023497
v 0.680166 0.104737 0.125653
v 0.680166 -0.104736 0.125653
v 1.130303 0.000000 0.179553
v 1.035719 -0.081586 0.036108
v 1.068990 0.106055 0.105676
v 1.161865 -0.077078 0.101758
v 1.068990 -0.106055 0.105676
v 1.161865 0.077079 0.101758
v 1.007675 -0.000000 0.031799
v 1.035719 0.081587 0.036108
v 1.112512 -0.105225 -0.009697
v 1.013275 -0.000000 -0.025593
v 1.112512 0.105225 -0.009698
v 1.211750 -0.000000 0.006199
v 1.194751 0.078121 -0.148297
v 1.037777 -0.079391 -0.154241
v 1.037777 0.079390 -0.154241
v 1.194751 -0.078122 -0.148297
v 1.009834 -0.000000 -0.324312
v 1.220231 -0.000000 -0.324312
v 1.115032 -0.104959 -0.324312
v 1.115032 0.104958 -0.324312
v -0.000000 -0.078651 0.047944
v -0.000000 0.078651 0.047944
v -0.000000 0.078373 0.205768
v -0.000000 -0.078373 0.205768
v 0.673120 -0.079166 0.049036
v 0.687213 -0.077939 0.202270
v 0.673120 0.079166 0.049036
v 0.687213 0.077939 0.202270
v 1.114975 0.076918 0.161083
v 1.023004 0.082165 0.050269
v 1.114975 -0.076918 0.161083
v 1.023004 -0.082165 0.050269
v 1.038084 -0.080275 -0.021619
v 1.186940 -0.077562 0.002224
v 1.038084 0.080275 -0.021619
v 1.186940 0.077563 0.002224
v 1.193931 0.078718 -0.324312
v 1.036134 0.078718 -0.324312
v 1.036134 -0.078720 -0.324312
v 1.193931 -0.078720 -0.324312
v -0.984020 0.000000 0.029063
v -1.182891 -0.000000 0.112700
v -1.098793 0.105777 0.068933
v -1.098793 -0.105777 0.068933
v -1.116264 -0.105008 -0.151269
v -1.116264 0.105009 -0.151269
v -1.220914 0.000000 -0.147306
v -1.011615 0.000000 -0.155232
v -1.016990 -0.105451 0.121588
v -1.049960 -0.000001 0.214112
v -1.016990 0.105451 0.121588
v -1.014694 0.000000 0.025166
v -0.000000 0.104682 0.126856
v -0.000000 -0.104683 0.126856
v -1.041717 0.077329 0.190981
v -1.041717 -0.077329 0.190982
v -0.992263 -0.080848 0.052195
v -0.992263 0.080847 0.052195
v -0.689561 0.000000 0.227809
v -0.670771 0.000000 0.023497
v -0.680166 -0.104737 0.125653
v -0.680166 0.104736 0.125653
v -1.130304 -0.000000 0.179553
v -1.035719 0.081586 0.036108
v -1.068990 -0.106055 0.105676
v -1.161866 0.077078 0.101758
v -1.068990 0.106055 0.105676
v -1.161866 -0.077079 0.101758
v -1.007675 0.000000 0.031799
v -1.035719 -0.081587 0.036108
v -1.112512 0.105225 -0.009697
v -1.013275 0.000000 -0.025593
v -1.112512 -0.105225 -0.009698
v -1.211750 0.000000 0.006199
v -1.194752 -0.078121 -0.148297
v -1.037777 0.079391 -0.154241
v -1.037777 -0.079390 -0.154241
v -1.194752 0.078122 -0.148297
v -1.009834 0.000000 -0.324312
v -1.220231 0.000000 -0.324312
v -1.115032 0.104959 -0.324312
v -1.115032 -0.104958 -0.324312
v -0.673120 0.079166 0.049036
v -0.687213 0.077939 0.202270
v -0.673120 -0.079166 0.049036
v -0.687213 -0.077939 0.202270
v -1.114975 -0.076918 0.161083
v -1.023004 -0.082165 0.050269
v -1.114975 0.076918 0.161083
v -1.023004 0.082165 0.050269
v -1.038084 0.080275 -0.021619
v -1.186941 0.077562 0.002224
v -1.038084 -0.080275 -0.021619
v -1.186941 -0.077563 0.002224
v -1.193931 -0.078718 -0.324312
v -1.036134 -0.078718 -0.324312
v -1.036134 0.078720 -0.324312
v -1.193931 0.078720 -0.324312
vt 0.000000 0.000000
vt 0.000000 0.000000
vt 0.000000 0.000000
vt 0.000000 0.000000
vt 0.000000 0.000000
vt 0.000000 0.000000
vt 0.000000 0.000000
vt 0.000000 0.000000
vt 0.000000 0.000000
vt 0.000000 0.000000
vt 0.000000 0.000000
vt 0.000000 0.000000
vt 0.000000 0.000000
vt 0.000000 0.000000
vt 0.000000 0.000000
vt 0.000000 0.000000
vt 0.000000 0.000000
vt 0.000000 0.000000
vt 0.000000 0.000000
vt 0.000000 0.000000
vt 0.000000 0.000000
vt 0.000000 0.000000
vt 0.000000 0.000000
vt 0.000000 0.000000
vt 0.000000 0.000000
vt 0.000000 0.000000
vt 0.000000 0.000000
vt 0.000000 0.000000
vt 0.000000 0.000000
vt 0.000000 0.000000
vt 0.000000 0.000000
vt 0.000000 0.000000
vt 0.000000 0.000000
vt 0.000000 0.000000
vt 0.000000 0.000000
vt 0.000000 0.000000
vt 0.000000 0.000000
vt 0.000000 0.000000
vt 0.000000 0.000000
vt 0.000000 0.000000
vt 0.000000 0.000000
vt 0.000000 0.000000
vt 0.000000 0.000000
vt 0.000000 0.000000
vt 0.000000 0.000000
vt 0.000000 0.000000
vt 0.000000 0.000000
vt 0.000000 0.000000
vt 0.000000 0.000000
vt 0.000000 0.000000
vt 0.000000 0.000000
vt 0.000000 0.000000
vt 0.000000 0.000000
vt 0.000000 0.000000
vt 0.000000 0.000000
vt 0.000000 0.000000
vt 0.000000 0.000000
vt 0.000000 0.000000
vt 0.000000 0.000000
vt 0.000000 0.000000
vt 0.000000 0.000000
vt 0.000000 0.000000
vt 0.000000 0.000000
vt 0.000000 0.000000
vt 0.000000 0.000000
vt 0.000000 0.000000
vt 0.000000 0.000000
vt 0.000000 0.000000
vt 0.000000 0.000000
vt 0.000000 0.000000
vt 0.000000 0.000000
vt 0.000000 0.000000
vt 0.000000 0.000000
vt 0.000000 0.000000
vt 0.000000 0.000000
vt 0.000000 0.000000
vt 0.000000 0.000000
vt 0.000000 0.000000
vt 0.000000 0.000000
vt 0.000000 0.000000
vt 0.000000 0.000000
vt 0.000000 0.000000
vt 0.000000 0.000000
vt 0.000000 0.000000
vt 0.000000 0.000000
vt 0.000000 0.000000
vt 0.000000 0.000000
vt 0.000000 0.000000
vt 0.000000 0.000000
vt 0.000000 0.000000
vt 0.000000 0.000000
vt 0.000000 0.000000
vt 0.000000 0.000000
vt 0.000000 0.000000
vt 0.000000 0.000000
vt 0.000000 0.000000
vt 0.000000 0.000000
vt 0.000000 0.000000
vt 0.000000 0.000000
vt 0.000000 0.000000
vt 0.000000 0.000000
vt 0.000000 0.000000
vt 0.000000 0.000000
vt 0.000000 0.000000
vt 0.000000 0.000000
vt 0.000000 0.000000
vt 0.000000 0.000000
vt 0.000000 0.000000
vt 0.000000 0.000000
vt 0.000000 0.000000
vt 0.000000 0.000000
vt 0.000000 0.000000
vt 0.000000 0.000000
vt 0.000000 0.000000
vt 0.000000 0.000000
vt 0.000000 0.000000
vt 0.000000 0.000000
vt 0.000000 0.000000
vt 0.000000 0.000000
vt 0.000000 0.000000
vn 0.0110 -0.0000 -0.9999
vn -0.3644 -0.0000 -0.9312
vn -0.2823 -0.7625 -0.5822
vn -0.0163 -0.6887 -0.7249
vn 0.0030 -0.6993 -0.7148
vn 0.0074 -0.0000 -1.0000
vn 0.0030 0.6993 -0.7148
vn -0.0163 0.6887 -0.7249
vn -0.2823 0.7625 -0.5822
vn 0.8947 0.0000 0.4467
vn 0.9877 -0.0000 0.1561
vn 0.7270 0.6778 0.1101
vn 0.6779 0.6545 0.3349
vn 0.4576 0.6486 0.6082
vn 0.6072 0.0000 0.7946
vn 0.4576 -0.6486 0.6082
vn 0.6779 -0.6545 0.3349
vn 0.7270 -0.6778 0.1101
vn 0.0750 -0.9966 0.0331
vn 0.0302 -0.9995 0.0095
vn 0.0560 -0.9959 0.0715
vn -0.6023 -0.7540 -0.2622
vn -0.7158 -0.6981 -0.0173
vn 0.0750 0.9966 0.0331
vn 0.0302 0.9995 0.0095
vn -0.7158 0.6981 -0.0173
vn -0.6023 0.7540 -0.2622
vn 0.0560 0.9959 0.0715
vn 0.0108 0.9999 0.0018
vn 0.0022 1.0000 0.0001
vn -0.7083 0.7059 0.0054
vn -0.7082 0.7060 0.0023
vn 0.7154 0.6985 0.0179
vn 0.7069 0.7073 -0.0022
vn 0.0108 -0.9999 0.0018
vn 0.0022 -1.0000 0.0001
vn 0.7069 -0.7073 -0.0022
vn 0.7154 -0.6985 0.0179
vn -0.7082 -0.7060 0.0023
vn -0.7083 -0.7059 0.0054
vn 0.9997 -0.0000 0.0264
vn 1.0000 0.0000 -0.0037
vn -1.0000 0.0000 0.0079
vn -1.0000 0.0000 0.0094
vn -1.0000 -0.0000 -0.0026
vn 0.0101 0.9988 0.0475
vn 0.0011 1.0000 0.0097
vn 0.0134 0.6942 0.7196
vn 0.1563 0.6621 0.7330
vn 0.2194 -0.0000 0.9756
vn 0.0207 -0.0000 0.9998
vn 0.0134 -0.6942 0.7196
vn 0.1563 -0.6621 0.7329
vn 0.0101 -0.9988 0.0475
vn 0.0011 -1.0000 0.0097
vn -0.9274 -0.0000 -0.3740
vn 0.0000 -0.0000 -1.0000
vn 0.0000 -0.7057 -0.7085
vn -0.0000 0.7057 -0.7085
vn 0.0000 -0.0000 1.0000
vn -0.0000 0.7034 0.7108
vn 0.0000 -0.7034 0.7108
vn 0.0000 -1.0000 0.0047
vn -0.0000 1.0000 0.0047
vn -0.0110 0.0000 -0.9999
vn 0.3644 0.0000 -0.9312
vn 0.2823 0.7625 -0.5822
vn 0.0163 0.6887 -0.7249
vn -0.0030 0.6993 -0.7148
vn -0.0074 0.0000 -1.0000
vn -0.0030 -0.6993 -0.7148
vn 0.0163 -0.6887 -0.7249
vn 0.2823 -0.7625 -0.5822
vn -0.8947 -0.0000 0.4467
vn -0.9877 0.0000 0.1561
vn -0.7270 -0.6778 0.1101
vn -0.6779 -0.6545 0.3349
vn -0.4576 -0.6486 0.6082
vn -0.6072 -0.0000 0.7946
vn -0.4576 0.6486 0.6082
vn -0.6779 0.6545 0.3349
vn -0.7270 0.6778 0.1101
vn -0.0750 0.9966 0.0331
vn -0.0302 0.9995 0.0095
vn -0.0560 0.9959 0.0715
vn 0.6023 0.7540 -0.2622
vn 0.7158 0.6981 -0.0173
vn -0.0750 -0.9966 0.0331
vn -0.0302 -0.9995 0.0095
vn 0.7158 -0.6981 -0.0173
vn 0.6023 -0.7540 -0.2622
vn -0.0560 -0.9959 0.0715
vn -0.0108 -0.9999 0.0018
vn -0.0022 -1.0000 0.0001
vn 0.7083 -0.7059 0.0054
vn 0.7082 -0.7060 0.0023
vn -0.7154 -0.6985 0.0179
vn -0.7069 -0.7073 -0.0022
vn -0.0108 0.9999 0.0018
vn -0.0022 1.0000 0.0001
vn -0.7069 0.7073 -0.0022
vn -0.7154 0.6985 0.0179
vn 0.7082 0.7060 0.0023
vn 0.7083 0.7059 0.0054
vn -0.9997 0.0000 0.0264
vn -1.0000 -0.0000 -0.0037
vn 1.0000 0.0000 0.0079
vn 1.0000 -0.0000 0.0094
vn 1.0000 0.0000 -0.0026
vn -0.0101 -0.9988 0.0475
vn -0.0011 -1.0000 0.0097
vn -0.0134 -0.6942 0.7196
vn -0.1563 -0.6621 0.7330
vn -0.2194 0.0000 0.9756
vn -0.0207 0.0000 0.9998
vn -0.0134 0.6942 0.7196
vn -0.1563 0.6621 0.7329
vn -0.0101 0.9988 0.0475
vn -0.0011 1.0000 0.0097
vn 0.9274 0.0000 -0.3740
usemtl Orange
s 1
f 1/1/1 29/2/2 54/3/3 18/4/4
f 1/1/1 18/4/4 47/5/5 20/6/6
f 1/1/1 20/6/6 49/7/7 17/8/8
f 1/1/1 17/8/8 52/9/9 29/2/2
f 2/10/10 34/11/11 58/12/12 28/13/13
f 2/10/10 28/13/13 51/14/14 23/15/15
f 2/10/10 23/15/15 53/16/16 26/17/17
f 2/10/10 26/17/17 56/18/18 34/11/11
f 3/19/19 31/20/20 56/18/18 26/17/17
f 3/19/19 26/17/17 53/16/16 27/21/21
f 3/19/19 27/21/21 54/3/3 24/22/22
f 3/19/19 24/22/22 55/23/23 31/20/20
f 4/24/24 33/25/25 57/26/26 30/27/27
f 4/24/24 30/27/27 52/9/9 25/28/28
f 4/24/24 25/28/28 51/14/14 28/13/13
f 4/24/24 28/13/13 58/12/12 33/25/25
f 5/29/29 42/30/30 60/31/31 37/32/32
f 5/29/29 37/32/32 57/26/26 33/25/25
f 5/29/29 33/25/25 58/12/12 35/33/33
f 5/29/29 35/33/33 59/34/34 42/30/30
f 6/35/35 41/36/36 62/37/37 38/38/38
f 6/35/35 38/38/38 56/18/18 31/20/20
f 6/35/35 31/20/20 55/23/23 36/39/39
f 6/35/35 36/39/39 61/40/40 41/36/36
f 7/41/41 40/42/42 59/34/34 35/33/33
f 7/41/41 35/33/33 58/12/12 34/11/11
f 7/41/41 34/11/11 56/18/18 38/38/38
f 7/41/41 38/38/38 62/37/37 40/42/42
f 8/43/43 39/44/44 61/40/40 36/39/39
f 8/43/43 36/39/39 55/23/23 32/45/45
f 8/43/43 32/45/45 57/26/26 37/32/32
f 8/43/43 37/32/32 60/31/31 39/44/44
f 9/46/46 25/28/28 52/9/9 17/8/8
f 9/46/46 17/8/8 49/7/7 21/47/47
f 9/46/46 21/47/47 50/48/48 16/49/49
f 9/46/46 16/49/49 51/14/14 25/28/28
f 10/50/50 23/15/15 51/14/14 16/49/49
f 10/50/50 16/49/49 50/48/48 19/51/51
f 10/50/50 19/51/51 48/52/52 15/53/53
f 10/50/50 15/53/53 53/16/16 23/15/15
f 11/54/54 27/21/21 53/16/16 15/53/53
f 11/54/54 15/53/53 48/52/52 22/55/55
f 11/54/54 22/55/55 47/5/5 18/4/4
f 11/54/54 18/4/4 54/3/3 27/21/21
f 12/56/56 32/45/45 55/23/23 24/22/22
f 12/56/56 24/22/22 54/3/3 29/2/2
f 12/56/56 29/2/2 52/9/9 30/27/27
f 12/56/56 30/27/27 57/26/26 32/45/45
f 13/57/57 20/6/6 47/5/5 43/58/58
f 13/57/57 44/59/59 49/7/7 20/6/6
f 14/60/60 19/51/51 50/48/48 45/61/61
f 14/60/60 46/62/62 48/52/52 19/51/51
f 76/63/63 22/55/55 48/52/52 46/62/62
f 76/63/63 43/58/58 47/5/5 22/55/55
f 75/64/64 21/47/47 49/7/7 44/59/59
f 75/64/64 45/61/61 50/48/48 21/47/47
f 63/65/65 91/66/66 112/67/67 80/68/68
f 63/65/65 80/68/68 105/69/69 82/70/70
f 63/65/65 82/70/70 107/71/71 79/72/72
f 63/65/65 79/72/72 110/73/73 91/66/66
f 64/74/74 96/75/75 116/76/76 90/77/77
f 64/74/74 90/77/77 109/78/78 85/79/79
f 64/74/74 85/79/79 111/80/80 88/81/81
f 64/74/74 88/81/81 114/82/82 96/75/75
f 65/83/83 93/84/84 114/82/82 88/81/81
f 65/83/83 88/81/81 111/80/80 89/85/85
f 65/83/83 89/85/85 112/67/67 86/86/86
f 65/83/83 86/86/86 113/87/87 93/84/84
f 66/88/88 95/89/89 115/90/90 92/91/91
f 66/88/88 92/91/91 110/73/73 87/92/92
f 66/88/88 87/92/92 109/78/78 90/77/77
f 66/88/88 90/77/77 116/76/76 95/89/89
f 67/93/93 104/94/94 118/95/95 99/96/96
f 67/93/93 99/96/96 115/90/90 95/89/89
f 67/93/93 95/89/89 116/76/76 97/97/97
f 67/93/93 97/97/97 117/98/98 104/94/94
f 68/99/99 103/100/100 120/101/101 100/102/102
f 68/99/99 100/102/102 114/82/82 93/84/84
f 68/99/99 93/84/84 113/87/87 98/103/103
f 68/99/99 98/103/103 119/104/104 103/100/100
f 69/105/105 102/106/106 117/98/98 97/97/97
f 69/105/105 97/97/97 116/76/76 96/75/75
f 69/105/105 96/75/75 114/82/82 100/102/102
f 69/105/105 100/102/102 120/101/101 102/106/106
f 70/107/107 101/108/108 119/104/104 98/103/103
f 70/107/107 98/103/103 113/87/87 94/109/109
f 70/107/107 94/109/109 115/90/90 99/96/96
f 70/107/107 99/96/96 118/95/95 101/108/108
f 71/110/110 87/92/92 110/73/73 79/72/72
f 71/110/110 79/72/72 107/71/71 83/111/111
f 71/110/110 83/111/111 108/112/112 78/113/113
f 71/110/110 78/113/113 109/78/78 87/92/92
f 72/114/114 85/79/79 109/78/78 78/113/113
f 72/114/114 78/113/113 108/112/112 81/115/115
f 72/114/114 81/115/115 106/116/116 77/117/117
f 72/114/114 77/117/117 111/80/80 85/79/79
f 73/118/118 89/85/85 111/80/80 77/117/117
f 73/118/118 77/117/117 106/116/116 84/119/119
f 73/118/118 84/119/119 105/69/69 80/68/68
f 73/118/118 80/68/68 112/67/67 89/85/85
f 74/120/120 94/109/109 113/87/87 86/86/86
f 74/120/120 86/86/86 112/67/67 91/66/66
f 74/120/120 91/66/66 110/73/73 92/91/91
f 74/120/120 92/91/91 115/90/90 94/109/109
f 13/57/57 82/70/70 105/69/69 44/59/59
f 13/57/57 43/58/58 107/71/71 82/70/70
f 14/60/60 81/115/115 108/112/112 46/62/62
f 14/60/60 45/61/61 106/116/116 81/115/115
f 75/64/64 84/119/119 106/116/116 45/61/61
f 75/64/64 44/59/59 105/69/69 84/119/119
f 76/63/63 83/111/111 107/71/71 43/58/58
f 76/63/63 46/62/62 108/112/112 83/111/111
