# Blender v3.0.0 OBJ File: 'Pipe_Corner_2.blend'
# www.blender.org
mtllib Pipe_Corner_2.mtl
o Pipe_Corner_2_Cube.039
v 0.219106 -0.000000 1.275152
v 0.417976 0.000000 1.358789
v 0.333878 -0.105777 1.315022
v 0.333878 0.105777 1.315022
v 0.351350 0.105008 1.094820
v 0.351350 -0.105009 1.094820
v 0.456000 -0.000000 1.098783
v 0.246701 -0.000000 1.090857
v 0.252076 0.105451 1.367677
v 0.285046 0.000000 1.460201
v 0.252076 -0.105451 1.367677
v 0.249780 -0.000000 1.271255
v 0.276803 -0.077329 1.437070
v 0.276803 0.077329 1.437071
v 0.227349 0.080848 1.298284
v 0.227349 -0.080847 1.298284
v -0.075353 -0.000000 1.473898
v -0.094143 -0.000000 1.269586
v -0.084748 0.104737 1.371742
v -0.084748 -0.104736 1.371742
v 0.365389 0.000000 1.425642
v 0.270804 -0.081586 1.282197
v 0.304075 0.106055 1.351765
v 0.396951 -0.077078 1.347847
v 0.304075 -0.106055 1.351765
v 0.396951 0.077079 1.347847
v 0.242761 -0.000000 1.277889
v 0.270804 0.081587 1.282197
v 0.347598 -0.105225 1.236392
v 0.248361 -0.000000 1.220496
v 0.347598 0.105225 1.236392
v 0.446836 -0.000000 1.252288
v 0.429837 0.078122 1.097793
v 0.272863 -0.079391 1.091848
v 0.272863 0.079390 1.091848
v 0.429837 -0.078122 1.097793
v 0.244920 -0.000000 0.921777
v 0.455317 -0.000000 0.921777
v 0.350118 -0.104959 0.921777
v 0.350118 0.104958 0.921777
v -0.091794 -0.079166 1.295125
v -0.077701 -0.077939 1.448359
v -0.091794 0.079166 1.295125
v -0.077701 0.077939 1.448359
v 0.350061 0.076918 1.407172
v 0.258090 0.082165 1.296358
v 0.350061 -0.076918 1.407172
v 0.258090 -0.082165 1.296358
v 0.273170 -0.080275 1.224470
v 0.422026 -0.077562 1.248313
v 0.273170 0.080275 1.224470
v 0.422026 0.077563 1.248313
v 0.429017 0.078718 0.921777
v 0.271220 0.078718 0.921777
v 0.271220 -0.078720 0.921777
v 0.429017 -0.078720 0.921777
v -0.460903 0.000000 1.275152
v -0.659773 -0.000000 1.358789
v -0.575675 0.105777 1.315022
v -0.575675 -0.105777 1.315022
v -0.593147 -0.105008 1.094820
v -0.593147 0.105009 1.094820
v -0.697796 0.000000 1.098783
v -0.488497 0.000000 1.090857
v -0.493873 -0.105451 1.367677
v -0.526842 -0.000001 1.460201
v -0.493873 0.105451 1.367677
v -0.491577 0.000000 1.271255
v -0.518600 0.077329 1.437070
v -0.518600 -0.077329 1.437071
v -0.469145 -0.080848 1.298284
v -0.469145 0.080847 1.298284
v -0.607186 -0.000000 1.425642
v -0.512601 0.081586 1.282197
v -0.545872 -0.106055 1.351765
v -0.638748 0.077078 1.347847
v -0.545872 0.106055 1.351765
v -0.638748 -0.077079 1.347847
v -0.484557 0.000000 1.277889
v -0.512601 -0.081587 1.282197
v -0.589395 0.105225 1.236392
v -0.490157 0.000000 1.220496
v -0.589395 -0.105225 1.236392
v -0.688633 0.000000 1.252288
v -0.671634 -0.078121 1.097793
v -0.514660 0.079391 1.091848
v -0.514660 -0.079390 1.091848
v -0.671634 0.078122 1.097793
v -0.486717 0.000000 0.921777
v -0.697113 0.000000 0.921777
v -0.591915 0.104959 0.921777
v -0.591915 -0.104958 0.921777
v -0.591858 -0.076918 1.407172
v -0.499886 -0.082165 1.296358
v -0.591858 0.076918 1.407172
v -0.499886 0.082165 1.296358
v -0.514967 0.080275 1.224470
v -0.663823 0.077562 1.248313
v -0.514967 -0.080275 1.224470
v -0.663823 -0.077563 1.248313
v -0.670814 -0.078718 0.921777
v -0.513016 -0.078718 0.921777
v -0.513016 0.078720 0.921777
v -0.670814 0.078720 0.921777
v 0.257485 -0.000000 -2.232291
v 0.341122 0.000000 -2.431161
v 0.297355 -0.105777 -2.347063
v 0.297355 0.105777 -2.347063
v 0.077153 0.105008 -2.364535
v 0.077153 -0.105009 -2.364535
v 0.081116 -0.000000 -2.469185
v 0.073190 -0.000000 -2.259886
v 0.350010 0.105451 -2.265261
v 0.442534 0.000000 -2.298231
v 0.350010 -0.105451 -2.265261
v 0.253588 -0.000000 -2.262965
v 0.419403 -0.077329 -2.289988
v 0.419404 0.077329 -2.289988
v 0.280617 0.080848 -2.240533
v 0.280617 -0.080847 -2.240533
v 0.456231 -0.000000 -1.937832
v 0.251919 -0.000000 -1.919042
v 0.354075 0.104737 -1.928437
v 0.354075 -0.104736 -1.928437
v 0.407975 0.000000 -2.378574
v 0.264530 -0.081586 -2.283989
v 0.334098 0.106055 -2.317260
v 0.330180 -0.077078 -2.410136
v 0.334098 -0.106055 -2.317260
v 0.330180 0.077079 -2.410136
v 0.260222 -0.000000 -2.255946
v 0.264530 0.081587 -2.283989
v 0.218725 -0.105225 -2.360783
v 0.202829 -0.000000 -2.261546
v 0.218724 0.105225 -2.360783
v 0.234621 -0.000000 -2.460021
v 0.080125 0.078121 -2.443022
v 0.074181 -0.079391 -2.286048
v 0.074181 0.079390 -2.286048
v 0.080125 -0.078122 -2.443022
v -0.095890 -0.000000 -2.258105
v -0.095890 -0.000000 -2.468502
v -0.095890 -0.104959 -2.363303
v -0.095890 0.104958 -2.363303
v 0.277458 -0.079166 -1.921391
v 0.430692 -0.077939 -1.935484
v 0.277458 0.079166 -1.921391
v 0.430692 0.077939 -1.935484
v 0.389505 0.076918 -2.363246
v 0.278691 0.082165 -2.271275
v 0.389505 -0.076918 -2.363246
v 0.278691 -0.082165 -2.271275
v 0.206803 -0.080275 -2.286355
v 0.230646 -0.077562 -2.435211
v 0.206803 0.080275 -2.286355
v 0.230646 0.077563 -2.435211
v -0.095890 0.078718 -2.442202
v -0.095890 0.078718 -2.284405
v -0.095890 -0.078720 -2.284405
v -0.095890 -0.078720 -2.442202
vt 0.000000 0.000000
vt 0.000000 0.000000
vt 0.000000 0.000000
vt 0.000000 0.000000
vt 0.000000 0.000000
vt 0.000000 0.000000
vt 0.000000 0.000000
vt 0.000000 0.000000
vt 0.000000 0.000000
vt 0.000000 0.000000
vt 0.000000 0.000000
vt 0.000000 0.000000
vt 0.000000 0.000000
vt 0.000000 0.000000
vt 0.000000 0.000000
vt 0.000000 0.000000
vt 0.000000 0.000000
vt 0.000000 0.000000
vt 0.000000 0.000000
vt 0.000000 0.000000
vt 0.000000 0.000000
vt 0.000000 0.000000
vt 0.000000 0.000000
vt 0.000000 0.000000
vt 0.000000 0.000000
vt 0.000000 0.000000
vt 0.000000 0.000000
vt 0.000000 0.000000
vt 0.000000 0.000000
vt 0.000000 0.000000
vt 0.000000 0.000000
vt 0.000000 0.000000
vt 0.000000 0.000000
vt 0.000000 0.000000
vt 0.000000 0.000000
vt 0.000000 0.000000
vt 0.000000 0.000000
vt 0.000000 0.000000
vt 0.000000 0.000000
vt 0.000000 0.000000
vt 0.000000 0.000000
vt 0.000000 0.000000
vt 0.000000 0.000000
vt 0.000000 0.000000
vt 0.000000 0.000000
vt 0.000000 0.000000
vt 0.000000 0.000000
vt 0.000000 0.000000
vt 0.000000 0.000000
vt 0.000000 0.000000
vt 0.000000 0.000000
vt 0.000000 0.000000
vt 0.000000 0.000000
vt 0.000000 0.000000
vt 0.000000 0.000000
vt 0.000000 0.000000
vt 0.000000 0.000000
vt 0.000000 0.000000
vt 0.000000 0.000000
vt 0.000000 0.000000
vt 0.000000 0.000000
vt 0.000000 0.000000
vt 0.000000 0.000000
vt 0.000000 0.000000
vt 0.000000 0.000000
vt 0.000000 0.000000
vt 0.000000 0.000000
vt 0.000000 0.000000
vt 0.000000 0.000000
vt 0.000000 0.000000
vt 0.000000 0.000000
vt 0.000000 0.000000
vt 0.000000 0.000000
vt 0.000000 0.000000
vt 0.000000 0.000000
vt 0.000000 0.000000
vt 0.000000 0.000000
vt 0.000000 0.000000
vt 0.000000 0.000000
vt 0.000000 0.000000
vt 0.000000 0.000000
vt 0.000000 0.000000
vt 0.000000 0.000000
vt 0.000000 0.000000
vt 0.000000 0.000000
vt 0.000000 0.000000
vt 0.000000 0.000000
vt 0.000000 0.000000
vt 0.000000 0.000000
vt 0.000000 0.000000
vt 0.000000 0.000000
vt 0.000000 0.000000
vt 0.000000 0.000000
vt 0.000000 0.000000
vt 0.000000 0.000000
vt 0.000000 0.000000
vt 0.000000 0.000000
vt 0.000000 0.000000
vt 0.000000 0.000000
vt 0.000000 0.000000
vt 0.000000 0.000000
vt 0.000000 0.000000
vt 0.000000 0.000000
vt 0.000000 0.000000
vt 0.000000 0.000000
vt 0.000000 0.000000
vt 0.000000 0.000000
vt 0.000000 0.000000
vt 0.000000 0.000000
vt 0.000000 0.000000
vt 0.000000 0.000000
vt 0.000000 0.000000
vt 0.000000 0.000000
vt 0.000000 0.000000
vt 0.000000 0.000000
vt 0.000000 0.000000
vt 0.000000 0.000000
vt 0.000000 0.000000
vt 0.000000 0.000000
vt 0.000000 0.000000
vt 0.000000 0.000000
vt 0.000000 0.000000
vt 0.000000 0.000000
vt 0.000000 0.000000
vt 0.000000 0.000000
vt 0.000000 0.000000
vt 0.000000 0.000000
vt 0.000000 0.000000
vt 0.000000 0.000000
vt 0.000000 0.000000
vt 0.000000 0.000000
vt 0.000000 0.000000
vt 0.000000 0.000000
vt 0.000000 0.000000
vt 0.000000 0.000000
vt 0.000000 0.000000
vt 0.000000 0.000000
vt 0.000000 0.000000
vt 0.000000 0.000000
vt 0.000000 0.000000
vt 0.000000 0.000000
vt 0.000000 0.000000
vt 0.000000 0.000000
vt 0.000000 0.000000
vt 0.000000 0.000000
vt 0.000000 0.000000
vt 0.000000 0.000000
vt 0.000000 0.000000
vt 0.000000 0.000000
vt 0.000000 0.000000
vt 0.000000 0.000000
vt 0.000000 0.000000
vt 0.000000 0.000000
vt 0.000000 0.000000
vt 0.000000 0.000000
vt 0.000000 0.000000
vt 0.000000 0.000000
vt 0.000000 0.000000
vt 0.000000 0.000000
vt 0.000000 0.000000
vn 0.0110 -0.0000 -0.9999
vn -0.3644 -0.0000 -0.9312
vn -0.2823 -0.7625 -0.5822
vn -0.0163 -0.6887 -0.7249
vn 0.0006 -0.6923 -0.7216
vn 0.0008 -0.0000 -1.0000
vn 0.0006 0.6923 -0.7216
vn -0.0163 0.6887 -0.7249
vn -0.2823 0.7625 -0.5822
vn 0.8947 0.0000 0.4467
vn 0.9877 -0.0000 0.1561
vn 0.7270 0.6778 0.1101
vn 0.6779 0.6545 0.3349
vn 0.4576 0.6486 0.6082
vn 0.6072 0.0000 0.7946
vn 0.4576 -0.6486 0.6082
vn 0.6779 -0.6545 0.3349
vn 0.7270 -0.6778 0.1101
vn 0.0750 -0.9966 0.0331
vn 0.0302 -0.9995 0.0095
vn 0.0560 -0.9959 0.0715
vn -0.6023 -0.7540 -0.2622
vn -0.7158 -0.6981 -0.0173
vn 0.0750 0.9966 0.0331
vn 0.0302 0.9995 0.0095
vn -0.7158 0.6981 -0.0173
vn -0.6023 0.7540 -0.2622
vn 0.0560 0.9959 0.0715
vn 0.0108 0.9999 0.0018
vn 0.0027 1.0000 -0.0000
vn -0.7087 0.7055 0.0019
vn -0.7082 0.7060 0.0023
vn 0.7154 0.6985 0.0179
vn 0.7086 0.7056 -0.0009
vn 0.0108 -0.9999 0.0018
vn 0.0027 -1.0000 -0.0000
vn 0.7086 -0.7056 -0.0009
vn 0.7154 -0.6985 0.0179
vn -0.7082 -0.7060 0.0023
vn -0.7087 -0.7055 0.0019
vn 0.9997 0.0000 0.0264
vn 1.0000 0.0000 -0.0016
vn -1.0000 0.0000 0.0079
vn -1.0000 0.0000 0.0036
vn -1.0000 -0.0000 -0.0026
vn 0.0101 0.9988 0.0475
vn -0.0001 0.9999 0.0165
vn 0.0022 0.6842 0.7293
vn 0.1563 0.6621 0.7329
vn 0.2194 -0.0000 0.9756
vn 0.0041 -0.0000 1.0000
vn 0.0022 -0.6842 0.7293
vn 0.1563 -0.6621 0.7329
vn 0.0101 -0.9988 0.0475
vn -0.0001 -0.9999 0.0165
vn -0.9274 -0.0000 -0.3740
vn -0.1541 0.6615 0.7340
vn -0.2161 0.0000 0.9764
vn -0.0098 -0.9988 0.0479
vn 0.0165 -0.6885 -0.7251
vn 0.0165 0.6885 -0.7251
vn -0.0098 0.9988 0.0479
vn -0.0100 0.0000 -1.0000
vn 0.3644 0.0000 -0.9312
vn 0.2823 0.7625 -0.5822
vn 0.2823 -0.7625 -0.5822
vn -0.8947 -0.0000 0.4467
vn -0.9877 0.0000 0.1561
vn -0.7270 -0.6778 0.1101
vn -0.6779 -0.6545 0.3349
vn -0.4576 -0.6486 0.6082
vn -0.6072 -0.0000 0.7946
vn -0.4576 0.6486 0.6082
vn -0.6779 0.6545 0.3349
vn -0.7270 0.6778 0.1101
vn -0.0750 0.9966 0.0331
vn -0.0302 0.9995 0.0095
vn -0.0560 0.9959 0.0715
vn 0.6023 0.7540 -0.2622
vn 0.7158 0.6981 -0.0173
vn -0.0750 -0.9966 0.0331
vn -0.0302 -0.9995 0.0095
vn 0.7158 -0.6981 -0.0173
vn 0.6023 -0.7540 -0.2622
vn -0.0560 -0.9959 0.0715
vn -0.0108 -0.9999 0.0018
vn -0.0022 -1.0000 0.0001
vn 0.7083 -0.7059 0.0054
vn 0.7082 -0.7060 0.0023
vn -0.7154 -0.6985 0.0179
vn -0.7069 -0.7073 -0.0022
vn -0.0108 0.9999 0.0018
vn -0.0022 1.0000 0.0001
vn -0.7069 0.7073 -0.0022
vn -0.7154 0.6985 0.0179
vn 0.7082 0.7060 0.0023
vn 0.7083 0.7059 0.0054
vn -0.9997 0.0000 0.0264
vn -1.0000 -0.0000 -0.0037
vn 1.0000 -0.0000 0.0079
vn 1.0000 -0.0000 0.0094
vn 1.0000 0.0000 -0.0026
vn -0.1541 -0.6615 0.7340
vn 0.9274 0.0000 -0.3740
vn -0.9999 -0.0000 -0.0110
vn -0.9312 0.0000 0.3644
vn -0.5822 -0.7625 0.2823
vn -0.7249 -0.6887 0.0163
vn -0.7150 -0.6991 -0.0033
vn -1.0000 -0.0000 -0.0076
vn -0.7150 0.6991 -0.0033
vn -0.7249 0.6887 0.0163
vn -0.5822 0.7625 0.2823
vn 0.4467 0.0000 -0.8947
vn 0.1561 -0.0000 -0.9877
vn 0.1101 0.6778 -0.7270
vn 0.3349 0.6545 -0.6779
vn 0.6082 0.6486 -0.4576
vn 0.7946 0.0000 -0.6072
vn 0.6082 -0.6486 -0.4576
vn 0.3349 -0.6545 -0.6779
vn 0.1101 -0.6778 -0.7270
vn 0.0331 -0.9966 -0.0750
vn 0.0095 -0.9995 -0.0302
vn 0.0715 -0.9959 -0.0560
vn -0.2622 -0.7540 0.6023
vn -0.0173 -0.6981 0.7158
vn 0.0331 0.9966 -0.0750
vn 0.0095 0.9995 -0.0302
vn -0.0173 0.6981 0.7158
vn -0.2622 0.7540 0.6023
vn 0.0715 0.9959 -0.0560
vn 0.0018 0.9999 -0.0108
vn 0.0001 1.0000 -0.0022
vn 0.0054 0.7059 0.7083
vn 0.0023 0.7060 0.7082
vn 0.0179 0.6985 -0.7154
vn -0.0022 0.7073 -0.7069
vn 0.0018 -0.9999 -0.0108
vn 0.0001 -1.0000 -0.0022
vn -0.0022 -0.7073 -0.7069
vn 0.0179 -0.6985 -0.7154
vn 0.0023 -0.7060 0.7082
vn 0.0054 -0.7059 0.7083
vn 0.0264 0.0000 -0.9997
vn -0.0037 0.0000 -1.0000
vn 0.0079 0.0000 1.0000
vn 0.0094 0.0000 1.0000
vn -0.0026 -0.0000 1.0000
vn 0.0475 0.9988 -0.0101
vn 0.0097 1.0000 -0.0009
vn 0.7201 0.6938 -0.0113
vn 0.7330 0.6621 -0.1563
vn 0.9756 -0.0000 -0.2194
vn 0.9998 -0.0000 -0.0177
vn 0.7201 -0.6938 -0.0113
vn 0.7329 -0.6621 -0.1563
vn 0.0475 -0.9988 -0.0101
vn 0.0097 -1.0000 -0.0009
vn -0.3740 -0.0000 0.9274
usemtl Orange
s 1
f 1/1/1 27/2/2 48/3/3 16/4/4
f 1/1/1 16/4/4 41/5/5 18/6/6
f 1/1/1 18/6/6 43/7/7 15/8/8
f 1/1/1 15/8/8 46/9/9 27/2/2
f 2/10/10 32/11/11 52/12/12 26/13/13
f 2/10/10 26/13/13 45/14/14 21/15/15
f 2/10/10 21/15/15 47/16/16 24/17/17
f 2/10/10 24/17/17 50/18/18 32/11/11
f 3/19/19 29/20/20 50/18/18 24/17/17
f 3/19/19 24/17/17 47/16/16 25/21/21
f 3/19/19 25/21/21 48/3/3 22/22/22
f 3/19/19 22/22/22 49/23/23 29/20/20
f 4/24/24 31/25/25 51/26/26 28/27/27
f 4/24/24 28/27/27 46/9/9 23/28/28
f 4/24/24 23/28/28 45/14/14 26/13/13
f 4/24/24 26/13/13 52/12/12 31/25/25
f 5/29/29 40/30/30 54/31/31 35/32/32
f 5/29/29 35/32/32 51/26/26 31/25/25
f 5/29/29 31/25/25 52/12/12 33/33/33
f 5/29/29 33/33/33 53/34/34 40/30/30
f 6/35/35 39/36/36 56/37/37 36/38/38
f 6/35/35 36/38/38 50/18/18 29/20/20
f 6/35/35 29/20/20 49/23/23 34/39/39
f 6/35/35 34/39/39 55/40/40 39/36/36
f 7/41/41 38/42/42 53/34/34 33/33/33
f 7/41/41 33/33/33 52/12/12 32/11/11
f 7/41/41 32/11/11 50/18/18 36/38/38
f 7/41/41 36/38/38 56/37/37 38/42/42
f 8/43/43 37/44/44 55/40/40 34/39/39
f 8/43/43 34/39/39 49/23/23 30/45/45
f 8/43/43 30/45/45 51/26/26 35/32/32
f 8/43/43 35/32/32 54/31/31 37/44/44
f 9/46/46 23/28/28 46/9/9 15/8/8
f 9/46/46 15/8/8 43/7/7 19/47/47
f 9/46/46 19/47/47 44/48/48 14/49/49
f 9/46/46 14/49/49 45/14/14 23/28/28
f 10/50/50 21/15/15 45/14/14 14/49/49
f 10/50/50 14/49/49 44/48/48 17/51/51
f 10/50/50 17/51/51 42/52/52 13/53/53
f 10/50/50 13/53/53 47/16/16 21/15/15
f 11/54/54 25/21/21 47/16/16 13/53/53
f 11/54/54 13/53/53 42/52/52 20/55/55
f 11/54/54 20/55/55 41/5/5 16/4/4
f 11/54/54 16/4/4 48/3/3 25/21/21
f 12/56/56 30/45/45 49/23/23 22/22/22
f 12/56/56 22/22/22 48/3/3 27/2/2
f 12/56/56 27/2/2 46/9/9 28/27/27
f 12/56/56 28/27/27 51/26/26 30/45/45
f 44/48/48 69/57/57 66/58/58 17/51/51
f 65/59/59 71/60/60 41/5/5 20/55/55
f 43/7/7 72/61/61 67/62/62 19/47/47
f 67/62/62 69/57/57 44/48/48 19/47/47
f 57/63/63 79/64/64 96/65/65 72/61/61
f 18/6/6 57/63/63 72/61/61 43/7/7
f 57/63/63 71/60/60 94/66/66 79/64/64
f 58/67/67 84/68/68 100/69/69 78/70/70
f 58/67/67 78/70/70 93/71/71 73/72/72
f 58/67/67 73/72/72 95/73/73 76/74/74
f 58/67/67 76/74/74 98/75/75 84/68/68
f 59/76/76 81/77/77 98/75/75 76/74/74
f 59/76/76 76/74/74 95/73/73 77/78/78
f 59/76/76 77/78/78 96/65/65 74/79/79
f 59/76/76 74/79/79 97/80/80 81/77/77
f 60/81/81 83/82/82 99/83/83 80/84/84
f 60/81/81 80/84/84 94/66/66 75/85/85
f 60/81/81 75/85/85 93/71/71 78/70/70
f 60/81/81 78/70/70 100/69/69 83/82/82
f 61/86/86 92/87/87 102/88/88 87/89/89
f 61/86/86 87/89/89 99/83/83 83/82/82
f 61/86/86 83/82/82 100/69/69 85/90/90
f 61/86/86 85/90/90 101/91/91 92/87/87
f 62/92/92 91/93/93 104/94/94 88/95/95
f 62/92/92 88/95/95 98/75/75 81/77/77
f 62/92/92 81/77/77 97/80/80 86/96/96
f 62/92/92 86/96/96 103/97/97 91/93/93
f 63/98/98 90/99/99 101/91/91 85/90/90
f 63/98/98 85/90/90 100/69/69 84/68/68
f 63/98/98 84/68/68 98/75/75 88/95/95
f 63/98/98 88/95/95 104/94/94 90/99/99
f 64/100/100 89/101/101 103/97/97 86/96/96
f 64/100/100 86/96/96 97/80/80 82/102/102
f 64/100/100 82/102/102 99/83/83 87/89/89
f 64/100/100 87/89/89 102/88/88 89/101/101
f 65/59/59 75/85/85 94/66/66 71/60/60
f 65/59/59 70/103/103 93/71/71 75/85/85
f 66/58/58 73/72/72 93/71/71 70/103/103
f 41/5/5 71/60/60 57/63/63 18/6/6
f 17/51/51 66/58/58 70/103/103 42/52/52
f 66/58/58 69/57/57 95/73/73 73/72/72
f 67/62/62 77/78/78 95/73/73 69/57/57
f 42/52/52 70/103/103 65/59/59 20/55/55
f 67/62/62 72/61/61 96/65/65 77/78/78
f 68/104/104 82/102/102 97/80/80 74/79/79
f 68/104/104 74/79/79 96/65/65 79/64/64
f 68/104/104 79/64/64 94/66/66 80/84/84
f 68/104/104 80/84/84 99/83/83 82/102/102
f 105/105/105 131/106/106 152/107/107 120/108/108
f 105/105/105 120/108/108 145/109/109 122/110/110
f 105/105/105 122/110/110 147/111/111 119/112/112
f 105/105/105 119/112/112 150/113/113 131/106/106
f 106/114/114 136/115/115 156/116/116 130/117/117
f 106/114/114 130/117/117 149/118/118 125/119/119
f 106/114/114 125/119/119 151/120/120 128/121/121
f 106/114/114 128/121/121 154/122/122 136/115/115
f 107/123/123 133/124/124 154/122/122 128/121/121
f 107/123/123 128/121/121 151/120/120 129/125/125
f 107/123/123 129/125/125 152/107/107 126/126/126
f 107/123/123 126/126/126 153/127/127 133/124/124
f 108/128/128 135/129/129 155/130/130 132/131/131
f 108/128/128 132/131/131 150/113/113 127/132/132
f 108/128/128 127/132/132 149/118/118 130/117/117
f 108/128/128 130/117/117 156/116/116 135/129/129
f 109/133/133 144/134/134 158/135/135 139/136/136
f 109/133/133 139/136/136 155/130/130 135/129/129
f 109/133/133 135/129/129 156/116/116 137/137/137
f 109/133/133 137/137/137 157/138/138 144/134/134
f 110/139/139 143/140/140 160/141/141 140/142/142
f 110/139/139 140/142/142 154/122/122 133/124/124
f 110/139/139 133/124/124 153/127/127 138/143/143
f 110/139/139 138/143/143 159/144/144 143/140/140
f 111/145/145 142/146/146 157/138/138 137/137/137
f 111/145/145 137/137/137 156/116/116 136/115/115
f 111/145/145 136/115/115 154/122/122 140/142/142
f 111/145/145 140/142/142 160/141/141 142/146/146
f 112/147/147 141/148/148 159/144/144 138/143/143
f 112/147/147 138/143/143 153/127/127 134/149/149
f 112/147/147 134/149/149 155/130/130 139/136/136
f 112/147/147 139/136/136 158/135/135 141/148/148
f 113/150/150 127/132/132 150/113/113 119/112/112
f 113/150/150 119/112/112 147/111/111 123/151/151
f 113/150/150 123/151/151 148/152/152 118/153/153
f 113/150/150 118/153/153 149/118/118 127/132/132
f 114/154/154 125/119/119 149/118/118 118/153/153
f 114/154/154 118/153/153 148/152/152 121/155/155
f 114/154/154 121/155/155 146/156/156 117/157/157
f 114/154/154 117/157/157 151/120/120 125/119/119
f 115/158/158 129/125/125 151/120/120 117/157/157
f 115/158/158 117/157/157 146/156/156 124/159/159
f 115/158/158 124/159/159 145/109/109 120/108/108
f 115/158/158 120/108/108 152/107/107 129/125/125
f 116/160/160 134/149/149 153/127/127 126/126/126
f 116/160/160 126/126/126 152/107/107 131/106/106
f 116/160/160 131/106/106 150/113/113 132/131/131
f 116/160/160 132/131/131 155/130/130 134/149/149
f 54/31/31 147/111/111 122/110/110 37/44/44
f 40/30/30 123/151/151 147/111/111 54/31/31
f 53/34/34 148/152/152 123/151/151 40/30/30
f 38/42/42 121/155/155 148/152/152 53/34/34
f 56/37/37 146/156/156 121/155/155 38/42/42
f 39/36/36 124/159/159 146/156/156 56/37/37
f 55/40/40 145/109/109 124/159/159 39/36/36
f 37/44/44 122/110/110 145/109/109 55/40/40
