{
    "asset" : {
        "generator" : "Khronos glTF Blender I/O v1.7.33",
        "version" : "2.0"
    },
    "scene" : 0,
    "scenes" : [
        {
            "name" : "Scene",
            "nodes" : [
                0
            ]
        }
    ],
    "nodes" : [
        {
            "mesh" : 0,
            "name" : "Platform_4x2"
        }
    ],
    "materials" : [
        {
            "doubleSided" : true,
            "name" : "LightGrey",
            "pbrMetallicRoughness" : {
                "baseColorFactor" : [
                    0.25979551672935486,
                    0.25979551672935486,
                    0.25979551672935486,
                    1
                ],
                "metallicFactor" : 0,
                "roughnessFactor" : 0.5
            }
        },
        {
            "doubleSided" : true,
            "name" : "Grey",
            "pbrMetallicRoughness" : {
                "baseColorFactor" : [
                    0.1733514964580536,
                    0.1733514964580536,
                    0.1733514964580536,
                    1
                ],
                "metallicFactor" : 0,
                "roughnessFactor" : 0.5
            }
        },
        {
            "doubleSided" : true,
            "name" : "DarkGrey",
            "pbrMetallicRoughness" : {
                "baseColorFactor" : [
                    0.06680479645729065,
                    0.06680479645729065,
                    0.06680479645729065,
                    1
                ],
                "metallicFactor" : 0,
                "roughnessFactor" : 0.5
            }
        },
        {
            "doubleSided" : true,
            "emissiveFactor" : [
                1,
                1,
                1
            ],
            "emissiveTexture" : {
                "index" : 0
            },
            "name" : "Texture_Signs",
            "pbrMetallicRoughness" : {}
        },
        {
            "doubleSided" : true,
            "name" : "Black",
            "pbrMetallicRoughness" : {
                "baseColorFactor" : [
                    0.027209052816033363,
                    0.027209052816033363,
                    0.027209052816033363,
                    1
                ],
                "metallicFactor" : 0,
                "roughnessFactor" : 0.5
            }
        },
        {
            "doubleSided" : true,
            "name" : "Orange",
            "pbrMetallicRoughness" : {
                "baseColorFactor" : [
                    0.3108104467391968,
                    0.136332169175148,
                    0.03521651774644852,
                    1
                ],
                "metallicFactor" : 0,
                "roughnessFactor" : 0.5
            }
        }
    ],
    "meshes" : [
        {
            "name" : "Cube.076",
            "primitives" : [
                {
                    "attributes" : {
                        "POSITION" : 0,
                        "NORMAL" : 1,
                        "TEXCOORD_0" : 2
                    },
                    "indices" : 3,
                    "material" : 0
                },
                {
                    "attributes" : {
                        "POSITION" : 4,
                        "NORMAL" : 5,
                        "TEXCOORD_0" : 6
                    },
                    "indices" : 7,
                    "material" : 1
                },
                {
                    "attributes" : {
                        "POSITION" : 8,
                        "NORMAL" : 9,
                        "TEXCOORD_0" : 10
                    },
                    "indices" : 11,
                    "material" : 2
                },
                {
                    "attributes" : {
                        "POSITION" : 12,
                        "NORMAL" : 13,
                        "TEXCOORD_0" : 14
                    },
                    "indices" : 15,
                    "material" : 3
                },
                {
                    "attributes" : {
                        "POSITION" : 16,
                        "NORMAL" : 17,
                        "TEXCOORD_0" : 18
                    },
                    "indices" : 19,
                    "material" : 4
                },
                {
                    "attributes" : {
                        "POSITION" : 20,
                        "NORMAL" : 21,
                        "TEXCOORD_0" : 22
                    },
                    "indices" : 23,
                    "material" : 5
                }
            ]
        }
    ],
    "textures" : [
        {
            "sampler" : 0,
            "source" : 0
        }
    ],
    "images" : [
        {
            "bufferView" : 16,
            "mimeType" : "image/png",
            "name" : "Sign"
        }
    ],
    "accessors" : [
        {
            "bufferView" : 0,
            "componentType" : 5126,
            "count" : 7081,
            "max" : [
                2.220623016357422,
                1.6545493602752686,
                1.1846204996109009
            ],
            "min" : [
                -2.685094118118286,
                -4.503528594970703,
                -1.423799753189087
            ],
            "type" : "VEC3"
        },
        {
            "bufferView" : 1,
            "componentType" : 5126,
            "count" : 7081,
            "type" : "VEC3"
        },
        {
            "bufferView" : 2,
            "componentType" : 5126,
            "count" : 7081,
            "type" : "VEC2"
        },
        {
            "bufferView" : 3,
            "componentType" : 5123,
            "count" : 11694,
            "type" : "SCALAR"
        },
        {
            "bufferView" : 4,
            "componentType" : 5126,
            "count" : 1642,
            "max" : [
                2.6199326515197754,
                0.4275122880935669,
                1.2428730726242065
            ],
            "min" : [
                -2.685094118118286,
                -2.815075635910034,
                -1.4243757724761963
            ],
            "type" : "VEC3"
        },
        {
            "bufferView" : 5,
            "componentType" : 5126,
            "count" : 1642,
            "type" : "VEC3"
        },
        {
            "bufferView" : 6,
            "componentType" : 5126,
            "count" : 1642,
            "type" : "VEC2"
        },
        {
            "bufferView" : 7,
            "componentType" : 5123,
            "count" : 3054,
            "type" : "SCALAR"
        },
        {
            "bufferView" : 8,
            "componentType" : 5126,
            "count" : 128,
            "max" : [
                2.6360244750976562,
                -0.28336235880851746,
                0.32779574394226074
            ],
            "min" : [
                -1.8222824335098267,
                -2.130021095275879,
                -1.4414926767349243
            ],
            "type" : "VEC3"
        },
        {
            "bufferView" : 9,
            "componentType" : 5126,
            "count" : 128,
            "type" : "VEC3"
        },
        {
            "bufferView" : 10,
            "componentType" : 5126,
            "count" : 128,
            "type" : "VEC2"
        },
        {
            "bufferView" : 11,
            "componentType" : 5123,
            "count" : 444,
            "type" : "SCALAR"
        },
        {
            "bufferView" : 12,
            "componentType" : 5126,
            "count" : 448,
            "max" : [
                1.8870893716812134,
                0.30461710691452026,
                1.0399218797683716
            ],
            "min" : [
                -2.6545069217681885,
                -2.5007686614990234,
                -1.423799753189087
            ],
            "type" : "VEC3"
        },
        {
            "bufferView" : 13,
            "componentType" : 5126,
            "count" : 448,
            "type" : "VEC3"
        },
        {
            "bufferView" : 14,
            "componentType" : 5126,
            "count" : 448,
            "type" : "VEC2"
        },
        {
            "bufferView" : 15,
            "componentType" : 5123,
            "count" : 900,
            "type" : "SCALAR"
        },
        {
            "bufferView" : 17,
            "componentType" : 5126,
            "count" : 1992,
            "max" : [
                1.9121582508087158,
                0.2228609025478363,
                1.2074990272521973
            ],
            "min" : [
                -1.912158489227295,
                -3.580366849899292,
                -1.469878911972046
            ],
            "type" : "VEC3"
        },
        {
            "bufferView" : 18,
            "componentType" : 5126,
            "count" : 1992,
            "type" : "VEC3"
        },
        {
            "bufferView" : 19,
            "componentType" : 5126,
            "count" : 1992,
            "type" : "VEC2"
        },
        {
            "bufferView" : 20,
            "componentType" : 5123,
            "count" : 10752,
            "type" : "SCALAR"
        },
        {
            "bufferView" : 21,
            "componentType" : 5126,
            "count" : 1800,
            "max" : [
                1.7722511291503906,
                -0.2653205990791321,
                1.1143882274627686
            ],
            "min" : [
                -1.8990193605422974,
                -1.5240317583084106,
                -1.216215968132019
            ],
            "type" : "VEC3"
        },
        {
            "bufferView" : 22,
            "componentType" : 5126,
            "count" : 1800,
            "type" : "VEC3"
        },
        {
            "bufferView" : 23,
            "componentType" : 5126,
            "count" : 1800,
            "type" : "VEC2"
        },
        {
            "bufferView" : 24,
            "componentType" : 5123,
            "count" : 9336,
            "type" : "SCALAR"
        }
    ],
    "bufferViews" : [
        {
            "buffer" : 0,
            "byteLength" : 84972,
            "byteOffset" : 0
        },
        {
            "buffer" : 0,
            "byteLength" : 84972,
            "byteOffset" : 84972
        },
        {
            "buffer" : 0,
            "byteLength" : 56648,
            "byteOffset" : 169944
        },
        {
            "buffer" : 0,
            "byteLength" : 23388,
            "byteOffset" : 226592
        },
        {
            "buffer" : 0,
            "byteLength" : 19704,
            "byteOffset" : 249980
        },
        {
            "buffer" : 0,
            "byteLength" : 19704,
            "byteOffset" : 269684
        },
        {
            "buffer" : 0,
            "byteLength" : 13136,
            "byteOffset" : 289388
        },
        {
            "buffer" : 0,
            "byteLength" : 6108,
            "byteOffset" : 302524
        },
        {
            "buffer" : 0,
            "byteLength" : 1536,
            "byteOffset" : 308632
        },
        {
            "buffer" : 0,
            "byteLength" : 1536,
            "byteOffset" : 310168
        },
        {
            "buffer" : 0,
            "byteLength" : 1024,
            "byteOffset" : 311704
        },
        {
            "buffer" : 0,
            "byteLength" : 888,
            "byteOffset" : 312728
        },
        {
            "buffer" : 0,
            "byteLength" : 5376,
            "byteOffset" : 313616
        },
        {
            "buffer" : 0,
            "byteLength" : 5376,
            "byteOffset" : 318992
        },
        {
            "buffer" : 0,
            "byteLength" : 3584,
            "byteOffset" : 324368
        },
        {
            "buffer" : 0,
            "byteLength" : 1800,
            "byteOffset" : 327952
        },
        {
            "buffer" : 0,
            "byteLength" : 321879,
            "byteOffset" : 329752
        },
        {
            "buffer" : 0,
            "byteLength" : 23904,
            "byteOffset" : 651632
        },
        {
            "buffer" : 0,
            "byteLength" : 23904,
            "byteOffset" : 675536
        },
        {
            "buffer" : 0,
            "byteLength" : 15936,
            "byteOffset" : 699440
        },
        {
            "buffer" : 0,
            "byteLength" : 21504,
            "byteOffset" : 715376
        },
        {
            "buffer" : 0,
            "byteLength" : 21600,
            "byteOffset" : 736880
        },
        {
            "buffer" : 0,
            "byteLength" : 21600,
            "byteOffset" : 758480
        },
        {
            "buffer" : 0,
            "byteLength" : 14400,
            "byteOffset" : 780080
        },
        {
            "buffer" : 0,
            "byteLength" : 18672,
            "byteOffset" : 794480
        }
    ],
    "samplers" : [
        {
            "magFilter" : 9729,
            "minFilter" : 9987
        }
    ],
    "buffers" : [
        {
            "byteLength" : 813152,
            "uri" : "data:application/octet-stream;base64,"
        }
    ]
}
