# Blender v3.0.0 OBJ File: 'Platform_2x1_Empty.blend'
# www.blender.org
mtllib Platform_2x1_Empty.mtl
o Platform_2x1_Empty_Cube.101
v -0.917443 -0.120266 0.357200
v -0.946291 0.103987 0.386048
v -0.917443 -0.120266 -0.357200
v -0.946291 0.103987 -0.386048
v 0.917443 -0.120266 0.357200
v 0.946291 0.103987 0.386048
v 0.917443 -0.120266 -0.357200
v 0.946291 0.103987 -0.386048
v -0.946291 0.033214 0.386048
v -0.946291 0.033214 -0.386048
v 0.946291 0.033214 -0.386048
v 0.946291 0.033214 0.386048
v -0.851760 0.103987 0.291518
v -0.851760 0.103987 -0.291518
v 0.851760 0.103987 -0.291518
v 0.851760 0.103987 0.291518
v -0.832346 0.081734 0.272104
v -0.832346 0.081734 -0.272104
v 0.832346 0.081734 -0.272104
v 0.832346 0.081734 0.272104
v -0.917443 0.012625 -0.357200
v 0.917443 0.012625 -0.357200
v 0.917443 0.012625 0.357200
v -0.917443 0.012625 0.357200
v -0.917443 -0.044928 -0.357200
v -0.917443 -0.062713 -0.357200
v 0.917443 -0.044928 -0.357200
v 0.917443 -0.062713 -0.357200
v 0.917443 -0.044928 0.357200
v 0.917443 -0.062713 0.357200
v -0.917443 -0.062713 0.357200
v -0.917443 -0.044928 0.357200
v -0.903164 -0.045050 -0.342921
v -0.903164 -0.062591 -0.342921
v 0.903164 -0.045050 -0.342921
v 0.903164 -0.062591 -0.342921
v 0.903164 -0.045050 0.342921
v 0.903164 -0.062591 0.342921
v -0.903164 -0.062591 0.342921
v -0.903164 -0.045050 0.342921
vt 0.000000 0.000000
vt 0.000000 0.000000
vt 0.000000 0.000000
vt 0.000000 0.000000
vt 0.000000 0.000000
vt 0.000000 0.000000
vt 0.000000 0.000000
vt 0.000000 0.000000
vt 0.000000 0.000000
vt 0.000000 0.000000
vt 0.000000 0.000000
vt 0.000000 0.000000
vt 0.000000 0.000000
vt 0.000000 0.000000
vt 0.000000 0.000000
vt 0.000000 0.000000
vt 0.000000 0.000000
vt 0.000000 0.000000
vt 0.000000 0.000000
vt 0.000000 0.000000
vt 0.000000 0.000000
vt 0.000000 0.000000
vt 0.000000 0.000000
vt 0.000000 0.000000
vt 0.000000 0.000000
vt 0.000000 0.000000
vt 0.000000 0.000000
vt 0.000000 0.000000
vt 0.000000 0.000000
vt 0.000000 0.000000
vt 0.000000 0.000000
vt 0.000000 0.000000
vt 0.000000 0.000000
vt 0.000000 0.000000
vt 0.000000 0.000000
vt 0.000000 0.000000
vt 0.000000 0.000000
vt 0.000000 0.000000
vt 0.000000 0.000000
vt 0.000000 0.000000
vt 0.512777 0.281984
vt 0.530565 0.305115
vt 0.582600 0.305115
vt 0.564811 0.281984
vt 0.608140 0.281984
vt 0.625929 0.305115
vt 0.759576 0.305115
vt 0.741787 0.281984
vt 0.564811 0.281984
vt 0.582600 0.305115
vt 0.530565 0.305115
vt 0.512777 0.281984
vt 0.586096 0.281984
vt 0.603884 0.305115
vt 0.470237 0.305115
vt 0.452449 0.281984
vn 0.0000 -1.0000 0.0000
vn 0.0000 -0.8140 0.5809
vn 0.5809 -0.8140 0.0000
vn 0.0000 -0.8140 -0.5809
vn -0.5809 -0.8140 0.0000
vn 0.0000 1.0000 0.0000
vn 0.0000 0.0000 1.0000
vn 0.0086 -1.0000 0.0000
vn 1.0000 0.0000 0.0000
vn 0.0000 -1.0000 -0.0086
vn 0.0000 0.0000 -1.0000
vn -0.0086 -1.0000 0.0000
vn -1.0000 0.0000 0.0000
vn 0.0000 1.0000 0.0086
vn 0.0000 -1.0000 0.0086
vn -0.0086 1.0000 0.0000
vn 0.0000 1.0000 -0.0086
vn 0.0086 1.0000 0.0000
vn 0.0000 0.6574 -0.7535
vn 0.0000 0.6574 0.7535
vn -0.7535 0.6574 0.0000
vn 0.7535 0.6574 0.0000
usemtl Grey
s off
f 3/1/1 7/2/1 5/3/1 1/4/1
f 23/5/2 12/6/2 9/7/2 24/8/2
f 22/9/3 11/10/3 12/6/3 23/5/3
f 21/11/4 10/12/4 11/10/4 22/9/4
f 24/8/5 9/7/5 10/12/5 21/11/5
f 19/13/6 18/14/6 17/15/6 20/16/6
f 5/3/7 30/17/7 31/18/7 1/4/7
f 27/19/8 29/20/8 37/21/8 35/22/8
f 7/2/9 28/23/9 30/17/9 5/3/9
f 25/24/10 27/19/10 35/22/10 33/25/10
f 3/1/11 26/26/11 28/23/11 7/2/11
f 32/27/12 25/24/12 33/25/12 40/28/12
f 1/4/13 31/18/13 26/26/13 3/1/13
f 31/18/14 30/17/14 38/29/14 39/30/14
f 38/29/7 37/21/7 40/28/7 39/30/7
f 36/31/9 35/22/9 37/21/9 38/29/9
f 34/32/11 33/25/11 35/22/11 36/31/11
f 39/30/13 40/28/13 33/25/13 34/32/13
f 29/20/15 32/27/15 40/28/15 37/21/15
f 26/26/16 31/18/16 39/30/16 34/32/16
f 28/23/17 26/26/17 34/32/17 36/31/17
f 30/17/18 28/23/18 36/31/18 38/29/18
usemtl LightGrey
f 9/7/13 2/33/13 4/34/13 10/12/13
f 10/12/11 4/34/11 8/35/11 11/10/11
f 11/10/9 8/35/9 6/36/9 12/6/9
f 12/6/7 6/36/7 2/33/7 9/7/7
f 6/36/6 8/35/6 15/37/6 16/38/6
f 13/39/19 16/38/19 20/16/19 17/15/19
f 4/34/6 2/33/6 13/39/6 14/40/6
f 2/33/6 6/36/6 16/38/6 13/39/6
f 8/35/6 4/34/6 14/40/6 15/37/6
f 15/37/20 14/40/20 18/14/20 19/13/20
f 16/38/21 15/37/21 19/13/21 20/16/21
f 14/40/22 13/39/22 17/15/22 18/14/22
usemtl Texture_Transparent
f 32/41/13 24/42/13 21/43/13 25/44/13
f 25/45/11 21/46/11 22/47/11 27/48/11
f 27/49/9 22/50/9 23/51/9 29/52/9
f 29/53/7 23/54/7 24/55/7 32/56/7
