# Blender v3.0.0 OBJ File: 'Platform_4x1_Empty.blend'
# www.blender.org
mtllib Platform_4x1_Empty.mtl
o Platform_4x1_Empty_Cube.010
v -1.902745 -0.120266 0.460227
v -1.931594 0.103987 0.489075
v -1.902745 -0.120266 -0.460225
v -1.931594 0.103988 -0.489073
v 1.902746 -0.120266 0.460227
v 1.931594 0.103987 0.489075
v 1.902746 -0.120266 -0.460225
v 1.931594 0.103988 -0.489073
v -1.931594 0.033214 0.489075
v -1.931594 0.033214 -0.489073
v 1.931594 0.033214 -0.489073
v 1.931594 0.033214 0.489075
v -1.837063 0.103987 0.394544
v -1.837063 0.103988 -0.394543
v 1.837063 0.103988 -0.394543
v 1.837063 0.103987 0.394544
v -1.817649 0.081734 0.375131
v -1.817649 0.081734 -0.375129
v 1.817649 0.081734 -0.375129
v 1.817649 0.081734 0.375131
v -1.902745 0.012625 -0.460225
v 1.902746 0.012625 -0.460225
v 1.902746 0.012625 0.460227
v -1.902745 0.012625 0.460227
v -1.902745 -0.044928 -0.460225
v -1.902745 -0.062713 -0.460225
v 1.902746 -0.044928 -0.460225
v 1.902746 -0.062713 -0.460225
v 1.902746 -0.044928 0.460227
v 1.902746 -0.062713 0.460227
v -1.902745 -0.062713 0.460227
v -1.902745 -0.044928 0.460227
v -1.888466 -0.045050 -0.445946
v -1.888466 -0.062591 -0.445946
v 1.888467 -0.045050 -0.445946
v 1.888467 -0.062591 -0.445946
v 1.888467 -0.045050 0.445948
v 1.888467 -0.062591 0.445948
v -1.888466 -0.062591 0.445948
v -1.888466 -0.045050 0.445948
vt 0.000000 0.000000
vt 0.000000 0.000000
vt 0.000000 0.000000
vt 0.000000 0.000000
vt 0.000000 0.000000
vt 0.000000 0.000000
vt 0.000000 0.000000
vt 0.000000 0.000000
vt 0.000000 0.000000
vt 0.000000 0.000000
vt 0.000000 0.000000
vt 0.000000 0.000000
vt 0.000000 0.000000
vt 0.000000 0.000000
vt 0.000000 0.000000
vt 0.000000 0.000000
vt 0.000000 0.000000
vt 0.000000 0.000000
vt 0.000000 0.000000
vt 0.000000 0.000000
vt 0.000000 0.000000
vt 0.000000 0.000000
vt 0.000000 0.000000
vt 0.000000 0.000000
vt 0.000000 0.000000
vt 0.000000 0.000000
vt 0.000000 0.000000
vt 0.000000 0.000000
vt 0.000000 0.000000
vt 0.000000 0.000000
vt 0.000000 0.000000
vt 0.000000 0.000000
vt 0.000000 0.000000
vt 0.000000 0.000000
vt 0.000000 0.000000
vt 0.000000 0.000000
vt 0.000000 0.000000
vt 0.000000 0.000000
vt 0.000000 0.000000
vt 0.000000 0.000000
vt 0.489721 0.286110
vt 0.498026 0.301137
vt 0.600941 0.301137
vt 0.592635 0.286110
vt 0.479025 0.286110
vt 0.487330 0.301137
vt 0.384416 0.301137
vt 0.376110 0.286110
vt 0.455138 0.286110
vt 0.463443 0.301137
vt 0.737385 0.301137
vt 0.729080 0.286110
vt 0.501859 0.286110
vt 0.510164 0.301137
vt 0.236222 0.301137
vt 0.227917 0.286110
vn -1.0000 0.0000 0.0000
vn 1.0000 0.0000 0.0000
vn 0.0000 0.0000 -1.0000
vn 0.0000 0.0000 1.0000
vn 0.0000 1.0000 0.0000
vn 0.0000 0.6574 -0.7536
vn -0.7535 0.6574 0.0000
vn 0.7535 0.6574 0.0000
vn 0.0000 0.6574 0.7535
vn 0.0000 -1.0000 -0.0000
vn 0.5809 -0.8140 -0.0000
vn 0.0000 -0.8140 0.5809
vn -0.5809 -0.8140 -0.0000
vn 0.0000 -0.8140 -0.5809
vn 0.0086 -1.0000 -0.0000
vn 0.0000 -1.0000 -0.0086
vn -0.0086 -1.0000 -0.0000
vn 0.0000 1.0000 0.0086
vn -0.0086 1.0000 0.0000
vn 0.0000 -1.0000 0.0086
vn 0.0086 1.0000 0.0000
vn 0.0000 1.0000 -0.0086
usemtl LightGrey
s off
f 9/1/1 2/2/1 4/3/1 10/4/1
f 11/5/2 8/6/2 6/7/2 12/8/2
f 10/4/3 4/3/3 8/6/3 11/5/3
f 12/8/4 6/7/4 2/2/4 9/1/4
f 6/7/5 8/6/5 15/9/5 16/10/5
f 4/3/5 2/2/5 13/11/5 14/12/5
f 13/11/6 16/10/6 20/13/6 17/14/6
f 2/2/5 6/7/5 16/10/5 13/11/5
f 8/6/5 4/3/5 14/12/5 15/9/5
f 16/10/7 15/9/7 19/15/7 20/13/7
f 14/12/8 13/11/8 17/14/8 18/16/8
f 15/9/9 14/12/9 18/16/9 19/15/9
usemtl Grey
f 3/17/10 7/18/10 5/19/10 1/20/10
f 22/21/11 11/5/11 12/8/11 23/22/11
f 23/22/12 12/8/12 9/1/12 24/23/12
f 24/23/13 9/1/13 10/4/13 21/24/13
f 21/24/14 10/4/14 11/5/14 22/21/14
f 19/15/5 18/16/5 17/14/5 20/13/5
f 27/25/15 29/26/15 37/27/15 35/28/15
f 7/18/2 28/29/2 30/30/2 5/19/2
f 5/19/4 30/30/4 31/31/4 1/20/4
f 25/32/16 27/25/16 35/28/16 33/33/16
f 32/34/17 25/32/17 33/33/17 40/35/17
f 1/20/1 31/31/1 26/36/1 3/17/1
f 3/17/3 26/36/3 28/29/3 7/18/3
f 31/31/18 30/30/18 38/37/18 39/38/18
f 36/39/2 35/28/2 37/27/2 38/37/2
f 38/37/4 37/27/4 40/35/4 39/38/4
f 39/38/1 40/35/1 33/33/1 34/40/1
f 34/40/3 33/33/3 35/28/3 36/39/3
f 26/36/19 31/31/19 39/38/19 34/40/19
f 29/26/20 32/34/20 40/35/20 37/27/20
f 30/30/21 28/29/21 36/39/21 38/37/21
f 28/29/22 26/36/22 34/40/22 36/39/22
usemtl Texture_Signs
f 32/41/1 24/42/1 21/43/1 25/44/1
f 27/45/2 22/46/2 23/47/2 29/48/2
f 25/49/3 21/50/3 22/51/3 27/52/3
f 29/53/4 23/54/4 24/55/4 32/56/4
