{
    "asset" : {
        "generator" : "Khronos glTF Blender I/O v1.7.33",
        "version" : "2.0"
    },
    "scene" : 0,
    "scenes" : [
        {
            "name" : "Scene",
            "nodes" : [
                0
            ]
        }
    ],
    "nodes" : [
        {
            "mesh" : 0,
            "name" : "Platform_4x4"
        }
    ],
    "materials" : [
        {
            "doubleSided" : true,
            "name" : "Grey",
            "pbrMetallicRoughness" : {
                "baseColorFactor" : [
                    0.1733514964580536,
                    0.1733514964580536,
                    0.1733514964580536,
                    1
                ],
                "metallicFactor" : 0,
                "roughnessFactor" : 0.5
            }
        },
        {
            "doubleSided" : true,
            "name" : "LightGrey",
            "pbrMetallicRoughness" : {
                "baseColorFactor" : [
                    0.25979551672935486,
                    0.25979551672935486,
                    0.25979551672935486,
                    1
                ],
                "metallicFactor" : 0,
                "roughnessFactor" : 0.5
            }
        },
        {
            "doubleSided" : true,
            "name" : "DarkGrey",
            "pbrMetallicRoughness" : {
                "baseColorFactor" : [
                    0.06680479645729065,
                    0.06680479645729065,
                    0.06680479645729065,
                    1
                ],
                "metallicFactor" : 0,
                "roughnessFactor" : 0.5
            }
        },
        {
            "doubleSided" : true,
            "emissiveFactor" : [
                1,
                1,
                1
            ],
            "emissiveTexture" : {
                "index" : 0
            },
            "name" : "Texture_Signs",
            "pbrMetallicRoughness" : {}
        },
        {
            "doubleSided" : true,
            "name" : "Black",
            "pbrMetallicRoughness" : {
                "baseColorFactor" : [
                    0.027209052816033363,
                    0.027209052816033363,
                    0.027209052816033363,
                    1
                ],
                "metallicFactor" : 0,
                "roughnessFactor" : 0.5
            }
        },
        {
            "doubleSided" : true,
            "name" : "Orange",
            "pbrMetallicRoughness" : {
                "baseColorFactor" : [
                    0.3108104467391968,
                    0.136332169175148,
                    0.03521651774644852,
                    1
                ],
                "metallicFactor" : 0,
                "roughnessFactor" : 0.5
            }
        }
    ],
    "meshes" : [
        {
            "name" : "Cube.099",
            "primitives" : [
                {
                    "attributes" : {
                        "POSITION" : 0,
                        "NORMAL" : 1,
                        "TEXCOORD_0" : 2
                    },
                    "indices" : 3,
                    "material" : 0
                },
                {
                    "attributes" : {
                        "POSITION" : 4,
                        "NORMAL" : 5,
                        "TEXCOORD_0" : 6
                    },
                    "indices" : 7,
                    "material" : 1
                },
                {
                    "attributes" : {
                        "POSITION" : 8,
                        "NORMAL" : 9,
                        "TEXCOORD_0" : 10
                    },
                    "indices" : 11,
                    "material" : 2
                },
                {
                    "attributes" : {
                        "POSITION" : 12,
                        "NORMAL" : 13,
                        "TEXCOORD_0" : 14
                    },
                    "indices" : 15,
                    "material" : 3
                },
                {
                    "attributes" : {
                        "POSITION" : 16,
                        "NORMAL" : 17,
                        "TEXCOORD_0" : 18
                    },
                    "indices" : 19,
                    "material" : 4
                },
                {
                    "attributes" : {
                        "POSITION" : 20,
                        "NORMAL" : 21,
                        "TEXCOORD_0" : 22
                    },
                    "indices" : 23,
                    "material" : 5
                }
            ]
        }
    ],
    "textures" : [
        {
            "sampler" : 0,
            "source" : 0
        }
    ],
    "images" : [
        {
            "bufferView" : 16,
            "mimeType" : "image/png",
            "name" : "Sign"
        }
    ],
    "accessors" : [
        {
            "bufferView" : 0,
            "componentType" : 5126,
            "count" : 1712,
            "max" : [
                2.232717514038086,
                0.023415038362145424,
                1.9128851890563965
            ],
            "min" : [
                -2.1988377571105957,
                -2.955836534500122,
                -1.9813945293426514
            ],
            "type" : "VEC3"
        },
        {
            "bufferView" : 1,
            "componentType" : 5126,
            "count" : 1712,
            "type" : "VEC3"
        },
        {
            "bufferView" : 2,
            "componentType" : 5126,
            "count" : 1712,
            "type" : "VEC2"
        },
        {
            "bufferView" : 3,
            "componentType" : 5123,
            "count" : 4260,
            "type" : "SCALAR"
        },
        {
            "bufferView" : 4,
            "componentType" : 5126,
            "count" : 8502,
            "max" : [
                1.9801634550094604,
                0.04566849768161774,
                1.9222419261932373
            ],
            "min" : [
                -1.9472501277923584,
                -3.712449550628662,
                -1.9813945293426514
            ],
            "type" : "VEC3"
        },
        {
            "bufferView" : 5,
            "componentType" : 5126,
            "count" : 8502,
            "type" : "VEC3"
        },
        {
            "bufferView" : 6,
            "componentType" : 5126,
            "count" : 8502,
            "type" : "VEC2"
        },
        {
            "bufferView" : 7,
            "componentType" : 5123,
            "count" : 14460,
            "type" : "SCALAR"
        },
        {
            "bufferView" : 8,
            "componentType" : 5126,
            "count" : 314,
            "max" : [
                2.2500038146972656,
                -0.5692447423934937,
                1.4830889701843262
            ],
            "min" : [
                -2.2182888984680176,
                -2.110022783279419,
                -1.738141417503357
            ],
            "type" : "VEC3"
        },
        {
            "bufferView" : 9,
            "componentType" : 5126,
            "count" : 314,
            "type" : "VEC3"
        },
        {
            "bufferView" : 10,
            "componentType" : 5126,
            "count" : 314,
            "type" : "VEC2"
        },
        {
            "bufferView" : 11,
            "componentType" : 5123,
            "count" : 1230,
            "type" : "SCALAR"
        },
        {
            "bufferView" : 12,
            "componentType" : 5126,
            "count" : 408,
            "max" : [
                1.8870893716812134,
                -0.045693933963775635,
                1.8840371370315552
            ],
            "min" : [
                -1.918402075767517,
                -2.8643505573272705,
                -1.95254647731781
            ],
            "type" : "VEC3"
        },
        {
            "bufferView" : 13,
            "componentType" : 5126,
            "count" : 408,
            "type" : "VEC3"
        },
        {
            "bufferView" : 14,
            "componentType" : 5126,
            "count" : 408,
            "type" : "VEC2"
        },
        {
            "bufferView" : 15,
            "componentType" : 5123,
            "count" : 840,
            "type" : "SCALAR"
        },
        {
            "bufferView" : 17,
            "componentType" : 5126,
            "count" : 1512,
            "max" : [
                1.5692905187606812,
                -0.007556422613561153,
                1.6809583902359009
            ],
            "min" : [
                -0.9868717789649963,
                -3.6649982929229736,
                -1.4683151245117188
            ],
            "type" : "VEC3"
        },
        {
            "bufferView" : 18,
            "componentType" : 5126,
            "count" : 1512,
            "type" : "VEC3"
        },
        {
            "bufferView" : 19,
            "componentType" : 5126,
            "count" : 1512,
            "type" : "VEC2"
        },
        {
            "bufferView" : 20,
            "componentType" : 5123,
            "count" : 7962,
            "type" : "SCALAR"
        },
        {
            "bufferView" : 21,
            "componentType" : 5126,
            "count" : 2288,
            "max" : [
                1.502182126045227,
                -0.2753799855709076,
                1.5826138257980347
            ],
            "min" : [
                -0.804801881313324,
                -2.55808162689209,
                -1.6117202043533325
            ],
            "type" : "VEC3"
        },
        {
            "bufferView" : 22,
            "componentType" : 5126,
            "count" : 2288,
            "type" : "VEC3"
        },
        {
            "bufferView" : 23,
            "componentType" : 5126,
            "count" : 2288,
            "type" : "VEC2"
        },
        {
            "bufferView" : 24,
            "componentType" : 5123,
            "count" : 11232,
            "type" : "SCALAR"
        }
    ],
    "bufferViews" : [
        {
            "buffer" : 0,
            "byteLength" : 20544,
            "byteOffset" : 0
        },
        {
            "buffer" : 0,
            "byteLength" : 20544,
            "byteOffset" : 20544
        },
        {
            "buffer" : 0,
            "byteLength" : 13696,
            "byteOffset" : 41088
        },
        {
            "buffer" : 0,
            "byteLength" : 8520,
            "byteOffset" : 54784
        },
        {
            "buffer" : 0,
            "byteLength" : 102024,
            "byteOffset" : 63304
        },
        {
            "buffer" : 0,
            "byteLength" : 102024,
            "byteOffset" : 165328
        },
        {
            "buffer" : 0,
            "byteLength" : 68016,
            "byteOffset" : 267352
        },
        {
            "buffer" : 0,
            "byteLength" : 28920,
            "byteOffset" : 335368
        },
        {
            "buffer" : 0,
            "byteLength" : 3768,
            "byteOffset" : 364288
        },
        {
            "buffer" : 0,
            "byteLength" : 3768,
            "byteOffset" : 368056
        },
        {
            "buffer" : 0,
            "byteLength" : 2512,
            "byteOffset" : 371824
        },
        {
            "buffer" : 0,
            "byteLength" : 2460,
            "byteOffset" : 374336
        },
        {
            "buffer" : 0,
            "byteLength" : 4896,
            "byteOffset" : 376796
        },
        {
            "buffer" : 0,
            "byteLength" : 4896,
            "byteOffset" : 381692
        },
        {
            "buffer" : 0,
            "byteLength" : 3264,
            "byteOffset" : 386588
        },
        {
            "buffer" : 0,
            "byteLength" : 1680,
            "byteOffset" : 389852
        },
        {
            "buffer" : 0,
            "byteLength" : 321879,
            "byteOffset" : 391532
        },
        {
            "buffer" : 0,
            "byteLength" : 18144,
            "byteOffset" : 713412
        },
        {
            "buffer" : 0,
            "byteLength" : 18144,
            "byteOffset" : 731556
        },
        {
            "buffer" : 0,
            "byteLength" : 12096,
            "byteOffset" : 749700
        },
        {
            "buffer" : 0,
            "byteLength" : 15924,
            "byteOffset" : 761796
        },
        {
            "buffer" : 0,
            "byteLength" : 27456,
            "byteOffset" : 777720
        },
        {
            "buffer" : 0,
            "byteLength" : 27456,
            "byteOffset" : 805176
        },
        {
            "buffer" : 0,
            "byteLength" : 18304,
            "byteOffset" : 832632
        },
        {
            "buffer" : 0,
            "byteLength" : 22464,
            "byteOffset" : 850936
        }
    ],
    "samplers" : [
        {
            "magFilter" : 9729,
            "minFilter" : 9987
        }
    ],
    "buffers" : [
        {
            "byteLength" : 873400,
            "uri" : "data:application/octet-stream;base64,"
        }
    ]
}
