{
    "asset" : {
        "generator" : "Khronos glTF Blender I/O v1.7.33",
        "version" : "2.0"
    },
    "scene" : 0,
    "scenes" : [
        {
            "name" : "Scene",
            "nodes" : [
                0
            ]
        }
    ],
    "nodes" : [
        {
            "mesh" : 0,
            "name" : "Platform_4x1"
        }
    ],
    "materials" : [
        {
            "doubleSided" : true,
            "name" : "LightGrey",
            "pbrMetallicRoughness" : {
                "baseColorFactor" : [
                    0.25979551672935486,
                    0.25979551672935486,
                    0.25979551672935486,
                    1
                ],
                "metallicFactor" : 0,
                "roughnessFactor" : 0.5
            }
        },
        {
            "doubleSided" : true,
            "name" : "Grey",
            "pbrMetallicRoughness" : {
                "baseColorFactor" : [
                    0.1733514964580536,
                    0.1733514964580536,
                    0.1733514964580536,
                    1
                ],
                "metallicFactor" : 0,
                "roughnessFactor" : 0.5
            }
        },
        {
            "doubleSided" : true,
            "name" : "Black",
            "pbrMetallicRoughness" : {
                "baseColorFactor" : [
                    0.027209052816033363,
                    0.027209052816033363,
                    0.027209052816033363,
                    1
                ],
                "metallicFactor" : 0,
                "roughnessFactor" : 0.5
            }
        },
        {
            "doubleSided" : true,
            "name" : "Orange",
            "pbrMetallicRoughness" : {
                "baseColorFactor" : [
                    0.3108104467391968,
                    0.136332169175148,
                    0.03521651774644852,
                    1
                ],
                "metallicFactor" : 0,
                "roughnessFactor" : 0.5
            }
        },
        {
            "doubleSided" : true,
            "emissiveFactor" : [
                1,
                1,
                1
            ],
            "emissiveTexture" : {
                "index" : 0
            },
            "name" : "Texture_Signs",
            "pbrMetallicRoughness" : {}
        },
        {
            "doubleSided" : true,
            "name" : "DarkGrey",
            "pbrMetallicRoughness" : {
                "baseColorFactor" : [
                    0.06680479645729065,
                    0.06680479645729065,
                    0.06680479645729065,
                    1
                ],
                "metallicFactor" : 0,
                "roughnessFactor" : 0.5
            }
        }
    ],
    "meshes" : [
        {
            "name" : "Cube.065",
            "primitives" : [
                {
                    "attributes" : {
                        "POSITION" : 0,
                        "NORMAL" : 1,
                        "TEXCOORD_0" : 2
                    },
                    "indices" : 3,
                    "material" : 0
                },
                {
                    "attributes" : {
                        "POSITION" : 4,
                        "NORMAL" : 5,
                        "TEXCOORD_0" : 6
                    },
                    "indices" : 7,
                    "material" : 1
                },
                {
                    "attributes" : {
                        "POSITION" : 8,
                        "NORMAL" : 9,
                        "TEXCOORD_0" : 10
                    },
                    "indices" : 11,
                    "material" : 2
                },
                {
                    "attributes" : {
                        "POSITION" : 12,
                        "NORMAL" : 13,
                        "TEXCOORD_0" : 14
                    },
                    "indices" : 15,
                    "material" : 3
                },
                {
                    "attributes" : {
                        "POSITION" : 16,
                        "NORMAL" : 17,
                        "TEXCOORD_0" : 18
                    },
                    "indices" : 19,
                    "material" : 4
                },
                {
                    "attributes" : {
                        "POSITION" : 20,
                        "NORMAL" : 21,
                        "TEXCOORD_0" : 22
                    },
                    "indices" : 23,
                    "material" : 5
                }
            ]
        }
    ],
    "textures" : [
        {
            "sampler" : 0,
            "source" : 0
        }
    ],
    "images" : [
        {
            "bufferView" : 20,
            "mimeType" : "image/png",
            "name" : "Sign"
        }
    ],
    "accessors" : [
        {
            "bufferView" : 0,
            "componentType" : 5126,
            "count" : 1444,
            "max" : [
                1.9159375429153442,
                0.10108871012926102,
                1.030727744102478
            ],
            "min" : [
                -1.9472501277923584,
                -1.7118147611618042,
                -0.5793725848197937
            ],
            "type" : "VEC3"
        },
        {
            "bufferView" : 1,
            "componentType" : 5126,
            "count" : 1444,
            "type" : "VEC3"
        },
        {
            "bufferView" : 2,
            "componentType" : 5126,
            "count" : 1444,
            "type" : "VEC2"
        },
        {
            "bufferView" : 3,
            "componentType" : 5123,
            "count" : 2520,
            "type" : "SCALAR"
        },
        {
            "bufferView" : 4,
            "componentType" : 5126,
            "count" : 1196,
            "max" : [
                1.9159375429153442,
                0.028447940945625305,
                1.0713883638381958
            ],
            "min" : [
                -1.9472501277923584,
                -1.995534896850586,
                -0.6376250982284546
            ],
            "type" : "VEC3"
        },
        {
            "bufferView" : 5,
            "componentType" : 5126,
            "count" : 1196,
            "type" : "VEC3"
        },
        {
            "bufferView" : 6,
            "componentType" : 5126,
            "count" : 1196,
            "type" : "VEC2"
        },
        {
            "bufferView" : 7,
            "componentType" : 5123,
            "count" : 2400,
            "type" : "SCALAR"
        },
        {
            "bufferView" : 8,
            "componentType" : 5126,
            "count" : 1019,
            "max" : [
                1.2149826288223267,
                -0.155356302857399,
                0.6851203441619873
            ],
            "min" : [
                -1.215680718421936,
                -2.7046968936920166,
                -0.6022512912750244
            ],
            "type" : "VEC3"
        },
        {
            "bufferView" : 9,
            "componentType" : 5126,
            "count" : 1019,
            "type" : "VEC3"
        },
        {
            "bufferView" : 10,
            "componentType" : 5126,
            "count" : 1019,
            "type" : "VEC2"
        },
        {
            "bufferView" : 11,
            "componentType" : 5123,
            "count" : 4506,
            "type" : "SCALAR"
        },
        {
            "bufferView" : 12,
            "componentType" : 5126,
            "count" : 544,
            "max" : [
                1.6050630807876587,
                -0.06225529685616493,
                0.5411431789398193
            ],
            "min" : [
                -1.7321538925170898,
                -0.8032134771347046,
                -0.5999245047569275
            ],
            "type" : "VEC3"
        },
        {
            "bufferView" : 13,
            "componentType" : 5126,
            "count" : 544,
            "type" : "VEC3"
        },
        {
            "bufferView" : 14,
            "componentType" : 5126,
            "count" : 544,
            "type" : "VEC2"
        },
        {
            "bufferView" : 15,
            "componentType" : 5123,
            "count" : 2976,
            "type" : "SCALAR"
        },
        {
            "bufferView" : 16,
            "componentType" : 5126,
            "count" : 274,
            "max" : [
                1.8870893716812134,
                -0.045693933963775635,
                0.6588312387466431
            ],
            "min" : [
                -1.9184019565582275,
                -1.6812278032302856,
                -0.502685546875
            ],
            "type" : "VEC3"
        },
        {
            "bufferView" : 17,
            "componentType" : 5126,
            "count" : 274,
            "type" : "VEC3"
        },
        {
            "bufferView" : 18,
            "componentType" : 5126,
            "count" : 274,
            "type" : "VEC2"
        },
        {
            "bufferView" : 19,
            "componentType" : 5123,
            "count" : 510,
            "type" : "SCALAR"
        },
        {
            "bufferView" : 21,
            "componentType" : 5126,
            "count" : 24,
            "max" : [
                -0.3103043735027313,
                0.04588880017399788,
                1.0919017791748047
            ],
            "min" : [
                -0.3543883264064789,
                0.0011061773402616382,
                1.0421011447906494
            ],
            "type" : "VEC3"
        },
        {
            "bufferView" : 22,
            "componentType" : 5126,
            "count" : 24,
            "type" : "VEC3"
        },
        {
            "bufferView" : 23,
            "componentType" : 5126,
            "count" : 24,
            "type" : "VEC2"
        },
        {
            "bufferView" : 24,
            "componentType" : 5123,
            "count" : 36,
            "type" : "SCALAR"
        }
    ],
    "bufferViews" : [
        {
            "buffer" : 0,
            "byteLength" : 17328,
            "byteOffset" : 0
        },
        {
            "buffer" : 0,
            "byteLength" : 17328,
            "byteOffset" : 17328
        },
        {
            "buffer" : 0,
            "byteLength" : 11552,
            "byteOffset" : 34656
        },
        {
            "buffer" : 0,
            "byteLength" : 5040,
            "byteOffset" : 46208
        },
        {
            "buffer" : 0,
            "byteLength" : 14352,
            "byteOffset" : 51248
        },
        {
            "buffer" : 0,
            "byteLength" : 14352,
            "byteOffset" : 65600
        },
        {
            "buffer" : 0,
            "byteLength" : 9568,
            "byteOffset" : 79952
        },
        {
            "buffer" : 0,
            "byteLength" : 4800,
            "byteOffset" : 89520
        },
        {
            "buffer" : 0,
            "byteLength" : 12228,
            "byteOffset" : 94320
        },
        {
            "buffer" : 0,
            "byteLength" : 12228,
            "byteOffset" : 106548
        },
        {
            "buffer" : 0,
            "byteLength" : 8152,
            "byteOffset" : 118776
        },
        {
            "buffer" : 0,
            "byteLength" : 9012,
            "byteOffset" : 126928
        },
        {
            "buffer" : 0,
            "byteLength" : 6528,
            "byteOffset" : 135940
        },
        {
            "buffer" : 0,
            "byteLength" : 6528,
            "byteOffset" : 142468
        },
        {
            "buffer" : 0,
            "byteLength" : 4352,
            "byteOffset" : 148996
        },
        {
            "buffer" : 0,
            "byteLength" : 5952,
            "byteOffset" : 153348
        },
        {
            "buffer" : 0,
            "byteLength" : 3288,
            "byteOffset" : 159300
        },
        {
            "buffer" : 0,
            "byteLength" : 3288,
            "byteOffset" : 162588
        },
        {
            "buffer" : 0,
            "byteLength" : 2192,
            "byteOffset" : 165876
        },
        {
            "buffer" : 0,
            "byteLength" : 1020,
            "byteOffset" : 168068
        },
        {
            "buffer" : 0,
            "byteLength" : 321879,
            "byteOffset" : 169088
        },
        {
            "buffer" : 0,
            "byteLength" : 288,
            "byteOffset" : 490968
        },
        {
            "buffer" : 0,
            "byteLength" : 288,
            "byteOffset" : 491256
        },
        {
            "buffer" : 0,
            "byteLength" : 192,
            "byteOffset" : 491544
        },
        {
            "buffer" : 0,
            "byteLength" : 72,
            "byteOffset" : 491736
        }
    ],
    "samplers" : [
        {
            "magFilter" : 9729,
            "minFilter" : 9987
        }
    ],
    "buffers" : [
        {
            "byteLength" : 491808,
            "uri" : "data:application/octet-stream;base64,"
        }
    ]
}
