# Blender v3.0.0 OBJ File: 'Rail_Short.blend'
# www.blender.org
mtllib Rail_Short.mtl
o Rail_Short_Cube.033
v 0.559772 0.170091 0.000116
v 0.616413 0.193912 0.000116
v 0.592461 0.181446 0.030242
v 0.592461 0.181446 -0.030010
v 0.597437 0.118731 -0.029792
v 0.597437 0.118731 0.030023
v 0.627242 0.119859 0.000116
v 0.567632 0.117602 0.000116
v 0.569162 0.196443 -0.029918
v 0.578553 0.222795 0.000116
v 0.569162 0.196443 0.030149
v 0.568509 0.168981 0.000116
v 0.576205 0.216207 0.022140
v 0.576205 0.216207 -0.021908
v 0.562120 0.176679 -0.022910
v 0.562120 0.176679 0.023142
v 0.475907 0.226696 0.000116
v 0.470556 0.168506 0.000116
v 0.473232 0.197601 -0.029714
v 0.473232 0.197601 0.029946
v 0.601435 0.212952 0.000116
v 0.574496 0.172097 0.023352
v 0.583973 0.191911 -0.030090
v 0.610424 0.190795 0.022069
v 0.583972 0.191911 0.030321
v 0.610424 0.190795 -0.021837
v 0.566509 0.170870 0.000116
v 0.574496 0.172097 -0.023121
v 0.596368 0.159052 0.030085
v 0.568104 0.154524 0.000116
v 0.596368 0.159051 -0.029853
v 0.624632 0.163579 0.000116
v 0.619791 0.119577 -0.022134
v 0.575083 0.117884 0.022727
v 0.575083 0.117884 -0.022495
v 0.619791 0.119577 0.022366
v 0.567124 -0.007305 0.000116
v 0.627047 -0.007305 0.000116
v 0.597086 -0.007305 0.030009
v 0.597086 -0.007305 -0.029777
v 0.471225 0.175780 0.022663
v 0.475239 0.219422 0.022314
v 0.471225 0.175780 -0.022431
v 0.475239 0.219422 -0.022082
v 0.597070 0.207692 -0.021791
v 0.570875 0.176131 -0.023286
v 0.597070 0.207692 0.022023
v 0.570875 0.176131 0.023517
v 0.575170 0.155656 0.022979
v 0.617566 0.162447 0.022206
v 0.575170 0.155656 -0.022747
v 0.617566 0.162447 -0.021975
v 0.619557 -0.007305 -0.022304
v 0.574615 -0.007305 -0.022304
v 0.574615 -0.007305 0.022536
v 0.619557 -0.007305 0.022536
v 0.585026 0.130802 0.000049
v 0.585026 0.105581 0.000049
v 0.585026 0.118088 -0.004108
v 0.585026 0.118086 0.004340
v 0.585026 0.106544 0.002515
v 0.585026 0.129807 0.002203
v 0.585026 0.106570 -0.002316
v 0.585026 0.129778 -0.002007
v 0.000000 0.229209 -0.000393
v 0.000000 0.169394 -0.000393
v -0.000000 0.199301 0.029412
v 0.000000 0.199301 -0.030198
v -0.000000 0.221551 0.021961
v 0.000000 0.176690 -0.022747
v 0.000000 0.221912 -0.022747
v -0.000000 0.177051 0.021961
v -0.559772 0.170091 0.000116
v -0.616413 0.193912 0.000116
v -0.592461 0.181446 0.030242
v -0.592461 0.181446 -0.030010
v -0.597437 0.118731 -0.029792
v -0.597437 0.118731 0.030023
v -0.627242 0.119859 0.000116
v -0.567632 0.117602 0.000116
v -0.569162 0.196443 -0.029918
v -0.578553 0.222795 0.000116
v -0.569162 0.196443 0.030149
v -0.568509 0.168981 0.000116
v -0.576205 0.216207 0.022140
v -0.576205 0.216207 -0.021908
v -0.562120 0.176679 -0.022910
v -0.562120 0.176679 0.023142
v -0.475907 0.226696 0.000116
v -0.470556 0.168506 0.000116
v -0.473232 0.197601 -0.029714
v -0.473232 0.197601 0.029946
v -0.601435 0.212952 0.000116
v -0.574496 0.172097 0.023352
v -0.583973 0.191911 -0.030090
v -0.610424 0.190795 0.022069
v -0.583972 0.191911 0.030321
v -0.610424 0.190795 -0.021837
v -0.566509 0.170870 0.000116
v -0.574496 0.172097 -0.023121
v -0.596368 0.159052 0.030085
v -0.568104 0.154524 0.000116
v -0.596368 0.159051 -0.029853
v -0.624632 0.163579 0.000116
v -0.619791 0.119577 -0.022134
v -0.575083 0.117884 0.022727
v -0.575083 0.117884 -0.022495
v -0.619791 0.119577 0.022366
v -0.567124 -0.007305 0.000116
v -0.627047 -0.007305 0.000116
v -0.597086 -0.007305 0.030009
v -0.597086 -0.007305 -0.029777
v -0.471225 0.175780 0.022663
v -0.475239 0.219422 0.022314
v -0.471225 0.175780 -0.022431
v -0.475239 0.219422 -0.022082
v -0.597070 0.207692 -0.021791
v -0.570875 0.176131 -0.023286
v -0.597070 0.207692 0.022023
v -0.570875 0.176131 0.023517
v -0.575170 0.155656 0.022979
v -0.617566 0.162447 0.022206
v -0.575170 0.155656 -0.022747
v -0.617566 0.162447 -0.021975
v -0.619557 -0.007305 -0.022304
v -0.574615 -0.007305 -0.022304
v -0.574615 -0.007305 0.022536
v -0.619557 -0.007305 0.022536
v 0.000000 0.133312 -0.000711
v 0.000000 0.106468 -0.000707
v -0.000000 0.119866 0.003810
v 0.000000 0.119866 -0.004592
v -0.000000 0.132243 0.001484
v 0.000000 0.107288 -0.002400
v 0.000000 0.132476 -0.002419
v -0.000000 0.107521 0.001465
v -0.585026 0.130802 0.000049
v -0.585026 0.105581 0.000049
v -0.585026 0.118088 -0.004108
v -0.585026 0.118086 0.004340
v -0.585026 0.106544 0.002515
v -0.585026 0.129807 0.002203
v -0.585026 0.106570 -0.002316
v -0.585026 0.129778 -0.002008
vt 0.000000 0.000000
vt 0.000000 0.000000
vt 0.000000 0.000000
vt 0.000000 0.000000
vt 0.000000 0.000000
vt 0.000000 0.000000
vt 0.000000 0.000000
vt 0.000000 0.000000
vt 0.000000 0.000000
vt 0.000000 0.000000
vt 0.000000 0.000000
vt 0.000000 0.000000
vt 0.000000 0.000000
vt 0.000000 0.000000
vt 0.000000 0.000000
vt 0.000000 0.000000
vt 0.000000 0.000000
vt 0.000000 0.000000
vt 0.000000 0.000000
vt 0.000000 0.000000
vt 0.000000 0.000000
vt 0.000000 0.000000
vt 0.000000 0.000000
vt 0.000000 0.000000
vt 0.000000 0.000000
vt 0.000000 0.000000
vt 0.000000 0.000000
vt 0.000000 0.000000
vt 0.000000 0.000000
vt 0.000000 0.000000
vt 0.000000 0.000000
vt 0.000000 0.000000
vt 0.000000 0.000000
vt 0.000000 0.000000
vt 0.000000 0.000000
vt 0.000000 0.000000
vt 0.000000 0.000000
vt 0.000000 0.000000
vt 0.000000 0.000000
vt 0.000000 0.000000
vt 0.000000 0.000000
vt 0.000000 0.000000
vt 0.000000 0.000000
vt 0.000000 0.000000
vt 0.000000 0.000000
vt 0.000000 0.000000
vt 0.000000 0.000000
vt 0.000000 0.000000
vt 0.000000 0.000000
vt 0.000000 0.000000
vt 0.000000 0.000000
vt 0.000000 0.000000
vt 0.000000 0.000000
vt 0.000000 0.000000
vt 0.000000 0.000000
vt 0.000000 0.000000
vt 0.000000 0.000000
vt 0.000000 0.000000
vt 0.000000 0.000000
vt 0.000000 0.000000
vt 0.000000 0.000000
vt 0.000000 0.000000
vt 0.000000 0.000000
vt 0.000000 0.000000
vt 0.000000 0.000000
vt 0.000000 0.000000
vt 0.000000 0.000000
vt 0.000000 0.000000
vt 0.000000 0.000000
vt 0.000000 0.000000
vt 0.000000 0.000000
vt 0.000000 0.000000
vt 0.000000 0.000000
vt 0.000000 0.000000
vt 0.000000 0.000000
vt 0.000000 0.000000
vt 0.000000 0.000000
vt 0.000000 0.000000
vt 0.000000 0.000000
vt 0.000000 0.000000
vt 0.000000 0.000000
vt 0.000000 0.000000
vt 0.000000 0.000000
vt 0.000000 0.000000
vt 0.000000 0.000000
vt 0.000000 0.000000
vt 0.000000 0.000000
vt 0.000000 0.000000
vt 0.000000 0.000000
vt 0.000000 0.000000
vt 0.000000 0.000000
vt 0.000000 0.000000
vt 0.000000 0.000000
vt 0.000000 0.000000
vt 0.000000 0.000000
vt 0.000000 0.000000
vt 0.000000 0.000000
vt 0.000000 0.000000
vt 0.000000 0.000000
vt 0.000000 0.000000
vt 0.000000 0.000000
vt 0.000000 0.000000
vt 0.000000 0.000000
vt 0.000000 0.000000
vt 0.000000 0.000000
vt 0.000000 0.000000
vt 0.000000 0.000000
vt 0.000000 0.000000
vt 0.000000 0.000000
vt 0.000000 0.000000
vt 0.000000 0.000000
vt 0.000000 0.000000
vt 0.000000 0.000000
vt 0.000000 0.000000
vt 0.000000 0.000000
vt 0.000000 0.000000
vt 0.000000 0.000000
vt 0.000000 0.000000
vt 0.000000 0.000000
vt 0.000000 0.000000
vt 0.000000 0.000000
vt 0.000000 0.000000
vt 0.000000 0.000000
vt 0.000000 0.000000
vt 0.000000 0.000000
vt 0.000000 0.000000
vt 0.000000 0.000000
vt 0.000000 0.000000
vt 0.000000 0.000000
vt 0.000000 0.000000
vt 0.000000 0.000000
vt 0.000000 0.000000
vt 0.000000 0.000000
vt 0.000000 0.000000
vt 0.000000 0.000000
vt 0.000000 0.000000
vt 0.000000 0.000000
vt 0.000000 0.000000
vt 0.000000 0.000000
vt 0.000000 0.000000
vt 0.000000 0.000000
vt 0.000000 0.000000
vt 0.000000 0.000000
vt 0.000000 0.000000
vn 0.0000 -0.7090 -0.7052
vn 0.0021 -0.7157 -0.6984
vn 0.0053 -1.0000 0.0020
vn -0.0000 -1.0000 0.0034
vn 0.0110 -0.9999 -0.0000
vn -0.3644 -0.9312 0.0000
vn -0.2823 -0.5822 0.7625
vn -0.0163 -0.7249 0.6887
vn 0.0012 -0.7148 0.6993
vn -0.0163 -0.7249 -0.6887
vn -0.2823 -0.5822 -0.7625
vn 0.8947 0.4467 -0.0000
vn 0.9877 0.1561 0.0000
vn 0.7270 0.1101 -0.6778
vn 0.6779 0.3349 -0.6545
vn 0.4576 0.6082 -0.6486
vn 0.6072 0.7946 -0.0000
vn 0.4576 0.6082 0.6486
vn 0.6779 0.3349 0.6545
vn 0.7270 0.1101 0.6778
vn 0.0750 0.0331 0.9966
vn 0.0302 0.0095 0.9995
vn 0.0559 0.0715 0.9959
vn -0.6023 -0.2622 0.7540
vn -0.7158 -0.0173 0.6981
vn 0.0750 0.0331 -0.9966
vn 0.0302 0.0095 -0.9995
vn -0.7158 -0.0173 -0.6981
vn -0.6023 -0.2622 -0.7540
vn 0.0560 0.0715 -0.9959
vn 0.0104 0.0017 -0.9999
vn 0.0031 0.0000 -1.0000
vn -0.7071 0.0021 -0.7071
vn -0.7088 0.0006 -0.7054
vn 0.7151 0.0186 -0.6988
vn 0.7076 -0.0009 -0.7066
vn 0.0104 0.0017 0.9999
vn 0.0031 0.0000 1.0000
vn 0.7076 -0.0009 0.7066
vn 0.7151 0.0186 0.6988
vn -0.7088 0.0007 0.7054
vn -0.7071 0.0021 0.7071
vn 0.9996 0.0275 0.0000
vn 1.0000 -0.0015 -0.0000
vn -1.0000 0.0050 -0.0000
vn -1.0000 0.0036 -0.0000
vn -1.0000 -0.0026 0.0000
vn 0.0101 0.0475 -0.9988
vn 0.0015 0.0091 -1.0000
vn 0.0137 0.7201 -0.6937
vn 0.1563 0.7330 -0.6621
vn 0.2194 0.9756 0.0000
vn 0.0204 0.9998 0.0019
vn 0.0128 0.7192 0.6947
vn 0.1563 0.7330 0.6621
vn 0.0101 0.0475 0.9988
vn 0.0004 0.0092 1.0000
vn -0.9274 -0.3740 0.0000
vn -0.0000 -0.7075 0.7068
vn 0.0000 0.0042 -1.0000
vn -0.0000 0.0043 1.0000
vn -0.0000 1.0000 0.0034
vn 0.0000 0.7115 -0.7027
vn -0.0000 0.7101 0.7041
vn 0.0000 -0.6109 -0.7917
vn -0.0005 -0.6114 -0.7913
vn -0.0017 -1.0000 -0.0045
vn 0.0000 -1.0000 -0.0051
vn -0.0022 -0.6186 0.7857
vn -0.0000 -0.6185 0.7858
vn 0.0000 0.0054 -1.0000
vn 0.0008 0.0048 -1.0000
vn -0.0011 0.0048 1.0000
vn -0.0000 0.0055 1.0000
vn 0.0000 1.0000 -0.0082
vn 0.0043 1.0000 -0.0075
vn 0.0033 0.5988 -0.8009
vn 0.0000 0.6003 -0.7998
vn 0.0016 0.6085 0.7935
vn -0.0000 0.6104 0.7921
vn -0.0053 -1.0000 0.0020
vn -0.0021 -0.7157 -0.6984
vn -0.0110 -0.9999 -0.0000
vn 0.0163 -0.7249 0.6887
vn 0.2823 -0.5822 0.7625
vn 0.3644 -0.9312 0.0000
vn -0.0012 -0.7148 0.6993
vn 0.0163 -0.7249 -0.6887
vn 0.2823 -0.5822 -0.7625
vn -0.8947 0.4467 -0.0000
vn -0.6779 0.3349 -0.6545
vn -0.7270 0.1101 -0.6778
vn -0.9877 0.1561 0.0000
vn -0.6072 0.7946 -0.0000
vn -0.4576 0.6082 -0.6486
vn -0.6779 0.3349 0.6545
vn -0.4576 0.6082 0.6486
vn -0.7270 0.1101 0.6778
vn -0.0750 0.0331 0.9966
vn -0.0302 0.0095 0.9995
vn -0.0559 0.0715 0.9959
vn 0.6023 -0.2622 0.7540
vn 0.7158 -0.0173 0.6981
vn -0.0750 0.0331 -0.9966
vn 0.6023 -0.2622 -0.7540
vn 0.7158 -0.0173 -0.6981
vn -0.0302 0.0095 -0.9995
vn -0.0560 0.0715 -0.9959
vn -0.0104 0.0017 -0.9999
vn 0.7088 0.0006 -0.7054
vn 0.7071 0.0021 -0.7071
vn -0.0031 0.0000 -1.0000
vn -0.7151 0.0186 -0.6988
vn -0.7076 -0.0009 -0.7066
vn -0.0104 0.0017 0.9999
vn -0.7151 0.0186 0.6988
vn -0.7076 -0.0009 0.7066
vn -0.0031 0.0000 1.0000
vn 0.7088 0.0007 0.7054
vn 0.7071 0.0021 0.7071
vn -0.9996 0.0275 0.0000
vn -1.0000 -0.0015 -0.0000
vn 1.0000 0.0050 -0.0000
vn 1.0000 0.0036 -0.0000
vn 1.0000 -0.0026 0.0000
vn -0.0101 0.0475 -0.9988
vn -0.0015 0.0091 -1.0000
vn -0.1563 0.7330 -0.6621
vn -0.0137 0.7201 -0.6937
vn -0.2194 0.9756 0.0000
vn -0.0204 0.9998 0.0019
vn -0.1563 0.7330 0.6621
vn -0.0128 0.7192 0.6947
vn -0.0101 0.0475 0.9988
vn -0.0004 0.0092 1.0000
vn 0.9274 -0.3740 0.0000
vn 0.0017 -1.0000 -0.0045
vn 0.0005 -0.6114 -0.7913
vn 0.0022 -0.6186 0.7857
vn -0.0008 0.0048 -1.0000
vn 0.0011 0.0048 1.0000
vn -0.0033 0.5988 -0.8009
vn -0.0043 1.0000 -0.0075
vn -0.0016 0.6085 0.7935
usemtl Black
s 1
f 70/1/1 43/2/2 18/3/3 66/4/4
f 1/5/5 27/6/6 48/7/7 16/8/8
f 1/5/5 16/8/8 41/9/9 18/3/3
f 1/5/5 18/3/3 43/2/2 15/10/10
f 1/5/5 15/10/10 46/11/11 27/6/6
f 2/12/12 32/13/13 52/14/14 26/15/15
f 2/12/12 26/15/15 45/16/16 21/17/17
f 2/12/12 21/17/17 47/18/18 24/19/19
f 2/12/12 24/19/19 50/20/20 32/13/13
f 3/21/21 29/22/22 50/20/20 24/19/19
f 3/21/21 24/19/19 47/18/18 25/23/23
f 3/21/21 25/23/23 48/7/7 22/24/24
f 3/21/21 22/24/24 49/25/25 29/22/22
f 4/26/26 31/27/27 51/28/28 28/29/29
f 4/26/26 28/29/29 46/11/11 23/30/30
f 4/26/26 23/30/30 45/16/16 26/15/15
f 4/26/26 26/15/15 52/14/14 31/27/27
f 5/31/31 40/32/32 54/33/33 35/34/34
f 5/31/31 35/34/34 51/28/28 31/27/27
f 5/31/31 31/27/27 52/14/14 33/35/35
f 5/31/31 33/35/35 53/36/36 40/32/32
f 6/37/37 39/38/38 56/39/39 36/40/40
f 6/37/37 36/40/40 50/20/20 29/22/22
f 6/37/37 29/22/22 49/25/25 34/41/41
f 6/37/37 34/41/41 55/42/42 39/38/38
f 7/43/43 38/44/44 53/36/36 33/35/35
f 7/43/43 33/35/35 52/14/14 32/13/13
f 7/43/43 32/13/13 50/20/20 36/40/40
f 7/43/43 36/40/40 56/39/39 38/44/44
f 8/45/45 37/46/46 55/42/42 34/41/41
f 8/45/45 34/41/41 49/25/25 30/47/47
f 8/45/45 30/47/47 51/28/28 35/34/34
f 8/45/45 35/34/34 54/33/33 37/46/46
f 9/48/48 23/30/30 46/11/11 15/10/10
f 9/48/48 15/10/10 43/2/2 19/49/49
f 9/48/48 19/49/49 44/50/50 14/51/51
f 9/48/48 14/51/51 45/16/16 23/30/30
f 10/52/52 21/17/17 45/16/16 14/51/51
f 10/52/52 14/51/51 44/50/50 17/53/53
f 10/52/52 17/53/53 42/54/54 13/55/55
f 10/52/52 13/55/55 47/18/18 21/17/17
f 11/56/56 25/23/23 47/18/18 13/55/55
f 11/56/56 13/55/55 42/54/54 20/57/57
f 11/56/56 20/57/57 41/9/9 16/8/8
f 11/56/56 16/8/8 48/7/7 25/23/23
f 12/58/58 30/47/47 49/25/25 22/24/24
f 12/58/58 22/24/24 48/7/7 27/6/6
f 12/58/58 27/6/6 46/11/11 28/29/29
f 12/58/58 28/29/29 51/28/28 30/47/47
f 66/4/4 18/3/3 41/9/9 72/59/59
f 68/60/60 19/49/49 43/2/2 70/1/1
f 72/59/59 41/9/9 20/57/57 67/61/61
f 65/62/62 17/53/53 44/50/50 71/63/63
f 71/63/63 44/50/50 19/49/49 68/60/60
f 67/61/61 20/57/57 42/54/54 69/64/64
f 69/64/64 42/54/54 17/53/53 65/62/62
f 134/65/65 63/66/66 58/67/67 130/68/68
f 130/68/68 58/67/67 61/69/69 136/70/70
f 132/71/71 59/72/72 63/66/66 134/65/65
f 136/70/70 61/69/69 60/73/73 131/74/74
f 129/75/75 57/76/76 64/77/77 135/78/78
f 135/78/78 64/77/77 59/72/72 132/71/71
f 131/74/74 60/73/73 62/79/79 133/80/80
f 133/80/80 62/79/79 57/76/76 129/75/75
f 70/1/1 66/4/4 90/81/81 115/82/82
f 73/83/83 88/84/84 120/85/85 99/86/86
f 73/83/83 90/81/81 113/87/87 88/84/84
f 73/83/83 87/88/88 115/82/82 90/81/81
f 73/83/83 99/86/86 118/89/89 87/88/88
f 74/90/90 98/91/91 124/92/92 104/93/93
f 74/90/90 93/94/94 117/95/95 98/91/91
f 74/90/90 96/96/96 119/97/97 93/94/94
f 74/90/90 104/93/93 122/98/98 96/96/96
f 75/99/99 96/96/96 122/98/98 101/100/100
f 75/99/99 97/101/101 119/97/97 96/96/96
f 75/99/99 94/102/102 120/85/85 97/101/101
f 75/99/99 101/100/100 121/103/103 94/102/102
f 76/104/104 100/105/105 123/106/106 103/107/107
f 76/104/104 95/108/108 118/89/89 100/105/105
f 76/104/104 98/91/91 117/95/95 95/108/108
f 76/104/104 103/107/107 124/92/92 98/91/91
f 77/109/109 107/110/110 126/111/111 112/112/112
f 77/109/109 103/107/107 123/106/106 107/110/110
f 77/109/109 105/113/113 124/92/92 103/107/107
f 77/109/109 112/112/112 125/114/114 105/113/113
f 78/115/115 108/116/116 128/117/117 111/118/118
f 78/115/115 101/100/100 122/98/98 108/116/116
f 78/115/115 106/119/119 121/103/103 101/100/100
f 78/115/115 111/118/118 127/120/120 106/119/119
f 79/121/121 105/113/113 125/114/114 110/122/122
f 79/121/121 104/93/93 124/92/92 105/113/113
f 79/121/121 108/116/116 122/98/98 104/93/93
f 79/121/121 110/122/122 128/117/117 108/116/116
f 80/123/123 106/119/119 127/120/120 109/124/124
f 80/123/123 102/125/125 121/103/103 106/119/119
f 80/123/123 107/110/110 123/106/106 102/125/125
f 80/123/123 109/124/124 126/111/111 107/110/110
f 81/126/126 87/88/88 118/89/89 95/108/108
f 81/126/126 91/127/127 115/82/82 87/88/88
f 81/126/126 86/128/128 116/129/129 91/127/127
f 81/126/126 95/108/108 117/95/95 86/128/128
f 82/130/130 86/128/128 117/95/95 93/94/94
f 82/130/130 89/131/131 116/129/129 86/128/128
f 82/130/130 85/132/132 114/133/133 89/131/131
f 82/130/130 93/94/94 119/97/97 85/132/132
f 83/134/134 85/132/132 119/97/97 97/101/101
f 83/134/134 92/135/135 114/133/133 85/132/132
f 83/134/134 88/84/84 113/87/87 92/135/135
f 83/134/134 97/101/101 120/85/85 88/84/84
f 84/136/136 94/102/102 121/103/103 102/125/125
f 84/136/136 99/86/86 120/85/85 94/102/102
f 84/136/136 100/105/105 118/89/89 99/86/86
f 84/136/136 102/125/125 123/106/106 100/105/105
f 66/4/4 72/59/59 113/87/87 90/81/81
f 68/60/60 70/1/1 115/82/82 91/127/127
f 72/59/59 67/61/61 92/135/135 113/87/87
f 65/62/62 71/63/63 116/129/129 89/131/131
f 71/63/63 68/60/60 91/127/127 116/129/129
f 67/61/61 69/64/64 114/133/133 92/135/135
f 69/64/64 65/62/62 89/131/131 114/133/133
f 134/65/65 130/68/68 138/137/137 143/138/138
f 130/68/68 136/70/70 141/139/139 138/137/137
f 132/71/71 134/65/65 143/138/138 139/140/140
f 136/70/70 131/74/74 140/141/141 141/139/139
f 129/75/75 135/78/78 144/142/142 137/143/143
f 135/78/78 132/71/71 139/140/140 144/142/142
f 131/74/74 133/80/80 142/144/144 140/141/141
f 133/80/80 129/75/75 137/143/143 142/144/144
