# Blender v3.0.0 OBJ File: 'Sign_Corner_Small1.blend'
# www.blender.org
mtllib Sign_Corner_Small1.mtl
o Sign_Corner_Small1_Plane.009
v -0.493527 -0.320107 0.038523
v 0.030539 0.320107 -0.527664
v -0.493527 0.320107 0.038523
v 0.030539 -0.320107 -0.527664
v 0.030539 -0.320107 -0.245476
v -0.253460 -0.320107 0.038523
v 0.008921 -0.320107 -0.136794
v -0.052642 -0.320107 -0.044658
v -0.144778 -0.320107 0.016905
v -0.253460 0.320107 0.038523
v 0.030539 0.320107 -0.245476
v -0.144778 0.320107 0.016905
v -0.052642 0.320107 -0.044658
v 0.008921 0.320107 -0.136794
v -0.495769 -0.305717 -0.021917
v -0.052884 0.305717 -0.528303
v -0.495769 0.305717 -0.021917
v -0.052884 -0.305717 -0.528303
v -0.052884 -0.305717 -0.293149
v -0.324116 -0.305717 -0.021917
v -0.073530 -0.305717 -0.189353
v -0.132326 -0.305717 -0.101359
v -0.220320 -0.305717 -0.042563
v -0.324116 0.305717 -0.021917
v -0.052884 0.305717 -0.293149
v -0.220320 0.305717 -0.042563
v -0.132326 0.305717 -0.101359
v -0.073530 0.305717 -0.189353
v -0.529475 -0.363452 0.029844
v 0.023699 0.363452 -0.564845
v -0.529475 0.363452 0.029844
v 0.023699 -0.363452 -0.564846
v 0.021630 -0.363452 -0.246568
v -0.255054 -0.363452 0.027330
v 0.001357 -0.363452 -0.140089
v -0.058569 -0.363452 -0.050384
v -0.148753 -0.363452 0.008590
v -0.255054 0.363452 0.027330
v 0.021630 0.363452 -0.246568
v -0.148753 0.363452 0.008590
v -0.058569 0.363452 -0.050384
v 0.001357 0.363452 -0.140089
v -0.538577 -0.363452 -0.028768
v -0.058925 0.363452 -0.570002
v -0.538577 0.363452 -0.028768
v -0.058925 -0.363452 -0.570002
v -0.062046 -0.363452 -0.293788
v -0.324693 -0.363452 -0.034244
v -0.081294 -0.363452 -0.192332
v -0.138046 -0.363452 -0.107373
v -0.223406 -0.363452 -0.051978
v -0.324693 0.363452 -0.034244
v -0.062046 0.363452 -0.293788
v -0.223406 0.363452 -0.051978
v -0.138046 0.363452 -0.107373
v -0.081294 0.363452 -0.192331
v -0.491804 -0.311540 0.005789
v 0.004231 0.311539 -0.516483
v -0.491804 0.311539 0.005790
v 0.004231 -0.311540 -0.516483
v 0.004231 -0.311540 -0.270608
v -0.272166 -0.311540 0.005789
v -0.016808 -0.311540 -0.164835
v -0.076724 -0.311540 -0.075166
v -0.166393 -0.311540 -0.015250
v -0.272166 0.311539 0.005790
v 0.004231 0.311539 -0.270608
v -0.166393 0.311539 -0.015250
v -0.076724 0.311539 -0.075165
v -0.016808 0.311539 -0.164835
vt 0.608048 0.157159
vt 0.645467 0.157159
vt 0.645467 0.253171
vt 0.608048 0.253171
vt 0.611493 0.246096
vt 0.611493 0.250499
vt 0.610939 0.250499
vt 0.610939 0.246096
vt 0.700586 0.157159
vt 0.700586 0.253171
vt 0.682213 0.253171
vt 0.682213 0.157159
vt 0.663840 0.253171
vt 0.663840 0.157159
vt 0.612757 0.246096
vt 0.612757 0.250499
vt 0.000000 0.000000
vt 0.000000 0.000000
vt 0.000000 0.000000
vt 0.000000 0.000000
vt 0.000000 0.000000
vt 0.000000 0.000000
vt 0.000000 0.000000
vt 0.000000 0.000000
vt 0.000000 0.000000
vt 0.000000 0.000000
vt 0.000000 0.000000
vt 0.000000 0.000000
vt 0.000000 0.000000
vt 0.000000 0.000000
vt 0.000000 0.000000
vt 0.000000 0.000000
vt 0.000000 0.000000
vt 0.000000 0.000000
vt 0.000000 0.000000
vt 0.000000 0.000000
vt 0.000000 0.000000
vt 0.000000 0.000000
vt 0.000000 0.000000
vt 0.000000 0.000000
vt 0.000000 0.000000
vt 0.000000 0.000000
vt 0.000000 0.000000
vt 0.000000 0.000000
vt 0.000000 0.000000
vt 0.000000 0.000000
vt 0.000000 0.000000
vt 0.000000 0.000000
vt 0.000000 0.000000
vt 0.000000 0.000000
vt 0.000000 0.000000
vt 0.000000 0.000000
vt 0.000000 0.000000
vt 0.000000 0.000000
vt 0.000000 0.000000
vt 0.000000 0.000000
vt 0.000000 0.000000
vt 0.000000 0.000000
vt 0.000000 0.000000
vt 0.000000 0.000000
vt 0.000000 0.000000
vt 0.000000 0.000000
vt 0.000000 0.000000
vt 0.000000 0.000000
vt 0.000000 0.000000
vt 0.000000 0.000000
vt 0.000000 0.000000
vt 0.000000 0.000000
vt 0.000000 0.000000
vt 0.000000 0.000000
vt 0.000000 0.000000
vt 0.000000 0.000000
vn 0.0000 -0.0000 1.0000
vn 0.0980 -0.0000 0.9952
vn 0.9952 -0.0000 0.0980
vn 0.9239 -0.0000 0.3827
vn 0.7071 -0.0000 0.7071
vn 0.3827 -0.0000 0.9239
vn 1.0000 0.0000 0.0000
vn 0.1059 0.9891 0.1022
vn 0.1022 0.9890 0.1074
vn 0.0551 0.9842 0.1681
vn 0.0710 0.9864 0.1485
vn 0.0710 -0.9864 0.1485
vn 0.0551 -0.9842 0.1681
vn 0.1022 -0.9890 0.1074
vn 0.1059 -0.9891 0.1022
vn 0.9993 -0.0000 -0.0371
vn 0.0103 0.9754 0.2202
vn 0.0285 0.9794 0.1999
vn -0.0077 0.0000 1.0000
vn 0.0285 -0.9794 0.1999
vn 0.0103 -0.9754 0.2202
vn 0.1591 0.9871 0.0195
vn 0.1636 0.9865 0.0114
vn 0.1387 0.9889 0.0532
vn 0.1351 0.9891 0.0589
vn 0.1591 -0.9871 0.0195
vn 0.1636 -0.9865 0.0114
vn 0.1700 -0.9854 0.0000
vn 0.1351 -0.9891 0.0589
vn 0.1387 -0.9889 0.0532
vn 0.1700 0.9854 -0.0000
vn 0.0000 0.9728 0.2316
vn 0.0000 -0.9728 0.2316
vn 0.0000 -1.0000 0.0000
vn 0.0000 1.0000 0.0000
vn -0.9882 -0.0000 0.1534
vn 0.0623 0.0000 -0.9981
vn -0.1212 -0.1098 0.9865
vn -0.1212 0.1098 0.9865
vn -0.1026 0.1274 0.9865
vn -0.1026 -0.1274 0.9865
vn 0.9918 0.0879 -0.0925
vn 0.9918 -0.0879 -0.0925
vn 0.9918 -0.0995 -0.0806
vn 0.9918 0.0995 -0.0806
vn 0.9776 -0.1872 0.0962
vn 0.9073 -0.1919 0.3743
vn 0.9076 -0.1919 0.3734
vn 0.9777 -0.1871 0.0956
vn 0.9073 0.1919 0.3743
vn 0.9776 0.1872 0.0962
vn 0.9777 0.1871 0.0956
vn 0.9076 0.1919 0.3734
vn 0.6926 -0.1928 0.6951
vn 0.6919 -0.1928 0.6957
vn 0.6926 0.1928 0.6951
vn 0.6919 0.1928 0.6957
vn 0.3686 -0.2146 0.9045
vn 0.3657 -0.2149 0.9056
vn 0.3686 0.2146 0.9045
vn 0.3657 0.2149 0.9056
vn 0.0932 -0.2270 0.9694
vn 0.0919 -0.2270 0.9695
vn 0.0932 0.2270 0.9694
vn 0.0919 0.2270 0.9695
vn 0.0779 -0.0798 -0.9938
vn 0.0779 0.0798 -0.9938
vn 0.0564 0.1009 -0.9933
vn 0.0564 -0.1009 -0.9933
vn -0.9953 0.0622 0.0741
vn -0.9953 -0.0622 0.0741
vn -0.9953 -0.0801 0.0539
vn -0.9953 0.0801 0.0539
vn -0.9149 0.1464 -0.3762
vn -0.9852 0.1410 -0.0975
vn -0.9851 0.1411 -0.0981
vn -0.9146 0.1464 -0.3770
vn -0.9852 -0.1410 -0.0975
vn -0.9149 -0.1464 -0.3762
vn -0.9146 -0.1464 -0.3770
vn -0.9851 -0.1411 -0.0981
vn -0.6968 0.1483 -0.7017
vn -0.6974 0.1483 -0.7012
vn -0.6968 -0.1483 -0.7017
vn -0.6974 -0.1483 -0.7012
vn -0.3678 0.1731 -0.9136
vn -0.3704 0.1729 -0.9126
vn -0.3678 -0.1731 -0.9136
vn -0.3704 -0.1729 -0.9126
vn -0.0971 0.1788 -0.9791
vn -0.0983 0.1789 -0.9789
vn -0.0971 -0.1788 -0.9791
vn -0.0983 -0.1789 -0.9789
usemtl Texture_Signs
s 1
f 57/1/1 62/2/2 66/3/2 59/4/1
f 61/5/3 67/6/3 70/7/4 63/8/4
f 63/9/4 70/10/4 69/11/5 64/12/5
f 64/12/5 69/11/5 68/13/6 65/14/6
f 65/14/6 68/13/6 66/3/2 62/2/2
f 67/6/3 61/5/3 60/15/7 58/16/7
usemtl DarkGrey
f 8/17/8 22/18/9 23/19/10 9/20/11
f 12/21/12 26/22/13 27/23/14 13/24/15
f 1/25/16 15/26/16 17/27/16 3/28/16
f 9/20/11 23/19/10 20/29/17 6/30/18
f 2/31/19 16/32/19 18/33/19 4/34/19
f 10/35/20 24/36/21 26/22/13 12/21/12
f 5/37/22 19/38/23 21/39/24 7/40/25
f 11/41/26 25/42/27 16/32/28 2/31/28
f 14/43/29 28/44/30 25/42/27 11/41/26
f 4/34/31 18/33/31 19/38/23 5/37/22
f 7/40/25 21/39/24 22/18/9 8/17/8
f 6/30/18 20/29/17 15/26/32 1/25/32
f 13/24/15 27/23/14 28/44/30 14/43/29
f 3/28/33 17/27/33 24/36/21 10/35/20
f 36/45/34 37/46/34 51/47/34 50/48/34
f 40/49/35 41/50/35 55/51/35 54/52/35
f 29/53/36 31/54/36 45/55/36 43/56/36
f 37/46/34 34/57/34 48/58/34 51/47/34
f 30/59/37 32/60/37 46/61/37 44/62/37
f 38/63/35 40/49/35 54/52/35 52/64/35
f 33/65/34 35/66/34 49/67/34 47/68/34
f 39/69/35 30/59/35 44/62/35 53/70/35
f 42/71/35 39/69/35 53/70/35 56/72/35
f 32/60/34 33/65/34 47/68/34 46/61/34
f 35/66/34 36/45/34 50/48/34 49/67/34
f 34/57/34 29/53/34 43/56/34 48/58/34
f 41/50/35 42/71/35 56/72/35 55/51/35
f 31/54/35 38/63/35 52/64/35 45/55/35
f 1/25/38 3/28/39 31/54/40 29/53/41
f 2/31/42 4/34/43 32/60/44 30/59/45
f 5/37/46 7/40/47 35/66/48 33/65/49
f 14/43/50 11/41/51 39/69/52 42/71/53
f 7/40/47 8/17/54 36/45/55 35/66/48
f 13/24/56 14/43/50 42/71/53 41/50/57
f 8/17/54 9/20/58 37/46/59 36/45/55
f 12/21/60 13/24/56 41/50/57 40/49/61
f 9/20/58 6/30/62 34/57/63 37/46/59
f 10/35/64 12/21/60 40/49/61 38/63/65
f 11/41/51 2/31/42 30/59/45 39/69/52
f 4/34/43 5/37/46 33/65/49 32/60/44
f 6/30/62 1/25/38 29/53/41 34/57/63
f 3/28/39 10/35/64 38/63/65 31/54/40
f 17/27/66 15/26/67 43/56/68 45/55/69
f 18/33/70 16/32/71 44/62/72 46/61/73
f 21/39/74 19/38/75 47/68/76 49/67/77
f 25/42/78 28/44/79 56/72/80 53/70/81
f 22/18/82 21/39/74 49/67/77 50/48/83
f 28/44/79 27/23/84 55/51/85 56/72/80
f 23/19/86 22/18/82 50/48/83 51/47/87
f 27/23/84 26/22/88 54/52/89 55/51/85
f 20/29/90 23/19/86 51/47/87 48/58/91
f 26/22/88 24/36/92 52/64/93 54/52/89
f 16/32/71 25/42/78 53/70/81 44/62/72
f 19/38/75 18/33/70 46/61/73 47/68/76
f 15/26/67 20/29/90 48/58/91 43/56/68
f 24/36/92 17/27/66 45/55/69 52/64/93
