# Blender v3.0.0 OBJ File: 'Support_Short.blend'
# www.blender.org
mtllib Support_Short.mtl
o Support_Short_Plane
v 0.485575 -1.004064 0.041370
v 0.485575 -1.004064 -0.041370
v 1.091180 -0.668047 0.041370
v 1.091180 -0.668047 -0.041370
v 0.485575 -0.334420 0.041370
v 0.485575 -0.334420 -0.041370
v 1.091180 0.001598 0.041370
v 1.091180 0.001598 -0.041370
v 1.019120 -0.166157 -0.041370
v 0.961706 -0.131500 -0.041370
v 1.002304 -0.129130 -0.041370
v 0.620109 -0.862595 0.041370
v 0.562278 -0.827132 0.041370
v 0.579216 -0.864395 0.041370
v 0.562278 -0.511162 0.041370
v 0.620109 -0.475699 0.041370
v 0.525583 -0.392764 0.041370
v 0.579216 -0.473899 0.041370
v 0.942508 -0.639725 0.041370
v 0.942508 -0.698570 0.041370
v 0.966463 -0.669147 0.041370
v 1.019120 -0.501567 0.041370
v 0.961653 -0.536325 0.041370
v 1.056390 -0.619567 0.041370
v 1.002288 -0.538624 0.041370
v 0.633883 -0.364484 0.041370
v 0.633830 -0.304127 0.041370
v 0.610064 -0.334326 0.041370
v 0.961706 -0.131500 0.041370
v 1.019120 -0.166157 0.041370
v 1.002304 -0.129130 0.041370
v 0.562278 -0.827132 -0.041370
v 0.620109 -0.862595 -0.041370
v 0.579216 -0.864395 -0.041370
v 0.620109 -0.475699 -0.041370
v 0.562278 -0.511162 -0.041370
v 0.525583 -0.392764 -0.041370
v 0.579216 -0.473899 -0.041370
v 0.942508 -0.698570 -0.041370
v 0.942508 -0.639725 -0.041370
v 0.966463 -0.669147 -0.041370
v 0.961653 -0.536325 -0.041370
v 1.019120 -0.501567 -0.041370
v 1.056390 -0.619567 -0.041370
v 1.002288 -0.538624 -0.041370
v 0.633830 -0.304127 -0.041370
v 0.633883 -0.364484 -0.041370
v 0.610064 -0.334326 -0.041370
v 0.485575 0.335224 0.041370
v 0.485575 0.335224 -0.041370
v 1.091180 0.671242 0.041370
v 1.091180 0.671242 -0.041370
v 1.019120 0.503487 -0.041370
v 0.961706 0.538144 -0.041370
v 1.002304 0.540514 -0.041370
v 0.620109 -0.192951 0.041370
v 0.562278 -0.157488 0.041370
v 0.579216 -0.194751 0.041370
v 0.562278 0.158482 0.041370
v 0.620109 0.193945 0.041370
v 0.525583 0.276880 0.041370
v 0.579216 0.195745 0.041370
v 0.942508 0.029920 0.041370
v 0.942508 -0.028925 0.041370
v 0.966463 0.000497 0.041370
v 1.019120 0.168077 0.041370
v 0.961653 0.133320 0.041370
v 1.056390 0.050078 0.041370
v 1.002288 0.131021 0.041370
v 0.633883 0.305161 0.041370
v 0.633830 0.365517 0.041370
v 0.610064 0.335318 0.041370
v 0.961706 0.538144 0.041370
v 1.019120 0.503487 0.041370
v 1.002304 0.540514 0.041370
v 0.562278 -0.157488 -0.041370
v 0.620109 -0.192951 -0.041370
v 0.579216 -0.194751 -0.041370
v 0.620109 0.193945 -0.041370
v 0.562278 0.158482 -0.041370
v 0.525583 0.276880 -0.041370
v 0.579216 0.195745 -0.041370
v 0.942508 -0.028925 -0.041370
v 0.942508 0.029920 -0.041370
v 0.966463 0.000497 -0.041370
v 0.961653 0.133320 -0.041370
v 1.019120 0.168077 -0.041370
v 1.056390 0.050078 -0.041370
v 1.002288 0.131021 -0.041370
v 0.633830 0.365517 -0.041370
v 0.633883 0.305161 -0.041370
v 0.610064 0.335318 -0.041370
v 0.485575 1.004869 0.041370
v 0.485575 1.004869 -0.041370
v 0.620109 0.476693 0.041370
v 0.562278 0.512156 0.041370
v 0.579216 0.474893 0.041370
v 0.562278 0.828126 0.041370
v 0.620109 0.863589 0.041370
v 0.525583 0.946525 0.041370
v 0.579216 0.865390 0.041370
v 0.942508 0.699564 0.041370
v 0.942508 0.640719 0.041370
v 0.966463 0.670141 0.041370
v -0.000001 1.026702 0.019940
v -0.000001 1.076858 0.019940
v -0.000001 1.026702 -0.019940
v -0.000001 1.076858 -0.019940
v -0.000001 -1.026702 0.019940
v -0.000001 -1.076858 0.019940
v -0.000001 -1.026702 -0.019940
v -0.000001 -1.076858 -0.019940
v 0.491366 -1.026702 -0.019940
v 0.562278 0.512156 -0.041370
v 0.620109 0.476693 -0.041370
v 0.579216 0.474893 -0.041370
v 0.620109 0.863589 -0.041370
v 0.562278 0.828126 -0.041370
v 0.525583 0.946525 -0.041370
v 0.579216 0.865390 -0.041370
v 0.942508 0.640719 -0.041370
v 0.942508 0.699564 -0.041370
v 0.966463 0.670141 -0.041370
v 0.491366 -1.026702 0.019940
v 0.491366 -1.076858 -0.019940
v 0.491366 -1.076858 0.019940
v 0.491366 1.026702 -0.019940
v 0.491366 1.026702 0.019940
v 0.491366 1.076858 -0.019940
v 0.491366 1.076858 0.019940
v 0.466923 1.107016 0.043919
v 0.466923 1.107016 -0.043919
v 1.109833 0.750300 0.043919
v 1.109833 0.750300 -0.043919
v 0.466923 0.996544 0.043919
v 0.466923 0.996544 -0.043919
v 1.109833 0.639827 0.043919
v 1.109833 0.639827 -0.043919
v 0.466923 -1.107016 0.043919
v 0.466923 -1.107016 -0.043919
v 1.109833 -0.750299 0.043919
v 1.109833 -0.750299 -0.043919
v 0.466923 -0.996543 0.043919
v 0.466923 -0.996543 -0.043919
v 1.109833 -0.639827 0.043919
v 1.109833 -0.639827 -0.043919
vn -0.0000 -0.0000 1.0000
vn -0.4535 -0.8913 0.0000
vn -1.0000 0.0000 0.0000
vn 0.0000 -0.0000 -1.0000
vn 0.4659 -0.8849 0.0000
vn 0.4643 0.8857 0.0000
vn -0.4535 0.8913 0.0000
vn 1.0000 0.0000 0.0000
vn -0.0440 0.9990 -0.0000
vn 0.9104 0.4138 -0.0000
vn -0.0440 -0.9990 0.0000
vn 0.9104 -0.4138 0.0000
vn -0.9105 0.4136 0.0000
vn 0.0565 0.9984 0.0000
vn 0.7858 -0.6184 0.0000
vn 0.7848 0.6198 0.0000
vn -0.7755 0.6314 0.0000
vn -0.7755 -0.6314 0.0000
vn 0.0583 -0.9983 0.0000
vn -0.9105 -0.4135 0.0000
vn 0.0000 -1.0000 0.0000
vn 0.0000 1.0000 0.0000
vn 0.4852 0.8744 0.0000
vn -0.4852 -0.8744 0.0000
vn 0.4852 -0.8744 0.0000
vn -0.4852 0.8744 0.0000
usemtl LightGrey
s off
f 5//1 27//1 29//1 7//1
f 19//2 16//2 35//2 40//2
f 22//3 30//3 9//3 43//3
f 2//4 6//4 37//4 36//4 32//4
f 29//5 27//5 46//5 10//5
f 26//6 23//6 42//6 47//6
f 6//4 4//4 40//4 35//4 37//4
f 3//1 7//1 30//1 22//1 24//1
f 12//7 20//7 39//7 33//7
f 4//4 6//4 47//4 42//4 44//4
f 4//4 2//4 33//4 39//4
f 3//1 20//1 12//1 1//1
f 3//1 24//1 23//1 26//1 5//1
f 7//8 3//8 4//8 8//8
f 5//1 17//1 16//1 19//1 3//1
f 1//1 13//1 15//1 17//1 5//1
f 15//8 13//8 32//8 36//8
f 4//4 44//4 43//4 9//4 8//4
f 1//3 5//3 6//3 2//3
f 9//4 11//4 8//4
f 11//4 10//4 8//4
f 12//1 14//1 1//1
f 14//1 13//1 1//1
f 15//1 18//1 17//1
f 18//1 16//1 17//1
f 19//1 21//1 3//1
f 21//1 20//1 3//1
f 22//1 25//1 24//1
f 25//1 23//1 24//1
f 26//1 28//1 5//1
f 28//1 27//1 5//1
f 29//1 31//1 7//1
f 31//1 30//1 7//1
f 32//4 34//4 2//4
f 34//4 33//4 2//4
f 35//4 38//4 37//4
f 38//4 36//4 37//4
f 39//4 41//4 4//4
f 41//4 40//4 4//4
f 42//4 45//4 44//4
f 45//4 43//4 44//4
f 46//4 48//4 6//4
f 48//4 47//4 6//4
f 12//9 33//9 34//9 14//9
f 14//10 34//10 32//10 13//10
f 35//11 16//11 18//11 38//11
f 38//12 18//12 15//12 36//12
f 22//13 43//13 45//13 25//13
f 25//14 45//14 42//14 23//14
f 46//15 27//15 28//15 48//15
f 48//16 28//16 26//16 47//16
f 39//17 20//17 21//17 41//17
f 41//18 21//18 19//18 40//18
f 29//19 10//19 11//19 31//19
f 31//20 11//20 9//20 30//20
f 6//4 8//4 10//4 46//4
f 49//1 71//1 73//1 51//1
f 63//2 60//2 79//2 84//2
f 66//3 74//3 53//3 87//3
f 6//4 50//4 81//4 80//4 76//4
f 73//5 71//5 90//5 54//5
f 70//6 67//6 86//6 91//6
f 50//4 8//4 84//4 79//4 81//4
f 7//1 51//1 74//1 66//1 68//1
f 56//7 64//7 83//7 77//7
f 8//4 50//4 91//4 86//4 88//4
f 8//4 6//4 77//4 83//4
f 7//1 64//1 56//1 5//1
f 7//1 68//1 67//1 70//1 49//1
f 51//8 7//8 8//8 52//8
f 49//1 61//1 60//1 63//1 7//1
f 5//1 57//1 59//1 61//1 49//1
f 59//8 57//8 76//8 80//8
f 8//4 88//4 87//4 53//4 52//4
f 5//3 49//3 50//3 6//3
f 53//4 55//4 52//4
f 55//4 54//4 52//4
f 56//1 58//1 5//1
f 58//1 57//1 5//1
f 59//1 62//1 61//1
f 62//1 60//1 61//1
f 63//1 65//1 7//1
f 65//1 64//1 7//1
f 66//1 69//1 68//1
f 69//1 67//1 68//1
f 70//1 72//1 49//1
f 72//1 71//1 49//1
f 73//1 75//1 51//1
f 75//1 74//1 51//1
f 76//4 78//4 6//4
f 78//4 77//4 6//4
f 79//4 82//4 81//4
f 82//4 80//4 81//4
f 83//4 85//4 8//4
f 85//4 84//4 8//4
f 86//4 89//4 88//4
f 89//4 87//4 88//4
f 90//4 92//4 50//4
f 92//4 91//4 50//4
f 56//9 77//9 78//9 58//9
f 58//10 78//10 76//10 57//10
f 79//11 60//11 62//11 82//11
f 82//12 62//12 59//12 80//12
f 66//13 87//13 89//13 69//13
f 69//14 89//14 86//14 67//14
f 90//15 71//15 72//15 92//15
f 92//16 72//16 70//16 91//16
f 83//17 64//17 65//17 85//17
f 85//18 65//18 63//18 84//18
f 73//19 54//19 55//19 75//19
f 75//20 55//20 53//20 74//20
f 50//4 52//4 54//4 90//4
f 102//2 99//2 117//2 122//2
f 50//4 94//4 119//4 118//4 114//4
f 94//4 52//4 122//4 117//4 119//4
f 95//7 103//7 121//7 115//7
f 52//4 50//4 115//4 121//4
f 51//1 103//1 95//1 49//1
f 93//1 100//1 99//1 102//1 51//1
f 49//1 96//1 98//1 100//1 93//1
f 98//8 96//8 114//8 118//8
f 49//3 93//3 94//3 50//3
f 95//1 97//1 49//1
f 97//1 96//1 49//1
f 98//1 101//1 100//1
f 101//1 99//1 100//1
f 102//1 104//1 51//1
f 104//1 103//1 51//1
f 114//4 116//4 50//4
f 116//4 115//4 50//4
f 117//4 120//4 119//4
f 120//4 118//4 119//4
f 121//4 123//4 52//4
f 123//4 122//4 52//4
f 95//9 115//9 116//9 97//9
f 97//10 116//10 114//10 96//10
f 117//11 99//11 101//11 120//11
f 120//12 101//12 98//12 118//12
f 121//17 103//17 104//17 123//17
f 123//18 104//18 102//18 122//18
usemtl Grey
f 126//1 124//1 109//1 110//1
f 129//4 127//4 107//4 108//4
f 127//21 128//21 105//21 107//21
f 125//21 126//21 110//21 112//21
f 113//4 125//4 112//4 111//4
f 124//22 113//22 111//22 109//22
f 128//1 130//1 106//1 105//1
f 130//22 129//22 108//22 106//22
f 106//3 108//3 107//3 105//3
f 110//3 109//3 111//3 112//3
f 126//8 125//8 113//8 124//8
f 130//8 128//8 127//8 129//8
f 133//8 137//8 138//8 134//8
f 133//1 131//1 135//1 137//1
f 131//3 132//3 136//3 135//3
f 134//4 138//4 136//4 132//4
f 133//23 134//23 132//23 131//23
f 137//24 135//24 136//24 138//24
f 141//8 142//8 146//8 145//8
f 141//1 145//1 143//1 139//1
f 139//3 143//3 144//3 140//3
f 142//4 140//4 144//4 146//4
f 141//25 139//25 140//25 142//25
f 145//26 146//26 144//26 143//26
