# Blender v3.0.0 OBJ File: 'TV_1.blend'
# www.blender.org
mtllib TV_1.mtl
o TV_1_Cylinder.007
v -0.163205 -0.204778 0.128499
v -0.204778 -0.163205 0.128499
v -0.192601 -0.192602 0.128499
v -0.204778 0.163205 0.128499
v -0.163205 0.204778 0.128499
v -0.192601 0.192601 0.128499
v 0.204778 -0.163205 0.128499
v 0.163205 -0.204778 0.128499
v 0.192601 -0.192602 0.128499
v 0.163205 0.204778 0.128499
v 0.204778 0.163205 0.128499
v 0.192601 0.192601 0.128499
v -0.204778 -0.163205 0.003831
v -0.163205 -0.204778 0.003831
v -0.192601 -0.192602 0.003831
v -0.163205 0.204778 0.003831
v -0.204778 0.163205 0.003831
v -0.192601 0.192601 0.003831
v 0.163205 -0.204778 0.003831
v 0.204778 -0.163205 0.003831
v 0.192601 -0.192602 0.003831
v 0.204778 0.163205 0.003831
v 0.163205 0.204778 0.003831
v 0.192601 0.192601 0.003831
v -0.124163 -0.165735 -0.281056
v -0.165735 -0.124163 -0.281056
v -0.153559 -0.153559 -0.281056
v -0.163205 -0.204778 -0.242014
v -0.204778 -0.163205 -0.242014
v -0.192601 -0.192602 -0.242014
v -0.165735 0.124162 -0.281056
v -0.124163 0.165735 -0.281056
v -0.153559 0.153559 -0.281056
v -0.204778 0.163205 -0.242014
v -0.163205 0.204778 -0.242014
v -0.192601 0.192601 -0.242014
v 0.165735 -0.124163 -0.281056
v 0.124163 -0.165735 -0.281056
v 0.153559 -0.153559 -0.281056
v 0.204778 -0.163205 -0.242014
v 0.163205 -0.204778 -0.242014
v 0.192601 -0.192602 -0.242014
v 0.163205 0.204778 -0.242014
v 0.204778 0.163205 -0.242014
v 0.192601 0.192601 -0.242014
v 0.124163 0.165735 -0.281056
v 0.165735 0.124162 -0.281056
v 0.153559 0.153559 -0.281056
v -0.132618 -0.174191 0.128499
v -0.174191 -0.132618 0.128499
v -0.162014 -0.162014 0.128499
v -0.174191 0.132618 0.128499
v -0.132618 0.174191 0.128499
v -0.162014 0.162014 0.128499
v 0.132618 0.174191 0.128499
v 0.174191 0.132618 0.128499
v 0.162014 0.162014 0.128499
v 0.174191 -0.132618 0.128499
v 0.132618 -0.174191 0.128499
v 0.162014 -0.162014 0.128499
v -0.132618 -0.174191 0.078490
v -0.174191 -0.132618 0.078490
v -0.162014 -0.162014 0.078490
v -0.174191 0.132618 0.078490
v -0.132618 0.174191 0.078490
v -0.162014 0.162014 0.078490
v 0.132618 0.174191 0.078490
v 0.174191 0.132618 0.078490
v 0.162014 0.162014 0.078490
v 0.174191 -0.132618 0.078490
v 0.132618 -0.174191 0.078490
v 0.162014 -0.162014 0.078490
v -0.121923 -0.080351 0.078490
v -0.080351 -0.121923 0.078490
v -0.109747 -0.109747 0.078490
v -0.080351 0.121923 0.078490
v -0.121923 0.080351 0.078490
v -0.109747 0.109747 0.078490
v 0.121923 0.080351 0.078490
v 0.080351 0.121923 0.078490
v 0.109747 0.109747 0.078490
v 0.080351 -0.121923 0.078490
v 0.121923 -0.080351 0.078490
v 0.109747 -0.109747 0.078490
v -0.130002 0.199332 0.078390
v 0.040518 0.199332 0.078390
v -0.130002 0.199332 -0.213962
v 0.040518 0.199332 -0.213962
v -0.130002 0.259088 0.078390
v -0.130002 0.259088 -0.213962
v 0.040518 0.259088 -0.213962
v 0.040518 0.259088 0.078390
v -0.040518 0.199332 0.009634
v 0.130002 0.199332 0.009634
v -0.040518 0.199332 -0.145205
v 0.130002 0.199332 -0.145205
v -0.040518 0.320168 0.009634
v -0.040518 0.320168 -0.145205
v 0.130002 0.320168 -0.145205
v 0.130002 0.320168 0.009634
v -0.071484 0.218597 -0.058182
v -0.056563 0.218597 -0.058182
v -0.071484 1.170250 -0.058182
v -0.056563 1.170250 -0.058182
v -0.071484 0.218597 -0.073441
v -0.056563 0.218597 -0.073441
v -0.056563 1.170250 -0.073441
v -0.071484 1.170250 -0.073441
v -0.002487 0.218597 -0.058182
v 0.012435 0.218597 -0.058182
v -0.002486 0.531762 -0.058182
v 0.012435 0.518156 -0.058182
v -0.002487 0.218597 -0.073441
v 0.012435 0.218597 -0.073441
v 0.012435 0.518156 -0.073441
v -0.002486 0.531762 -0.073441
v 0.011128 0.353751 -0.072160
v 0.002349 0.362540 -0.072160
v 0.011128 0.353751 -0.059463
v 0.002349 0.362540 -0.059463
v -0.070194 0.289923 -0.059463
v -0.061415 0.281135 -0.059463
v -0.070194 0.289923 -0.072160
v -0.061415 0.281135 -0.072160
v 0.002349 0.362540 -0.059463
v 0.011128 0.371328 -0.059463
v 0.002349 0.362540 -0.072160
v 0.011128 0.371328 -0.072160
v 0.011128 0.509106 -0.072160
v 0.002349 0.517895 -0.072160
v 0.011128 0.509106 -0.059463
v 0.002349 0.517895 -0.059463
v -0.070194 0.435156 -0.059463
v -0.061415 0.443945 -0.059463
v -0.070194 0.435156 -0.072160
v -0.061415 0.443945 -0.072160
v -0.070194 0.445278 -0.059463
v -0.061415 0.436489 -0.059463
v -0.070194 0.445278 -0.072160
v -0.061415 0.436489 -0.072160
v 0.200296 0.138558 0.001740
v 0.200296 0.112669 0.001740
v 0.998675 0.138557 0.001740
v 0.998675 0.112669 0.001740
v 0.200296 0.138558 -0.024733
v 0.200296 0.112669 -0.024733
v 0.998675 0.112669 -0.024733
v 0.998675 0.138557 -0.024733
v 0.200296 0.018849 0.001740
v 0.200296 -0.007039 0.001740
v 0.998675 0.018848 0.001740
v 0.998675 -0.007040 0.001740
v 0.200296 0.018849 -0.024733
v 0.200296 -0.007039 -0.024733
v 0.998675 -0.007040 -0.024733
v 0.998675 0.018848 -0.024733
v 0.204256 0.034196 -0.000483
v 0.219503 0.018964 -0.000483
v 0.204256 0.034196 -0.022510
v 0.219503 0.018964 -0.022510
v 0.434784 -0.004773 -0.022510
v 0.450031 0.010459 -0.022510
v 0.434784 -0.004773 -0.000483
v 0.450031 0.010459 -0.000483
v 0.306483 0.136319 -0.000483
v 0.321731 0.121087 -0.000483
v 0.306483 0.136319 -0.022510
v 0.321731 0.121087 -0.022510
v 0.324043 0.136319 -0.000483
v 0.308796 0.121087 -0.000483
v 0.324043 0.136319 -0.022510
v 0.308796 0.121087 -0.022510
v 0.450031 0.010459 -0.000483
v 0.465278 -0.004773 -0.000483
v 0.450031 0.010459 -0.022510
v 0.465278 -0.004773 -0.022510
v 0.704319 -0.004773 -0.022510
v 0.719567 0.010459 -0.022510
v 0.704319 -0.004773 -0.000483
v 0.719567 0.010459 -0.000483
v 0.576019 0.136319 -0.000483
v 0.591266 0.121087 -0.000483
v 0.576019 0.136319 -0.022510
v 0.591266 0.121087 -0.022510
v 0.593579 0.136319 -0.000483
v 0.578332 0.121087 -0.000483
v 0.593579 0.136319 -0.022510
v 0.578332 0.121087 -0.022510
v 0.719567 0.010459 -0.000483
v 0.734814 -0.004773 -0.000483
v 0.719567 0.010459 -0.022510
v 0.734814 -0.004773 -0.022510
v 0.973855 -0.004773 -0.022510
v 0.989102 0.010459 -0.022510
v 0.973855 -0.004773 -0.000483
v 0.989102 0.010459 -0.000483
v 0.845555 0.136319 -0.000483
v 0.860802 0.121087 -0.000483
v 0.845555 0.136319 -0.022510
v 0.860802 0.121087 -0.022510
v 0.863115 0.136319 -0.000483
v 0.847867 0.121087 -0.000483
v 0.863115 0.136319 -0.022510
v 0.847867 0.121087 -0.022510
v 0.234081 0.156515 0.020103
v 0.234080 -0.156632 0.020103
v 0.234081 0.156515 -0.043095
v 0.234080 -0.156632 -0.043095
v 0.195785 0.156515 0.020103
v 0.195785 -0.156632 0.020103
v 0.195785 0.156515 -0.043095
v 0.195785 -0.156632 -0.043095
vt 0.000000 0.000000
vt 0.000000 0.000000
vt 0.000000 0.000000
vt 0.000000 0.000000
vt 0.000000 0.000000
vt 0.000000 0.000000
vt 0.000000 0.000000
vt 0.000000 0.000000
vt 0.000000 0.000000
vt 0.000000 0.000000
vt 0.000000 0.000000
vt 0.000000 0.000000
vt 0.000000 0.000000
vt 0.000000 0.000000
vt 0.000000 0.000000
vt 0.000000 0.000000
vt 0.000000 0.000000
vt 0.000000 0.000000
vt 0.000000 0.000000
vt 0.000000 0.000000
vt 0.000000 0.000000
vt 0.000000 0.000000
vt 0.000000 0.000000
vt 0.000000 0.000000
vt 0.000000 0.000000
vt 0.000000 0.000000
vt 0.000000 0.000000
vt 0.000000 0.000000
vt 0.000000 0.000000
vt 0.000000 0.000000
vt 0.000000 0.000000
vt 0.000000 0.000000
vt 0.000000 0.000000
vt 0.000000 0.000000
vt 0.000000 0.000000
vt 0.000000 0.000000
vt 0.000000 0.000000
vt 0.000000 0.000000
vt 0.000000 0.000000
vt 0.000000 0.000000
vt 0.000000 0.000000
vt 0.000000 0.000000
vt 0.000000 0.000000
vt 0.000000 0.000000
vt 0.000000 0.000000
vt 0.000000 0.000000
vt 0.000000 0.000000
vt 0.000000 0.000000
vt 0.000000 0.000000
vt 0.000000 0.000000
vt 0.000000 0.000000
vt 0.000000 0.000000
vt 0.000000 0.000000
vt 0.000000 0.000000
vt 0.000000 0.000000
vt 0.000000 0.000000
vt 0.000000 0.000000
vt 0.000000 0.000000
vt 0.000000 0.000000
vt 0.000000 0.000000
vt 0.000000 0.000000
vt 0.000000 0.000000
vt 0.000000 0.000000
vt 0.000000 0.000000
vt 0.000000 0.000000
vt 0.000000 0.000000
vt 0.000000 0.000000
vt 0.000000 0.000000
vt 0.000000 0.000000
vt 0.000000 0.000000
vt 0.000000 0.000000
vt 0.000000 0.000000
vt 0.000000 0.000000
vt 0.000000 0.000000
vt 0.000000 0.000000
vt 0.000000 0.000000
vt 0.000000 0.000000
vt 0.000000 0.000000
vt 0.000000 0.000000
vt 0.000000 0.000000
vt 0.000000 0.000000
vt 0.000000 0.000000
vt 0.000000 0.000000
vt 0.000000 0.000000
vt 0.000000 0.000000
vt 0.000000 0.000000
vt 0.000000 0.000000
vt 0.000000 0.000000
vt 0.573415 0.237153
vt 0.573445 0.237153
vt 0.573439 0.237159
vt 0.573421 0.237159
vt 0.573449 0.237158
vt 0.573449 0.237188
vt 0.573443 0.237182
vt 0.573443 0.237164
vt 0.573445 0.237192
vt 0.573415 0.237192
vt 0.573421 0.237186
vt 0.573439 0.237186
vt 0.573410 0.237188
vt 0.573410 0.237158
vt 0.573416 0.237164
vt 0.573416 0.237182
vt 0.572056 0.158306
vt 0.583297 0.162962
vt 0.587953 0.174203
vt 0.587953 0.235653
vt 0.583297 0.246894
vt 0.572056 0.251550
vt 0.510605 0.251550
vt 0.499365 0.246894
vt 0.494709 0.235653
vt 0.494709 0.174203
vt 0.499365 0.162962
vt 0.510605 0.158306
vt 0.573423 0.237056
vt 0.573411 0.237191
vt 0.573448 0.237191
vt 0.573310 0.237056
vt 0.573448 0.237154
vt 0.573310 0.237167
vt 0.573411 0.237154
vt 0.573423 0.237167
vt 0.000000 0.000000
vt 0.000000 0.000000
vt 0.000000 0.000000
vt 0.000000 0.000000
vt 0.000000 0.000000
vt 0.000000 0.000000
vt 0.000000 0.000000
vt 0.000000 0.000000
vt 0.000000 0.000000
vt 0.000000 0.000000
vt 0.000000 0.000000
vt 0.000000 0.000000
vt 0.000000 0.000000
vt 0.000000 0.000000
vt 0.000000 0.000000
vt 0.000000 0.000000
vt 0.000000 0.000000
vt 0.000000 0.000000
vt 0.000000 0.000000
vt 0.000000 0.000000
vt 0.000000 0.000000
vt 0.000000 0.000000
vt 0.000000 0.000000
vt 0.000000 0.000000
vt 0.000000 0.000000
vt 0.000000 0.000000
vt 0.000000 0.000000
vt 0.000000 0.000000
vt 0.000000 0.000000
vt 0.000000 0.000000
vt 0.000000 0.000000
vt 0.000000 0.000000
vt 0.000000 0.000000
vt 0.000000 0.000000
vt 0.000000 0.000000
vt 0.000000 0.000000
vt 0.000000 0.000000
vt 0.000000 0.000000
vt 0.000000 0.000000
vt 0.000000 0.000000
vt 0.000000 0.000000
vt 0.000000 0.000000
vt 0.000000 0.000000
vt 0.000000 0.000000
vt 0.000000 0.000000
vt 0.000000 0.000000
vt 0.000000 0.000000
vt 0.000000 0.000000
vt 0.000000 0.000000
vt 0.000000 0.000000
vt 0.000000 0.000000
vt 0.000000 0.000000
vt 0.000000 0.000000
vt 0.000000 0.000000
vt 0.000000 0.000000
vt 0.000000 0.000000
vt 0.000000 0.000000
vt 0.000000 0.000000
vt 0.000000 0.000000
vt 0.000000 0.000000
vt 0.000000 0.000000
vt 0.000000 0.000000
vt 0.000000 0.000000
vt 0.000000 0.000000
vt 0.000000 0.000000
vt 0.000000 0.000000
vt 0.000000 0.000000
vt 0.000000 0.000000
vt 0.000000 0.000000
vt 0.000000 0.000000
vt 0.000000 0.000000
vt 0.000000 0.000000
vt 0.000000 0.000000
vt 0.000000 0.000000
vt 0.000000 0.000000
vt 0.000000 0.000000
vt 0.000000 0.000000
vt 0.000000 0.000000
vt 0.000000 0.000000
vt 0.000000 0.000000
vt 0.000000 0.000000
vt 0.000000 0.000000
vt 0.000000 0.000000
vt 0.000000 0.000000
vt 0.000000 0.000000
vt 0.000000 0.000000
vt 0.000000 0.000000
vt 0.000000 0.000000
vt 0.000000 0.000000
vt 0.000000 0.000000
vt 0.000000 0.000000
vt 0.000000 0.000000
vt 0.000000 0.000000
vt 0.000000 0.000000
vt 0.000000 0.000000
vt 0.000000 0.000000
vt 0.000000 0.000000
vt 0.000000 0.000000
vt 0.000000 0.000000
vt 0.000000 0.000000
vt 0.000000 0.000000
vt 0.000000 0.000000
vt 0.000000 0.000000
vt 0.000000 0.000000
vt 0.000000 0.000000
vt 0.000000 0.000000
vt 0.000000 0.000000
vt 0.000000 0.000000
vt 0.000000 0.000000
vt 0.000000 0.000000
vt 0.000000 0.000000
vt 0.000000 0.000000
vn 1.0000 0.0000 0.0000
vn -1.0000 0.0000 -0.0000
vn 0.0000 -1.0000 0.0000
vn -0.0000 0.0000 -1.0000
vn 0.0000 1.0000 0.0000
vn 0.0000 -0.7071 -0.7071
vn 0.0000 0.7071 -0.7071
vn 0.7071 0.0000 -0.7071
vn -0.7071 0.0000 -0.7071
vn -0.2326 0.5615 -0.7941
vn -0.5615 0.2326 -0.7941
vn -0.2326 -0.5615 -0.7941
vn -0.5615 -0.2326 -0.7941
vn 0.5615 -0.2326 -0.7941
vn 0.2326 -0.5615 -0.7941
vn 0.5615 0.2326 -0.7941
vn 0.2326 0.5615 -0.7941
vn -0.9239 -0.3827 -0.0000
vn -0.3827 -0.9239 -0.0000
vn 0.9239 -0.3827 0.0000
vn 0.3827 -0.9239 0.0000
vn -0.3827 0.9239 -0.0000
vn -0.9239 0.3827 -0.0000
vn 0.9239 0.3827 0.0000
vn 0.3827 0.9239 0.0000
vn 0.0000 0.0000 1.0000
vn 0.6738 0.7389 0.0000
vn 0.7075 -0.7067 0.0000
vn -0.7075 0.7067 0.0000
vn 0.7075 0.7067 0.0000
vn -0.7075 -0.7067 -0.0000
vn -0.7067 -0.7075 0.0000
vn 0.7067 -0.7075 0.0000
vn -0.7067 0.7075 0.0000
vn 0.7067 0.7075 0.0000
usemtl Grey
s off
f 40/1/1 44/2/1 22/3/1 20/4/1
f 13/5/2 17/6/2 34/7/2 29/8/2
f 28/9/3 41/10/3 19/11/3 14/12/3
f 25/13/4 27/14/4 26/15/4 31/16/4 33/17/4 32/18/4 46/19/4 48/20/4 47/21/4 37/22/4 39/23/4 38/24/4
f 43/25/5 35/26/5 16/27/5 23/28/5
f 41/10/6 28/9/6 25/13/6 38/24/6
f 35/26/7 43/25/7 46/19/7 32/18/7
f 44/2/8 40/1/8 37/22/8 47/21/8
f 31/16/9 26/15/9 29/8/9 34/7/9
f 35/26/10 32/18/10 33/17/10 36/29/10
f 36/29/11 33/17/11 31/16/11 34/7/11
f 25/13/12 28/9/12 30/30/12 27/14/12
f 27/14/13 30/30/13 29/8/13 26/15/13
f 37/22/14 40/1/14 42/31/14 39/23/14
f 39/23/15 42/31/15 41/10/15 38/24/15
f 44/2/16 47/21/16 48/20/16 45/32/16
f 45/32/17 48/20/17 46/19/17 43/25/17
f 13/5/18 29/8/18 30/30/18 15/33/18
f 15/33/19 30/30/19 28/9/19 14/12/19
f 40/1/20 20/4/20 21/34/20 42/31/20
f 42/31/21 21/34/21 19/11/21 41/10/21
f 16/27/22 35/26/22 36/29/22 18/35/22
f 18/35/23 36/29/23 34/7/23 17/6/23
f 22/3/24 44/2/24 45/32/24 24/36/24
f 24/36/25 45/32/25 43/25/25 23/28/25
f 88/37/3 86/38/3 85/39/3 87/40/3
f 91/41/5 90/42/5 89/43/5 92/44/5
f 87/40/2 85/39/2 89/43/2 90/42/2
f 88/37/4 87/40/4 90/42/4 91/41/4
f 86/38/1 88/37/1 91/41/1 92/44/1
f 85/39/26 86/38/26 92/44/26 89/43/26
f 96/45/3 94/46/3 93/47/3 95/48/3
f 99/49/5 98/50/5 97/51/5 100/52/5
f 95/48/2 93/47/2 97/51/2 98/50/2
f 96/45/4 95/48/4 98/50/4 99/49/4
f 94/46/1 96/45/1 99/49/1 100/52/1
f 93/47/26 94/46/26 100/52/26 97/51/26
usemtl LightGrey
f 7/53/26 11/54/26 56/55/26 58/56/26
f 23/28/5 16/27/5 5/57/5 10/58/5
f 10/58/26 5/57/26 53/59/26 55/60/26
f 1/61/26 8/62/26 59/63/26 49/64/26
f 52/65/1 50/66/1 62/67/1 64/68/1
f 58/56/2 56/55/2 68/69/2 70/70/2
f 20/4/1 22/3/1 11/54/1 7/53/1
f 14/12/3 19/11/3 8/62/3 1/61/3
f 4/71/26 2/72/26 50/66/26 52/65/26
f 55/60/3 53/59/3 65/73/3 67/74/3
f 49/64/5 59/63/5 71/75/5 61/76/5
f 14/12/19 1/61/19 3/77/19 15/33/19
f 15/33/18 3/77/18 2/72/18 13/5/18
f 23/28/25 10/58/25 12/78/25 24/36/25
f 24/36/24 12/78/24 11/54/24 22/3/24
f 5/57/22 16/27/22 18/35/22 6/79/22
f 6/79/23 18/35/23 17/6/23 4/71/23
f 8/62/21 19/11/21 21/34/21 9/80/21
f 9/80/20 21/34/20 20/4/20 7/53/20
f 4/71/26 52/65/26 54/81/26 6/79/26
f 6/79/26 54/81/26 53/59/26 5/57/26
f 56/55/26 11/54/26 12/78/26 57/82/26
f 57/82/26 12/78/26 10/58/26 55/60/26
f 59/63/26 8/62/26 9/80/26 60/83/26
f 60/83/26 9/80/26 7/53/26 58/56/26
f 1/61/26 49/64/26 51/84/26 3/77/26
f 3/77/26 51/84/26 50/66/26 2/72/26
f 52/65/20 64/68/20 66/85/20 54/81/20
f 54/81/21 66/85/21 65/73/21 53/59/21
f 68/69/18 56/55/18 57/82/18 69/86/18
f 69/86/19 57/82/19 55/60/19 67/74/19
f 71/75/22 59/63/22 60/83/22 72/87/22
f 72/87/23 60/83/23 58/56/23 70/70/23
f 62/67/24 50/66/24 51/84/24 63/88/24
f 63/88/25 51/84/25 49/64/25 61/76/25
f 2/72/2 4/71/2 17/6/2 13/5/2
usemtl Texture_Signs
f 67/89/26 65/90/26 76/91/26 80/92/26
f 64/93/26 62/94/26 73/95/26 77/96/26
f 61/97/26 71/98/26 82/99/26 74/100/26
f 70/101/26 68/102/26 79/103/26 83/104/26
f 82/105/26 84/106/26 83/107/26 79/108/26 81/109/26 80/110/26 76/111/26 78/112/26 77/113/26 73/114/26 75/115/26 74/116/26
f 70/101/26 83/104/26 84/117/26 72/118/26
f 72/118/26 84/117/26 82/99/26 71/98/26
f 73/95/26 62/94/26 63/119/26 75/120/26
f 75/120/26 63/119/26 61/97/26 74/100/26
f 76/91/26 65/90/26 66/121/26 78/122/26
f 78/122/26 66/121/26 64/93/26 77/96/26
f 79/103/26 68/102/26 69/123/26 81/124/26
f 81/124/26 69/123/26 67/89/26 80/92/26
usemtl MetalLight
f 103/125/26 101/126/26 102/127/26 104/128/26
f 108/129/4 107/130/4 106/131/4 105/132/4
f 103/125/5 104/128/5 107/130/5 108/129/5
f 101/126/2 103/125/2 108/129/2 105/132/2
f 104/128/1 102/127/1 106/131/1 107/130/1
f 111/133/26 109/134/26 110/135/26 112/136/26
f 116/137/4 115/138/4 114/139/4 113/140/4
f 111/133/27 112/136/27 115/138/27 116/137/27
f 109/134/2 111/133/2 116/137/2 113/140/2
f 112/136/1 110/135/1 114/139/1 115/138/1
f 117/141/28 119/142/28 122/143/28 124/144/28
f 120/145/29 118/146/29 123/147/29 121/148/29
f 118/146/4 117/141/4 124/144/4 123/147/4
f 119/142/26 120/145/26 121/148/26 122/143/26
f 129/149/28 131/150/28 138/151/28 140/152/28
f 128/153/30 136/154/30 134/155/30 126/156/30
f 127/157/4 135/158/4 136/154/4 128/153/4
f 125/159/31 133/160/31 135/158/31 127/157/31
f 132/161/29 130/162/29 139/163/29 137/164/29
f 130/162/4 129/149/4 140/152/4 139/163/4
f 126/156/26 134/155/26 133/160/26 125/159/26
f 131/150/26 132/161/26 137/164/26 138/151/26
f 143/165/26 141/166/26 142/167/26 144/168/26
f 148/169/4 147/170/4 146/171/4 145/172/4
f 143/165/1 144/168/1 147/170/1 148/169/1
f 141/166/5 143/165/5 148/169/5 145/172/5
f 144/168/3 142/167/3 146/171/3 147/170/3
f 151/173/26 149/174/26 150/175/26 152/176/26
f 156/177/4 155/178/4 154/179/4 153/180/4
f 151/173/1 152/176/1 155/178/1 156/177/1
f 149/174/5 151/173/5 156/177/5 153/180/5
f 152/176/3 150/175/3 154/179/3 155/178/3
f 161/181/32 163/182/32 170/183/32 172/184/32
f 160/185/33 168/186/33 166/187/33 158/188/33
f 159/189/4 167/190/4 168/186/4 160/185/4
f 157/191/34 165/192/34 167/190/34 159/189/34
f 164/193/35 162/194/35 171/195/35 169/196/35
f 162/194/4 161/181/4 172/184/4 171/195/4
f 158/188/26 166/187/26 165/192/26 157/191/26
f 163/182/26 164/193/26 169/196/26 170/183/26
f 177/197/32 179/198/32 186/199/32 188/200/32
f 176/201/33 184/202/33 182/203/33 174/204/33
f 175/205/4 183/206/4 184/202/4 176/201/4
f 173/207/34 181/208/34 183/206/34 175/205/34
f 180/209/35 178/210/35 187/211/35 185/212/35
f 178/210/4 177/197/4 188/200/4 187/211/4
f 174/204/26 182/203/26 181/208/26 173/207/26
f 179/198/26 180/209/26 185/212/26 186/199/26
f 193/213/32 195/214/32 202/215/32 204/216/32
f 192/217/33 200/218/33 198/219/33 190/220/33
f 191/221/4 199/222/4 200/218/4 192/217/4
f 189/223/34 197/224/34 199/222/34 191/221/34
f 196/225/35 194/226/35 203/227/35 201/228/35
f 194/226/4 193/213/4 204/216/4 203/227/4
f 190/220/26 198/219/26 197/224/26 189/223/26
f 195/214/26 196/225/26 201/228/26 202/215/26
f 206/229/1 208/230/1 207/231/1 205/232/1
f 210/233/2 209/234/2 211/235/2 212/236/2
f 206/229/3 210/233/3 212/236/3 208/230/3
f 208/230/4 212/236/4 211/235/4 207/231/4
f 207/231/5 211/235/5 209/234/5 205/232/5
f 205/232/26 209/234/26 210/233/26 206/229/26
