{
    "asset" : {
        "generator" : "Khronos glTF Blender I/O v1.7.33",
        "version" : "2.0"
    },
    "scene" : 0,
    "scenes" : [
        {
            "name" : "Scene",
            "nodes" : [
                0
            ]
        }
    ],
    "nodes" : [
        {
            "mesh" : 0,
            "name" : "TV_2"
        }
    ],
    "materials" : [
        {
            "doubleSided" : true,
            "name" : "Grey",
            "pbrMetallicRoughness" : {
                "baseColorFactor" : [
                    0.1733514964580536,
                    0.1733514964580536,
                    0.1733514964580536,
                    1
                ],
                "metallicFactor" : 0,
                "roughnessFactor" : 0.5
            }
        },
        {
            "doubleSided" : true,
            "name" : "LightGrey",
            "pbrMetallicRoughness" : {
                "baseColorFactor" : [
                    0.25979551672935486,
                    0.25979551672935486,
                    0.25979551672935486,
                    1
                ],
                "metallicFactor" : 0,
                "roughnessFactor" : 0.5
            }
        },
        {
            "doubleSided" : true,
            "emissiveFactor" : [
                1,
                1,
                1
            ],
            "emissiveTexture" : {
                "index" : 0
            },
            "name" : "Texture_Signs",
            "pbrMetallicRoughness" : {}
        },
        {
            "doubleSided" : true,
            "name" : "MetalLight",
            "pbrMetallicRoughness" : {
                "baseColorFactor" : [
                    0.42001768946647644,
                    0.42001768946647644,
                    0.42001768946647644,
                    1
                ],
                "metallicFactor" : 0,
                "roughnessFactor" : 0.5
            }
        }
    ],
    "meshes" : [
        {
            "name" : "Cylinder.016",
            "primitives" : [
                {
                    "attributes" : {
                        "POSITION" : 0,
                        "NORMAL" : 1,
                        "TEXCOORD_0" : 2
                    },
                    "indices" : 3,
                    "material" : 0
                },
                {
                    "attributes" : {
                        "POSITION" : 4,
                        "NORMAL" : 5,
                        "TEXCOORD_0" : 6
                    },
                    "indices" : 7,
                    "material" : 1
                },
                {
                    "attributes" : {
                        "POSITION" : 8,
                        "NORMAL" : 9,
                        "TEXCOORD_0" : 10
                    },
                    "indices" : 11,
                    "material" : 2
                },
                {
                    "attributes" : {
                        "POSITION" : 12,
                        "NORMAL" : 13,
                        "TEXCOORD_0" : 14
                    },
                    "indices" : 15,
                    "material" : 3
                }
            ]
        }
    ],
    "textures" : [
        {
            "sampler" : 0,
            "source" : 0
        }
    ],
    "images" : [
        {
            "bufferView" : 12,
            "mimeType" : "image/png",
            "name" : "Sign"
        }
    ],
    "accessors" : [
        {
            "bufferView" : 0,
            "componentType" : 5126,
            "count" : 156,
            "max" : [
                0.1723974049091339,
                0.26954203844070435,
                0.065994992852211
            ],
            "min" : [
                -0.17239739000797272,
                -0.17239747941493988,
                -0.23661445081233978
            ],
            "type" : "VEC3"
        },
        {
            "bufferView" : 1,
            "componentType" : 5126,
            "count" : 156,
            "type" : "VEC3"
        },
        {
            "bufferView" : 2,
            "componentType" : 5126,
            "count" : 156,
            "type" : "VEC2"
        },
        {
            "bufferView" : 3,
            "componentType" : 5123,
            "count" : 246,
            "type" : "SCALAR"
        },
        {
            "bufferView" : 4,
            "componentType" : 5126,
            "count" : 138,
            "max" : [
                0.17239739000797272,
                0.17239730060100555,
                0.10818034410476685
            ],
            "min" : [
                -0.17239739000797272,
                -0.17239747941493988,
                0.0032248119823634624
            ],
            "type" : "VEC3"
        },
        {
            "bufferView" : 5,
            "componentType" : 5126,
            "count" : 138,
            "type" : "VEC3"
        },
        {
            "bufferView" : 6,
            "componentType" : 5126,
            "count" : 138,
            "type" : "VEC2"
        },
        {
            "bufferView" : 7,
            "componentType" : 5123,
            "count" : 216,
            "type" : "SCALAR"
        },
        {
            "bufferView" : 8,
            "componentType" : 5126,
            "count" : 52,
            "max" : [
                0.14664693176746368,
                0.14664679765701294,
                0.06607889384031296
            ],
            "min" : [
                -0.1466469168663025,
                -0.14664703607559204,
                0.06607887893915176
            ],
            "type" : "VEC3"
        },
        {
            "bufferView" : 9,
            "componentType" : 5126,
            "count" : 52,
            "type" : "VEC3"
        },
        {
            "bufferView" : 10,
            "componentType" : 5126,
            "count" : 52,
            "type" : "VEC2"
        },
        {
            "bufferView" : 11,
            "componentType" : 5123,
            "count" : 102,
            "type" : "SCALAR"
        },
        {
            "bufferView" : 13,
            "componentType" : 5126,
            "count" : 296,
            "max" : [
                0.6340761184692383,
                0.9852046966552734,
                0.06426496058702469
            ],
            "min" : [
                -0.06018095463514328,
                -0.22660285234451294,
                -0.08362190425395966
            ],
            "type" : "VEC3"
        },
        {
            "bufferView" : 14,
            "componentType" : 5126,
            "count" : 296,
            "type" : "VEC3"
        },
        {
            "bufferView" : 15,
            "componentType" : 5126,
            "count" : 296,
            "type" : "VEC2"
        },
        {
            "bufferView" : 16,
            "componentType" : 5123,
            "count" : 444,
            "type" : "SCALAR"
        }
    ],
    "bufferViews" : [
        {
            "buffer" : 0,
            "byteLength" : 1872,
            "byteOffset" : 0
        },
        {
            "buffer" : 0,
            "byteLength" : 1872,
            "byteOffset" : 1872
        },
        {
            "buffer" : 0,
            "byteLength" : 1248,
            "byteOffset" : 3744
        },
        {
            "buffer" : 0,
            "byteLength" : 492,
            "byteOffset" : 4992
        },
        {
            "buffer" : 0,
            "byteLength" : 1656,
            "byteOffset" : 5484
        },
        {
            "buffer" : 0,
            "byteLength" : 1656,
            "byteOffset" : 7140
        },
        {
            "buffer" : 0,
            "byteLength" : 1104,
            "byteOffset" : 8796
        },
        {
            "buffer" : 0,
            "byteLength" : 432,
            "byteOffset" : 9900
        },
        {
            "buffer" : 0,
            "byteLength" : 624,
            "byteOffset" : 10332
        },
        {
            "buffer" : 0,
            "byteLength" : 624,
            "byteOffset" : 10956
        },
        {
            "buffer" : 0,
            "byteLength" : 416,
            "byteOffset" : 11580
        },
        {
            "buffer" : 0,
            "byteLength" : 204,
            "byteOffset" : 11996
        },
        {
            "buffer" : 0,
            "byteLength" : 321879,
            "byteOffset" : 12200
        },
        {
            "buffer" : 0,
            "byteLength" : 3552,
            "byteOffset" : 334080
        },
        {
            "buffer" : 0,
            "byteLength" : 3552,
            "byteOffset" : 337632
        },
        {
            "buffer" : 0,
            "byteLength" : 2368,
            "byteOffset" : 341184
        },
        {
            "buffer" : 0,
            "byteLength" : 888,
            "byteOffset" : 343552
        }
    ],
    "samplers" : [
        {
            "magFilter" : 9729,
            "minFilter" : 9987
        }
    ],
    "buffers" : [
        {
            "byteLength" : 344440,
            "uri" : "data:application/octet-stream;base64,"
        }
    ]
}
