{
  "accessors": [
    {
      "bufferView": 2,
      "componentType": 5126,
      "count": 21876,
      "max": [
        3.7562360763549805,
        3.7733280658721924,
        16.345592498779297
      ],
      "min": [
        -8.025442123413086,
        -6.129799842834473,
        -0.2171120047569275
      ],
      "type": "VEC3"
    },
    {
      "bufferView": 2,
      "byteOffset": 262512,
      "componentType": 5126,
      "count": 21876,
      "max": [
        0.9995734095573425,
        0.9999147653579712,
        0.9999867677688599
      ],
      "min": [
        -0.9995733499526978,
        -0.9999114274978638,
        -0.9999867677688599
      ],
      "type": "VEC3"
    },
    {
      "bufferView": 1,
      "componentType": 5126,
      "count": 21876,
      "max": [
        1.0,
        1.0
      ],
      "min": [
        0.0,
        0.0
      ],
      "type": "VEC2"
    },
    {
      "bufferView": 0,
      "componentType": 5125,
      "count": 119772,
      "type": "SCALAR"
    },
    {
      "bufferView": 2,
      "byteOffset": 525024,
      "componentType": 5126,
      "count": 159,
      "max": [
        -7.509040832519531,
        -3.779918909072876,
        12.929633140563965
      ],
      "min": [
        -8.278938293457031,
        -4.048684120178223,
        12.257325172424316
      ],
      "type": "VEC3"
    },
    {
      "bufferView": 2,
      "byteOffset": 526932,
      "componentType": 5126,
      "count": 159,
      "max": [
        0.9687287211418152,
        0.975834846496582,
        0.9700435996055603
      ],
      "min": [
        -0.9645261168479919,
        -0.9761393666267395,
        -0.9930035471916199
      ],
      "type": "VEC3"
    },
    {
      "bufferView": 1,
      "byteOffset": 175008,
      "componentType": 5126,
      "count": 159,
      "max": [
        0.875,
        1.0
      ],
      "min": [
        0.125,
        0.0
      ],
      "type": "VEC2"
    },
    {
      "bufferView": 0,
      "byteOffset": 479088,
      "componentType": 5125,
      "count": 720,
      "type": "SCALAR"
    },
    {
      "bufferView": 2,
      "byteOffset": 528840,
      "componentType": 5126,
      "count": 36,
      "max": [
        -7.671163082122803,
        -3.238770008087158,
        13.18857479095459
      ],
      "min": [
        -8.467845916748047,
        -4.798508167266846,
        12.204641342163086
      ],
      "type": "VEC3"
    },
    {
      "bufferView": 2,
      "byteOffset": 529272,
      "componentType": 5126,
      "count": 36,
      "max": [
        -0.41601330041885376,
        0.31399983167648315,
        0.7423229217529297
      ],
      "min": [
        -0.747114896774292,
        -0.6910220384597778,
        0.5911188721656799
      ],
      "type": "VEC3"
    },
    {
      "bufferView": 1,
      "byteOffset": 176280,
      "componentType": 5126,
      "count": 36,
      "max": [
        1.0,
        1.0
      ],
      "min": [
        0.0,
        0.0
      ],
      "type": "VEC2"
    },
    {
      "bufferView": 0,
      "byteOffset": 481968,
      "componentType": 5125,
      "count": 96,
      "type": "SCALAR"
    },
    {
      "bufferView": 2,
      "byteOffset": 529704,
      "componentType": 5126,
      "count": 814,
      "max": [
        -0.08149299770593643,
        -0.2324109971523285,
        15.481565475463867
      ],
      "min": [
        -2.553328037261963,
        -3.243640899658203,
        14.017953872680664
      ],
      "type": "VEC3"
    },
    {
      "bufferView": 2,
      "byteOffset": 539472,
      "componentType": 5126,
      "count": 814,
      "max": [
        0.9885361790657043,
        0.9995586276054382,
        0.9905782341957092
      ],
      "min": [
        -0.9905934929847717,
        -0.994114339351654,
        -0.990343451499939
      ],
      "type": "VEC3"
    },
    {
      "bufferView": 1,
      "byteOffset": 176568,
      "componentType": 5126,
      "count": 814,
      "max": [
        1.0,
        1.0269490480422974
      ],
      "min": [
        0.0,
        0.0
      ],
      "type": "VEC2"
    },
    {
      "bufferView": 0,
      "byteOffset": 482352,
      "componentType": 5125,
      "count": 2580,
      "type": "SCALAR"
    },
    {
      "bufferView": 2,
      "byteOffset": 549240,
      "componentType": 5126,
      "count": 11917,
      "max": [
        6.194943904876709,
        4.371504783630371,
        18.295089721679688
      ],
      "min": [
        -7.272499084472656,
        -4.384424209594727,
        0.0011020000092685223
      ],
      "type": "VEC3"
    },
    {
      "bufferView": 2,
      "byteOffset": 692244,
      "componentType": 5126,
      "count": 11917,
      "max": [
        1.0,
        1.0,
        1.0
      ],
      "min": [
        -1.0,
        -1.0,
        -1.0
      ],
      "type": "VEC3"
    },
    {
      "bufferView": 1,
      "byteOffset": 183080,
      "componentType": 5126,
      "count": 11917,
      "max": [
        1.001541018486023,
        1.0
      ],
      "min": [
        -0.0015849999617785215,
        0.0
      ],
      "type": "VEC2"
    },
    {
      "bufferView": 0,
      "byteOffset": 492672,
      "componentType": 5125,
      "count": 67458,
      "type": "SCALAR"
    },
    {
      "bufferView": 2,
      "byteOffset": 835248,
      "componentType": 5126,
      "count": 286,
      "max": [
        -0.020395999774336815,
        0.10849399864673615,
        16.255767822265625
      ],
      "min": [
        -2.257810115814209,
        -3.4741098880767822,
        12.989386558532715
      ],
      "type": "VEC3"
    },
    {
      "bufferView": 2,
      "byteOffset": 838680,
      "componentType": 5126,
      "count": 286,
      "max": [
        -0.14840790629386902,
        0.15089887380599976,
        0.7203759551048279
      ],
      "min": [
        -0.9999951124191284,
        -0.9661380052566528,
        -0.7926964163780212
      ],
      "type": "VEC3"
    },
    {
      "bufferView": 1,
      "byteOffset": 278416,
      "componentType": 5126,
      "count": 286,
      "max": [
        1.0,
        1.0
      ],
      "min": [
        0.0,
        1.0
      ],
      "type": "VEC2"
    },
    {
      "bufferView": 0,
      "byteOffset": 762504,
      "componentType": 5125,
      "count": 1440,
      "type": "SCALAR"
    },
    {
      "bufferView": 2,
      "byteOffset": 842112,
      "componentType": 5126,
      "count": 5532,
      "max": [
        3.229280948638916,
        1.8359700441360474,
        18.27859878540039
      ],
      "min": [
        -2.377656936645508,
        -3.243191957473755,
        12.673810005187988
      ],
      "type": "VEC3"
    },
    {
      "bufferView": 2,
      "byteOffset": 908496,
      "componentType": 5126,
      "count": 5532,
      "max": [
        0.9996446967124939,
        0.9459611773490906,
        0.9981520771980286
      ],
      "min": [
        -0.9992368221282959,
        -0.9387219548225403,
        -0.9995222687721252
      ],
      "type": "VEC3"
    },
    {
      "bufferView": 1,
      "byteOffset": 280704,
      "componentType": 5126,
      "count": 5532,
      "max": [
        1.0,
        1.0
      ],
      "min": [
        0.0,
        0.0
      ],
      "type": "VEC2"
    },
    {
      "bufferView": 0,
      "byteOffset": 768264,
      "componentType": 5125,
      "count": 33024,
      "type": "SCALAR"
    }
  ],
  "asset": {
    "extras": {
      "author": "ArbitraryCanary (https://sketchfab.com/ArbitraryCanary)",
      "license": "CC-BY-4.0 (http://creativecommons.org/licenses/by/4.0/)",
      "source": "https://sketchfab.com/3d-models/k-vrc-love-death-robots-1a89dbad3a894642958405728ba66d9d",
      "title": "K-VRC | Love, Death + Robots"
    },
    "generator": "Sketchfab-12.68.0",
    "version": "2.0"
  },
  "bufferViews": [
    {
      "buffer": 0,
      "byteLength": 900360,
      "name": "floatBufferViews",
      "target": 34963
    },
    {
      "buffer": 0,
      "byteLength": 324960,
      "byteOffset": 900360,
      "byteStride": 8,
      "name": "floatBufferViews",
      "target": 34962
    },
    {
      "buffer": 0,
      "byteLength": 974880,
      "byteOffset": 1225320,
      "byteStride": 12,
      "name": "floatBufferViews",
      "target": 34962
    }
  ],
  "buffers": [
    {
      "byteLength": 2200200,
      "uri": "scene.bin"
    }
  ],
  "materials": [
    {
      "doubleSided": true,
      "name": "BlackMetal",
      "pbrMetallicRoughness": {
        "baseColorFactor": [
          0.1002182397306339,
          0.1002182397306339,
          0.1002182397306339,
          1.0
        ],
        "roughnessFactor": 0.37868078482875195
      }
    },
    {
      "doubleSided": true,
      "name": "ButterflyBody",
      "pbrMetallicRoughness": {
        "baseColorFactor": [
          0.007149217809741786,
          0.004264529712215557,
          0.004264529712215557,
          1.0
        ],
        "metallicFactor": 0.0,
        "roughnessFactor": 0.7799722136086435
      }
    },
    {
      "doubleSided": true,
      "name": "ButterflyWings",
      "pbrMetallicRoughness": {
        "baseColorFactor": [
          0.3662382077054624,
          0.6790112365479921,
          0.8648245820318268,
          1.0
        ],
        "metallicFactor": 0.0,
        "roughnessFactor": 0.7374110014653218
      }
    },
    {
      "doubleSided": true,
      "emissiveFactor": [
        0.46395441760448036,
        0.9422688035381006,
        1.0
      ],
      "name": "Glow",
      "pbrMetallicRoughness": {
        "baseColorFactor": [
          0.37804815448034723,
          0.7089246669885647,
          0.8193024440314856,
          1.0
        ],
        "metallicFactor": 0.0,
        "roughnessFactor": 0.0
      }
    },
    {
      "doubleSided": true,
      "name": "OrangePaint",
      "pbrMetallicRoughness": {
        "baseColorFactor": [
          0.7579697625090449,
          0.14009119114733606,
          0.001515376709314623,
          1.0
        ],
        "metallicFactor": 0.0,
        "roughnessFactor": 0.36652043850208854
      }
    },
    {
      "doubleSided": true,
      "name": "Screen",
      "pbrMetallicRoughness": {
        "baseColorFactor": [
          0.007726100576177697,
          0.007726100576177697,
          0.007726100576177697,
          1.0
        ],
        "metallicFactor": 0.0,
        "roughnessFactor": 0.0
      }
    },
    {
      "doubleSided": true,
      "name": "Stripes",
      "pbrMetallicRoughness": {
        "baseColorFactor": [
          0.8928293248917687,
          0.617320266915398,
          0.3512256181735982,
          1.0
        ],
        "metallicFactor": 0.0,
        "roughnessFactor": 0.21451610941879626
      }
    }
  ],
  "meshes": [
    {
      "name": "Object_0",
      "primitives": [
        {
          "attributes": {
            "NORMAL": 1,
            "POSITION": 0,
            "TEXCOORD_0": 2
          },
          "indices": 3,
          "material": 0,
          "mode": 4
        }
      ]
    },
    {
      "name": "Object_1",
      "primitives": [
        {
          "attributes": {
            "NORMAL": 5,
            "POSITION": 4,
            "TEXCOORD_0": 6
          },
          "indices": 7,
          "material": 1,
          "mode": 4
        }
      ]
    },
    {
      "name": "Object_2",
      "primitives": [
        {
          "attributes": {
            "NORMAL": 9,
            "POSITION": 8,
            "TEXCOORD_0": 10
          },
          "indices": 11,
          "material": 2,
          "mode": 4
        }
      ]
    },
    {
      "name": "Object_3",
      "primitives": [
        {
          "attributes": {
            "NORMAL": 13,
            "POSITION": 12,
            "TEXCOORD_0": 14
          },
          "indices": 15,
          "material": 3,
          "mode": 4
        }
      ]
    },
    {
      "name": "Object_4",
      "primitives": [
        {
          "attributes": {
            "NORMAL": 17,
            "POSITION": 16,
            "TEXCOORD_0": 18
          },
          "indices": 19,
          "material": 4,
          "mode": 4
        }
      ]
    },
    {
      "name": "Object_5",
      "primitives": [
        {
          "attributes": {
            "NORMAL": 21,
            "POSITION": 20,
            "TEXCOORD_0": 22
          },
          "indices": 23,
          "material": 5,
          "mode": 4
        }
      ]
    },
    {
      "name": "Object_6",
      "primitives": [
        {
          "attributes": {
            "NORMAL": 25,
            "POSITION": 24,
            "TEXCOORD_0": 26
          },
          "indices": 27,
          "material": 6,
          "mode": 4
        }
      ]
    }
  ],
  "nodes": [
    {
      "children": [
        1
      ],
      "matrix": [
        1.0,
        0.0,
        0.0,
        0.0,
        0.0,
        2.220446049250313e-16,
        -1.0,
        0.0,
        0.0,
        1.0,
        2.220446049250313e-16,
        0.0,
        0.0,
        0.0,
        0.0,
        1.0
      ],
      "name": "Sketchfab_model"
    },
    {
      "children": [
        2,
        3,
        4,
        5,
        6,
        7,
        8
      ],
      "name": "19robot.obj.cleaner.materialmerger.gles"
    },
    {
      "mesh": 0,
      "name": "Object_2"
    },
    {
      "mesh": 1,
      "name": "Object_3"
    },
    {
      "mesh": 2,
      "name": "Object_4"
    },
    {
      "mesh": 3,
      "name": "Object_5"
    },
    {
      "mesh": 4,
      "name": "Object_6"
    },
    {
      "mesh": 5,
      "name": "Object_7"
    },
    {
      "mesh": 6,
      "name": "Object_8"
    }
  ],
  "scene": 0,
  "scenes": [
    {
      "name": "Sketchfab_Scene",
      "nodes": [
        0
      ]
    }
  ]
}
